solid 10mm-cube
facet normal 0.0 0.0 -1.0
  outer loop
    vertex 62.01587520975351 98.40642088928233 0.0
    vertex 52.01587520975351 88.40642088928232 0.0
    vertex 52.01587520975351 98.40642088928233 0.0
  endloop
endfacet
facet normal 0.0 0.0 -1.0
  outer loop
    vertex 52.01587520975351 88.40642088928232 0.0
    vertex 62.01587520975351 98.40642088928233 0.0
    vertex 62.01587520975351 88.40642088928232 0.0
  endloop
endfacet
facet normal 0.0 1.0 0.0
  outer loop
    vertex 52.01587520975351 98.40642088928233 10.0
    vertex 62.01587520975351 98.40642088928233 0.0
    vertex 52.01587520975351 98.40642088928233 0.0
  endloop
endfacet
facet normal 0.0 1.0 0.0
  outer loop
    vertex 62.01587520975351 98.40642088928233 0.0
    vertex 52.01587520975351 98.40642088928233 10.0
    vertex 62.01587520975351 98.40642088928233 10.0
  endloop
endfacet
facet normal -1.0 0.0 0.0
  outer loop
    vertex 52.01587520975351 98.40642088928233 10.0
    vertex 52.01587520975351 88.40642088928232 0.0
    vertex 52.01587520975351 88.40642088928232 10.0
  endloop
endfacet
facet normal -1.0 0.0 0.0
  outer loop
    vertex 52.01587520975351 88.40642088928232 0.0
    vertex 52.01587520975351 98.40642088928233 10.0
    vertex 52.01587520975351 98.40642088928233 0.0
  endloop
endfacet
facet normal 1.0 0.0 0.0
  outer loop
    vertex 62.01587520975351 98.40642088928233 0.0
    vertex 62.01587520975351 88.40642088928232 10.0
    vertex 62.01587520975351 88.40642088928232 0.0
  endloop
endfacet
facet normal 1.0 0.0 0.0
  outer loop
    vertex 62.01587520975351 88.40642088928232 10.0
    vertex 62.01587520975351 98.40642088928233 0.0
    vertex 62.01587520975351 98.40642088928233 10.0
  endloop
endfacet
facet normal -0.0 -1.0 -0.0
  outer loop
    vertex 62.01587520975351 88.40642088928232 10.0
    vertex 52.01587520975351 88.40642088928232 0.0
    vertex 62.01587520975351 88.40642088928232 0.0
  endloop
endfacet
facet normal -0.0 -1.0 -0.0
  outer loop
    vertex 52.01587520975351 88.40642088928232 0.0
    vertex 62.01587520975351 88.40642088928232 10.0
    vertex 52.01587520975351 88.40642088928232 10.0
  endloop
endfacet
facet normal 0.0 0.0 1.0
  outer loop
    vertex 62.01587520975351 88.40642088928232 10.0
    vertex 52.01587520975351 98.40642088928233 10.0
    vertex 52.01587520975351 88.40642088928232 10.0
  endloop
endfacet
facet normal 0.0 0.0 1.0
  outer loop
    vertex 52.01587520975351 98.40642088928233 10.0
    vertex 62.01587520975351 88.40642088928232 10.0
    vertex 62.01587520975351 98.40642088928233 10.0
  endloop
endfacet
endsolid 10mm-cube
