solid Untitled-569599c5
facet normal 1.0 0.0 7.65717179140834e-17
  outer loop
    vertex 2.7139073840540204 59.75129804980331 1.5915709999999836
    vertex 2.7139073840540204 4.409744507302241 25.18543999999998
    vertex 2.7139073840540204 4.409744507302241 1.5915709999999836
  endloop
endfacet
facet normal 1.0 0.0 7.65717179140834e-17
  outer loop
    vertex 2.7139073840540204 4.409744507302241 25.18543999999998
    vertex 2.7139073840540204 59.75129804980331 1.5915709999999836
    vertex 2.7139073840540204 59.75129804980331 25.18543999999998
  endloop
endfacet
facet normal 0.0 1.0 0.0
  outer loop
    vertex 0.0 64.48613499999999 25.18544
    vertex 131.61114199999997 64.48613499999999 0.0
    vertex 0.0 64.48613499999999 0.0
  endloop
endfacet
facet normal 0.0 1.0 0.0
  outer loop
    vertex 131.61114199999997 64.48613499999999 0.0
    vertex 0.0 64.48613499999999 25.18544
    vertex 131.61114199999997 64.48613499999999 25.18544
  endloop
endfacet
facet normal -3.630133226151573e-17 -7.630912300083985e-17 1.0
  outer loop
    vertex 0.0 0.0 25.18544
    vertex 2.7139073840540204 4.409744507302241 25.18543999999998
    vertex 0.0 64.48613499999999 25.18544
  endloop
endfacet
facet normal -3.630133226151573e-17 -7.630912300083985e-17 1.0
  outer loop
    vertex 2.7139073840540204 4.409744507302241 25.18543999999998
    vertex 0.0 0.0 25.18544
    vertex 131.61114199999997 0.0 25.18544
  endloop
endfacet
facet normal -3.630133226151573e-17 -7.630912300083985e-17 1.0
  outer loop
    vertex 2.7139073840540204 4.409744507302241 25.18543999999998
    vertex 131.61114199999997 0.0 25.18544
    vertex 131.61114199999997 4.409744507302241 25.18543999999998
  endloop
endfacet
facet normal -3.630133226151573e-17 -7.630912300083985e-17 1.0
  outer loop
    vertex 0.0 64.48613499999999 25.18544
    vertex 2.7139073840540204 59.75129804980331 25.18543999999998
    vertex 131.61114199999997 64.48613499999999 25.18544
  endloop
endfacet
facet normal -3.630133226151573e-17 -7.630912300083985e-17 1.0
  outer loop
    vertex 2.7139073840540204 59.75129804980331 25.18543999999998
    vertex 0.0 64.48613499999999 25.18544
    vertex 2.7139073840540204 4.409744507302241 25.18543999999998
  endloop
endfacet
facet normal -3.630133226151573e-17 -7.630912300083985e-17 1.0
  outer loop
    vertex 131.61114199999997 64.48613499999999 25.18544
    vertex 2.7139073840540204 59.75129804980331 25.18543999999998
    vertex 131.61114199999997 59.75129804980331 25.18544
  endloop
endfacet
facet normal -7.65717179140834e-17 -1.7834487933805098e-16 1.0
  outer loop
    vertex 131.61114199999997 4.409744507302241 1.5915709999999836
    vertex 2.7139073840540204 59.75129804980331 1.5915709999999836
    vertex 2.7139073840540204 4.409744507302241 1.5915709999999836
  endloop
endfacet
facet normal -7.65717179140834e-17 -1.7834487933805098e-16 1.0
  outer loop
    vertex 2.7139073840540204 59.75129804980331 1.5915709999999836
    vertex 131.61114199999997 4.409744507302241 1.5915709999999836
    vertex 131.61114199999997 59.75129804980331 1.5915710000000005
  endloop
endfacet
facet normal 2.731234758418896e-32 -1.0 -1.7834487933805098e-16
  outer loop
    vertex 131.61114199999997 59.75129804980331 1.5915710000000005
    vertex 2.7139073840540204 59.75129804980331 25.18543999999998
    vertex 2.7139073840540204 59.75129804980331 1.5915709999999836
  endloop
endfacet
facet normal 2.731234758418896e-32 -1.0 -1.7834487933805098e-16
  outer loop
    vertex 2.7139073840540204 59.75129804980331 25.18543999999998
    vertex 131.61114199999997 59.75129804980331 1.5915710000000005
    vertex 131.61114199999997 59.75129804980331 25.18544
  endloop
endfacet
facet normal 0.0 0.0 -1.0
  outer loop
    vertex 131.61114199999997 64.48613499999999 0.0
    vertex 0.0 0.0 0.0
    vertex 0.0 64.48613499999999 0.0
  endloop
endfacet
facet normal 0.0 0.0 -1.0
  outer loop
    vertex 0.0 0.0 0.0
    vertex 131.61114199999997 64.48613499999999 0.0
    vertex 131.61114199999997 0.0 0.0
  endloop
endfacet
facet normal 1.0 0.0 0.0
  outer loop
    vertex 131.61114199999997 0.0 0.0
    vertex 131.61114199999997 4.409744507302241 1.5915709999999836
    vertex 131.61114199999997 0.0 25.18544
  endloop
endfacet
facet normal 1.0 0.0 0.0
  outer loop
    vertex 131.61114199999997 4.409744507302241 1.5915709999999836
    vertex 131.61114199999997 0.0 0.0
    vertex 131.61114199999997 64.48613499999999 0.0
  endloop
endfacet
facet normal 1.0 0.0 0.0
  outer loop
    vertex 131.61114199999997 4.409744507302241 1.5915709999999836
    vertex 131.61114199999997 64.48613499999999 0.0
    vertex 131.61114199999997 59.75129804980331 1.5915710000000005
  endloop
endfacet
facet normal 1.0 0.0 0.0
  outer loop
    vertex 131.61114199999997 59.75129804980331 1.5915710000000005
    vertex 131.61114199999997 64.48613499999999 0.0
    vertex 131.61114199999997 59.75129804980331 25.18544
  endloop
endfacet
facet normal 1.0 0.0 0.0
  outer loop
    vertex 131.61114199999997 59.75129804980331 25.18544
    vertex 131.61114199999997 64.48613499999999 0.0
    vertex 131.61114199999997 64.48613499999999 25.18544
  endloop
endfacet
facet normal 1.0 0.0 0.0
  outer loop
    vertex 131.61114199999997 4.409744507302241 25.18543999999998
    vertex 131.61114199999997 0.0 25.18544
    vertex 131.61114199999997 4.409744507302241 1.5915709999999836
  endloop
endfacet
facet normal -1.0 0.0 0.0
  outer loop
    vertex 0.0 64.48613499999999 25.18544
    vertex 0.0 0.0 0.0
    vertex 0.0 0.0 25.18544
  endloop
endfacet
facet normal -1.0 0.0 0.0
  outer loop
    vertex 0.0 0.0 0.0
    vertex 0.0 64.48613499999999 25.18544
    vertex 0.0 64.48613499999999 0.0
  endloop
endfacet
facet normal -0.0 -1.0 -0.0
  outer loop
    vertex 131.61114199999997 0.0 25.18544
    vertex 0.0 0.0 0.0
    vertex 131.61114199999997 0.0 0.0
  endloop
endfacet
facet normal -0.0 -1.0 -0.0
  outer loop
    vertex 0.0 0.0 0.0
    vertex 131.61114199999997 0.0 25.18544
    vertex 0.0 0.0 25.18544
  endloop
endfacet
facet normal 0.0 1.0 1.7834487933805098e-16
  outer loop
    vertex 2.7139073840540204 4.409744507302241 25.18543999999998
    vertex 131.61114199999997 4.409744507302241 1.5915709999999836
    vertex 2.7139073840540204 4.409744507302241 1.5915709999999836
  endloop
endfacet
facet normal 0.0 1.0 1.7834487933805098e-16
  outer loop
    vertex 131.61114199999997 4.409744507302241 1.5915709999999836
    vertex 2.7139073840540204 4.409744507302241 25.18543999999998
    vertex 131.61114199999997 4.409744507302241 25.18543999999998
  endloop
endfacet
endsolid Untitled-569599c5
