solid 20mm-cube
facet normal 0.0 0.0 -1.0
  outer loop
    vertex 78.4839211182591 119.53825932595495 0.0
    vertex 58.483921118259104 99.53825932595495 0.0
    vertex 58.483921118259104 119.53825932595495 0.0
  endloop
endfacet
facet normal 0.0 0.0 -1.0
  outer loop
    vertex 58.483921118259104 99.53825932595495 0.0
    vertex 78.4839211182591 119.53825932595495 0.0
    vertex 78.4839211182591 99.53825932595495 0.0
  endloop
endfacet
facet normal -0.0 -1.0 -0.0
  outer loop
    vertex 78.4839211182591 99.53825932595495 20.0
    vertex 58.483921118259104 99.53825932595495 0.0
    vertex 78.4839211182591 99.53825932595495 0.0
  endloop
endfacet
facet normal -0.0 -1.0 -0.0
  outer loop
    vertex 58.483921118259104 99.53825932595495 0.0
    vertex 78.4839211182591 99.53825932595495 20.0
    vertex 58.483921118259104 99.53825932595495 20.0
  endloop
endfacet
facet normal 1.0 0.0 0.0
  outer loop
    vertex 78.4839211182591 119.53825932595495 0.0
    vertex 78.4839211182591 99.53825932595495 20.0
    vertex 78.4839211182591 99.53825932595495 0.0
  endloop
endfacet
facet normal 1.0 0.0 0.0
  outer loop
    vertex 78.4839211182591 99.53825932595495 20.0
    vertex 78.4839211182591 119.53825932595495 0.0
    vertex 78.4839211182591 119.53825932595495 20.0
  endloop
endfacet
facet normal -1.0 0.0 0.0
  outer loop
    vertex 58.483921118259104 119.53825932595495 20.0
    vertex 58.483921118259104 99.53825932595495 0.0
    vertex 58.483921118259104 99.53825932595495 20.0
  endloop
endfacet
facet normal -1.0 0.0 0.0
  outer loop
    vertex 58.483921118259104 99.53825932595495 0.0
    vertex 58.483921118259104 119.53825932595495 20.0
    vertex 58.483921118259104 119.53825932595495 0.0
  endloop
endfacet
facet normal 0.0 1.0 0.0
  outer loop
    vertex 58.483921118259104 119.53825932595495 20.0
    vertex 78.4839211182591 119.53825932595495 0.0
    vertex 58.483921118259104 119.53825932595495 0.0
  endloop
endfacet
facet normal 0.0 1.0 0.0
  outer loop
    vertex 78.4839211182591 119.53825932595495 0.0
    vertex 58.483921118259104 119.53825932595495 20.0
    vertex 78.4839211182591 119.53825932595495 20.0
  endloop
endfacet
facet normal 0.0 0.0 1.0
  outer loop
    vertex 78.4839211182591 99.53825932595495 20.0
    vertex 58.483921118259104 119.53825932595495 20.0
    vertex 58.483921118259104 99.53825932595495 20.0
  endloop
endfacet
facet normal 0.0 0.0 1.0
  outer loop
    vertex 58.483921118259104 119.53825932595495 20.0
    vertex 78.4839211182591 99.53825932595495 20.0
    vertex 78.4839211182591 119.53825932595495 20.0
  endloop
endfacet
endsolid 20mm-cube
