solid heater shelf
facet normal -1.0 0.0 0.0
  outer loop
    vertex 67.47136960623344 6.773842149472894 60.0
    vertex 67.47136960623342 22.876064670605686 45.776457135307574
    vertex 67.47136960623344 6.773842149472894 0.0
  endloop
endfacet
facet normal -1.0 0.0 0.0
  outer loop
    vertex 67.47136960623342 22.876064670605686 45.776457135307574
    vertex 67.47136960623344 6.773842149472894 60.0
    vertex 67.47136960623342 23.17576593811957 46.50000000000001
  endloop
endfacet
facet normal -1.0 0.0 0.0
  outer loop
    vertex 67.47136960623342 23.17576593811957 46.50000000000001
    vertex 67.47136960623344 6.773842149472894 60.0
    vertex 67.47136960623342 23.65252180591325 47.12132034355965
  endloop
endfacet
facet normal -1.0 0.0 0.0
  outer loop
    vertex 67.47136960623342 23.65252180591325 47.12132034355965
    vertex 67.47136960623344 6.773842149472894 60.0
    vertex 67.47136960623342 24.27384214947289 47.59807621135332
  endloop
endfacet
facet normal -1.0 0.0 0.0
  outer loop
    vertex 67.47136960623342 24.27384214947289 47.59807621135332
    vertex 67.47136960623344 6.773842149472894 60.0
    vertex 67.47136960623342 24.997385014165324 47.89777747886721
  endloop
endfacet
facet normal -1.0 0.0 0.0
  outer loop
    vertex 67.47136960623342 24.997385014165324 47.89777747886721
    vertex 67.47136960623344 6.773842149472894 60.0
    vertex 67.47136960623342 25.77384214947289 48.00000000000001
  endloop
endfacet
facet normal -1.0 0.0 0.0
  outer loop
    vertex 67.47136960623342 25.77384214947289 48.00000000000001
    vertex 67.47136960623344 6.773842149472894 60.0
    vertex 67.47136960623344 124.77384214947288 60.0
  endloop
endfacet
facet normal -1.0 0.0 0.0
  outer loop
    vertex 67.47136960623344 6.773842149472894 0.0
    vertex 67.47136960623342 22.876064670605686 45.776457135307574
    vertex 67.47136960623342 22.77384214947289 45.00000000000001
  endloop
endfacet
facet normal -1.0 0.0 0.0
  outer loop
    vertex 67.47136960623342 25.77384214947289 48.00000000000001
    vertex 67.47136960623344 124.77384214947288 60.0
    vertex 67.47136960623342 26.550299284780454 47.89777747886721
  endloop
endfacet
facet normal -1.0 0.0 0.0
  outer loop
    vertex 67.47136960623342 26.550299284780454 47.89777747886721
    vertex 67.47136960623344 124.77384214947288 60.0
    vertex 67.47136960623342 27.273842149472888 47.59807621135332
  endloop
endfacet
facet normal -1.0 0.0 0.0
  outer loop
    vertex 67.47136960623342 27.273842149472888 47.59807621135332
    vertex 67.47136960623344 124.77384214947288 60.0
    vertex 67.47136960623342 27.895162493032533 47.12132034355965
  endloop
endfacet
facet normal -1.0 0.0 0.0
  outer loop
    vertex 67.47136960623342 27.895162493032533 47.12132034355965
    vertex 67.47136960623344 124.77384214947288 60.0
    vertex 67.47136960623342 28.371918360826207 46.500000000000014
  endloop
endfacet
facet normal -1.0 0.0 0.0
  outer loop
    vertex 67.47136960623342 28.371918360826207 46.500000000000014
    vertex 67.47136960623344 124.77384214947288 60.0
    vertex 67.47136960623342 28.671619628340096 45.776457135307574
  endloop
endfacet
facet normal -1.0 0.0 0.0
  outer loop
    vertex 67.47136960623342 28.671619628340096 45.776457135307574
    vertex 67.47136960623344 124.77384214947288 60.0
    vertex 67.47136960623342 28.77384214947289 45.00000000000001
  endloop
endfacet
facet normal -1.0 0.0 0.0
  outer loop
    vertex 67.47136960623342 28.77384214947289 45.00000000000001
    vertex 67.47136960623344 124.77384214947288 60.0
    vertex 67.47136960623342 104.2738421494729 47.59807621135332
  endloop
endfacet
facet normal -1.0 0.0 0.0
  outer loop
    vertex 67.47136960623342 28.77384214947289 45.00000000000001
    vertex 67.47136960623342 104.2738421494729 47.59807621135332
    vertex 67.47136960623342 103.65252180591325 47.121320343559645
  endloop
endfacet
facet normal -1.0 0.0 0.0
  outer loop
    vertex 67.47136960623342 28.77384214947289 45.00000000000001
    vertex 67.47136960623342 103.65252180591325 47.121320343559645
    vertex 67.47136960623342 103.1757659381196 46.50000000000001
  endloop
endfacet
facet normal -1.0 0.0 0.0
  outer loop
    vertex 67.47136960623342 28.77384214947289 45.00000000000001
    vertex 67.47136960623342 103.1757659381196 46.50000000000001
    vertex 67.47136960623342 102.87606467060569 45.776457135307574
  endloop
endfacet
facet normal -1.0 0.0 0.0
  outer loop
    vertex 67.47136960623342 28.77384214947289 45.00000000000001
    vertex 67.47136960623342 102.87606467060569 45.776457135307574
    vertex 67.47136960623342 102.7738421494729 45.00000000000001
  endloop
endfacet
facet normal -1.0 0.0 0.0
  outer loop
    vertex 67.47136960623342 104.2738421494729 47.59807621135332
    vertex 67.47136960623344 124.77384214947288 60.0
    vertex 67.47136960623342 104.99738501416533 47.897777478867205
  endloop
endfacet
facet normal -1.0 0.0 0.0
  outer loop
    vertex 67.47136960623342 104.99738501416533 47.897777478867205
    vertex 67.47136960623344 124.77384214947288 60.0
    vertex 67.47136960623342 105.7738421494729 48.0
  endloop
endfacet
facet normal -1.0 0.0 0.0
  outer loop
    vertex 67.47136960623342 105.7738421494729 48.0
    vertex 67.47136960623344 124.77384214947288 60.0
    vertex 67.47136960623342 106.55029928478045 47.897777478867205
  endloop
endfacet
facet normal -1.0 0.0 0.0
  outer loop
    vertex 67.47136960623342 106.55029928478045 47.897777478867205
    vertex 67.47136960623344 124.77384214947288 60.0
    vertex 67.47136960623342 107.2738421494729 47.59807621135332
  endloop
endfacet
facet normal -1.0 0.0 0.0
  outer loop
    vertex 67.47136960623342 107.2738421494729 47.59807621135332
    vertex 67.47136960623344 124.77384214947288 60.0
    vertex 67.47136960623342 107.89516249303254 47.121320343559645
  endloop
endfacet
facet normal -1.0 0.0 0.0
  outer loop
    vertex 67.47136960623342 107.89516249303254 47.121320343559645
    vertex 67.47136960623344 124.77384214947288 60.0
    vertex 67.47136960623342 108.3719183608262 46.50000000000001
  endloop
endfacet
facet normal -1.0 0.0 0.0
  outer loop
    vertex 67.47136960623342 108.3719183608262 46.50000000000001
    vertex 67.47136960623344 124.77384214947288 60.0
    vertex 67.47136960623342 108.6716196283401 45.776457135307574
  endloop
endfacet
facet normal -1.0 0.0 0.0
  outer loop
    vertex 67.47136960623342 108.6716196283401 45.776457135307574
    vertex 67.47136960623344 124.77384214947288 60.0
    vertex 67.47136960623342 108.77384214947288 45.00000000000001
  endloop
endfacet
facet normal -1.0 0.0 0.0
  outer loop
    vertex 67.47136960623344 6.773842149472894 0.0
    vertex 67.47136960623342 24.27384214947289 42.40192378864669
    vertex 67.47136960623344 124.77384214947288 0.0
  endloop
endfacet
facet normal -1.0 0.0 0.0
  outer loop
    vertex 67.47136960623342 24.27384214947289 42.40192378864669
    vertex 67.47136960623344 6.773842149472894 0.0
    vertex 67.47136960623342 23.65252180591325 42.87867965644037
  endloop
endfacet
facet normal -1.0 0.0 0.0
  outer loop
    vertex 67.47136960623342 23.65252180591325 42.87867965644037
    vertex 67.47136960623344 6.773842149472894 0.0
    vertex 67.47136960623342 23.175765938119575 43.50000000000001
  endloop
endfacet
facet normal -1.0 0.0 0.0
  outer loop
    vertex 67.47136960623342 23.175765938119575 43.50000000000001
    vertex 67.47136960623344 6.773842149472894 0.0
    vertex 67.47136960623342 22.876064670605686 44.22354286469245
  endloop
endfacet
facet normal -1.0 0.0 0.0
  outer loop
    vertex 67.47136960623342 22.876064670605686 44.22354286469245
    vertex 67.47136960623344 6.773842149472894 0.0
    vertex 67.47136960623342 22.77384214947289 45.00000000000001
  endloop
endfacet
facet normal -1.0 0.0 0.0
  outer loop
    vertex 67.47136960623344 124.77384214947288 0.0
    vertex 67.47136960623342 24.27384214947289 42.40192378864669
    vertex 67.47136960623342 24.997385014165328 42.1022225211328
  endloop
endfacet
facet normal -1.0 0.0 0.0
  outer loop
    vertex 67.47136960623344 124.77384214947288 0.0
    vertex 67.47136960623342 24.997385014165328 42.1022225211328
    vertex 67.47136960623342 25.77384214947289 42.00000000000001
  endloop
endfacet
facet normal -1.0 0.0 0.0
  outer loop
    vertex 67.47136960623344 124.77384214947288 0.0
    vertex 67.47136960623342 25.77384214947289 42.00000000000001
    vertex 67.47136960623342 26.550299284780454 42.1022225211328
  endloop
endfacet
facet normal -1.0 0.0 0.0
  outer loop
    vertex 67.47136960623344 124.77384214947288 0.0
    vertex 67.47136960623342 26.550299284780454 42.1022225211328
    vertex 67.47136960623342 27.27384214947289 42.40192378864669
  endloop
endfacet
facet normal -1.0 0.0 0.0
  outer loop
    vertex 67.47136960623344 124.77384214947288 0.0
    vertex 67.47136960623342 27.27384214947289 42.40192378864669
    vertex 67.47136960623342 27.895162493032533 42.87867965644037
  endloop
endfacet
facet normal -1.0 0.0 0.0
  outer loop
    vertex 67.47136960623344 124.77384214947288 0.0
    vertex 67.47136960623342 27.895162493032533 42.87867965644037
    vertex 67.47136960623342 28.371918360826207 43.50000000000001
  endloop
endfacet
facet normal -1.0 0.0 0.0
  outer loop
    vertex 67.47136960623344 124.77384214947288 0.0
    vertex 67.47136960623342 28.371918360826207 43.50000000000001
    vertex 67.47136960623342 28.671619628340096 44.22354286469245
  endloop
endfacet
facet normal -1.0 0.0 0.0
  outer loop
    vertex 67.47136960623344 124.77384214947288 0.0
    vertex 67.47136960623342 28.671619628340096 44.22354286469245
    vertex 67.47136960623342 28.77384214947289 45.00000000000001
  endloop
endfacet
facet normal -1.0 0.0 0.0
  outer loop
    vertex 67.47136960623344 124.77384214947288 0.0
    vertex 67.47136960623342 28.77384214947289 45.00000000000001
    vertex 67.47136960623342 103.1757659381196 43.50000000000001
  endloop
endfacet
facet normal -1.0 0.0 0.0
  outer loop
    vertex 67.47136960623342 103.1757659381196 43.50000000000001
    vertex 67.47136960623342 28.77384214947289 45.00000000000001
    vertex 67.47136960623342 102.87606467060569 44.22354286469245
  endloop
endfacet
facet normal -1.0 0.0 0.0
  outer loop
    vertex 67.47136960623342 102.87606467060569 44.22354286469245
    vertex 67.47136960623342 28.77384214947289 45.00000000000001
    vertex 67.47136960623342 102.7738421494729 45.00000000000001
  endloop
endfacet
facet normal -1.0 0.0 0.0
  outer loop
    vertex 67.47136960623344 124.77384214947288 0.0
    vertex 67.47136960623342 103.1757659381196 43.50000000000001
    vertex 67.47136960623342 103.65252180591325 42.87867965644037
  endloop
endfacet
facet normal -1.0 0.0 0.0
  outer loop
    vertex 67.47136960623344 124.77384214947288 0.0
    vertex 67.47136960623342 103.65252180591325 42.87867965644037
    vertex 67.47136960623342 104.2738421494729 42.4019237886467
  endloop
endfacet
facet normal -1.0 0.0 0.0
  outer loop
    vertex 67.47136960623344 124.77384214947288 0.0
    vertex 67.47136960623342 104.2738421494729 42.4019237886467
    vertex 67.47136960623342 104.99738501416533 42.10222252113281
  endloop
endfacet
facet normal -1.0 0.0 0.0
  outer loop
    vertex 67.47136960623344 124.77384214947288 0.0
    vertex 67.47136960623342 104.99738501416533 42.10222252113281
    vertex 67.47136960623342 105.7738421494729 42.000000000000014
  endloop
endfacet
facet normal -1.0 0.0 0.0
  outer loop
    vertex 67.47136960623344 124.77384214947288 0.0
    vertex 67.47136960623342 105.7738421494729 42.000000000000014
    vertex 67.47136960623342 106.55029928478045 42.10222252113281
  endloop
endfacet
facet normal -1.0 0.0 0.0
  outer loop
    vertex 67.47136960623344 124.77384214947288 0.0
    vertex 67.47136960623342 106.55029928478045 42.10222252113281
    vertex 67.47136960623342 107.2738421494729 42.4019237886467
  endloop
endfacet
facet normal -1.0 0.0 0.0
  outer loop
    vertex 67.47136960623344 124.77384214947288 0.0
    vertex 67.47136960623342 107.2738421494729 42.4019237886467
    vertex 67.47136960623342 107.89516249303254 42.87867965644037
  endloop
endfacet
facet normal -1.0 0.0 0.0
  outer loop
    vertex 67.47136960623344 124.77384214947288 0.0
    vertex 67.47136960623342 107.89516249303254 42.87867965644037
    vertex 67.47136960623342 108.3719183608262 43.50000000000001
  endloop
endfacet
facet normal -1.0 0.0 0.0
  outer loop
    vertex 67.47136960623344 124.77384214947288 0.0
    vertex 67.47136960623342 108.3719183608262 43.50000000000001
    vertex 67.47136960623342 108.6716196283401 44.22354286469245
  endloop
endfacet
facet normal -1.0 0.0 0.0
  outer loop
    vertex 67.47136960623344 124.77384214947288 0.0
    vertex 67.47136960623342 108.6716196283401 44.22354286469245
    vertex 67.47136960623342 108.77384214947288 45.00000000000001
  endloop
endfacet
facet normal -1.0 0.0 0.0
  outer loop
    vertex 67.47136960623344 124.77384214947288 0.0
    vertex 67.47136960623342 108.77384214947288 45.00000000000001
    vertex 67.47136960623344 124.77384214947288 60.0
  endloop
endfacet
facet normal 0.0 0.0 1.0
  outer loop
    vertex 165.47136960623342 6.773842149472894 20.0
    vertex 126.47136960623341 10.773842149472893 20.0
    vertex 126.47136960623341 6.773842149472894 20.0
  endloop
endfacet
facet normal 0.0 0.0 1.0
  outer loop
    vertex 126.47136960623341 10.773842149472893 20.0
    vertex 165.47136960623342 6.773842149472894 20.0
    vertex 163.47136960623342 10.77384214947289 20.0
  endloop
endfacet
facet normal 0.0 0.0 1.0
  outer loop
    vertex 163.47136960623342 10.77384214947289 20.0
    vertex 165.47136960623342 6.773842149472894 20.0
    vertex 163.47136960623342 120.77384214947288 20.0
  endloop
endfacet
facet normal 0.0 0.0 1.0
  outer loop
    vertex 163.47136960623342 120.77384214947288 20.0
    vertex 126.47136960623341 124.77384214947288 20.0
    vertex 126.47136960623341 120.77384214947288 20.0
  endloop
endfacet
facet normal 0.0 0.0 1.0
  outer loop
    vertex 126.47136960623341 124.77384214947288 20.0
    vertex 163.47136960623342 120.77384214947288 20.0
    vertex 165.47136960623342 124.77384214947288 20.0
  endloop
endfacet
facet normal 0.0 0.0 1.0
  outer loop
    vertex 165.47136960623342 124.77384214947288 20.0
    vertex 163.47136960623342 120.77384214947288 20.0
    vertex 165.47136960623342 6.773842149472894 20.0
  endloop
endfacet
facet normal 0.0 -1.0 0.0
  outer loop
    vertex 165.47136960623342 6.773842149472894 20.0
    vertex 67.47136960623344 6.773842149472894 0.0
    vertex 165.47136960623342 6.773842149472894 0.0
  endloop
endfacet
facet normal 0.0 -1.0 0.0
  outer loop
    vertex 67.47136960623344 6.773842149472894 0.0
    vertex 165.47136960623342 6.773842149472894 20.0
    vertex 126.47136960623341 6.773842149472894 20.0
  endloop
endfacet
facet normal 0.0 -1.0 0.0
  outer loop
    vertex 67.47136960623344 6.773842149472894 0.0
    vertex 126.47136960623341 6.773842149472894 20.0
    vertex 67.47136960623344 6.773842149472894 60.0
  endloop
endfacet
facet normal 0.0 -1.0 0.0
  outer loop
    vertex 67.47136960623344 6.773842149472894 60.0
    vertex 126.47136960623341 6.773842149472894 20.0
    vertex 71.47136960623344 6.773842149472894 60.0
  endloop
endfacet
facet normal -1.0 0.0 0.0
  outer loop
    vertex 163.47136960623342 120.77384214947288 20.0
    vertex 163.47136960623342 10.77384214947289 5.0
    vertex 163.47136960623342 10.77384214947289 20.0
  endloop
endfacet
facet normal -1.0 0.0 0.0
  outer loop
    vertex 163.47136960623342 10.77384214947289 5.0
    vertex 163.47136960623342 120.77384214947288 20.0
    vertex 163.47136960623342 120.77384214947288 5.0
  endloop
endfacet
facet normal -3.526723743301829e-18 1.0 -7.936221980178988e-17
  outer loop
    vertex 71.47136960623344 10.773842149472893 60.0
    vertex 126.47136960623341 10.773842149472893 20.0
    vertex 71.47136960623342 10.77384214947289 20.0
  endloop
endfacet
facet normal -3.526723743301829e-18 1.0 -7.936221980178988e-17
  outer loop
    vertex 71.47136960623342 10.77384214947289 20.0
    vertex 163.47136960623342 10.77384214947289 5.0
    vertex 71.47136960623342 10.77384214947289 5.0
  endloop
endfacet
facet normal -3.526723743301829e-18 1.0 -7.936221980178988e-17
  outer loop
    vertex 163.47136960623342 10.77384214947289 5.0
    vertex 71.47136960623342 10.77384214947289 20.0
    vertex 163.47136960623342 10.77384214947289 20.0
  endloop
endfacet
facet normal -3.526723743301829e-18 1.0 -7.936221980178988e-17
  outer loop
    vertex 163.47136960623342 10.77384214947289 20.0
    vertex 71.47136960623342 10.77384214947289 20.0
    vertex 126.47136960623341 10.773842149472893 20.0
  endloop
endfacet
facet normal 0.0 -1.0 0.0
  outer loop
    vertex 163.47136960623342 120.77384214947288 20.0
    vertex 71.47136960623342 120.77384214947288 5.0
    vertex 163.47136960623342 120.77384214947288 5.0
  endloop
endfacet
facet normal 0.0 -1.0 0.0
  outer loop
    vertex 71.47136960623342 120.77384214947288 5.0
    vertex 163.47136960623342 120.77384214947288 20.0
    vertex 71.47136960623342 120.77384214947288 20.0
  endloop
endfacet
facet normal 0.0 -1.0 0.0
  outer loop
    vertex 71.47136960623342 120.77384214947288 20.0
    vertex 163.47136960623342 120.77384214947288 20.0
    vertex 126.47136960623341 120.77384214947288 20.0
  endloop
endfacet
facet normal 0.0 -1.0 0.0
  outer loop
    vertex 71.47136960623342 120.77384214947288 20.0
    vertex 126.47136960623341 120.77384214947288 20.0
    vertex 71.47136960623342 120.77384214947288 60.0
  endloop
endfacet
facet normal 0.0 0.0 -1.0
  outer loop
    vertex 165.47136960623342 124.77384214947288 0.0
    vertex 67.47136960623344 6.773842149472894 0.0
    vertex 67.47136960623344 124.77384214947288 0.0
  endloop
endfacet
facet normal 0.0 0.0 -1.0
  outer loop
    vertex 67.47136960623344 6.773842149472894 0.0
    vertex 165.47136960623342 124.77384214947288 0.0
    vertex 165.47136960623342 6.773842149472894 0.0
  endloop
endfacet
facet normal 0.0 0.0 1.0
  outer loop
    vertex 163.47136960623342 10.77384214947289 5.0
    vertex 71.47136960623342 120.77384214947288 5.0
    vertex 71.47136960623342 10.77384214947289 5.0
  endloop
endfacet
facet normal 0.0 0.0 1.0
  outer loop
    vertex 71.47136960623342 120.77384214947288 5.0
    vertex 163.47136960623342 10.77384214947289 5.0
    vertex 163.47136960623342 120.77384214947288 5.0
  endloop
endfacet
facet normal 1.0 5.73171436932289e-17 -1.0914781083377044e-16
  outer loop
    vertex 71.47136960623342 120.77384214947288 5.0
    vertex 71.47136960623342 10.77384214947289 20.0
    vertex 71.47136960623342 10.77384214947289 5.0
  endloop
endfacet
facet normal 1.0 5.73171436932289e-17 -1.0914781083377044e-16
  outer loop
    vertex 71.47136960623342 10.77384214947289 20.0
    vertex 71.47136960623342 120.77384214947288 5.0
    vertex 71.47136960623342 24.997385014165328 42.1022225211328
  endloop
endfacet
facet normal 1.0 5.73171436932289e-17 -1.0914781083377044e-16
  outer loop
    vertex 71.47136960623342 10.77384214947289 20.0
    vertex 71.47136960623342 24.997385014165328 42.1022225211328
    vertex 71.47136960623342 24.27384214947289 42.40192378864669
  endloop
endfacet
facet normal 1.0 5.73171436932289e-17 -1.0914781083377044e-16
  outer loop
    vertex 71.47136960623342 10.77384214947289 20.0
    vertex 71.47136960623342 24.27384214947289 42.40192378864669
    vertex 71.47136960623342 23.65252180591325 42.87867965644037
  endloop
endfacet
facet normal 1.0 5.73171436932289e-17 -1.0914781083377044e-16
  outer loop
    vertex 71.47136960623342 10.77384214947289 20.0
    vertex 71.47136960623342 23.65252180591325 42.87867965644037
    vertex 71.47136960623342 23.175765938119575 43.50000000000001
  endloop
endfacet
facet normal 1.0 5.73171436932289e-17 -1.0914781083377044e-16
  outer loop
    vertex 71.47136960623342 10.77384214947289 20.0
    vertex 71.47136960623342 23.175765938119575 43.50000000000001
    vertex 71.47136960623344 10.773842149472893 60.0
  endloop
endfacet
facet normal 1.0 5.73171436932289e-17 -1.0914781083377044e-16
  outer loop
    vertex 71.47136960623344 10.773842149472893 60.0
    vertex 71.47136960623342 23.175765938119575 43.50000000000001
    vertex 71.47136960623342 22.876064670605686 44.22354286469245
  endloop
endfacet
facet normal 1.0 5.73171436932289e-17 -1.0914781083377044e-16
  outer loop
    vertex 71.47136960623344 10.773842149472893 60.0
    vertex 71.47136960623342 22.876064670605686 44.22354286469245
    vertex 71.47136960623342 22.77384214947289 45.00000000000001
  endloop
endfacet
facet normal 1.0 5.73171436932289e-17 -1.0914781083377044e-16
  outer loop
    vertex 71.47136960623342 24.997385014165328 42.1022225211328
    vertex 71.47136960623342 120.77384214947288 5.0
    vertex 71.47136960623342 25.77384214947289 42.00000000000001
  endloop
endfacet
facet normal 1.0 5.73171436932289e-17 -1.0914781083377044e-16
  outer loop
    vertex 71.47136960623342 25.77384214947289 42.00000000000001
    vertex 71.47136960623342 120.77384214947288 5.0
    vertex 71.47136960623342 26.550299284780454 42.1022225211328
  endloop
endfacet
facet normal 1.0 5.73171436932289e-17 -1.0914781083377044e-16
  outer loop
    vertex 71.47136960623342 26.550299284780454 42.1022225211328
    vertex 71.47136960623342 120.77384214947288 5.0
    vertex 71.47136960623342 27.27384214947289 42.40192378864669
  endloop
endfacet
facet normal 1.0 5.73171436932289e-17 -1.0914781083377044e-16
  outer loop
    vertex 71.47136960623342 27.27384214947289 42.40192378864669
    vertex 71.47136960623342 120.77384214947288 5.0
    vertex 71.47136960623342 27.895162493032533 42.87867965644037
  endloop
endfacet
facet normal 1.0 5.73171436932289e-17 -1.0914781083377044e-16
  outer loop
    vertex 71.47136960623342 27.895162493032533 42.87867965644037
    vertex 71.47136960623342 120.77384214947288 5.0
    vertex 71.47136960623342 28.371918360826207 43.50000000000001
  endloop
endfacet
facet normal 1.0 5.73171436932289e-17 -1.0914781083377044e-16
  outer loop
    vertex 71.47136960623342 28.371918360826207 43.50000000000001
    vertex 71.47136960623342 120.77384214947288 5.0
    vertex 71.47136960623342 28.671619628340096 44.22354286469245
  endloop
endfacet
facet normal 1.0 5.73171436932289e-17 -1.0914781083377044e-16
  outer loop
    vertex 71.47136960623342 28.671619628340096 44.22354286469245
    vertex 71.47136960623342 120.77384214947288 5.0
    vertex 71.47136960623342 28.77384214947289 45.00000000000001
  endloop
endfacet
facet normal 1.0 5.73171436932289e-17 -1.0914781083377044e-16
  outer loop
    vertex 71.47136960623342 28.77384214947289 45.00000000000001
    vertex 71.47136960623342 120.77384214947288 5.0
    vertex 71.47136960623342 103.1757659381196 43.50000000000001
  endloop
endfacet
facet normal 1.0 5.73171436932289e-17 -1.0914781083377044e-16
  outer loop
    vertex 71.47136960623342 28.77384214947289 45.00000000000001
    vertex 71.47136960623342 103.1757659381196 43.50000000000001
    vertex 71.47136960623342 102.87606467060569 44.22354286469245
  endloop
endfacet
facet normal 1.0 5.73171436932289e-17 -1.0914781083377044e-16
  outer loop
    vertex 71.47136960623342 28.77384214947289 45.00000000000001
    vertex 71.47136960623342 102.87606467060569 44.22354286469245
    vertex 71.47136960623342 102.7738421494729 45.00000000000001
  endloop
endfacet
facet normal 1.0 5.73171436932289e-17 -1.0914781083377044e-16
  outer loop
    vertex 71.47136960623342 103.1757659381196 43.50000000000001
    vertex 71.47136960623342 120.77384214947288 5.0
    vertex 71.47136960623342 103.65252180591325 42.87867965644037
  endloop
endfacet
facet normal 1.0 5.73171436932289e-17 -1.0914781083377044e-16
  outer loop
    vertex 71.47136960623342 103.65252180591325 42.87867965644037
    vertex 71.47136960623342 120.77384214947288 5.0
    vertex 71.47136960623342 104.2738421494729 42.4019237886467
  endloop
endfacet
facet normal 1.0 5.73171436932289e-17 -1.0914781083377044e-16
  outer loop
    vertex 71.47136960623342 104.2738421494729 42.4019237886467
    vertex 71.47136960623342 120.77384214947288 5.0
    vertex 71.47136960623342 104.99738501416533 42.10222252113281
  endloop
endfacet
facet normal 1.0 5.73171436932289e-17 -1.0914781083377044e-16
  outer loop
    vertex 71.47136960623342 104.99738501416533 42.10222252113281
    vertex 71.47136960623342 120.77384214947288 5.0
    vertex 71.47136960623342 105.7738421494729 42.000000000000014
  endloop
endfacet
facet normal 1.0 5.73171436932289e-17 -1.0914781083377044e-16
  outer loop
    vertex 71.47136960623342 105.7738421494729 42.000000000000014
    vertex 71.47136960623342 120.77384214947288 5.0
    vertex 71.47136960623342 106.55029928478045 42.10222252113281
  endloop
endfacet
facet normal 1.0 5.73171436932289e-17 -1.0914781083377044e-16
  outer loop
    vertex 71.47136960623342 106.55029928478045 42.10222252113281
    vertex 71.47136960623342 120.77384214947288 5.0
    vertex 71.47136960623342 107.2738421494729 42.4019237886467
  endloop
endfacet
facet normal 1.0 5.73171436932289e-17 -1.0914781083377044e-16
  outer loop
    vertex 71.47136960623342 107.2738421494729 42.4019237886467
    vertex 71.47136960623342 120.77384214947288 5.0
    vertex 71.47136960623342 107.89516249303254 42.87867965644037
  endloop
endfacet
facet normal 1.0 5.73171436932289e-17 -1.0914781083377044e-16
  outer loop
    vertex 71.47136960623342 107.89516249303254 42.87867965644037
    vertex 71.47136960623342 120.77384214947288 5.0
    vertex 71.47136960623342 108.3719183608262 43.50000000000001
  endloop
endfacet
facet normal 1.0 5.73171436932289e-17 -1.0914781083377044e-16
  outer loop
    vertex 71.47136960623342 108.3719183608262 43.50000000000001
    vertex 71.47136960623342 120.77384214947288 5.0
    vertex 71.47136960623342 108.6716196283401 44.22354286469245
  endloop
endfacet
facet normal 1.0 5.73171436932289e-17 -1.0914781083377044e-16
  outer loop
    vertex 71.47136960623342 108.6716196283401 44.22354286469245
    vertex 71.47136960623342 120.77384214947288 5.0
    vertex 71.47136960623342 108.77384214947288 45.00000000000001
  endloop
endfacet
facet normal 1.0 5.73171436932289e-17 -1.0914781083377044e-16
  outer loop
    vertex 71.47136960623344 10.773842149472893 60.0
    vertex 71.47136960623342 25.77384214947289 48.00000000000001
    vertex 71.47136960623342 120.77384214947288 60.0
  endloop
endfacet
facet normal 1.0 5.73171436932289e-17 -1.0914781083377044e-16
  outer loop
    vertex 71.47136960623342 25.77384214947289 48.00000000000001
    vertex 71.47136960623344 10.773842149472893 60.0
    vertex 71.47136960623342 24.997385014165324 47.89777747886721
  endloop
endfacet
facet normal 1.0 5.73171436932289e-17 -1.0914781083377044e-16
  outer loop
    vertex 71.47136960623342 24.997385014165324 47.89777747886721
    vertex 71.47136960623344 10.773842149472893 60.0
    vertex 71.47136960623342 24.27384214947289 47.59807621135332
  endloop
endfacet
facet normal 1.0 5.73171436932289e-17 -1.0914781083377044e-16
  outer loop
    vertex 71.47136960623342 24.27384214947289 47.59807621135332
    vertex 71.47136960623344 10.773842149472893 60.0
    vertex 71.47136960623342 23.65252180591325 47.12132034355965
  endloop
endfacet
facet normal 1.0 5.73171436932289e-17 -1.0914781083377044e-16
  outer loop
    vertex 71.47136960623342 23.65252180591325 47.12132034355965
    vertex 71.47136960623344 10.773842149472893 60.0
    vertex 71.47136960623342 23.17576593811957 46.50000000000001
  endloop
endfacet
facet normal 1.0 5.73171436932289e-17 -1.0914781083377044e-16
  outer loop
    vertex 71.47136960623342 23.17576593811957 46.50000000000001
    vertex 71.47136960623344 10.773842149472893 60.0
    vertex 71.47136960623342 22.876064670605686 45.776457135307574
  endloop
endfacet
facet normal 1.0 5.73171436932289e-17 -1.0914781083377044e-16
  outer loop
    vertex 71.47136960623342 22.876064670605686 45.776457135307574
    vertex 71.47136960623344 10.773842149472893 60.0
    vertex 71.47136960623342 22.77384214947289 45.00000000000001
  endloop
endfacet
facet normal 1.0 5.73171436932289e-17 -1.0914781083377044e-16
  outer loop
    vertex 71.47136960623342 120.77384214947288 60.0
    vertex 71.47136960623342 25.77384214947289 48.00000000000001
    vertex 71.47136960623342 26.550299284780454 47.89777747886721
  endloop
endfacet
facet normal 1.0 5.73171436932289e-17 -1.0914781083377044e-16
  outer loop
    vertex 71.47136960623342 120.77384214947288 60.0
    vertex 71.47136960623342 26.550299284780454 47.89777747886721
    vertex 71.47136960623342 27.273842149472888 47.59807621135332
  endloop
endfacet
facet normal 1.0 5.73171436932289e-17 -1.0914781083377044e-16
  outer loop
    vertex 71.47136960623342 120.77384214947288 60.0
    vertex 71.47136960623342 27.273842149472888 47.59807621135332
    vertex 71.47136960623342 27.895162493032533 47.12132034355965
  endloop
endfacet
facet normal 1.0 5.73171436932289e-17 -1.0914781083377044e-16
  outer loop
    vertex 71.47136960623342 120.77384214947288 60.0
    vertex 71.47136960623342 27.895162493032533 47.12132034355965
    vertex 71.47136960623342 28.371918360826207 46.500000000000014
  endloop
endfacet
facet normal 1.0 5.73171436932289e-17 -1.0914781083377044e-16
  outer loop
    vertex 71.47136960623342 120.77384214947288 60.0
    vertex 71.47136960623342 28.371918360826207 46.500000000000014
    vertex 71.47136960623342 28.671619628340096 45.776457135307574
  endloop
endfacet
facet normal 1.0 5.73171436932289e-17 -1.0914781083377044e-16
  outer loop
    vertex 71.47136960623342 120.77384214947288 60.0
    vertex 71.47136960623342 28.671619628340096 45.776457135307574
    vertex 71.47136960623342 28.77384214947289 45.00000000000001
  endloop
endfacet
facet normal 1.0 5.73171436932289e-17 -1.0914781083377044e-16
  outer loop
    vertex 71.47136960623342 120.77384214947288 60.0
    vertex 71.47136960623342 28.77384214947289 45.00000000000001
    vertex 71.47136960623342 104.2738421494729 47.59807621135332
  endloop
endfacet
facet normal 1.0 5.73171436932289e-17 -1.0914781083377044e-16
  outer loop
    vertex 71.47136960623342 104.2738421494729 47.59807621135332
    vertex 71.47136960623342 28.77384214947289 45.00000000000001
    vertex 71.47136960623342 103.65252180591325 47.121320343559645
  endloop
endfacet
facet normal 1.0 5.73171436932289e-17 -1.0914781083377044e-16
  outer loop
    vertex 71.47136960623342 103.65252180591325 47.121320343559645
    vertex 71.47136960623342 28.77384214947289 45.00000000000001
    vertex 71.47136960623342 103.1757659381196 46.50000000000001
  endloop
endfacet
facet normal 1.0 5.73171436932289e-17 -1.0914781083377044e-16
  outer loop
    vertex 71.47136960623342 103.1757659381196 46.50000000000001
    vertex 71.47136960623342 28.77384214947289 45.00000000000001
    vertex 71.47136960623342 102.87606467060569 45.776457135307574
  endloop
endfacet
facet normal 1.0 5.73171436932289e-17 -1.0914781083377044e-16
  outer loop
    vertex 71.47136960623342 102.87606467060569 45.776457135307574
    vertex 71.47136960623342 28.77384214947289 45.00000000000001
    vertex 71.47136960623342 102.7738421494729 45.00000000000001
  endloop
endfacet
facet normal 1.0 5.73171436932289e-17 -1.0914781083377044e-16
  outer loop
    vertex 71.47136960623342 120.77384214947288 60.0
    vertex 71.47136960623342 104.2738421494729 47.59807621135332
    vertex 71.47136960623342 104.99738501416533 47.897777478867205
  endloop
endfacet
facet normal 1.0 5.73171436932289e-17 -1.0914781083377044e-16
  outer loop
    vertex 71.47136960623342 120.77384214947288 60.0
    vertex 71.47136960623342 104.99738501416533 47.897777478867205
    vertex 71.47136960623342 105.7738421494729 48.0
  endloop
endfacet
facet normal 1.0 5.73171436932289e-17 -1.0914781083377044e-16
  outer loop
    vertex 71.47136960623342 120.77384214947288 60.0
    vertex 71.47136960623342 105.7738421494729 48.0
    vertex 71.47136960623342 106.55029928478045 47.897777478867205
  endloop
endfacet
facet normal 1.0 5.73171436932289e-17 -1.0914781083377044e-16
  outer loop
    vertex 71.47136960623342 120.77384214947288 60.0
    vertex 71.47136960623342 106.55029928478045 47.897777478867205
    vertex 71.47136960623342 107.2738421494729 47.59807621135332
  endloop
endfacet
facet normal 1.0 5.73171436932289e-17 -1.0914781083377044e-16
  outer loop
    vertex 71.47136960623342 120.77384214947288 60.0
    vertex 71.47136960623342 107.2738421494729 47.59807621135332
    vertex 71.47136960623342 107.89516249303254 47.121320343559645
  endloop
endfacet
facet normal 1.0 5.73171436932289e-17 -1.0914781083377044e-16
  outer loop
    vertex 71.47136960623342 120.77384214947288 60.0
    vertex 71.47136960623342 107.89516249303254 47.121320343559645
    vertex 71.47136960623342 108.3719183608262 46.50000000000001
  endloop
endfacet
facet normal 1.0 5.73171436932289e-17 -1.0914781083377044e-16
  outer loop
    vertex 71.47136960623342 120.77384214947288 60.0
    vertex 71.47136960623342 108.3719183608262 46.50000000000001
    vertex 71.47136960623342 108.6716196283401 45.776457135307574
  endloop
endfacet
facet normal 1.0 5.73171436932289e-17 -1.0914781083377044e-16
  outer loop
    vertex 71.47136960623342 120.77384214947288 60.0
    vertex 71.47136960623342 108.6716196283401 45.776457135307574
    vertex 71.47136960623342 108.77384214947288 45.00000000000001
  endloop
endfacet
facet normal 1.0 5.73171436932289e-17 -1.0914781083377044e-16
  outer loop
    vertex 71.47136960623342 120.77384214947288 60.0
    vertex 71.47136960623342 108.77384214947288 45.00000000000001
    vertex 71.47136960623342 120.77384214947288 5.0
  endloop
endfacet
facet normal 1.0 5.73171436932289e-17 -1.0914781083377044e-16
  outer loop
    vertex 71.47136960623342 120.77384214947288 60.0
    vertex 71.47136960623342 120.77384214947288 5.0
    vertex 71.47136960623342 120.77384214947288 20.0
  endloop
endfacet
facet normal 1.0 0.0 0.0
  outer loop
    vertex 165.47136960623342 124.77384214947288 0.0
    vertex 165.47136960623342 6.773842149472894 20.0
    vertex 165.47136960623342 6.773842149472894 0.0
  endloop
endfacet
facet normal 1.0 0.0 0.0
  outer loop
    vertex 165.47136960623342 6.773842149472894 20.0
    vertex 165.47136960623342 124.77384214947288 0.0
    vertex 165.47136960623342 124.77384214947288 20.0
  endloop
endfacet
facet normal 0.0 1.0 0.0
  outer loop
    vertex 67.47136960623344 124.77384214947288 0.0
    vertex 126.47136960623341 124.77384214947288 20.0
    vertex 165.47136960623342 124.77384214947288 0.0
  endloop
endfacet
facet normal 0.0 1.0 0.0
  outer loop
    vertex 126.47136960623341 124.77384214947288 20.0
    vertex 67.47136960623344 124.77384214947288 0.0
    vertex 67.47136960623344 124.77384214947288 60.0
  endloop
endfacet
facet normal 0.0 1.0 0.0
  outer loop
    vertex 126.47136960623341 124.77384214947288 20.0
    vertex 67.47136960623344 124.77384214947288 60.0
    vertex 71.47136960623342 124.77384214947288 60.0
  endloop
endfacet
facet normal 0.0 1.0 0.0
  outer loop
    vertex 165.47136960623342 124.77384214947288 20.0
    vertex 165.47136960623342 124.77384214947288 0.0
    vertex 126.47136960623341 124.77384214947288 20.0
  endloop
endfacet
facet normal 0.0 0.0 1.0
  outer loop
    vertex 71.47136960623344 6.773842149472894 60.0
    vertex 67.47136960623344 124.77384214947288 60.0
    vertex 67.47136960623344 6.773842149472894 60.0
  endloop
endfacet
facet normal 0.0 0.0 1.0
  outer loop
    vertex 67.47136960623344 124.77384214947288 60.0
    vertex 71.47136960623344 6.773842149472894 60.0
    vertex 71.47136960623342 120.77384214947288 60.0
  endloop
endfacet
facet normal 0.0 0.0 1.0
  outer loop
    vertex 71.47136960623342 120.77384214947288 60.0
    vertex 71.47136960623344 6.773842149472894 60.0
    vertex 71.47136960623344 10.773842149472893 60.0
  endloop
endfacet
facet normal 0.0 0.0 1.0
  outer loop
    vertex 71.47136960623342 124.77384214947288 60.0
    vertex 67.47136960623344 124.77384214947288 60.0
    vertex 71.47136960623342 120.77384214947288 60.0
  endloop
endfacet
facet normal 0.5881716976750463 0.0 0.8087360843031886
  outer loop
    vertex 126.47136960623341 120.77384214947288 20.0
    vertex 71.47136960623342 124.77384214947288 60.0
    vertex 71.47136960623342 120.77384214947288 60.0
  endloop
endfacet
facet normal 0.5881716976750463 0.0 0.8087360843031886
  outer loop
    vertex 71.47136960623342 124.77384214947288 60.0
    vertex 126.47136960623341 120.77384214947288 20.0
    vertex 126.47136960623341 124.77384214947288 20.0
  endloop
endfacet
facet normal 0.5881716976750464 -2.2627913958763894e-16 0.8087360843031883
  outer loop
    vertex 126.47136960623341 6.773842149472894 20.0
    vertex 71.47136960623344 10.773842149472893 60.0
    vertex 71.47136960623344 6.773842149472894 60.0
  endloop
endfacet
facet normal 0.5881716976750464 -2.2627913958763894e-16 0.8087360843031883
  outer loop
    vertex 71.47136960623344 10.773842149472893 60.0
    vertex 126.47136960623341 6.773842149472894 20.0
    vertex 126.47136960623341 10.773842149472893 20.0
  endloop
endfacet
facet normal -0.0 -0.9914448613738105 -0.13052619222005168
  outer loop
    vertex 71.47136960623342 28.671619628340096 45.776457135307574
    vertex 67.47136960623342 28.77384214947289 45.00000000000001
    vertex 71.47136960623342 28.77384214947289 45.00000000000001
  endloop
endfacet
facet normal -0.0 -0.9914448613738105 -0.13052619222005168
  outer loop
    vertex 67.47136960623342 28.77384214947289 45.00000000000001
    vertex 71.47136960623342 28.671619628340096 45.776457135307574
    vertex 67.47136960623342 28.671619628340096 45.776457135307574
  endloop
endfacet
facet normal -0.0 -0.923879532511288 -0.38268343236508695
  outer loop
    vertex 71.47136960623342 28.371918360826207 46.500000000000014
    vertex 67.47136960623342 28.671619628340096 45.776457135307574
    vertex 71.47136960623342 28.671619628340096 45.776457135307574
  endloop
endfacet
facet normal -0.0 -0.923879532511288 -0.38268343236508695
  outer loop
    vertex 67.47136960623342 28.671619628340096 45.776457135307574
    vertex 71.47136960623342 28.371918360826207 46.500000000000014
    vertex 67.47136960623342 28.371918360826207 46.500000000000014
  endloop
endfacet
facet normal -0.0 -0.7933533402912324 -0.6087614290087242
  outer loop
    vertex 71.47136960623342 27.895162493032533 47.12132034355965
    vertex 67.47136960623342 28.371918360826207 46.500000000000014
    vertex 71.47136960623342 28.371918360826207 46.500000000000014
  endloop
endfacet
facet normal -0.0 -0.7933533402912324 -0.6087614290087242
  outer loop
    vertex 67.47136960623342 28.371918360826207 46.500000000000014
    vertex 71.47136960623342 27.895162493032533 47.12132034355965
    vertex 67.47136960623342 27.895162493032533 47.12132034355965
  endloop
endfacet
facet normal -0.0 -0.6087614290087207 -0.793353340291235
  outer loop
    vertex 71.47136960623342 27.895162493032533 47.12132034355965
    vertex 67.47136960623342 27.273842149472888 47.59807621135332
    vertex 67.47136960623342 27.895162493032533 47.12132034355965
  endloop
endfacet
facet normal -0.0 -0.6087614290087207 -0.793353340291235
  outer loop
    vertex 67.47136960623342 27.273842149472888 47.59807621135332
    vertex 71.47136960623342 27.895162493032533 47.12132034355965
    vertex 71.47136960623342 27.273842149472888 47.59807621135332
  endloop
endfacet
facet normal -0.0 -0.3826834323650895 -0.9238795325112868
  outer loop
    vertex 71.47136960623342 27.273842149472888 47.59807621135332
    vertex 67.47136960623342 26.550299284780454 47.89777747886721
    vertex 67.47136960623342 27.273842149472888 47.59807621135332
  endloop
endfacet
facet normal -0.0 -0.3826834323650895 -0.9238795325112868
  outer loop
    vertex 67.47136960623342 26.550299284780454 47.89777747886721
    vertex 71.47136960623342 27.273842149472888 47.59807621135332
    vertex 71.47136960623342 26.550299284780454 47.89777747886721
  endloop
endfacet
facet normal -0.0 -0.13052619222005168 -0.9914448613738105
  outer loop
    vertex 71.47136960623342 26.550299284780454 47.89777747886721
    vertex 67.47136960623342 25.77384214947289 48.00000000000001
    vertex 67.47136960623342 26.550299284780454 47.89777747886721
  endloop
endfacet
facet normal -0.0 -0.13052619222005168 -0.9914448613738105
  outer loop
    vertex 67.47136960623342 25.77384214947289 48.00000000000001
    vertex 71.47136960623342 26.550299284780454 47.89777747886721
    vertex 71.47136960623342 25.77384214947289 48.00000000000001
  endloop
endfacet
facet normal 0.0 0.13052619222005124 -0.9914448613738106
  outer loop
    vertex 71.47136960623342 25.77384214947289 48.00000000000001
    vertex 67.47136960623342 24.997385014165324 47.89777747886721
    vertex 67.47136960623342 25.77384214947289 48.00000000000001
  endloop
endfacet
facet normal 0.0 0.13052619222005124 -0.9914448613738106
  outer loop
    vertex 67.47136960623342 24.997385014165324 47.89777747886721
    vertex 71.47136960623342 25.77384214947289 48.00000000000001
    vertex 71.47136960623342 24.997385014165324 47.89777747886721
  endloop
endfacet
facet normal 0.0 0.3826834323650895 -0.9238795325112868
  outer loop
    vertex 71.47136960623342 24.997385014165324 47.89777747886721
    vertex 67.47136960623342 24.27384214947289 47.59807621135332
    vertex 67.47136960623342 24.997385014165324 47.89777747886721
  endloop
endfacet
facet normal 0.0 0.3826834323650895 -0.9238795325112868
  outer loop
    vertex 67.47136960623342 24.27384214947289 47.59807621135332
    vertex 71.47136960623342 24.997385014165324 47.89777747886721
    vertex 71.47136960623342 24.27384214947289 47.59807621135332
  endloop
endfacet
facet normal 0.0 0.6087614290087224 -0.7933533402912337
  outer loop
    vertex 71.47136960623342 24.27384214947289 47.59807621135332
    vertex 67.47136960623342 23.65252180591325 47.12132034355965
    vertex 67.47136960623342 24.27384214947289 47.59807621135332
  endloop
endfacet
facet normal 0.0 0.6087614290087224 -0.7933533402912337
  outer loop
    vertex 67.47136960623342 23.65252180591325 47.12132034355965
    vertex 71.47136960623342 24.27384214947289 47.59807621135332
    vertex 71.47136960623342 23.65252180591325 47.12132034355965
  endloop
endfacet
facet normal 0.0 0.793353340291235 -0.6087614290087207
  outer loop
    vertex 67.47136960623342 23.65252180591325 47.12132034355965
    vertex 71.47136960623342 23.17576593811957 46.50000000000001
    vertex 67.47136960623342 23.17576593811957 46.50000000000001
  endloop
endfacet
facet normal 0.0 0.793353340291235 -0.6087614290087207
  outer loop
    vertex 71.47136960623342 23.17576593811957 46.50000000000001
    vertex 67.47136960623342 23.65252180591325 47.12132034355965
    vertex 71.47136960623342 23.65252180591325 47.12132034355965
  endloop
endfacet
facet normal 0.0 0.9238795325112868 -0.3826834323650895
  outer loop
    vertex 67.47136960623342 23.17576593811957 46.50000000000001
    vertex 71.47136960623342 22.876064670605686 45.776457135307574
    vertex 67.47136960623342 22.876064670605686 45.776457135307574
  endloop
endfacet
facet normal 0.0 0.9238795325112868 -0.3826834323650895
  outer loop
    vertex 71.47136960623342 22.876064670605686 45.776457135307574
    vertex 67.47136960623342 23.17576593811957 46.50000000000001
    vertex 71.47136960623342 23.17576593811957 46.50000000000001
  endloop
endfacet
facet normal 0.0 0.9914448613738105 -0.13052619222005168
  outer loop
    vertex 67.47136960623342 22.876064670605686 45.776457135307574
    vertex 71.47136960623342 22.77384214947289 45.00000000000001
    vertex 67.47136960623342 22.77384214947289 45.00000000000001
  endloop
endfacet
facet normal 0.0 0.9914448613738105 -0.13052619222005168
  outer loop
    vertex 71.47136960623342 22.77384214947289 45.00000000000001
    vertex 67.47136960623342 22.876064670605686 45.776457135307574
    vertex 71.47136960623342 22.876064670605686 45.776457135307574
  endloop
endfacet
facet normal 0.0 0.9914448613738105 0.13052619222005168
  outer loop
    vertex 67.47136960623342 22.77384214947289 45.00000000000001
    vertex 71.47136960623342 22.876064670605686 44.22354286469245
    vertex 67.47136960623342 22.876064670605686 44.22354286469245
  endloop
endfacet
facet normal 0.0 0.9914448613738105 0.13052619222005168
  outer loop
    vertex 71.47136960623342 22.876064670605686 44.22354286469245
    vertex 67.47136960623342 22.77384214947289 45.00000000000001
    vertex 71.47136960623342 22.77384214947289 45.00000000000001
  endloop
endfacet
facet normal 0.0 0.9238795325112867 0.38268343236509006
  outer loop
    vertex 67.47136960623342 22.876064670605686 44.22354286469245
    vertex 71.47136960623342 23.175765938119575 43.50000000000001
    vertex 67.47136960623342 23.175765938119575 43.50000000000001
  endloop
endfacet
facet normal 0.0 0.9238795325112867 0.38268343236509006
  outer loop
    vertex 71.47136960623342 23.175765938119575 43.50000000000001
    vertex 67.47136960623342 22.876064670605686 44.22354286469245
    vertex 71.47136960623342 22.876064670605686 44.22354286469245
  endloop
endfacet
facet normal 0.0 0.7933533402912343 0.608761429008722
  outer loop
    vertex 67.47136960623342 23.175765938119575 43.50000000000001
    vertex 71.47136960623342 23.65252180591325 42.87867965644037
    vertex 67.47136960623342 23.65252180591325 42.87867965644037
  endloop
endfacet
facet normal 0.0 0.7933533402912343 0.608761429008722
  outer loop
    vertex 71.47136960623342 23.65252180591325 42.87867965644037
    vertex 67.47136960623342 23.175765938119575 43.50000000000001
    vertex 71.47136960623342 23.175765938119575 43.50000000000001
  endloop
endfacet
facet normal 0.0 0.6087614290087224 0.7933533402912337
  outer loop
    vertex 71.47136960623342 23.65252180591325 42.87867965644037
    vertex 67.47136960623342 24.27384214947289 42.40192378864669
    vertex 67.47136960623342 23.65252180591325 42.87867965644037
  endloop
endfacet
facet normal 0.0 0.6087614290087224 0.7933533402912337
  outer loop
    vertex 67.47136960623342 24.27384214947289 42.40192378864669
    vertex 71.47136960623342 23.65252180591325 42.87867965644037
    vertex 71.47136960623342 24.27384214947289 42.40192378864669
  endloop
endfacet
facet normal 0.0 0.3826834323650882 0.9238795325112874
  outer loop
    vertex 71.47136960623342 24.27384214947289 42.40192378864669
    vertex 67.47136960623342 24.997385014165328 42.1022225211328
    vertex 67.47136960623342 24.27384214947289 42.40192378864669
  endloop
endfacet
facet normal 0.0 0.3826834323650882 0.9238795325112874
  outer loop
    vertex 67.47136960623342 24.997385014165328 42.1022225211328
    vertex 71.47136960623342 24.27384214947289 42.40192378864669
    vertex 71.47136960623342 24.997385014165328 42.1022225211328
  endloop
endfacet
facet normal 0.0 0.13052619222005168 0.9914448613738105
  outer loop
    vertex 71.47136960623342 24.997385014165328 42.1022225211328
    vertex 67.47136960623342 25.77384214947289 42.00000000000001
    vertex 67.47136960623342 24.997385014165328 42.1022225211328
  endloop
endfacet
facet normal 0.0 0.13052619222005168 0.9914448613738105
  outer loop
    vertex 67.47136960623342 25.77384214947289 42.00000000000001
    vertex 71.47136960623342 24.997385014165328 42.1022225211328
    vertex 71.47136960623342 25.77384214947289 42.00000000000001
  endloop
endfacet
facet normal 0.0 -0.13052619222005168 0.9914448613738105
  outer loop
    vertex 71.47136960623342 25.77384214947289 42.00000000000001
    vertex 67.47136960623342 26.550299284780454 42.1022225211328
    vertex 67.47136960623342 25.77384214947289 42.00000000000001
  endloop
endfacet
facet normal 0.0 -0.13052619222005168 0.9914448613738105
  outer loop
    vertex 67.47136960623342 26.550299284780454 42.1022225211328
    vertex 71.47136960623342 25.77384214947289 42.00000000000001
    vertex 71.47136960623342 26.550299284780454 42.1022225211328
  endloop
endfacet
facet normal 0.0 -0.38268343236508695 0.923879532511288
  outer loop
    vertex 71.47136960623342 26.550299284780454 42.1022225211328
    vertex 67.47136960623342 27.27384214947289 42.40192378864669
    vertex 67.47136960623342 26.550299284780454 42.1022225211328
  endloop
endfacet
facet normal 0.0 -0.38268343236508695 0.923879532511288
  outer loop
    vertex 67.47136960623342 27.27384214947289 42.40192378864669
    vertex 71.47136960623342 26.550299284780454 42.1022225211328
    vertex 71.47136960623342 27.27384214947289 42.40192378864669
  endloop
endfacet
facet normal 0.0 -0.6087614290087242 0.7933533402912324
  outer loop
    vertex 71.47136960623342 27.27384214947289 42.40192378864669
    vertex 67.47136960623342 27.895162493032533 42.87867965644037
    vertex 67.47136960623342 27.27384214947289 42.40192378864669
  endloop
endfacet
facet normal 0.0 -0.6087614290087242 0.7933533402912324
  outer loop
    vertex 67.47136960623342 27.895162493032533 42.87867965644037
    vertex 71.47136960623342 27.27384214947289 42.40192378864669
    vertex 71.47136960623342 27.895162493032533 42.87867965644037
  endloop
endfacet
facet normal 0.0 -0.793353340291235 0.6087614290087207
  outer loop
    vertex 71.47136960623342 28.371918360826207 43.50000000000001
    vertex 67.47136960623342 27.895162493032533 42.87867965644037
    vertex 71.47136960623342 27.895162493032533 42.87867965644037
  endloop
endfacet
facet normal 0.0 -0.793353340291235 0.6087614290087207
  outer loop
    vertex 67.47136960623342 27.895162493032533 42.87867965644037
    vertex 71.47136960623342 28.371918360826207 43.50000000000001
    vertex 67.47136960623342 28.371918360826207 43.50000000000001
  endloop
endfacet
facet normal 0.0 -0.9238795325112868 0.3826834323650895
  outer loop
    vertex 71.47136960623342 28.671619628340096 44.22354286469245
    vertex 67.47136960623342 28.371918360826207 43.50000000000001
    vertex 71.47136960623342 28.371918360826207 43.50000000000001
  endloop
endfacet
facet normal 0.0 -0.9238795325112868 0.3826834323650895
  outer loop
    vertex 67.47136960623342 28.371918360826207 43.50000000000001
    vertex 71.47136960623342 28.671619628340096 44.22354286469245
    vertex 67.47136960623342 28.671619628340096 44.22354286469245
  endloop
endfacet
facet normal 0.0 -0.9914448613738105 0.13052619222005168
  outer loop
    vertex 71.47136960623342 28.77384214947289 45.00000000000001
    vertex 67.47136960623342 28.671619628340096 44.22354286469245
    vertex 71.47136960623342 28.671619628340096 44.22354286469245
  endloop
endfacet
facet normal 0.0 -0.9914448613738105 0.13052619222005168
  outer loop
    vertex 67.47136960623342 28.671619628340096 44.22354286469245
    vertex 71.47136960623342 28.77384214947289 45.00000000000001
    vertex 67.47136960623342 28.77384214947289 45.00000000000001
  endloop
endfacet
facet normal 0.0 0.9914448613738114 -0.1305261922200446
  outer loop
    vertex 67.47136960623342 102.87606467060569 45.776457135307574
    vertex 71.47136960623342 102.7738421494729 45.00000000000001
    vertex 67.47136960623342 102.7738421494729 45.00000000000001
  endloop
endfacet
facet normal 0.0 0.9914448613738114 -0.1305261922200446
  outer loop
    vertex 71.47136960623342 102.7738421494729 45.00000000000001
    vertex 67.47136960623342 102.87606467060569 45.776457135307574
    vertex 71.47136960623342 102.87606467060569 45.776457135307574
  endloop
endfacet
facet normal 0.0 0.9914448613738114 0.1305261922200446
  outer loop
    vertex 67.47136960623342 102.7738421494729 45.00000000000001
    vertex 71.47136960623342 102.87606467060569 44.22354286469245
    vertex 67.47136960623342 102.87606467060569 44.22354286469245
  endloop
endfacet
facet normal 0.0 0.9914448613738114 0.1305261922200446
  outer loop
    vertex 71.47136960623342 102.87606467060569 44.22354286469245
    vertex 67.47136960623342 102.7738421494729 45.00000000000001
    vertex 71.47136960623342 102.7738421494729 45.00000000000001
  endloop
endfacet
facet normal 0.0 0.9238795325112793 0.382683432365108
  outer loop
    vertex 67.47136960623342 102.87606467060569 44.22354286469245
    vertex 71.47136960623342 103.1757659381196 43.50000000000001
    vertex 67.47136960623342 103.1757659381196 43.50000000000001
  endloop
endfacet
facet normal 0.0 0.9238795325112793 0.382683432365108
  outer loop
    vertex 71.47136960623342 103.1757659381196 43.50000000000001
    vertex 67.47136960623342 102.87606467060569 44.22354286469245
    vertex 71.47136960623342 102.87606467060569 44.22354286469245
  endloop
endfacet
facet normal 0.0 0.7933533402912465 0.6087614290087061
  outer loop
    vertex 67.47136960623342 103.1757659381196 43.50000000000001
    vertex 71.47136960623342 103.65252180591325 42.87867965644037
    vertex 67.47136960623342 103.65252180591325 42.87867965644037
  endloop
endfacet
facet normal 0.0 0.7933533402912465 0.6087614290087061
  outer loop
    vertex 71.47136960623342 103.65252180591325 42.87867965644037
    vertex 67.47136960623342 103.1757659381196 43.50000000000001
    vertex 71.47136960623342 103.1757659381196 43.50000000000001
  endloop
endfacet
facet normal 0.0 0.6087614290087172 0.7933533402912378
  outer loop
    vertex 71.47136960623342 103.65252180591325 42.87867965644037
    vertex 67.47136960623342 104.2738421494729 42.4019237886467
    vertex 67.47136960623342 103.65252180591325 42.87867965644037
  endloop
endfacet
facet normal 0.0 0.6087614290087172 0.7933533402912378
  outer loop
    vertex 67.47136960623342 104.2738421494729 42.4019237886467
    vertex 71.47136960623342 103.65252180591325 42.87867965644037
    vertex 71.47136960623342 104.2738421494729 42.4019237886467
  endloop
endfacet
facet normal 0.0 0.38268343236508695 0.923879532511288
  outer loop
    vertex 71.47136960623342 104.2738421494729 42.4019237886467
    vertex 67.47136960623342 104.99738501416533 42.10222252113281
    vertex 67.47136960623342 104.2738421494729 42.4019237886467
  endloop
endfacet
facet normal 0.0 0.38268343236508695 0.923879532511288
  outer loop
    vertex 67.47136960623342 104.99738501416533 42.10222252113281
    vertex 71.47136960623342 104.2738421494729 42.4019237886467
    vertex 71.47136960623342 104.99738501416533 42.10222252113281
  endloop
endfacet
facet normal 0.0 0.13052619222005263 0.9914448613738104
  outer loop
    vertex 71.47136960623342 104.99738501416533 42.10222252113281
    vertex 67.47136960623342 105.7738421494729 42.000000000000014
    vertex 67.47136960623342 104.99738501416533 42.10222252113281
  endloop
endfacet
facet normal 0.0 0.13052619222005263 0.9914448613738104
  outer loop
    vertex 67.47136960623342 105.7738421494729 42.000000000000014
    vertex 71.47136960623342 104.99738501416533 42.10222252113281
    vertex 71.47136960623342 105.7738421494729 42.000000000000014
  endloop
endfacet
facet normal 0.0 -0.13052619222005263 0.9914448613738104
  outer loop
    vertex 71.47136960623342 105.7738421494729 42.000000000000014
    vertex 67.47136960623342 106.55029928478045 42.10222252113281
    vertex 67.47136960623342 105.7738421494729 42.000000000000014
  endloop
endfacet
facet normal 0.0 -0.13052619222005263 0.9914448613738104
  outer loop
    vertex 67.47136960623342 106.55029928478045 42.10222252113281
    vertex 71.47136960623342 105.7738421494729 42.000000000000014
    vertex 71.47136960623342 106.55029928478045 42.10222252113281
  endloop
endfacet
facet normal 0.0 -0.38268343236508695 0.923879532511288
  outer loop
    vertex 71.47136960623342 106.55029928478045 42.10222252113281
    vertex 67.47136960623342 107.2738421494729 42.4019237886467
    vertex 67.47136960623342 106.55029928478045 42.10222252113281
  endloop
endfacet
facet normal 0.0 -0.38268343236508695 0.923879532511288
  outer loop
    vertex 67.47136960623342 107.2738421494729 42.4019237886467
    vertex 71.47136960623342 106.55029928478045 42.10222252113281
    vertex 71.47136960623342 107.2738421494729 42.4019237886467
  endloop
endfacet
facet normal 0.0 -0.6087614290087172 0.7933533402912378
  outer loop
    vertex 71.47136960623342 107.2738421494729 42.4019237886467
    vertex 67.47136960623342 107.89516249303254 42.87867965644037
    vertex 67.47136960623342 107.2738421494729 42.4019237886467
  endloop
endfacet
facet normal 0.0 -0.6087614290087172 0.7933533402912378
  outer loop
    vertex 67.47136960623342 107.89516249303254 42.87867965644037
    vertex 71.47136960623342 107.2738421494729 42.4019237886467
    vertex 71.47136960623342 107.89516249303254 42.87867965644037
  endloop
endfacet
facet normal 0.0 -0.7933533402912465 0.6087614290087061
  outer loop
    vertex 71.47136960623342 108.3719183608262 43.50000000000001
    vertex 67.47136960623342 107.89516249303254 42.87867965644037
    vertex 71.47136960623342 107.89516249303254 42.87867965644037
  endloop
endfacet
facet normal 0.0 -0.7933533402912465 0.6087614290087061
  outer loop
    vertex 67.47136960623342 107.89516249303254 42.87867965644037
    vertex 71.47136960623342 108.3719183608262 43.50000000000001
    vertex 67.47136960623342 108.3719183608262 43.50000000000001
  endloop
endfacet
facet normal 0.0 -0.9238795325112803 0.3826834323651054
  outer loop
    vertex 71.47136960623342 108.6716196283401 44.22354286469245
    vertex 67.47136960623342 108.3719183608262 43.50000000000001
    vertex 71.47136960623342 108.3719183608262 43.50000000000001
  endloop
endfacet
facet normal 0.0 -0.9238795325112803 0.3826834323651054
  outer loop
    vertex 67.47136960623342 108.3719183608262 43.50000000000001
    vertex 71.47136960623342 108.6716196283401 44.22354286469245
    vertex 67.47136960623342 108.6716196283401 44.22354286469245
  endloop
endfacet
facet normal 0.0 -0.9914448613738113 0.13052619222004555
  outer loop
    vertex 71.47136960623342 108.77384214947288 45.00000000000001
    vertex 67.47136960623342 108.6716196283401 44.22354286469245
    vertex 71.47136960623342 108.6716196283401 44.22354286469245
  endloop
endfacet
facet normal 0.0 -0.9914448613738113 0.13052619222004555
  outer loop
    vertex 67.47136960623342 108.6716196283401 44.22354286469245
    vertex 71.47136960623342 108.77384214947288 45.00000000000001
    vertex 67.47136960623342 108.77384214947288 45.00000000000001
  endloop
endfacet
facet normal -0.0 -0.9914448613738114 -0.1305261922200446
  outer loop
    vertex 71.47136960623342 108.6716196283401 45.776457135307574
    vertex 67.47136960623342 108.77384214947288 45.00000000000001
    vertex 71.47136960623342 108.77384214947288 45.00000000000001
  endloop
endfacet
facet normal -0.0 -0.9914448613738114 -0.1305261922200446
  outer loop
    vertex 67.47136960623342 108.77384214947288 45.00000000000001
    vertex 71.47136960623342 108.6716196283401 45.776457135307574
    vertex 67.47136960623342 108.6716196283401 45.776457135307574
  endloop
endfacet
facet normal -0.0 -0.9238795325112793 -0.382683432365108
  outer loop
    vertex 71.47136960623342 108.3719183608262 46.50000000000001
    vertex 67.47136960623342 108.6716196283401 45.776457135307574
    vertex 71.47136960623342 108.6716196283401 45.776457135307574
  endloop
endfacet
facet normal -0.0 -0.9238795325112793 -0.382683432365108
  outer loop
    vertex 67.47136960623342 108.6716196283401 45.776457135307574
    vertex 71.47136960623342 108.3719183608262 46.50000000000001
    vertex 67.47136960623342 108.3719183608262 46.50000000000001
  endloop
endfacet
facet normal -0.0 -0.7933533402912465 -0.6087614290087061
  outer loop
    vertex 71.47136960623342 107.89516249303254 47.121320343559645
    vertex 67.47136960623342 108.3719183608262 46.50000000000001
    vertex 71.47136960623342 108.3719183608262 46.50000000000001
  endloop
endfacet
facet normal -0.0 -0.7933533402912465 -0.6087614290087061
  outer loop
    vertex 67.47136960623342 108.3719183608262 46.50000000000001
    vertex 71.47136960623342 107.89516249303254 47.121320343559645
    vertex 67.47136960623342 107.89516249303254 47.121320343559645
  endloop
endfacet
facet normal -0.0 -0.6087614290087172 -0.7933533402912378
  outer loop
    vertex 71.47136960623342 107.89516249303254 47.121320343559645
    vertex 67.47136960623342 107.2738421494729 47.59807621135332
    vertex 67.47136960623342 107.89516249303254 47.121320343559645
  endloop
endfacet
facet normal -0.0 -0.6087614290087172 -0.7933533402912378
  outer loop
    vertex 67.47136960623342 107.2738421494729 47.59807621135332
    vertex 71.47136960623342 107.89516249303254 47.121320343559645
    vertex 71.47136960623342 107.2738421494729 47.59807621135332
  endloop
endfacet
facet normal -0.0 -0.38268343236508695 -0.923879532511288
  outer loop
    vertex 71.47136960623342 107.2738421494729 47.59807621135332
    vertex 67.47136960623342 106.55029928478045 47.897777478867205
    vertex 67.47136960623342 107.2738421494729 47.59807621135332
  endloop
endfacet
facet normal -0.0 -0.38268343236508695 -0.923879532511288
  outer loop
    vertex 67.47136960623342 106.55029928478045 47.897777478867205
    vertex 71.47136960623342 107.2738421494729 47.59807621135332
    vertex 71.47136960623342 106.55029928478045 47.897777478867205
  endloop
endfacet
facet normal -0.0 -0.13052619222005263 -0.9914448613738104
  outer loop
    vertex 71.47136960623342 106.55029928478045 47.897777478867205
    vertex 67.47136960623342 105.7738421494729 48.0
    vertex 67.47136960623342 106.55029928478045 47.897777478867205
  endloop
endfacet
facet normal -0.0 -0.13052619222005263 -0.9914448613738104
  outer loop
    vertex 67.47136960623342 105.7738421494729 48.0
    vertex 71.47136960623342 106.55029928478045 47.897777478867205
    vertex 71.47136960623342 105.7738421494729 48.0
  endloop
endfacet
facet normal 0.0 0.13052619222005263 -0.9914448613738104
  outer loop
    vertex 71.47136960623342 105.7738421494729 48.0
    vertex 67.47136960623342 104.99738501416533 47.897777478867205
    vertex 67.47136960623342 105.7738421494729 48.0
  endloop
endfacet
facet normal 0.0 0.13052619222005263 -0.9914448613738104
  outer loop
    vertex 67.47136960623342 104.99738501416533 47.897777478867205
    vertex 71.47136960623342 105.7738421494729 48.0
    vertex 71.47136960623342 104.99738501416533 47.897777478867205
  endloop
endfacet
facet normal 0.0 0.38268343236508695 -0.923879532511288
  outer loop
    vertex 71.47136960623342 104.99738501416533 47.897777478867205
    vertex 67.47136960623342 104.2738421494729 47.59807621135332
    vertex 67.47136960623342 104.99738501416533 47.897777478867205
  endloop
endfacet
facet normal 0.0 0.38268343236508695 -0.923879532511288
  outer loop
    vertex 67.47136960623342 104.2738421494729 47.59807621135332
    vertex 71.47136960623342 104.99738501416533 47.897777478867205
    vertex 71.47136960623342 104.2738421494729 47.59807621135332
  endloop
endfacet
facet normal 0.0 0.6087614290087172 -0.7933533402912378
  outer loop
    vertex 71.47136960623342 104.2738421494729 47.59807621135332
    vertex 67.47136960623342 103.65252180591325 47.121320343559645
    vertex 67.47136960623342 104.2738421494729 47.59807621135332
  endloop
endfacet
facet normal 0.0 0.6087614290087172 -0.7933533402912378
  outer loop
    vertex 67.47136960623342 103.65252180591325 47.121320343559645
    vertex 71.47136960623342 104.2738421494729 47.59807621135332
    vertex 71.47136960623342 103.65252180591325 47.121320343559645
  endloop
endfacet
facet normal 0.0 0.7933533402912465 -0.6087614290087061
  outer loop
    vertex 67.47136960623342 103.65252180591325 47.121320343559645
    vertex 71.47136960623342 103.1757659381196 46.50000000000001
    vertex 67.47136960623342 103.1757659381196 46.50000000000001
  endloop
endfacet
facet normal 0.0 0.7933533402912465 -0.6087614290087061
  outer loop
    vertex 71.47136960623342 103.1757659381196 46.50000000000001
    vertex 67.47136960623342 103.65252180591325 47.121320343559645
    vertex 71.47136960623342 103.65252180591325 47.121320343559645
  endloop
endfacet
facet normal 0.0 0.9238795325112793 -0.382683432365108
  outer loop
    vertex 67.47136960623342 103.1757659381196 46.50000000000001
    vertex 71.47136960623342 102.87606467060569 45.776457135307574
    vertex 67.47136960623342 102.87606467060569 45.776457135307574
  endloop
endfacet
facet normal 0.0 0.9238795325112793 -0.382683432365108
  outer loop
    vertex 71.47136960623342 102.87606467060569 45.776457135307574
    vertex 67.47136960623342 103.1757659381196 46.50000000000001
    vertex 71.47136960623342 103.1757659381196 46.50000000000001
  endloop
endfacet
endsolid heater shelf
