solid heater shelf
facet normal 0.13052619222004985 1.6819581217115827e-30 0.9914448613738107
  outer loop
    vertex 149.47136960623345 120.77384214947288 43.50000000000001
    vertex 148.82432199347716 124.77384214947288 43.585185434277335
    vertex 148.82432199347716 120.77384214947288 43.585185434277335
  endloop
endfacet
facet normal 0.13052619222004985 1.6819581217115827e-30 0.9914448613738107
  outer loop
    vertex 148.82432199347716 124.77384214947288 43.585185434277335
    vertex 149.47136960623345 120.77384214947288 43.50000000000001
    vertex 149.47136960623345 124.77384214947288 43.50000000000001
  endloop
endfacet
facet normal 1.0 0.0 0.0
  outer loop
    vertex 167.47136960623342 124.77384214947288 0.0
    vertex 167.47136960623342 8.773842149472893 20.0
    vertex 167.47136960623342 8.773842149472893 0.0
  endloop
endfacet
facet normal 1.0 0.0 0.0
  outer loop
    vertex 167.47136960623342 8.773842149472893 20.0
    vertex 167.47136960623342 124.77384214947288 0.0
    vertex 167.47136960623342 65.77384214947288 20.0
  endloop
endfacet
facet normal 1.0 0.0 0.0
  outer loop
    vertex 167.47136960623342 65.77384214947288 20.0
    vertex 167.47136960623342 124.77384214947288 0.0
    vertex 167.47136960623342 120.77384214947288 60.0
  endloop
endfacet
facet normal 1.0 0.0 0.0
  outer loop
    vertex 167.47136960623342 120.77384214947288 60.0
    vertex 167.47136960623342 124.77384214947288 0.0
    vertex 167.47136960623342 124.77384214947288 60.0
  endloop
endfacet
facet normal 1.0 6.747676528529367e-18 2.2492255095097862e-18
  outer loop
    vertex 71.47136960623342 120.77384214947288 5.0
    vertex 71.47136960623342 10.77384214947289 20.0
    vertex 71.47136960623342 10.77384214947289 5.0
  endloop
endfacet
facet normal 1.0 6.747676528529367e-18 2.2492255095097862e-18
  outer loop
    vertex 71.47136960623342 10.77384214947289 20.0
    vertex 71.47136960623342 120.77384214947288 5.0
    vertex 71.47136960623344 65.77384214947288 20.0
  endloop
endfacet
facet normal 1.0 6.747676528529367e-18 2.2492255095097862e-18
  outer loop
    vertex 71.47136960623344 65.77384214947288 20.0
    vertex 71.47136960623342 120.77384214947288 5.0
    vertex 71.47136960623342 120.77384214947288 60.0
  endloop
endfacet
facet normal 1.0 6.747676528529367e-18 2.2492255095097862e-18
  outer loop
    vertex 71.47136960623342 120.77384214947288 60.0
    vertex 71.47136960623342 120.77384214947288 5.0
    vertex 71.47136960623342 120.77384214947288 20.0
  endloop
endfacet
facet normal 0.0 1.0 0.0
  outer loop
    vertex 67.47136960623344 124.77384214947288 0.0
    vertex 84.22136960623342 124.77384214947288 43.83493649053891
    vertex 167.47136960623342 124.77384214947288 0.0
  endloop
endfacet
facet normal 0.0 1.0 0.0
  outer loop
    vertex 84.22136960623342 124.77384214947288 43.83493649053891
    vertex 67.47136960623344 124.77384214947288 0.0
    vertex 83.70360265326705 124.77384214947288 44.23223304703364
  endloop
endfacet
facet normal 0.0 1.0 0.0
  outer loop
    vertex 83.70360265326705 124.77384214947288 44.23223304703364
    vertex 67.47136960623344 124.77384214947288 0.0
    vertex 67.47136960623344 124.77384214947288 60.0
  endloop
endfacet
facet normal 0.0 1.0 0.0
  outer loop
    vertex 167.47136960623342 124.77384214947288 0.0
    vertex 84.22136960623342 124.77384214947288 43.83493649053891
    vertex 84.82432199347711 124.77384214947288 43.585185434277335
  endloop
endfacet
facet normal 0.0 1.0 0.0
  outer loop
    vertex 167.47136960623342 124.77384214947288 0.0
    vertex 84.82432199347711 124.77384214947288 43.585185434277335
    vertex 85.47136960623342 124.77384214947288 43.50000000000001
  endloop
endfacet
facet normal 0.0 1.0 0.0
  outer loop
    vertex 83.70360265326705 124.77384214947288 44.23223304703364
    vertex 67.47136960623344 124.77384214947288 60.0
    vertex 83.30630609677233 124.77384214947288 44.75000000000001
  endloop
endfacet
facet normal 0.0 1.0 0.0
  outer loop
    vertex 83.30630609677233 124.77384214947288 44.75000000000001
    vertex 67.47136960623344 124.77384214947288 60.0
    vertex 83.05655504051076 124.77384214947288 45.352952387243704
  endloop
endfacet
facet normal 0.0 1.0 0.0
  outer loop
    vertex 83.05655504051076 124.77384214947288 45.352952387243704
    vertex 67.47136960623344 124.77384214947288 60.0
    vertex 82.97136960623342 124.77384214947288 46.00000000000001
  endloop
endfacet
facet normal 0.0 1.0 0.0
  outer loop
    vertex 82.97136960623342 124.77384214947288 46.00000000000001
    vertex 67.47136960623344 124.77384214947288 60.0
    vertex 83.05655504051076 124.77384214947288 46.64704761275631
  endloop
endfacet
facet normal 0.0 1.0 0.0
  outer loop
    vertex 83.05655504051076 124.77384214947288 46.64704761275631
    vertex 67.47136960623344 124.77384214947288 60.0
    vertex 83.30630609677233 124.77384214947288 47.25000000000001
  endloop
endfacet
facet normal 0.0 1.0 0.0
  outer loop
    vertex 83.30630609677233 124.77384214947288 47.25000000000001
    vertex 67.47136960623344 124.77384214947288 60.0
    vertex 83.70360265326705 124.77384214947288 47.76776695296637
  endloop
endfacet
facet normal 0.0 1.0 0.0
  outer loop
    vertex 83.70360265326705 124.77384214947288 47.76776695296637
    vertex 67.47136960623344 124.77384214947288 60.0
    vertex 84.22136960623342 124.77384214947288 48.16506350946109
  endloop
endfacet
facet normal 0.0 1.0 0.0
  outer loop
    vertex 84.22136960623342 124.77384214947288 48.16506350946109
    vertex 67.47136960623344 124.77384214947288 60.0
    vertex 84.82432199347711 124.77384214947288 48.41481456572267
  endloop
endfacet
facet normal 0.0 1.0 0.0
  outer loop
    vertex 84.82432199347711 124.77384214947288 48.41481456572267
    vertex 67.47136960623344 124.77384214947288 60.0
    vertex 85.47136960623342 124.77384214947288 48.5
  endloop
endfacet
facet normal 0.0 1.0 0.0
  outer loop
    vertex 85.47136960623342 124.77384214947288 48.5
    vertex 67.47136960623344 124.77384214947288 60.0
    vertex 149.47136960623345 124.77384214947288 48.5
  endloop
endfacet
facet normal 0.0 1.0 0.0
  outer loop
    vertex 167.47136960623342 124.77384214947288 0.0
    vertex 151.2391365591998 124.77384214947288 44.23223304703364
    vertex 167.47136960623342 124.77384214947288 60.0
  endloop
endfacet
facet normal 0.0 1.0 0.0
  outer loop
    vertex 151.2391365591998 124.77384214947288 44.23223304703364
    vertex 167.47136960623342 124.77384214947288 0.0
    vertex 150.72136960623345 124.77384214947288 43.83493649053891
  endloop
endfacet
facet normal 0.0 1.0 0.0
  outer loop
    vertex 150.72136960623345 124.77384214947288 43.83493649053891
    vertex 167.47136960623342 124.77384214947288 0.0
    vertex 150.11841721898972 124.77384214947288 43.58518543427734
  endloop
endfacet
facet normal 0.0 1.0 0.0
  outer loop
    vertex 150.11841721898972 124.77384214947288 43.58518543427734
    vertex 167.47136960623342 124.77384214947288 0.0
    vertex 149.47136960623345 124.77384214947288 43.50000000000001
  endloop
endfacet
facet normal 0.0 1.0 0.0
  outer loop
    vertex 149.47136960623345 124.77384214947288 43.50000000000001
    vertex 167.47136960623342 124.77384214947288 0.0
    vertex 85.47136960623342 124.77384214947288 43.50000000000001
  endloop
endfacet
facet normal 0.0 1.0 0.0
  outer loop
    vertex 167.47136960623342 124.77384214947288 60.0
    vertex 151.2391365591998 124.77384214947288 44.23223304703364
    vertex 151.63643311569453 124.77384214947288 44.75000000000001
  endloop
endfacet
facet normal 0.0 1.0 0.0
  outer loop
    vertex 167.47136960623342 124.77384214947288 60.0
    vertex 151.63643311569453 124.77384214947288 44.75000000000001
    vertex 151.8861841719561 124.77384214947288 45.352952387243704
  endloop
endfacet
facet normal 0.0 1.0 0.0
  outer loop
    vertex 167.47136960623342 124.77384214947288 60.0
    vertex 151.8861841719561 124.77384214947288 45.352952387243704
    vertex 151.97136960623342 124.77384214947288 46.00000000000001
  endloop
endfacet
facet normal 0.0 1.0 0.0
  outer loop
    vertex 167.47136960623342 124.77384214947288 60.0
    vertex 151.97136960623342 124.77384214947288 46.00000000000001
    vertex 151.8861841719561 124.77384214947288 46.64704761275631
  endloop
endfacet
facet normal 0.0 1.0 0.0
  outer loop
    vertex 167.47136960623342 124.77384214947288 60.0
    vertex 151.8861841719561 124.77384214947288 46.64704761275631
    vertex 151.63643311569453 124.77384214947288 47.25000000000001
  endloop
endfacet
facet normal 0.0 1.0 0.0
  outer loop
    vertex 167.47136960623342 124.77384214947288 60.0
    vertex 151.63643311569453 124.77384214947288 47.25000000000001
    vertex 151.2391365591998 124.77384214947288 47.767766952966376
  endloop
endfacet
facet normal 0.0 1.0 0.0
  outer loop
    vertex 167.47136960623342 124.77384214947288 60.0
    vertex 151.2391365591998 124.77384214947288 47.767766952966376
    vertex 150.72136960623342 124.77384214947288 48.1650635094611
  endloop
endfacet
facet normal 0.0 1.0 0.0
  outer loop
    vertex 167.47136960623342 124.77384214947288 60.0
    vertex 150.72136960623342 124.77384214947288 48.1650635094611
    vertex 150.11841721898972 124.77384214947288 48.41481456572267
  endloop
endfacet
facet normal 0.0 1.0 0.0
  outer loop
    vertex 167.47136960623342 124.77384214947288 60.0
    vertex 150.11841721898972 124.77384214947288 48.41481456572267
    vertex 149.47136960623345 124.77384214947288 48.5
  endloop
endfacet
facet normal 0.0 1.0 0.0
  outer loop
    vertex 167.47136960623342 124.77384214947288 60.0
    vertex 149.47136960623345 124.77384214947288 48.5
    vertex 67.47136960623344 124.77384214947288 60.0
  endloop
endfacet
facet normal 0.0 1.0 0.0
  outer loop
    vertex 86.11841721898972 124.77384214947288 43.58518543427734
    vertex 149.47136960623345 124.77384214947288 43.50000000000001
    vertex 85.47136960623342 124.77384214947288 43.50000000000001
  endloop
endfacet
facet normal 0.0 1.0 0.0
  outer loop
    vertex 149.47136960623345 124.77384214947288 43.50000000000001
    vertex 86.11841721898972 124.77384214947288 43.58518543427734
    vertex 148.82432199347716 124.77384214947288 43.585185434277335
  endloop
endfacet
facet normal 0.0 1.0 0.0
  outer loop
    vertex 148.82432199347716 124.77384214947288 43.585185434277335
    vertex 86.11841721898972 124.77384214947288 43.58518543427734
    vertex 148.22136960623345 124.77384214947288 43.83493649053891
  endloop
endfacet
facet normal 0.0 1.0 0.0
  outer loop
    vertex 148.22136960623345 124.77384214947288 43.83493649053891
    vertex 86.11841721898972 124.77384214947288 43.58518543427734
    vertex 86.72136960623342 124.77384214947288 43.83493649053891
  endloop
endfacet
facet normal 0.0 1.0 0.0
  outer loop
    vertex 148.22136960623345 124.77384214947288 43.83493649053891
    vertex 86.72136960623342 124.77384214947288 43.83493649053891
    vertex 87.23913655919978 124.77384214947288 44.23223304703364
  endloop
endfacet
facet normal 0.0 1.0 0.0
  outer loop
    vertex 148.22136960623345 124.77384214947288 43.83493649053891
    vertex 87.23913655919978 124.77384214947288 44.23223304703364
    vertex 147.70360265326707 124.77384214947288 44.23223304703364
  endloop
endfacet
facet normal 0.0 1.0 0.0
  outer loop
    vertex 147.70360265326707 124.77384214947288 44.23223304703364
    vertex 87.23913655919978 124.77384214947288 44.23223304703364
    vertex 87.63643311569452 124.77384214947288 44.75000000000001
  endloop
endfacet
facet normal 0.0 1.0 0.0
  outer loop
    vertex 147.70360265326707 124.77384214947288 44.23223304703364
    vertex 87.63643311569452 124.77384214947288 44.75000000000001
    vertex 147.30630609677235 124.77384214947288 44.75000000000001
  endloop
endfacet
facet normal 0.0 1.0 0.0
  outer loop
    vertex 147.30630609677235 124.77384214947288 44.75000000000001
    vertex 87.63643311569452 124.77384214947288 44.75000000000001
    vertex 87.88618417195609 124.77384214947288 45.352952387243704
  endloop
endfacet
facet normal 0.0 1.0 0.0
  outer loop
    vertex 147.30630609677235 124.77384214947288 44.75000000000001
    vertex 87.88618417195609 124.77384214947288 45.352952387243704
    vertex 147.05655504051077 124.77384214947288 45.352952387243704
  endloop
endfacet
facet normal 0.0 1.0 0.0
  outer loop
    vertex 147.05655504051077 124.77384214947288 45.352952387243704
    vertex 87.88618417195609 124.77384214947288 45.352952387243704
    vertex 87.97136960623342 124.77384214947288 46.00000000000001
  endloop
endfacet
facet normal 0.0 1.0 0.0
  outer loop
    vertex 147.05655504051077 124.77384214947288 45.352952387243704
    vertex 87.97136960623342 124.77384214947288 46.00000000000001
    vertex 146.97136960623345 124.77384214947288 46.00000000000001
  endloop
endfacet
facet normal 0.0 1.0 0.0
  outer loop
    vertex 146.97136960623345 124.77384214947288 46.00000000000001
    vertex 87.97136960623342 124.77384214947288 46.00000000000001
    vertex 87.88618417195609 124.77384214947288 46.64704761275631
  endloop
endfacet
facet normal 0.0 1.0 0.0
  outer loop
    vertex 146.97136960623345 124.77384214947288 46.00000000000001
    vertex 87.88618417195609 124.77384214947288 46.64704761275631
    vertex 147.05655504051077 124.77384214947288 46.64704761275631
  endloop
endfacet
facet normal 0.0 1.0 0.0
  outer loop
    vertex 147.05655504051077 124.77384214947288 46.64704761275631
    vertex 87.88618417195609 124.77384214947288 46.64704761275631
    vertex 87.63643311569452 124.77384214947288 47.25000000000001
  endloop
endfacet
facet normal 0.0 1.0 0.0
  outer loop
    vertex 147.05655504051077 124.77384214947288 46.64704761275631
    vertex 87.63643311569452 124.77384214947288 47.25000000000001
    vertex 147.30630609677235 124.77384214947288 47.25000000000001
  endloop
endfacet
facet normal 0.0 1.0 0.0
  outer loop
    vertex 147.30630609677235 124.77384214947288 47.25000000000001
    vertex 87.63643311569452 124.77384214947288 47.25000000000001
    vertex 87.23913655919978 124.77384214947288 47.767766952966376
  endloop
endfacet
facet normal 0.0 1.0 0.0
  outer loop
    vertex 147.30630609677235 124.77384214947288 47.25000000000001
    vertex 87.23913655919978 124.77384214947288 47.767766952966376
    vertex 147.70360265326707 124.77384214947288 47.76776695296637
  endloop
endfacet
facet normal 0.0 1.0 0.0
  outer loop
    vertex 147.70360265326707 124.77384214947288 47.76776695296637
    vertex 87.23913655919978 124.77384214947288 47.767766952966376
    vertex 148.22136960623342 124.77384214947288 48.16506350946109
  endloop
endfacet
facet normal 0.0 1.0 0.0
  outer loop
    vertex 148.22136960623342 124.77384214947288 48.16506350946109
    vertex 87.23913655919978 124.77384214947288 47.767766952966376
    vertex 86.72136960623342 124.77384214947288 48.1650635094611
  endloop
endfacet
facet normal 0.0 1.0 0.0
  outer loop
    vertex 148.22136960623342 124.77384214947288 48.16506350946109
    vertex 86.72136960623342 124.77384214947288 48.1650635094611
    vertex 148.82432199347713 124.77384214947288 48.41481456572267
  endloop
endfacet
facet normal 0.0 1.0 0.0
  outer loop
    vertex 148.82432199347713 124.77384214947288 48.41481456572267
    vertex 86.72136960623342 124.77384214947288 48.1650635094611
    vertex 86.11841721898972 124.77384214947288 48.41481456572267
  endloop
endfacet
facet normal 0.0 1.0 0.0
  outer loop
    vertex 148.82432199347713 124.77384214947288 48.41481456572267
    vertex 86.11841721898972 124.77384214947288 48.41481456572267
    vertex 149.47136960623345 124.77384214947288 48.5
  endloop
endfacet
facet normal 0.0 1.0 0.0
  outer loop
    vertex 149.47136960623345 124.77384214947288 48.5
    vertex 86.11841721898972 124.77384214947288 48.41481456572267
    vertex 85.47136960623342 124.77384214947288 48.5
  endloop
endfacet
facet normal -1.0 0.0 0.0
  outer loop
    vertex 67.47136960623344 65.77384214947288 20.0
    vertex 67.47136960623344 8.773842149472893 0.0
    vertex 67.47136960623344 8.773842149472893 20.0
  endloop
endfacet
facet normal -1.0 0.0 0.0
  outer loop
    vertex 67.47136960623344 8.773842149472893 0.0
    vertex 67.47136960623344 65.77384214947288 20.0
    vertex 67.47136960623344 124.77384214947288 0.0
  endloop
endfacet
facet normal -1.0 0.0 0.0
  outer loop
    vertex 67.47136960623344 124.77384214947288 0.0
    vertex 67.47136960623344 65.77384214947288 20.0
    vertex 67.47136960623344 120.77384214947288 60.0
  endloop
endfacet
facet normal -1.0 0.0 0.0
  outer loop
    vertex 67.47136960623344 124.77384214947288 0.0
    vertex 67.47136960623344 120.77384214947288 60.0
    vertex 67.47136960623344 124.77384214947288 60.0
  endloop
endfacet
facet normal 0.0 0.0 1.0
  outer loop
    vertex 71.47136960623344 65.77384214947288 20.0
    vertex 67.47136960623344 65.77384214947288 20.0
    vertex 71.47136960623342 10.77384214947289 20.0
  endloop
endfacet
facet normal 0.0 0.0 1.0
  outer loop
    vertex 67.47136960623344 8.773842149472893 20.0
    vertex 71.47136960623342 10.77384214947289 20.0
    vertex 67.47136960623344 65.77384214947288 20.0
  endloop
endfacet
facet normal 0.0 0.0 1.0
  outer loop
    vertex 71.47136960623342 10.77384214947289 20.0
    vertex 67.47136960623344 8.773842149472893 20.0
    vertex 167.47136960623342 8.773842149472893 20.0
  endloop
endfacet
facet normal 0.0 0.0 1.0
  outer loop
    vertex 71.47136960623342 10.77384214947289 20.0
    vertex 167.47136960623342 8.773842149472893 20.0
    vertex 163.47136960623342 10.77384214947289 20.0
  endloop
endfacet
facet normal 0.0 0.0 1.0
  outer loop
    vertex 163.47136960623342 10.77384214947289 20.0
    vertex 167.47136960623342 8.773842149472893 20.0
    vertex 163.47136960623342 65.77384214947288 20.0
  endloop
endfacet
facet normal 0.0 0.0 1.0
  outer loop
    vertex 163.47136960623342 65.77384214947288 20.0
    vertex 167.47136960623342 8.773842149472893 20.0
    vertex 167.47136960623342 65.77384214947288 20.0
  endloop
endfacet
facet normal -0.0 -1.0 -0.0
  outer loop
    vertex 167.47136960623342 8.773842149472893 20.0
    vertex 67.47136960623344 8.773842149472893 0.0
    vertex 167.47136960623342 8.773842149472893 0.0
  endloop
endfacet
facet normal -0.0 -1.0 -0.0
  outer loop
    vertex 67.47136960623344 8.773842149472893 0.0
    vertex 167.47136960623342 8.773842149472893 20.0
    vertex 67.47136960623344 8.773842149472893 20.0
  endloop
endfacet
facet normal 0.3826834323650902 1.567335455284157e-30 0.9238795325112866
  outer loop
    vertex 148.82432199347716 120.77384214947288 43.585185434277335
    vertex 148.22136960623345 124.77384214947288 43.83493649053891
    vertex 148.22136960623345 120.77384214947288 43.83493649053891
  endloop
endfacet
facet normal 0.3826834323650902 1.567335455284157e-30 0.9238795325112866
  outer loop
    vertex 148.22136960623345 124.77384214947288 43.83493649053891
    vertex 148.82432199347716 120.77384214947288 43.585185434277335
    vertex 148.82432199347716 124.77384214947288 43.585185434277335
  endloop
endfacet
facet normal -1.0 0.0 0.0
  outer loop
    vertex 163.47136960623342 65.77384214947288 20.0
    vertex 163.47136960623342 10.77384214947289 5.0
    vertex 163.47136960623342 10.77384214947289 20.0
  endloop
endfacet
facet normal -1.0 0.0 0.0
  outer loop
    vertex 163.47136960623342 10.77384214947289 5.0
    vertex 163.47136960623342 65.77384214947288 20.0
    vertex 163.47136960623342 120.77384214947288 5.0
  endloop
endfacet
facet normal -1.0 0.0 0.0
  outer loop
    vertex 163.47136960623342 120.77384214947288 5.0
    vertex 163.47136960623342 65.77384214947288 20.0
    vertex 163.47136960623342 120.77384214947288 60.0
  endloop
endfacet
facet normal -1.0 0.0 0.0
  outer loop
    vertex 163.47136960623342 120.77384214947288 5.0
    vertex 163.47136960623342 120.77384214947288 60.0
    vertex 163.47136960623342 120.77384214947288 20.0
  endloop
endfacet
facet normal -0.3826834323650902 -1.567335455284157e-30 -0.9238795325112866
  outer loop
    vertex 150.72136960623342 124.77384214947288 48.1650635094611
    vertex 150.11841721898972 120.77384214947288 48.41481456572267
    vertex 150.11841721898972 124.77384214947288 48.41481456572267
  endloop
endfacet
facet normal -0.3826834323650902 -1.567335455284157e-30 -0.9238795325112866
  outer loop
    vertex 150.11841721898972 120.77384214947288 48.41481456572267
    vertex 150.72136960623342 124.77384214947288 48.1650635094611
    vertex 150.72136960623342 120.77384214947288 48.1650635094611
  endloop
endfacet
facet normal 0.13052619222005388 -1.681958121711581e-30 -0.9914448613738102
  outer loop
    vertex 149.47136960623345 124.77384214947288 48.5
    vertex 148.82432199347713 120.77384214947288 48.41481456572267
    vertex 148.82432199347713 124.77384214947288 48.41481456572267
  endloop
endfacet
facet normal 0.13052619222005388 -1.681958121711581e-30 -0.9914448613738102
  outer loop
    vertex 148.82432199347713 120.77384214947288 48.41481456572267
    vertex 149.47136960623345 124.77384214947288 48.5
    vertex 149.47136960623345 120.77384214947288 48.5
  endloop
endfacet
facet normal 0.6087614290087238 -1.3459014677234157e-30 -0.793353340291233
  outer loop
    vertex 148.22136960623342 124.77384214947288 48.16506350946109
    vertex 147.70360265326707 120.77384214947288 47.76776695296637
    vertex 147.70360265326707 124.77384214947288 47.76776695296637
  endloop
endfacet
facet normal 0.6087614290087238 -1.3459014677234157e-30 -0.793353340291233
  outer loop
    vertex 147.70360265326707 120.77384214947288 47.76776695296637
    vertex 148.22136960623342 124.77384214947288 48.16506350946109
    vertex 148.22136960623342 120.77384214947288 48.16506350946109
  endloop
endfacet
facet normal 0.0 1.0 0.0
  outer loop
    vertex 71.47136960623342 10.77384214947289 20.0
    vertex 163.47136960623342 10.77384214947289 5.0
    vertex 71.47136960623342 10.77384214947289 5.0
  endloop
endfacet
facet normal 0.0 1.0 0.0
  outer loop
    vertex 163.47136960623342 10.77384214947289 5.0
    vertex 71.47136960623342 10.77384214947289 20.0
    vertex 163.47136960623342 10.77384214947289 20.0
  endloop
endfacet
facet normal -0.13052619222005837 1.68195812171158e-30 0.9914448613738096
  outer loop
    vertex 150.11841721898972 120.77384214947288 43.58518543427734
    vertex 149.47136960623345 124.77384214947288 43.50000000000001
    vertex 149.47136960623345 120.77384214947288 43.50000000000001
  endloop
endfacet
facet normal -0.13052619222005837 1.68195812171158e-30 0.9914448613738096
  outer loop
    vertex 149.47136960623345 124.77384214947288 43.50000000000001
    vertex 150.11841721898972 120.77384214947288 43.58518543427734
    vertex 150.11841721898972 124.77384214947288 43.58518543427734
  endloop
endfacet
facet normal 0.0 -1.0 0.0
  outer loop
    vertex 163.47136960623342 120.77384214947288 20.0
    vertex 71.47136960623342 120.77384214947288 5.0
    vertex 163.47136960623342 120.77384214947288 5.0
  endloop
endfacet
facet normal 0.0 -1.0 0.0
  outer loop
    vertex 71.47136960623342 120.77384214947288 5.0
    vertex 163.47136960623342 120.77384214947288 20.0
    vertex 71.47136960623342 120.77384214947288 20.0
  endloop
endfacet
facet normal 0.0 -1.0 0.0
  outer loop
    vertex 71.47136960623342 120.77384214947288 20.0
    vertex 163.47136960623342 120.77384214947288 20.0
    vertex 150.11841721898972 120.77384214947288 43.58518543427734
  endloop
endfacet
facet normal 0.0 -1.0 0.0
  outer loop
    vertex 150.11841721898972 120.77384214947288 43.58518543427734
    vertex 163.47136960623342 120.77384214947288 20.0
    vertex 150.72136960623345 120.77384214947288 43.83493649053891
  endloop
endfacet
facet normal 0.0 -1.0 0.0
  outer loop
    vertex 150.72136960623345 120.77384214947288 43.83493649053891
    vertex 163.47136960623342 120.77384214947288 20.0
    vertex 151.2391365591998 120.77384214947288 44.23223304703364
  endloop
endfacet
facet normal 0.0 -1.0 0.0
  outer loop
    vertex 151.2391365591998 120.77384214947288 44.23223304703364
    vertex 163.47136960623342 120.77384214947288 20.0
    vertex 163.47136960623342 120.77384214947288 60.0
  endloop
endfacet
facet normal 0.0 -1.0 0.0
  outer loop
    vertex 71.47136960623342 120.77384214947288 20.0
    vertex 150.11841721898972 120.77384214947288 43.58518543427734
    vertex 149.47136960623345 120.77384214947288 43.50000000000001
  endloop
endfacet
facet normal 0.0 -1.0 0.0
  outer loop
    vertex 151.2391365591998 120.77384214947288 44.23223304703364
    vertex 163.47136960623342 120.77384214947288 60.0
    vertex 151.63643311569453 120.77384214947288 44.75000000000001
  endloop
endfacet
facet normal 0.0 -1.0 0.0
  outer loop
    vertex 151.63643311569453 120.77384214947288 44.75000000000001
    vertex 163.47136960623342 120.77384214947288 60.0
    vertex 151.8861841719561 120.77384214947288 45.352952387243704
  endloop
endfacet
facet normal 0.0 -1.0 0.0
  outer loop
    vertex 151.8861841719561 120.77384214947288 45.352952387243704
    vertex 163.47136960623342 120.77384214947288 60.0
    vertex 151.97136960623342 120.77384214947288 46.00000000000001
  endloop
endfacet
facet normal 0.0 -1.0 0.0
  outer loop
    vertex 151.97136960623342 120.77384214947288 46.00000000000001
    vertex 163.47136960623342 120.77384214947288 60.0
    vertex 151.8861841719561 120.77384214947288 46.64704761275631
  endloop
endfacet
facet normal 0.0 -1.0 0.0
  outer loop
    vertex 151.8861841719561 120.77384214947288 46.64704761275631
    vertex 163.47136960623342 120.77384214947288 60.0
    vertex 151.63643311569453 120.77384214947288 47.25000000000001
  endloop
endfacet
facet normal 0.0 -1.0 0.0
  outer loop
    vertex 151.63643311569453 120.77384214947288 47.25000000000001
    vertex 163.47136960623342 120.77384214947288 60.0
    vertex 151.2391365591998 120.77384214947288 47.767766952966376
  endloop
endfacet
facet normal 0.0 -1.0 0.0
  outer loop
    vertex 151.2391365591998 120.77384214947288 47.767766952966376
    vertex 163.47136960623342 120.77384214947288 60.0
    vertex 150.72136960623342 120.77384214947288 48.1650635094611
  endloop
endfacet
facet normal 0.0 -1.0 0.0
  outer loop
    vertex 150.72136960623342 120.77384214947288 48.1650635094611
    vertex 163.47136960623342 120.77384214947288 60.0
    vertex 150.11841721898972 120.77384214947288 48.41481456572267
  endloop
endfacet
facet normal 0.0 -1.0 0.0
  outer loop
    vertex 150.11841721898972 120.77384214947288 48.41481456572267
    vertex 163.47136960623342 120.77384214947288 60.0
    vertex 149.47136960623345 120.77384214947288 48.5
  endloop
endfacet
facet normal 0.0 -1.0 0.0
  outer loop
    vertex 149.47136960623345 120.77384214947288 48.5
    vertex 163.47136960623342 120.77384214947288 60.0
    vertex 85.47136960623342 120.77384214947288 48.5
  endloop
endfacet
facet normal 0.0 -1.0 0.0
  outer loop
    vertex 71.47136960623342 120.77384214947288 20.0
    vertex 83.70360265326705 120.77384214947288 44.23223304703364
    vertex 71.47136960623342 120.77384214947288 60.0
  endloop
endfacet
facet normal 0.0 -1.0 0.0
  outer loop
    vertex 83.70360265326705 120.77384214947288 44.23223304703364
    vertex 71.47136960623342 120.77384214947288 20.0
    vertex 84.22136960623342 120.77384214947288 43.83493649053891
  endloop
endfacet
facet normal 0.0 -1.0 0.0
  outer loop
    vertex 84.22136960623342 120.77384214947288 43.83493649053891
    vertex 71.47136960623342 120.77384214947288 20.0
    vertex 84.82432199347711 120.77384214947288 43.585185434277335
  endloop
endfacet
facet normal 0.0 -1.0 0.0
  outer loop
    vertex 84.82432199347711 120.77384214947288 43.585185434277335
    vertex 71.47136960623342 120.77384214947288 20.0
    vertex 85.47136960623342 120.77384214947288 43.50000000000001
  endloop
endfacet
facet normal 0.0 -1.0 0.0
  outer loop
    vertex 85.47136960623342 120.77384214947288 43.50000000000001
    vertex 71.47136960623342 120.77384214947288 20.0
    vertex 149.47136960623345 120.77384214947288 43.50000000000001
  endloop
endfacet
facet normal 0.0 -1.0 0.0
  outer loop
    vertex 71.47136960623342 120.77384214947288 60.0
    vertex 83.70360265326705 120.77384214947288 44.23223304703364
    vertex 83.30630609677233 120.77384214947288 44.75000000000001
  endloop
endfacet
facet normal 0.0 -1.0 0.0
  outer loop
    vertex 71.47136960623342 120.77384214947288 60.0
    vertex 83.30630609677233 120.77384214947288 44.75000000000001
    vertex 83.05655504051076 120.77384214947288 45.352952387243704
  endloop
endfacet
facet normal 0.0 -1.0 0.0
  outer loop
    vertex 71.47136960623342 120.77384214947288 60.0
    vertex 83.05655504051076 120.77384214947288 45.352952387243704
    vertex 82.97136960623342 120.77384214947288 46.00000000000001
  endloop
endfacet
facet normal 0.0 -1.0 0.0
  outer loop
    vertex 71.47136960623342 120.77384214947288 60.0
    vertex 82.97136960623342 120.77384214947288 46.00000000000001
    vertex 83.05655504051076 120.77384214947288 46.64704761275631
  endloop
endfacet
facet normal 0.0 -1.0 0.0
  outer loop
    vertex 71.47136960623342 120.77384214947288 60.0
    vertex 83.05655504051076 120.77384214947288 46.64704761275631
    vertex 83.30630609677233 120.77384214947288 47.25000000000001
  endloop
endfacet
facet normal 0.0 -1.0 0.0
  outer loop
    vertex 71.47136960623342 120.77384214947288 60.0
    vertex 83.30630609677233 120.77384214947288 47.25000000000001
    vertex 83.70360265326705 120.77384214947288 47.76776695296637
  endloop
endfacet
facet normal 0.0 -1.0 0.0
  outer loop
    vertex 71.47136960623342 120.77384214947288 60.0
    vertex 83.70360265326705 120.77384214947288 47.76776695296637
    vertex 84.22136960623342 120.77384214947288 48.16506350946109
  endloop
endfacet
facet normal 0.0 -1.0 0.0
  outer loop
    vertex 71.47136960623342 120.77384214947288 60.0
    vertex 84.22136960623342 120.77384214947288 48.16506350946109
    vertex 84.82432199347711 120.77384214947288 48.41481456572267
  endloop
endfacet
facet normal 0.0 -1.0 0.0
  outer loop
    vertex 71.47136960623342 120.77384214947288 60.0
    vertex 84.82432199347711 120.77384214947288 48.41481456572267
    vertex 85.47136960623342 120.77384214947288 48.5
  endloop
endfacet
facet normal 0.0 -1.0 0.0
  outer loop
    vertex 71.47136960623342 120.77384214947288 60.0
    vertex 85.47136960623342 120.77384214947288 48.5
    vertex 163.47136960623342 120.77384214947288 60.0
  endloop
endfacet
facet normal 0.0 -1.0 0.0
  outer loop
    vertex 148.82432199347716 120.77384214947288 43.585185434277335
    vertex 85.47136960623342 120.77384214947288 43.50000000000001
    vertex 149.47136960623345 120.77384214947288 43.50000000000001
  endloop
endfacet
facet normal 0.0 -1.0 0.0
  outer loop
    vertex 85.47136960623342 120.77384214947288 43.50000000000001
    vertex 148.82432199347716 120.77384214947288 43.585185434277335
    vertex 86.11841721898972 120.77384214947288 43.58518543427734
  endloop
endfacet
facet normal 0.0 -1.0 0.0
  outer loop
    vertex 86.11841721898972 120.77384214947288 43.58518543427734
    vertex 148.82432199347716 120.77384214947288 43.585185434277335
    vertex 148.22136960623345 120.77384214947288 43.83493649053891
  endloop
endfacet
facet normal 0.0 -1.0 0.0
  outer loop
    vertex 86.11841721898972 120.77384214947288 43.58518543427734
    vertex 148.22136960623345 120.77384214947288 43.83493649053891
    vertex 86.72136960623342 120.77384214947288 43.83493649053891
  endloop
endfacet
facet normal 0.0 -1.0 0.0
  outer loop
    vertex 86.72136960623342 120.77384214947288 43.83493649053891
    vertex 148.22136960623345 120.77384214947288 43.83493649053891
    vertex 147.70360265326707 120.77384214947288 44.23223304703364
  endloop
endfacet
facet normal 0.0 -1.0 0.0
  outer loop
    vertex 86.72136960623342 120.77384214947288 43.83493649053891
    vertex 147.70360265326707 120.77384214947288 44.23223304703364
    vertex 87.23913655919978 120.77384214947288 44.23223304703364
  endloop
endfacet
facet normal 0.0 -1.0 0.0
  outer loop
    vertex 87.23913655919978 120.77384214947288 44.23223304703364
    vertex 147.70360265326707 120.77384214947288 44.23223304703364
    vertex 147.30630609677235 120.77384214947288 44.75000000000001
  endloop
endfacet
facet normal 0.0 -1.0 0.0
  outer loop
    vertex 87.23913655919978 120.77384214947288 44.23223304703364
    vertex 147.30630609677235 120.77384214947288 44.75000000000001
    vertex 87.63643311569452 120.77384214947288 44.75000000000001
  endloop
endfacet
facet normal 0.0 -1.0 0.0
  outer loop
    vertex 87.63643311569452 120.77384214947288 44.75000000000001
    vertex 147.30630609677235 120.77384214947288 44.75000000000001
    vertex 147.05655504051077 120.77384214947288 45.352952387243704
  endloop
endfacet
facet normal 0.0 -1.0 0.0
  outer loop
    vertex 87.63643311569452 120.77384214947288 44.75000000000001
    vertex 147.05655504051077 120.77384214947288 45.352952387243704
    vertex 87.88618417195609 120.77384214947288 45.352952387243704
  endloop
endfacet
facet normal 0.0 -1.0 0.0
  outer loop
    vertex 87.88618417195609 120.77384214947288 45.352952387243704
    vertex 147.05655504051077 120.77384214947288 45.352952387243704
    vertex 146.97136960623345 120.77384214947288 46.00000000000001
  endloop
endfacet
facet normal 0.0 -1.0 0.0
  outer loop
    vertex 87.88618417195609 120.77384214947288 45.352952387243704
    vertex 146.97136960623345 120.77384214947288 46.00000000000001
    vertex 87.97136960623342 120.77384214947288 46.00000000000001
  endloop
endfacet
facet normal 0.0 -1.0 0.0
  outer loop
    vertex 87.97136960623342 120.77384214947288 46.00000000000001
    vertex 146.97136960623345 120.77384214947288 46.00000000000001
    vertex 147.05655504051077 120.77384214947288 46.64704761275631
  endloop
endfacet
facet normal 0.0 -1.0 0.0
  outer loop
    vertex 87.97136960623342 120.77384214947288 46.00000000000001
    vertex 147.05655504051077 120.77384214947288 46.64704761275631
    vertex 87.88618417195609 120.77384214947288 46.64704761275631
  endloop
endfacet
facet normal 0.0 -1.0 0.0
  outer loop
    vertex 87.88618417195609 120.77384214947288 46.64704761275631
    vertex 147.05655504051077 120.77384214947288 46.64704761275631
    vertex 147.30630609677235 120.77384214947288 47.25000000000001
  endloop
endfacet
facet normal 0.0 -1.0 0.0
  outer loop
    vertex 87.88618417195609 120.77384214947288 46.64704761275631
    vertex 147.30630609677235 120.77384214947288 47.25000000000001
    vertex 87.63643311569452 120.77384214947288 47.25000000000001
  endloop
endfacet
facet normal 0.0 -1.0 0.0
  outer loop
    vertex 87.63643311569452 120.77384214947288 47.25000000000001
    vertex 147.30630609677235 120.77384214947288 47.25000000000001
    vertex 147.70360265326707 120.77384214947288 47.76776695296637
  endloop
endfacet
facet normal 0.0 -1.0 0.0
  outer loop
    vertex 87.63643311569452 120.77384214947288 47.25000000000001
    vertex 147.70360265326707 120.77384214947288 47.76776695296637
    vertex 87.23913655919978 120.77384214947288 47.767766952966376
  endloop
endfacet
facet normal 0.0 -1.0 0.0
  outer loop
    vertex 87.23913655919978 120.77384214947288 47.767766952966376
    vertex 147.70360265326707 120.77384214947288 47.76776695296637
    vertex 148.22136960623342 120.77384214947288 48.16506350946109
  endloop
endfacet
facet normal 0.0 -1.0 0.0
  outer loop
    vertex 87.23913655919978 120.77384214947288 47.767766952966376
    vertex 148.22136960623342 120.77384214947288 48.16506350946109
    vertex 86.72136960623342 120.77384214947288 48.1650635094611
  endloop
endfacet
facet normal 0.0 -1.0 0.0
  outer loop
    vertex 86.72136960623342 120.77384214947288 48.1650635094611
    vertex 148.22136960623342 120.77384214947288 48.16506350946109
    vertex 148.82432199347713 120.77384214947288 48.41481456572267
  endloop
endfacet
facet normal 0.0 -1.0 0.0
  outer loop
    vertex 86.72136960623342 120.77384214947288 48.1650635094611
    vertex 148.82432199347713 120.77384214947288 48.41481456572267
    vertex 86.11841721898972 120.77384214947288 48.41481456572267
  endloop
endfacet
facet normal 0.0 -1.0 0.0
  outer loop
    vertex 86.11841721898972 120.77384214947288 48.41481456572267
    vertex 148.82432199347713 120.77384214947288 48.41481456572267
    vertex 149.47136960623345 120.77384214947288 48.5
  endloop
endfacet
facet normal 0.0 -1.0 0.0
  outer loop
    vertex 86.11841721898972 120.77384214947288 48.41481456572267
    vertex 149.47136960623345 120.77384214947288 48.5
    vertex 85.47136960623342 120.77384214947288 48.5
  endloop
endfacet
facet normal -0.9914448613738099 2.2143398756073977e-31 0.13052619222005613
  outer loop
    vertex 151.97136960623342 124.77384214947288 46.00000000000001
    vertex 151.8861841719561 120.77384214947288 45.352952387243704
    vertex 151.97136960623342 120.77384214947288 46.00000000000001
  endloop
endfacet
facet normal -0.9914448613738099 2.2143398756073977e-31 0.13052619222005613
  outer loop
    vertex 151.8861841719561 120.77384214947288 45.352952387243704
    vertex 151.97136960623342 124.77384214947288 46.00000000000001
    vertex 151.8861841719561 124.77384214947288 45.352952387243704
  endloop
endfacet
facet normal 0.7933533402912486 1.0327465193446478e-30 0.6087614290087033
  outer loop
    vertex 147.70360265326707 124.77384214947288 44.23223304703364
    vertex 147.30630609677235 120.77384214947288 44.75000000000001
    vertex 147.70360265326707 120.77384214947288 44.23223304703364
  endloop
endfacet
facet normal 0.7933533402912486 1.0327465193446478e-30 0.6087614290087033
  outer loop
    vertex 147.30630609677235 120.77384214947288 44.75000000000001
    vertex 147.70360265326707 124.77384214947288 44.23223304703364
    vertex 147.30630609677235 124.77384214947288 44.75000000000001
  endloop
endfacet
facet normal 0.9914448613738099 -2.2143398756073977e-31 -0.13052619222005613
  outer loop
    vertex 146.97136960623345 124.77384214947288 46.00000000000001
    vertex 147.05655504051077 120.77384214947288 46.64704761275631
    vertex 146.97136960623345 120.77384214947288 46.00000000000001
  endloop
endfacet
facet normal 0.9914448613738099 -2.2143398756073977e-31 -0.13052619222005613
  outer loop
    vertex 147.05655504051077 120.77384214947288 46.64704761275631
    vertex 146.97136960623345 124.77384214947288 46.00000000000001
    vertex 147.05655504051077 124.77384214947288 46.64704761275631
  endloop
endfacet
facet normal 0.9238795325112836 6.492116023669231e-31 0.3826834323650976
  outer loop
    vertex 147.30630609677235 124.77384214947288 44.75000000000001
    vertex 147.05655504051077 120.77384214947288 45.352952387243704
    vertex 147.30630609677235 120.77384214947288 44.75000000000001
  endloop
endfacet
facet normal 0.9238795325112836 6.492116023669231e-31 0.3826834323650976
  outer loop
    vertex 147.05655504051077 120.77384214947288 45.352952387243704
    vertex 147.30630609677235 124.77384214947288 44.75000000000001
    vertex 147.05655504051077 124.77384214947288 45.352952387243704
  endloop
endfacet
facet normal 0.9914448613738099 2.214339875607454e-31 0.13052619222005613
  outer loop
    vertex 147.05655504051077 124.77384214947288 45.352952387243704
    vertex 146.97136960623345 120.77384214947288 46.00000000000001
    vertex 147.05655504051077 120.77384214947288 45.352952387243704
  endloop
endfacet
facet normal 0.9914448613738099 2.214339875607454e-31 0.13052619222005613
  outer loop
    vertex 146.97136960623345 120.77384214947288 46.00000000000001
    vertex 147.05655504051077 124.77384214947288 45.352952387243704
    vertex 146.97136960623345 124.77384214947288 46.00000000000001
  endloop
endfacet
facet normal -0.9238795325112836 -6.492116023669231e-31 -0.3826834323650976
  outer loop
    vertex 151.63643311569453 124.77384214947288 47.25000000000001
    vertex 151.8861841719561 120.77384214947288 46.64704761275631
    vertex 151.63643311569453 120.77384214947288 47.25000000000001
  endloop
endfacet
facet normal -0.9238795325112836 -6.492116023669231e-31 -0.3826834323650976
  outer loop
    vertex 151.8861841719561 120.77384214947288 46.64704761275631
    vertex 151.63643311569453 124.77384214947288 47.25000000000001
    vertex 151.8861841719561 124.77384214947288 46.64704761275631
  endloop
endfacet
facet normal -0.7933533402912486 1.032746519344643e-30 0.6087614290087033
  outer loop
    vertex 151.63643311569453 124.77384214947288 44.75000000000001
    vertex 151.2391365591998 120.77384214947288 44.23223304703364
    vertex 151.63643311569453 120.77384214947288 44.75000000000001
  endloop
endfacet
facet normal -0.7933533402912486 1.032746519344643e-30 0.6087614290087033
  outer loop
    vertex 151.2391365591998 120.77384214947288 44.23223304703364
    vertex 151.63643311569453 124.77384214947288 44.75000000000001
    vertex 151.2391365591998 124.77384214947288 44.23223304703364
  endloop
endfacet
facet normal 0.6087614290087071 1.345901467723441e-30 0.7933533402912457
  outer loop
    vertex 148.22136960623345 120.77384214947288 43.83493649053891
    vertex 147.70360265326707 124.77384214947288 44.23223304703364
    vertex 147.70360265326707 120.77384214947288 44.23223304703364
  endloop
endfacet
facet normal 0.6087614290087071 1.345901467723441e-30 0.7933533402912457
  outer loop
    vertex 147.70360265326707 124.77384214947288 44.23223304703364
    vertex 148.22136960623345 120.77384214947288 43.83493649053891
    vertex 148.22136960623345 124.77384214947288 43.83493649053891
  endloop
endfacet
facet normal -0.6087614290087238 1.3459014677234157e-30 0.793353340291233
  outer loop
    vertex 151.2391365591998 120.77384214947288 44.23223304703364
    vertex 150.72136960623345 124.77384214947288 43.83493649053891
    vertex 150.72136960623345 120.77384214947288 43.83493649053891
  endloop
endfacet
facet normal -0.6087614290087238 1.3459014677234157e-30 0.793353340291233
  outer loop
    vertex 150.72136960623345 124.77384214947288 43.83493649053891
    vertex 151.2391365591998 120.77384214947288 44.23223304703364
    vertex 151.2391365591998 124.77384214947288 44.23223304703364
  endloop
endfacet
facet normal -0.38268343236507063 1.5673354552841686e-30 0.9238795325112947
  outer loop
    vertex 150.72136960623345 120.77384214947288 43.83493649053891
    vertex 150.11841721898972 124.77384214947288 43.58518543427734
    vertex 150.11841721898972 120.77384214947288 43.58518543427734
  endloop
endfacet
facet normal -0.38268343236507063 1.5673354552841686e-30 0.9238795325112947
  outer loop
    vertex 150.11841721898972 124.77384214947288 43.58518543427734
    vertex 150.72136960623345 120.77384214947288 43.83493649053891
    vertex 150.72136960623345 124.77384214947288 43.83493649053891
  endloop
endfacet
facet normal 0.0 0.0 1.0
  outer loop
    vertex 71.47136960623342 120.77384214947288 60.0
    vertex 67.47136960623344 124.77384214947288 60.0
    vertex 67.47136960623344 120.77384214947288 60.0
  endloop
endfacet
facet normal 0.0 0.0 1.0
  outer loop
    vertex 67.47136960623344 124.77384214947288 60.0
    vertex 71.47136960623342 120.77384214947288 60.0
    vertex 167.47136960623342 124.77384214947288 60.0
  endloop
endfacet
facet normal 0.0 0.0 1.0
  outer loop
    vertex 167.47136960623342 124.77384214947288 60.0
    vertex 71.47136960623342 120.77384214947288 60.0
    vertex 163.47136960623342 120.77384214947288 60.0
  endloop
endfacet
facet normal 0.0 0.0 1.0
  outer loop
    vertex 167.47136960623342 124.77384214947288 60.0
    vertex 163.47136960623342 120.77384214947288 60.0
    vertex 167.47136960623342 120.77384214947288 60.0
  endloop
endfacet
facet normal -0.9914448613738099 -2.214339875607454e-31 -0.13052619222005613
  outer loop
    vertex 151.8861841719561 124.77384214947288 46.64704761275631
    vertex 151.97136960623342 120.77384214947288 46.00000000000001
    vertex 151.8861841719561 120.77384214947288 46.64704761275631
  endloop
endfacet
facet normal -0.9914448613738099 -2.214339875607454e-31 -0.13052619222005613
  outer loop
    vertex 151.97136960623342 120.77384214947288 46.00000000000001
    vertex 151.8861841719561 124.77384214947288 46.64704761275631
    vertex 151.97136960623342 124.77384214947288 46.00000000000001
  endloop
endfacet
facet normal -0.7933533402912486 -1.0327465193446478e-30 -0.6087614290087033
  outer loop
    vertex 151.2391365591998 124.77384214947288 47.767766952966376
    vertex 151.63643311569453 120.77384214947288 47.25000000000001
    vertex 151.2391365591998 120.77384214947288 47.767766952966376
  endloop
endfacet
facet normal -0.7933533402912486 -1.0327465193446478e-30 -0.6087614290087033
  outer loop
    vertex 151.63643311569453 120.77384214947288 47.25000000000001
    vertex 151.2391365591998 124.77384214947288 47.767766952966376
    vertex 151.63643311569453 124.77384214947288 47.25000000000001
  endloop
endfacet
facet normal 0.7933533402912453 -1.03274651934465e-30 -0.6087614290087074
  outer loop
    vertex 147.30630609677235 124.77384214947288 47.25000000000001
    vertex 147.70360265326707 120.77384214947288 47.76776695296637
    vertex 147.30630609677235 120.77384214947288 47.25000000000001
  endloop
endfacet
facet normal 0.7933533402912453 -1.03274651934465e-30 -0.6087614290087074
  outer loop
    vertex 147.70360265326707 120.77384214947288 47.76776695296637
    vertex 147.30630609677235 124.77384214947288 47.25000000000001
    vertex 147.70360265326707 124.77384214947288 47.76776695296637
  endloop
endfacet
facet normal -0.9238795325112836 6.492116023669178e-31 0.3826834323650976
  outer loop
    vertex 151.8861841719561 124.77384214947288 45.352952387243704
    vertex 151.63643311569453 120.77384214947288 44.75000000000001
    vertex 151.8861841719561 120.77384214947288 45.352952387243704
  endloop
endfacet
facet normal -0.9238795325112836 6.492116023669178e-31 0.3826834323650976
  outer loop
    vertex 151.63643311569453 120.77384214947288 44.75000000000001
    vertex 151.8861841719561 124.77384214947288 45.352952387243704
    vertex 151.63643311569453 124.77384214947288 44.75000000000001
  endloop
endfacet
facet normal 0.9238795325112836 -6.492116023669178e-31 -0.3826834323650976
  outer loop
    vertex 147.05655504051077 124.77384214947288 46.64704761275631
    vertex 147.30630609677235 120.77384214947288 47.25000000000001
    vertex 147.05655504051077 120.77384214947288 46.64704761275631
  endloop
endfacet
facet normal 0.9238795325112836 -6.492116023669178e-31 -0.3826834323650976
  outer loop
    vertex 147.30630609677235 120.77384214947288 47.25000000000001
    vertex 147.05655504051077 124.77384214947288 46.64704761275631
    vertex 147.30630609677235 124.77384214947288 47.25000000000001
  endloop
endfacet
facet normal -0.13052619222004985 -1.6819581217115827e-30 -0.9914448613738107
  outer loop
    vertex 150.11841721898972 124.77384214947288 48.41481456572267
    vertex 149.47136960623345 120.77384214947288 48.5
    vertex 149.47136960623345 124.77384214947288 48.5
  endloop
endfacet
facet normal -0.13052619222004985 -1.6819581217115827e-30 -0.9914448613738107
  outer loop
    vertex 149.47136960623345 120.77384214947288 48.5
    vertex 150.11841721898972 124.77384214947288 48.41481456572267
    vertex 150.11841721898972 120.77384214947288 48.41481456572267
  endloop
endfacet
facet normal -0.6087614290087071 -1.345901467723441e-30 -0.7933533402912457
  outer loop
    vertex 151.2391365591998 124.77384214947288 47.767766952966376
    vertex 150.72136960623342 120.77384214947288 48.1650635094611
    vertex 150.72136960623342 124.77384214947288 48.1650635094611
  endloop
endfacet
facet normal -0.6087614290087071 -1.345901467723441e-30 -0.7933533402912457
  outer loop
    vertex 150.72136960623342 120.77384214947288 48.1650635094611
    vertex 151.2391365591998 124.77384214947288 47.767766952966376
    vertex 151.2391365591998 120.77384214947288 47.767766952966376
  endloop
endfacet
facet normal 0.3826834323650902 -1.5673354552841549e-30 -0.9238795325112866
  outer loop
    vertex 148.82432199347713 124.77384214947288 48.41481456572267
    vertex 148.22136960623342 120.77384214947288 48.16506350946109
    vertex 148.22136960623342 124.77384214947288 48.16506350946109
  endloop
endfacet
facet normal 0.3826834323650902 -1.5673354552841549e-30 -0.9238795325112866
  outer loop
    vertex 148.22136960623342 120.77384214947288 48.16506350946109
    vertex 148.82432199347713 124.77384214947288 48.41481456572267
    vertex 148.82432199347713 120.77384214947288 48.41481456572267
  endloop
endfacet
facet normal 0.0 0.0 -1.0
  outer loop
    vertex 167.47136960623342 124.77384214947288 0.0
    vertex 67.47136960623344 8.773842149472893 0.0
    vertex 67.47136960623344 124.77384214947288 0.0
  endloop
endfacet
facet normal 0.0 0.0 -1.0
  outer loop
    vertex 67.47136960623344 8.773842149472893 0.0
    vertex 167.47136960623342 124.77384214947288 0.0
    vertex 167.47136960623342 8.773842149472893 0.0
  endloop
endfacet
facet normal 0.3826834323650902 0.0 -0.9238795325112866
  outer loop
    vertex 84.82432199347711 124.77384214947288 48.41481456572267
    vertex 84.22136960623342 120.77384214947288 48.16506350946109
    vertex 84.22136960623342 124.77384214947288 48.16506350946109
  endloop
endfacet
facet normal 0.3826834323650902 0.0 -0.9238795325112866
  outer loop
    vertex 84.22136960623342 120.77384214947288 48.16506350946109
    vertex 84.82432199347711 124.77384214947288 48.41481456572267
    vertex 84.82432199347711 120.77384214947288 48.41481456572267
  endloop
endfacet
facet normal 0.0 0.0 1.0
  outer loop
    vertex 163.47136960623342 10.77384214947289 5.0
    vertex 71.47136960623342 120.77384214947288 5.0
    vertex 71.47136960623342 10.77384214947289 5.0
  endloop
endfacet
facet normal 0.0 0.0 1.0
  outer loop
    vertex 71.47136960623342 120.77384214947288 5.0
    vertex 163.47136960623342 10.77384214947289 5.0
    vertex 163.47136960623342 120.77384214947288 5.0
  endloop
endfacet
facet normal -0.9914448613738099 0.0 0.13052619222005613
  outer loop
    vertex 87.97136960623342 124.77384214947288 46.00000000000001
    vertex 87.88618417195609 120.77384214947288 45.352952387243704
    vertex 87.97136960623342 120.77384214947288 46.00000000000001
  endloop
endfacet
facet normal -0.9914448613738099 0.0 0.13052619222005613
  outer loop
    vertex 87.88618417195609 120.77384214947288 45.352952387243704
    vertex 87.97136960623342 124.77384214947288 46.00000000000001
    vertex 87.88618417195609 124.77384214947288 45.352952387243704
  endloop
endfacet
facet normal -0.13052619222004763 -0.0 -0.9914448613738109
  outer loop
    vertex 86.11841721898972 124.77384214947288 48.41481456572267
    vertex 85.47136960623342 120.77384214947288 48.5
    vertex 85.47136960623342 124.77384214947288 48.5
  endloop
endfacet
facet normal -0.13052619222004763 -0.0 -0.9914448613738109
  outer loop
    vertex 85.47136960623342 120.77384214947288 48.5
    vertex 86.11841721898972 124.77384214947288 48.41481456572267
    vertex 86.11841721898972 120.77384214947288 48.41481456572267
  endloop
endfacet
facet normal -0.7933533402912317 -0.0 -0.608761429008725
  outer loop
    vertex 87.23913655919978 124.77384214947288 47.767766952966376
    vertex 87.63643311569452 120.77384214947288 47.25000000000001
    vertex 87.23913655919978 120.77384214947288 47.767766952966376
  endloop
endfacet
facet normal -0.7933533402912317 -0.0 -0.608761429008725
  outer loop
    vertex 87.63643311569452 120.77384214947288 47.25000000000001
    vertex 87.23913655919978 124.77384214947288 47.767766952966376
    vertex 87.63643311569452 124.77384214947288 47.25000000000001
  endloop
endfacet
facet normal -0.38268343236508284 0.0 0.9238795325112896
  outer loop
    vertex 86.72136960623342 120.77384214947288 43.83493649053891
    vertex 86.11841721898972 124.77384214947288 43.58518543427734
    vertex 86.11841721898972 120.77384214947288 43.58518543427734
  endloop
endfacet
facet normal -0.38268343236508284 0.0 0.9238795325112896
  outer loop
    vertex 86.11841721898972 124.77384214947288 43.58518543427734
    vertex 86.72136960623342 120.77384214947288 43.83493649053891
    vertex 86.72136960623342 124.77384214947288 43.83493649053891
  endloop
endfacet
facet normal -0.13052619222005613 0.0 0.9914448613738099
  outer loop
    vertex 86.11841721898972 120.77384214947288 43.58518543427734
    vertex 85.47136960623342 124.77384214947288 43.50000000000001
    vertex 85.47136960623342 120.77384214947288 43.50000000000001
  endloop
endfacet
facet normal -0.13052619222005613 0.0 0.9914448613738099
  outer loop
    vertex 85.47136960623342 124.77384214947288 43.50000000000001
    vertex 86.11841721898972 120.77384214947288 43.58518543427734
    vertex 86.11841721898972 124.77384214947288 43.58518543427734
  endloop
endfacet
facet normal -0.7933533402912317 0.0 0.608761429008725
  outer loop
    vertex 87.63643311569452 124.77384214947288 44.75000000000001
    vertex 87.23913655919978 120.77384214947288 44.23223304703364
    vertex 87.63643311569452 120.77384214947288 44.75000000000001
  endloop
endfacet
facet normal -0.7933533402912317 0.0 0.608761429008725
  outer loop
    vertex 87.23913655919978 120.77384214947288 44.23223304703364
    vertex 87.63643311569452 124.77384214947288 44.75000000000001
    vertex 87.23913655919978 124.77384214947288 44.23223304703364
  endloop
endfacet
facet normal -0.9238795325112896 0.0 0.38268343236508284
  outer loop
    vertex 87.88618417195609 124.77384214947288 45.352952387243704
    vertex 87.63643311569452 120.77384214947288 44.75000000000001
    vertex 87.88618417195609 120.77384214947288 45.352952387243704
  endloop
endfacet
facet normal -0.9238795325112896 0.0 0.38268343236508284
  outer loop
    vertex 87.63643311569452 120.77384214947288 44.75000000000001
    vertex 87.88618417195609 124.77384214947288 45.352952387243704
    vertex 87.63643311569452 124.77384214947288 44.75000000000001
  endloop
endfacet
facet normal -0.6087614290087238 0.0 0.793353340291233
  outer loop
    vertex 87.23913655919978 120.77384214947288 44.23223304703364
    vertex 86.72136960623342 124.77384214947288 43.83493649053891
    vertex 86.72136960623342 120.77384214947288 43.83493649053891
  endloop
endfacet
facet normal -0.6087614290087238 0.0 0.793353340291233
  outer loop
    vertex 86.72136960623342 124.77384214947288 43.83493649053891
    vertex 87.23913655919978 120.77384214947288 44.23223304703364
    vertex 87.23913655919978 124.77384214947288 44.23223304703364
  endloop
endfacet
facet normal 0.9914448613738099 0.0 0.13052619222005613
  outer loop
    vertex 83.05655504051076 124.77384214947288 45.352952387243704
    vertex 82.97136960623342 120.77384214947288 46.00000000000001
    vertex 83.05655504051076 120.77384214947288 45.352952387243704
  endloop
endfacet
facet normal 0.9914448613738099 0.0 0.13052619222005613
  outer loop
    vertex 82.97136960623342 120.77384214947288 46.00000000000001
    vertex 83.05655504051076 124.77384214947288 45.352952387243704
    vertex 82.97136960623342 124.77384214947288 46.00000000000001
  endloop
endfacet
facet normal 0.6087614290087238 0.0 0.793353340291233
  outer loop
    vertex 84.22136960623342 120.77384214947288 43.83493649053891
    vertex 83.70360265326705 124.77384214947288 44.23223304703364
    vertex 83.70360265326705 120.77384214947288 44.23223304703364
  endloop
endfacet
facet normal 0.6087614290087238 0.0 0.793353340291233
  outer loop
    vertex 83.70360265326705 124.77384214947288 44.23223304703364
    vertex 84.22136960623342 120.77384214947288 43.83493649053891
    vertex 84.22136960623342 124.77384214947288 43.83493649053891
  endloop
endfacet
facet normal 0.7933533402912317 0.0 0.608761429008725
  outer loop
    vertex 83.70360265326705 124.77384214947288 44.23223304703364
    vertex 83.30630609677233 120.77384214947288 44.75000000000001
    vertex 83.70360265326705 120.77384214947288 44.23223304703364
  endloop
endfacet
facet normal 0.7933533402912317 0.0 0.608761429008725
  outer loop
    vertex 83.30630609677233 120.77384214947288 44.75000000000001
    vertex 83.70360265326705 124.77384214947288 44.23223304703364
    vertex 83.30630609677233 124.77384214947288 44.75000000000001
  endloop
endfacet
facet normal 0.13052619222004763 0.0 0.9914448613738109
  outer loop
    vertex 85.47136960623342 120.77384214947288 43.50000000000001
    vertex 84.82432199347711 124.77384214947288 43.585185434277335
    vertex 84.82432199347711 120.77384214947288 43.585185434277335
  endloop
endfacet
facet normal 0.13052619222004763 0.0 0.9914448613738109
  outer loop
    vertex 84.82432199347711 124.77384214947288 43.585185434277335
    vertex 85.47136960623342 120.77384214947288 43.50000000000001
    vertex 85.47136960623342 124.77384214947288 43.50000000000001
  endloop
endfacet
facet normal 0.0 -0.5881716976750463 0.8087360843031886
  outer loop
    vertex 167.47136960623342 65.77384214947288 20.0
    vertex 163.47136960623342 120.77384214947288 60.0
    vertex 163.47136960623342 65.77384214947288 20.0
  endloop
endfacet
facet normal 0.0 -0.5881716976750463 0.8087360843031886
  outer loop
    vertex 163.47136960623342 120.77384214947288 60.0
    vertex 167.47136960623342 65.77384214947288 20.0
    vertex 167.47136960623342 120.77384214947288 60.0
  endloop
endfacet
facet normal -2.0570830871603298e-16 -0.5881716976750462 0.8087360843031886
  outer loop
    vertex 71.47136960623344 65.77384214947288 20.0
    vertex 67.47136960623344 120.77384214947288 60.0
    vertex 67.47136960623344 65.77384214947288 20.0
  endloop
endfacet
facet normal -2.0570830871603298e-16 -0.5881716976750462 0.8087360843031886
  outer loop
    vertex 67.47136960623344 120.77384214947288 60.0
    vertex 71.47136960623344 65.77384214947288 20.0
    vertex 71.47136960623342 120.77384214947288 60.0
  endloop
endfacet
facet normal -0.6087614290087238 -0.0 -0.793353340291233
  outer loop
    vertex 87.23913655919978 124.77384214947288 47.767766952966376
    vertex 86.72136960623342 120.77384214947288 48.1650635094611
    vertex 86.72136960623342 124.77384214947288 48.1650635094611
  endloop
endfacet
facet normal -0.6087614290087238 -0.0 -0.793353340291233
  outer loop
    vertex 86.72136960623342 120.77384214947288 48.1650635094611
    vertex 87.23913655919978 124.77384214947288 47.767766952966376
    vertex 87.23913655919978 120.77384214947288 47.767766952966376
  endloop
endfacet
facet normal -0.3826834323650902 -0.0 -0.9238795325112866
  outer loop
    vertex 86.72136960623342 124.77384214947288 48.1650635094611
    vertex 86.11841721898972 120.77384214947288 48.41481456572267
    vertex 86.11841721898972 124.77384214947288 48.41481456572267
  endloop
endfacet
facet normal -0.3826834323650902 -0.0 -0.9238795325112866
  outer loop
    vertex 86.11841721898972 120.77384214947288 48.41481456572267
    vertex 86.72136960623342 124.77384214947288 48.1650635094611
    vertex 86.72136960623342 120.77384214947288 48.1650635094611
  endloop
endfacet
facet normal -0.9238795325112896 -0.0 -0.38268343236508284
  outer loop
    vertex 87.63643311569452 124.77384214947288 47.25000000000001
    vertex 87.88618417195609 120.77384214947288 46.64704761275631
    vertex 87.63643311569452 120.77384214947288 47.25000000000001
  endloop
endfacet
facet normal -0.9238795325112896 -0.0 -0.38268343236508284
  outer loop
    vertex 87.88618417195609 120.77384214947288 46.64704761275631
    vertex 87.63643311569452 124.77384214947288 47.25000000000001
    vertex 87.88618417195609 124.77384214947288 46.64704761275631
  endloop
endfacet
facet normal 0.7933533402912287 0.0 -0.6087614290087292
  outer loop
    vertex 83.30630609677233 124.77384214947288 47.25000000000001
    vertex 83.70360265326705 120.77384214947288 47.76776695296637
    vertex 83.30630609677233 120.77384214947288 47.25000000000001
  endloop
endfacet
facet normal 0.7933533402912287 0.0 -0.6087614290087292
  outer loop
    vertex 83.70360265326705 120.77384214947288 47.76776695296637
    vertex 83.30630609677233 124.77384214947288 47.25000000000001
    vertex 83.70360265326705 124.77384214947288 47.76776695296637
  endloop
endfacet
facet normal 0.13052619222005613 0.0 -0.9914448613738099
  outer loop
    vertex 85.47136960623342 124.77384214947288 48.5
    vertex 84.82432199347711 120.77384214947288 48.41481456572267
    vertex 84.82432199347711 124.77384214947288 48.41481456572267
  endloop
endfacet
facet normal 0.13052619222005613 0.0 -0.9914448613738099
  outer loop
    vertex 84.82432199347711 120.77384214947288 48.41481456572267
    vertex 85.47136960623342 124.77384214947288 48.5
    vertex 85.47136960623342 120.77384214947288 48.5
  endloop
endfacet
facet normal 0.6087614290087238 0.0 -0.793353340291233
  outer loop
    vertex 84.22136960623342 124.77384214947288 48.16506350946109
    vertex 83.70360265326705 120.77384214947288 47.76776695296637
    vertex 83.70360265326705 124.77384214947288 47.76776695296637
  endloop
endfacet
facet normal 0.6087614290087238 0.0 -0.793353340291233
  outer loop
    vertex 83.70360265326705 120.77384214947288 47.76776695296637
    vertex 84.22136960623342 124.77384214947288 48.16506350946109
    vertex 84.22136960623342 120.77384214947288 48.16506350946109
  endloop
endfacet
facet normal 0.9914448613738099 0.0 -0.13052619222005613
  outer loop
    vertex 82.97136960623342 124.77384214947288 46.00000000000001
    vertex 83.05655504051076 120.77384214947288 46.64704761275631
    vertex 82.97136960623342 120.77384214947288 46.00000000000001
  endloop
endfacet
facet normal 0.9914448613738099 0.0 -0.13052619222005613
  outer loop
    vertex 83.05655504051076 120.77384214947288 46.64704761275631
    vertex 82.97136960623342 124.77384214947288 46.00000000000001
    vertex 83.05655504051076 124.77384214947288 46.64704761275631
  endloop
endfacet
facet normal 0.9238795325112896 0.0 -0.38268343236508284
  outer loop
    vertex 83.05655504051076 124.77384214947288 46.64704761275631
    vertex 83.30630609677233 120.77384214947288 47.25000000000001
    vertex 83.05655504051076 120.77384214947288 46.64704761275631
  endloop
endfacet
facet normal 0.9238795325112896 0.0 -0.38268343236508284
  outer loop
    vertex 83.30630609677233 120.77384214947288 47.25000000000001
    vertex 83.05655504051076 124.77384214947288 46.64704761275631
    vertex 83.30630609677233 124.77384214947288 47.25000000000001
  endloop
endfacet
facet normal 0.9238795325112896 0.0 0.38268343236508284
  outer loop
    vertex 83.30630609677233 124.77384214947288 44.75000000000001
    vertex 83.05655504051076 120.77384214947288 45.352952387243704
    vertex 83.30630609677233 120.77384214947288 44.75000000000001
  endloop
endfacet
facet normal 0.9238795325112896 0.0 0.38268343236508284
  outer loop
    vertex 83.05655504051076 120.77384214947288 45.352952387243704
    vertex 83.30630609677233 124.77384214947288 44.75000000000001
    vertex 83.05655504051076 124.77384214947288 45.352952387243704
  endloop
endfacet
facet normal 0.3826834323650902 0.0 0.9238795325112866
  outer loop
    vertex 84.82432199347711 120.77384214947288 43.585185434277335
    vertex 84.22136960623342 124.77384214947288 43.83493649053891
    vertex 84.22136960623342 120.77384214947288 43.83493649053891
  endloop
endfacet
facet normal 0.3826834323650902 0.0 0.9238795325112866
  outer loop
    vertex 84.22136960623342 124.77384214947288 43.83493649053891
    vertex 84.82432199347711 120.77384214947288 43.585185434277335
    vertex 84.82432199347711 124.77384214947288 43.585185434277335
  endloop
endfacet
facet normal -0.9914448613738099 -0.0 -0.13052619222005613
  outer loop
    vertex 87.88618417195609 124.77384214947288 46.64704761275631
    vertex 87.97136960623342 120.77384214947288 46.00000000000001
    vertex 87.88618417195609 120.77384214947288 46.64704761275631
  endloop
endfacet
facet normal -0.9914448613738099 -0.0 -0.13052619222005613
  outer loop
    vertex 87.97136960623342 120.77384214947288 46.00000000000001
    vertex 87.88618417195609 124.77384214947288 46.64704761275631
    vertex 87.97136960623342 124.77384214947288 46.00000000000001
  endloop
endfacet
endsolid heater shelf
