solid rod holder
facet normal -0.7071067811865476 0.7071067811865476 0.0
  outer loop
    vertex 128.30025960466492 96.51824846313606 21.0
    vertex 126.30025960466492 94.51824846313608 0.0
    vertex 126.30025960466492 94.51824846313608 21.0
  endloop
endfacet
facet normal -0.7071067811865476 0.7071067811865476 0.0
  outer loop
    vertex 126.30025960466492 94.51824846313608 0.0
    vertex 128.30025960466492 96.51824846313606 21.0
    vertex 128.30025960466492 96.51824846313606 0.0
  endloop
endfacet
facet normal -0.7071067811865476 -0.7071067811865476 0.0
  outer loop
    vertex 126.30025960466492 72.62640776165976 21.0
    vertex 128.30025960466492 70.62640776165976 0.0
    vertex 128.30025960466492 70.62640776165976 21.0
  endloop
endfacet
facet normal -0.7071067811865476 -0.7071067811865476 0.0
  outer loop
    vertex 128.30025960466492 70.62640776165976 0.0
    vertex 126.30025960466492 72.62640776165976 21.0
    vertex 126.30025960466492 72.62640776165976 0.0
  endloop
endfacet
facet normal 0.0 -1.0 0.0
  outer loop
    vertex 126.30025960466492 72.62640776165976 21.0
    vertex 120.38967581314374 72.62640776165976 0.0
    vertex 126.30025960466492 72.62640776165976 0.0
  endloop
endfacet
facet normal 0.0 -1.0 0.0
  outer loop
    vertex 120.38967581314374 72.62640776165976 0.0
    vertex 126.30025960466492 72.62640776165976 21.0
    vertex 120.38967581314374 72.62640776165976 21.0
  endloop
endfacet
facet normal -0.0 -0.382683432365078 -0.9238795325112917
  outer loop
    vertex 133.30025960466492 102.82232811239795 12.665063509461092
    vertex 128.30025960466492 102.21937572515421 12.914814565722667
    vertex 128.30025960466492 102.82232811239795 12.665063509461092
  endloop
endfacet
facet normal -0.0 -0.382683432365078 -0.9238795325112917
  outer loop
    vertex 128.30025960466492 102.21937572515421 12.914814565722667
    vertex 133.30025960466492 102.82232811239795 12.665063509461092
    vertex 133.30025960466492 102.21937572515421 12.914814565722667
  endloop
endfacet
facet normal -0.0 -1.0 -0.0
  outer loop
    vertex 133.30025960466492 58.572328112397926 21.0
    vertex 128.30025960466492 58.572328112397926 0.0
    vertex 133.30025960466492 58.572328112397926 0.0
  endloop
endfacet
facet normal -0.0 -1.0 -0.0
  outer loop
    vertex 128.30025960466492 58.572328112397926 0.0
    vertex 133.30025960466492 58.572328112397926 21.0
    vertex 128.30025960466492 58.572328112397926 21.0
  endloop
endfacet
facet normal -0.28930300298324746 -0.9572375736800531 -0.0
  outer loop
    vertex 117.51954220306625 72.71741929031914 21.0
    vertex 114.77076154113303 73.5481749166182 0.0
    vertex 117.51954220306625 72.71741929031914 0.0
  endloop
endfacet
facet normal -0.28930300298324746 -0.9572375736800531 -0.0
  outer loop
    vertex 114.77076154113303 73.5481749166182 0.0
    vertex 117.51954220306625 72.71741929031914 21.0
    vertex 114.77076154113303 73.5481749166182 21.0
  endloop
endfacet
facet normal 0.0 -0.38268343236508845 0.9238795325112875
  outer loop
    vertex 133.30025960466492 102.21937572515421 8.085185434277335
    vertex 128.30025960466492 102.8223281123979 8.334936490538906
    vertex 128.30025960466492 102.21937572515421 8.085185434277335
  endloop
endfacet
facet normal 0.0 -0.38268343236508845 0.9238795325112875
  outer loop
    vertex 128.30025960466492 102.8223281123979 8.334936490538906
    vertex 133.30025960466492 102.21937572515421 8.085185434277335
    vertex 133.30025960466492 102.8223281123979 8.334936490538906
  endloop
endfacet
facet normal 0.0 1.0 0.0
  outer loop
    vertex 118.21084339618609 94.51824846313608 21.0
    vertex 126.30025960466492 94.51824846313608 0.0
    vertex 118.21084339618609 94.51824846313608 0.0
  endloop
endfacet
facet normal 0.0 1.0 0.0
  outer loop
    vertex 126.30025960466492 94.51824846313608 0.0
    vertex 118.21084339618609 94.51824846313608 21.0
    vertex 126.30025960466492 94.51824846313608 21.0
  endloop
endfacet
facet normal 0.0 1.0 0.0
  outer loop
    vertex 128.30025960466492 108.5723281123979 21.0
    vertex 133.30025960466492 108.5723281123979 0.0
    vertex 128.30025960466492 108.5723281123979 0.0
  endloop
endfacet
facet normal 0.0 1.0 0.0
  outer loop
    vertex 133.30025960466492 108.5723281123979 0.0
    vertex 128.30025960466492 108.5723281123979 21.0
    vertex 133.30025960466492 108.5723281123979 21.0
  endloop
endfacet
facet normal -0.03169392744837752 -0.9994976212892641 -0.0
  outer loop
    vertex 120.38967581314374 72.62640776165976 21.0
    vertex 117.51954220306625 72.71741929031914 0.0
    vertex 120.38967581314374 72.62640776165976 0.0
  endloop
endfacet
facet normal -0.03169392744837752 -0.9994976212892641 -0.0
  outer loop
    vertex 117.51954220306625 72.71741929031914 0.0
    vertex 120.38967581314374 72.62640776165976 21.0
    vertex 117.51954220306625 72.71741929031914 21.0
  endloop
endfacet
facet normal 0.0 0.3826834323650902 0.9238795325112866
  outer loop
    vertex 133.30025960466492 100.32232811239793 8.334936490538908
    vertex 128.30025960466492 100.92528049964163 8.085185434277335
    vertex 128.30025960466492 100.32232811239793 8.334936490538908
  endloop
endfacet
facet normal 0.0 0.3826834323650902 0.9238795325112866
  outer loop
    vertex 128.30025960466492 100.92528049964163 8.085185434277335
    vertex 133.30025960466492 100.32232811239793 8.334936490538908
    vertex 133.30025960466492 100.92528049964163 8.085185434277335
  endloop
endfacet
facet normal -0.47230106432863556 0.88143729478281 0.0
  outer loop
    vertex 112.88383731745866 92.50706509969882 21.0
    vertex 115.414951700371 93.86331360888128 0.0
    vertex 112.88383731745866 92.50706509969882 0.0
  endloop
endfacet
facet normal -0.47230106432863556 0.88143729478281 0.0
  outer loop
    vertex 115.414951700371 93.86331360888128 0.0
    vertex 112.88383731745866 92.50706509969882 21.0
    vertex 115.414951700371 93.86331360888128 21.0
  endloop
endfacet
facet normal 1.0 0.0 0.0
  outer loop
    vertex 133.30025960466492 58.572328112397926 0.0
    vertex 133.30025960466492 63.15751354667526 9.852952387243699
    vertex 133.30025960466492 58.572328112397926 21.0
  endloop
endfacet
facet normal 1.0 0.0 0.0
  outer loop
    vertex 133.30025960466492 63.15751354667526 9.852952387243699
    vertex 133.30025960466492 58.572328112397926 0.0
    vertex 133.30025960466492 63.407264602936834 9.250000000000004
  endloop
endfacet
facet normal 1.0 0.0 0.0
  outer loop
    vertex 133.30025960466492 63.407264602936834 9.250000000000004
    vertex 133.30025960466492 58.572328112397926 0.0
    vertex 133.30025960466492 63.804561159431564 8.732233047033636
  endloop
endfacet
facet normal 1.0 0.0 0.0
  outer loop
    vertex 133.30025960466492 63.804561159431564 8.732233047033636
    vertex 133.30025960466492 58.572328112397926 0.0
    vertex 133.30025960466492 64.32232811239793 8.334936490538908
  endloop
endfacet
facet normal 1.0 0.0 0.0
  outer loop
    vertex 133.30025960466492 64.32232811239793 8.334936490538908
    vertex 133.30025960466492 58.572328112397926 0.0
    vertex 133.30025960466492 64.92528049964163 8.085185434277335
  endloop
endfacet
facet normal 1.0 0.0 0.0
  outer loop
    vertex 133.30025960466492 64.92528049964163 8.085185434277335
    vertex 133.30025960466492 58.572328112397926 0.0
    vertex 133.30025960466492 108.5723281123979 0.0
  endloop
endfacet
facet normal 1.0 0.0 0.0
  outer loop
    vertex 133.30025960466492 58.572328112397926 21.0
    vertex 133.30025960466492 63.15751354667526 9.852952387243699
    vertex 133.30025960466492 63.07232811239793 10.5
  endloop
endfacet
facet normal 1.0 0.0 0.0
  outer loop
    vertex 133.30025960466492 64.92528049964163 8.085185434277335
    vertex 133.30025960466492 108.5723281123979 0.0
    vertex 133.30025960466492 65.57232811239793 8.000000000000005
  endloop
endfacet
facet normal 1.0 0.0 0.0
  outer loop
    vertex 133.30025960466492 65.57232811239793 8.000000000000005
    vertex 133.30025960466492 108.5723281123979 0.0
    vertex 133.30025960466492 66.21937572515422 8.085185434277335
  endloop
endfacet
facet normal 1.0 0.0 0.0
  outer loop
    vertex 133.30025960466492 66.21937572515422 8.085185434277335
    vertex 133.30025960466492 108.5723281123979 0.0
    vertex 133.30025960466492 66.82232811239793 8.334936490538908
  endloop
endfacet
facet normal 1.0 0.0 0.0
  outer loop
    vertex 133.30025960466492 66.82232811239793 8.334936490538908
    vertex 133.30025960466492 108.5723281123979 0.0
    vertex 133.30025960466492 67.3400950653643 8.732233047033635
  endloop
endfacet
facet normal 1.0 0.0 0.0
  outer loop
    vertex 133.30025960466492 67.3400950653643 8.732233047033635
    vertex 133.30025960466492 108.5723281123979 0.0
    vertex 133.30025960466492 67.73739162185902 9.250000000000002
  endloop
endfacet
facet normal 1.0 0.0 0.0
  outer loop
    vertex 133.30025960466492 67.73739162185902 9.250000000000002
    vertex 133.30025960466492 108.5723281123979 0.0
    vertex 133.30025960466492 67.98714267812059 9.852952387243699
  endloop
endfacet
facet normal 1.0 0.0 0.0
  outer loop
    vertex 133.30025960466492 67.98714267812059 9.852952387243699
    vertex 133.30025960466492 108.5723281123979 0.0
    vertex 133.30025960466492 68.07232811239793 10.5
  endloop
endfacet
facet normal 1.0 0.0 0.0
  outer loop
    vertex 133.30025960466492 68.07232811239793 10.5
    vertex 133.30025960466492 108.5723281123979 0.0
    vertex 133.30025960466492 99.80456115943157 8.732233047033636
  endloop
endfacet
facet normal 1.0 0.0 0.0
  outer loop
    vertex 133.30025960466492 68.07232811239793 10.5
    vertex 133.30025960466492 99.80456115943157 8.732233047033636
    vertex 133.30025960466492 99.40726460293683 9.250000000000004
  endloop
endfacet
facet normal 1.0 0.0 0.0
  outer loop
    vertex 133.30025960466492 68.07232811239793 10.5
    vertex 133.30025960466492 99.40726460293683 9.250000000000004
    vertex 133.30025960466492 99.15751354667526 9.8529523872437
  endloop
endfacet
facet normal 1.0 0.0 0.0
  outer loop
    vertex 133.30025960466492 68.07232811239793 10.5
    vertex 133.30025960466492 99.15751354667526 9.8529523872437
    vertex 133.30025960466492 99.07232811239793 10.5
  endloop
endfacet
facet normal 1.0 0.0 0.0
  outer loop
    vertex 133.30025960466492 99.80456115943157 8.732233047033636
    vertex 133.30025960466492 108.5723281123979 0.0
    vertex 133.30025960466492 100.32232811239793 8.334936490538908
  endloop
endfacet
facet normal 1.0 0.0 0.0
  outer loop
    vertex 133.30025960466492 100.32232811239793 8.334936490538908
    vertex 133.30025960466492 108.5723281123979 0.0
    vertex 133.30025960466492 100.92528049964163 8.085185434277335
  endloop
endfacet
facet normal 1.0 0.0 0.0
  outer loop
    vertex 133.30025960466492 100.92528049964163 8.085185434277335
    vertex 133.30025960466492 108.5723281123979 0.0
    vertex 133.30025960466492 101.57232811239793 8.000000000000005
  endloop
endfacet
facet normal 1.0 0.0 0.0
  outer loop
    vertex 133.30025960466492 101.57232811239793 8.000000000000005
    vertex 133.30025960466492 108.5723281123979 0.0
    vertex 133.30025960466492 102.21937572515421 8.085185434277335
  endloop
endfacet
facet normal 1.0 0.0 0.0
  outer loop
    vertex 133.30025960466492 102.21937572515421 8.085185434277335
    vertex 133.30025960466492 108.5723281123979 0.0
    vertex 133.30025960466492 102.8223281123979 8.334936490538906
  endloop
endfacet
facet normal 1.0 0.0 0.0
  outer loop
    vertex 133.30025960466492 102.8223281123979 8.334936490538906
    vertex 133.30025960466492 108.5723281123979 0.0
    vertex 133.30025960466492 103.34009506536431 8.732233047033635
  endloop
endfacet
facet normal 1.0 0.0 0.0
  outer loop
    vertex 133.30025960466492 103.34009506536431 8.732233047033635
    vertex 133.30025960466492 108.5723281123979 0.0
    vertex 133.30025960466492 103.73739162185902 9.250000000000002
  endloop
endfacet
facet normal 1.0 0.0 0.0
  outer loop
    vertex 133.30025960466492 103.73739162185902 9.250000000000002
    vertex 133.30025960466492 108.5723281123979 0.0
    vertex 133.30025960466492 103.9871426781206 9.852952387243699
  endloop
endfacet
facet normal 1.0 0.0 0.0
  outer loop
    vertex 133.30025960466492 103.9871426781206 9.852952387243699
    vertex 133.30025960466492 108.5723281123979 0.0
    vertex 133.30025960466492 104.07232811239794 10.5
  endloop
endfacet
facet normal 1.0 0.0 0.0
  outer loop
    vertex 133.30025960466492 58.572328112397926 21.0
    vertex 133.30025960466492 64.92528049964163 12.914814565722667
    vertex 133.30025960466492 108.5723281123979 21.0
  endloop
endfacet
facet normal 1.0 0.0 0.0
  outer loop
    vertex 133.30025960466492 64.92528049964163 12.914814565722667
    vertex 133.30025960466492 58.572328112397926 21.0
    vertex 133.30025960466492 64.32232811239793 12.665063509461094
  endloop
endfacet
facet normal 1.0 0.0 0.0
  outer loop
    vertex 133.30025960466492 64.32232811239793 12.665063509461094
    vertex 133.30025960466492 58.572328112397926 21.0
    vertex 133.30025960466492 63.804561159431564 12.267766952966367
  endloop
endfacet
facet normal 1.0 0.0 0.0
  outer loop
    vertex 133.30025960466492 63.804561159431564 12.267766952966367
    vertex 133.30025960466492 58.572328112397926 21.0
    vertex 133.30025960466492 63.407264602936834 11.75
  endloop
endfacet
facet normal 1.0 0.0 0.0
  outer loop
    vertex 133.30025960466492 63.407264602936834 11.75
    vertex 133.30025960466492 58.572328112397926 21.0
    vertex 133.30025960466492 63.15751354667526 11.147047612756303
  endloop
endfacet
facet normal 1.0 0.0 0.0
  outer loop
    vertex 133.30025960466492 63.15751354667526 11.147047612756303
    vertex 133.30025960466492 58.572328112397926 21.0
    vertex 133.30025960466492 63.07232811239793 10.5
  endloop
endfacet
facet normal 1.0 0.0 0.0
  outer loop
    vertex 133.30025960466492 108.5723281123979 21.0
    vertex 133.30025960466492 64.92528049964163 12.914814565722667
    vertex 133.30025960466492 65.57232811239793 12.999999999999996
  endloop
endfacet
facet normal 1.0 0.0 0.0
  outer loop
    vertex 133.30025960466492 108.5723281123979 21.0
    vertex 133.30025960466492 65.57232811239793 12.999999999999996
    vertex 133.30025960466492 66.21937572515422 12.914814565722667
  endloop
endfacet
facet normal 1.0 0.0 0.0
  outer loop
    vertex 133.30025960466492 108.5723281123979 21.0
    vertex 133.30025960466492 66.21937572515422 12.914814565722667
    vertex 133.30025960466492 66.82232811239793 12.665063509461092
  endloop
endfacet
facet normal 1.0 0.0 0.0
  outer loop
    vertex 133.30025960466492 108.5723281123979 21.0
    vertex 133.30025960466492 66.82232811239793 12.665063509461092
    vertex 133.30025960466492 67.3400950653643 12.267766952966365
  endloop
endfacet
facet normal 1.0 0.0 0.0
  outer loop
    vertex 133.30025960466492 108.5723281123979 21.0
    vertex 133.30025960466492 67.3400950653643 12.267766952966365
    vertex 133.30025960466492 67.73739162185902 11.749999999999998
  endloop
endfacet
facet normal 1.0 0.0 0.0
  outer loop
    vertex 133.30025960466492 108.5723281123979 21.0
    vertex 133.30025960466492 67.73739162185902 11.749999999999998
    vertex 133.30025960466492 67.98714267812059 11.1470476127563
  endloop
endfacet
facet normal 1.0 0.0 0.0
  outer loop
    vertex 133.30025960466492 108.5723281123979 21.0
    vertex 133.30025960466492 67.98714267812059 11.1470476127563
    vertex 133.30025960466492 68.07232811239793 10.5
  endloop
endfacet
facet normal 1.0 0.0 0.0
  outer loop
    vertex 133.30025960466492 108.5723281123979 21.0
    vertex 133.30025960466492 68.07232811239793 10.5
    vertex 133.30025960466492 99.80456115943157 12.267766952966367
  endloop
endfacet
facet normal 1.0 0.0 0.0
  outer loop
    vertex 133.30025960466492 99.80456115943157 12.267766952966367
    vertex 133.30025960466492 68.07232811239793 10.5
    vertex 133.30025960466492 99.40726460293683 11.75
  endloop
endfacet
facet normal 1.0 0.0 0.0
  outer loop
    vertex 133.30025960466492 99.40726460293683 11.75
    vertex 133.30025960466492 68.07232811239793 10.5
    vertex 133.30025960466492 99.15751354667526 11.147047612756301
  endloop
endfacet
facet normal 1.0 0.0 0.0
  outer loop
    vertex 133.30025960466492 99.15751354667526 11.147047612756301
    vertex 133.30025960466492 68.07232811239793 10.5
    vertex 133.30025960466492 99.07232811239793 10.5
  endloop
endfacet
facet normal 1.0 0.0 0.0
  outer loop
    vertex 133.30025960466492 108.5723281123979 21.0
    vertex 133.30025960466492 99.80456115943157 12.267766952966367
    vertex 133.30025960466492 100.32232811239793 12.665063509461092
  endloop
endfacet
facet normal 1.0 0.0 0.0
  outer loop
    vertex 133.30025960466492 108.5723281123979 21.0
    vertex 133.30025960466492 100.32232811239793 12.665063509461092
    vertex 133.30025960466492 100.92528049964163 12.914814565722667
  endloop
endfacet
facet normal 1.0 0.0 0.0
  outer loop
    vertex 133.30025960466492 108.5723281123979 21.0
    vertex 133.30025960466492 100.92528049964163 12.914814565722667
    vertex 133.30025960466492 101.57232811239793 12.999999999999996
  endloop
endfacet
facet normal 1.0 0.0 0.0
  outer loop
    vertex 133.30025960466492 108.5723281123979 21.0
    vertex 133.30025960466492 101.57232811239793 12.999999999999996
    vertex 133.30025960466492 102.21937572515421 12.914814565722667
  endloop
endfacet
facet normal 1.0 0.0 0.0
  outer loop
    vertex 133.30025960466492 108.5723281123979 21.0
    vertex 133.30025960466492 102.21937572515421 12.914814565722667
    vertex 133.30025960466492 102.82232811239795 12.665063509461092
  endloop
endfacet
facet normal 1.0 0.0 0.0
  outer loop
    vertex 133.30025960466492 108.5723281123979 21.0
    vertex 133.30025960466492 102.82232811239795 12.665063509461092
    vertex 133.30025960466492 103.34009506536431 12.267766952966365
  endloop
endfacet
facet normal 1.0 0.0 0.0
  outer loop
    vertex 133.30025960466492 108.5723281123979 21.0
    vertex 133.30025960466492 103.34009506536431 12.267766952966365
    vertex 133.30025960466492 103.73739162185902 11.749999999999998
  endloop
endfacet
facet normal 1.0 0.0 0.0
  outer loop
    vertex 133.30025960466492 108.5723281123979 21.0
    vertex 133.30025960466492 103.73739162185902 11.749999999999998
    vertex 133.30025960466492 103.9871426781206 11.147047612756301
  endloop
endfacet
facet normal 1.0 0.0 0.0
  outer loop
    vertex 133.30025960466492 108.5723281123979 21.0
    vertex 133.30025960466492 103.9871426781206 11.147047612756301
    vertex 133.30025960466492 104.07232811239794 10.5
  endloop
endfacet
facet normal 1.0 0.0 0.0
  outer loop
    vertex 133.30025960466492 108.5723281123979 21.0
    vertex 133.30025960466492 104.07232811239794 10.5
    vertex 133.30025960466492 108.5723281123979 0.0
  endloop
endfacet
facet normal -0.5271965569606255 -0.8497433673344336 -0.0
  outer loop
    vertex 114.77076154113303 73.5481749166182 21.0
    vertex 112.33065868688007 75.06206001751322 0.0
    vertex 114.77076154113303 73.5481749166182 0.0
  endloop
endfacet
facet normal -0.5271965569606255 -0.8497433673344336 -0.0
  outer loop
    vertex 112.33065868688007 75.06206001751322 0.0
    vertex 114.77076154113303 73.5481749166182 21.0
    vertex 112.33065868688007 75.06206001751322 21.0
  endloop
endfacet
facet normal -0.7291625368146447 -0.68434055477228 0.0
  outer loop
    vertex 110.36552261736402 77.15590582519165 21.0
    vertex 112.33065868688007 75.06206001751322 0.0
    vertex 112.33065868688007 75.06206001751322 21.0
  endloop
endfacet
facet normal -0.7291625368146447 -0.68434055477228 0.0
  outer loop
    vertex 112.33065868688007 75.06206001751322 0.0
    vertex 110.36552261736402 77.15590582519165 21.0
    vertex 110.36552261736402 77.15590582519165 0.0
  endloop
endfacet
facet normal 0.0 0.7933533402912302 0.6087614290087271
  outer loop
    vertex 128.30025960466492 99.40726460293683 9.250000000000004
    vertex 133.30025960466492 99.80456115943157 8.732233047033636
    vertex 128.30025960466492 99.80456115943157 8.732233047033636
  endloop
endfacet
facet normal 0.0 0.7933533402912302 0.6087614290087271
  outer loop
    vertex 133.30025960466492 99.80456115943157 8.732233047033636
    vertex 128.30025960466492 99.40726460293683 9.250000000000004
    vertex 133.30025960466492 99.40726460293683 9.250000000000004
  endloop
endfacet
facet normal 0.0 0.92387953251129 -0.3826834323650821
  outer loop
    vertex 128.30025960466492 99.40726460293683 11.75
    vertex 133.30025960466492 99.15751354667526 11.147047612756301
    vertex 128.30025960466492 99.15751354667526 11.147047612756301
  endloop
endfacet
facet normal 0.0 0.92387953251129 -0.3826834323650821
  outer loop
    vertex 133.30025960466492 99.15751354667526 11.147047612756301
    vertex 128.30025960466492 99.40726460293683 11.75
    vertex 133.30025960466492 99.40726460293683 11.75
  endloop
endfacet
facet normal -0.22807503686541028 0.9736435577555278 0.0
  outer loop
    vertex 115.414951700371 93.86331360888128 21.0
    vertex 118.21084339618609 94.51824846313608 0.0
    vertex 115.414951700371 93.86331360888128 0.0
  endloop
endfacet
facet normal -0.22807503686541028 0.9736435577555278 0.0
  outer loop
    vertex 118.21084339618609 94.51824846313608 0.0
    vertex 115.414951700371 93.86331360888128 21.0
    vertex 118.21084339618609 94.51824846313608 21.0
  endloop
endfacet
facet normal 0.0 0.7933533402912302 -0.6087614290087271
  outer loop
    vertex 128.30025960466492 99.80456115943157 12.267766952966367
    vertex 133.30025960466492 99.40726460293683 11.75
    vertex 128.30025960466492 99.40726460293683 11.75
  endloop
endfacet
facet normal 0.0 0.7933533402912302 -0.6087614290087271
  outer loop
    vertex 133.30025960466492 99.40726460293683 11.75
    vertex 128.30025960466492 99.80456115943157 12.267766952966367
    vertex 133.30025960466492 99.80456115943157 12.267766952966367
  endloop
endfacet
facet normal -0.684340554772278 0.7291625368146466 0.0
  outer loop
    vertex 110.78999150978021 90.54192903018279 21.0
    vertex 112.88383731745866 92.50706509969882 0.0
    vertex 110.78999150978021 90.54192903018279 0.0
  endloop
endfacet
facet normal -0.684340554772278 0.7291625368146466 0.0
  outer loop
    vertex 112.88383731745866 92.50706509969882 0.0
    vertex 110.78999150978021 90.54192903018279 21.0
    vertex 112.88383731745866 92.50706509969882 21.0
  endloop
endfacet
facet normal 0.0 0.13052619222005188 0.9914448613738104
  outer loop
    vertex 133.30025960466492 100.92528049964163 8.085185434277335
    vertex 128.30025960466492 101.57232811239793 8.000000000000005
    vertex 128.30025960466492 100.92528049964163 8.085185434277335
  endloop
endfacet
facet normal 0.0 0.13052619222005188 0.9914448613738104
  outer loop
    vertex 128.30025960466492 101.57232811239793 8.000000000000005
    vertex 133.30025960466492 100.92528049964163 8.085185434277335
    vertex 133.30025960466492 101.57232811239793 8.000000000000005
  endloop
endfacet
facet normal 0.0 0.6087614290087238 0.793353340291233
  outer loop
    vertex 133.30025960466492 99.80456115943157 8.732233047033636
    vertex 128.30025960466492 100.32232811239793 8.334936490538908
    vertex 128.30025960466492 99.80456115943157 8.732233047033636
  endloop
endfacet
facet normal 0.0 0.6087614290087238 0.793353340291233
  outer loop
    vertex 128.30025960466492 100.32232811239793 8.334936490538908
    vertex 133.30025960466492 99.80456115943157 8.732233047033636
    vertex 133.30025960466492 100.32232811239793 8.334936490538908
  endloop
endfacet
facet normal -1.0 0.0 0.0
  outer loop
    vertex 128.30025960466492 96.51824846313606 21.0
    vertex 128.30025960466492 99.15751354667526 11.147047612756301
    vertex 128.30025960466492 96.51824846313606 0.0
  endloop
endfacet
facet normal -1.0 0.0 0.0
  outer loop
    vertex 128.30025960466492 99.15751354667526 11.147047612756301
    vertex 128.30025960466492 96.51824846313606 21.0
    vertex 128.30025960466492 99.40726460293683 11.75
  endloop
endfacet
facet normal -1.0 0.0 0.0
  outer loop
    vertex 128.30025960466492 99.40726460293683 11.75
    vertex 128.30025960466492 96.51824846313606 21.0
    vertex 128.30025960466492 99.80456115943157 12.267766952966367
  endloop
endfacet
facet normal -1.0 0.0 0.0
  outer loop
    vertex 128.30025960466492 99.80456115943157 12.267766952966367
    vertex 128.30025960466492 96.51824846313606 21.0
    vertex 128.30025960466492 108.5723281123979 21.0
  endloop
endfacet
facet normal -1.0 0.0 0.0
  outer loop
    vertex 128.30025960466492 96.51824846313606 0.0
    vertex 128.30025960466492 99.15751354667526 11.147047612756301
    vertex 128.30025960466492 99.07232811239793 10.5
  endloop
endfacet
facet normal -1.0 0.0 0.0
  outer loop
    vertex 128.30025960466492 99.80456115943157 12.267766952966367
    vertex 128.30025960466492 108.5723281123979 21.0
    vertex 128.30025960466492 100.32232811239793 12.665063509461092
  endloop
endfacet
facet normal -1.0 0.0 0.0
  outer loop
    vertex 128.30025960466492 100.32232811239793 12.665063509461092
    vertex 128.30025960466492 108.5723281123979 21.0
    vertex 128.30025960466492 100.92528049964163 12.914814565722667
  endloop
endfacet
facet normal -1.0 0.0 0.0
  outer loop
    vertex 128.30025960466492 100.92528049964163 12.914814565722667
    vertex 128.30025960466492 108.5723281123979 21.0
    vertex 128.30025960466492 101.57232811239793 12.999999999999996
  endloop
endfacet
facet normal -1.0 0.0 0.0
  outer loop
    vertex 128.30025960466492 101.57232811239793 12.999999999999996
    vertex 128.30025960466492 108.5723281123979 21.0
    vertex 128.30025960466492 102.21937572515421 12.914814565722667
  endloop
endfacet
facet normal -1.0 0.0 0.0
  outer loop
    vertex 128.30025960466492 102.21937572515421 12.914814565722667
    vertex 128.30025960466492 108.5723281123979 21.0
    vertex 128.30025960466492 102.82232811239795 12.665063509461092
  endloop
endfacet
facet normal -1.0 0.0 0.0
  outer loop
    vertex 128.30025960466492 102.82232811239795 12.665063509461092
    vertex 128.30025960466492 108.5723281123979 21.0
    vertex 128.30025960466492 103.34009506536431 12.267766952966365
  endloop
endfacet
facet normal -1.0 0.0 0.0
  outer loop
    vertex 128.30025960466492 103.34009506536431 12.267766952966365
    vertex 128.30025960466492 108.5723281123979 21.0
    vertex 128.30025960466492 103.73739162185902 11.749999999999998
  endloop
endfacet
facet normal -1.0 0.0 0.0
  outer loop
    vertex 128.30025960466492 103.73739162185902 11.749999999999998
    vertex 128.30025960466492 108.5723281123979 21.0
    vertex 128.30025960466492 103.9871426781206 11.147047612756301
  endloop
endfacet
facet normal -1.0 0.0 0.0
  outer loop
    vertex 128.30025960466492 103.9871426781206 11.147047612756301
    vertex 128.30025960466492 108.5723281123979 21.0
    vertex 128.30025960466492 104.07232811239794 10.5
  endloop
endfacet
facet normal -1.0 0.0 0.0
  outer loop
    vertex 128.30025960466492 96.51824846313606 0.0
    vertex 128.30025960466492 99.80456115943157 8.732233047033636
    vertex 128.30025960466492 108.5723281123979 0.0
  endloop
endfacet
facet normal -1.0 0.0 0.0
  outer loop
    vertex 128.30025960466492 99.80456115943157 8.732233047033636
    vertex 128.30025960466492 96.51824846313606 0.0
    vertex 128.30025960466492 99.40726460293683 9.250000000000004
  endloop
endfacet
facet normal -1.0 0.0 0.0
  outer loop
    vertex 128.30025960466492 99.40726460293683 9.250000000000004
    vertex 128.30025960466492 96.51824846313606 0.0
    vertex 128.30025960466492 99.15751354667526 9.8529523872437
  endloop
endfacet
facet normal -1.0 0.0 0.0
  outer loop
    vertex 128.30025960466492 99.15751354667526 9.8529523872437
    vertex 128.30025960466492 96.51824846313606 0.0
    vertex 128.30025960466492 99.07232811239793 10.5
  endloop
endfacet
facet normal -1.0 0.0 0.0
  outer loop
    vertex 128.30025960466492 108.5723281123979 0.0
    vertex 128.30025960466492 99.80456115943157 8.732233047033636
    vertex 128.30025960466492 100.32232811239793 8.334936490538908
  endloop
endfacet
facet normal -1.0 0.0 0.0
  outer loop
    vertex 128.30025960466492 108.5723281123979 0.0
    vertex 128.30025960466492 100.32232811239793 8.334936490538908
    vertex 128.30025960466492 100.92528049964163 8.085185434277335
  endloop
endfacet
facet normal -1.0 0.0 0.0
  outer loop
    vertex 128.30025960466492 108.5723281123979 0.0
    vertex 128.30025960466492 100.92528049964163 8.085185434277335
    vertex 128.30025960466492 101.57232811239793 8.000000000000005
  endloop
endfacet
facet normal -1.0 0.0 0.0
  outer loop
    vertex 128.30025960466492 108.5723281123979 0.0
    vertex 128.30025960466492 101.57232811239793 8.000000000000005
    vertex 128.30025960466492 102.21937572515421 8.085185434277335
  endloop
endfacet
facet normal -1.0 0.0 0.0
  outer loop
    vertex 128.30025960466492 108.5723281123979 0.0
    vertex 128.30025960466492 102.21937572515421 8.085185434277335
    vertex 128.30025960466492 102.8223281123979 8.334936490538906
  endloop
endfacet
facet normal -1.0 0.0 0.0
  outer loop
    vertex 128.30025960466492 108.5723281123979 0.0
    vertex 128.30025960466492 102.8223281123979 8.334936490538906
    vertex 128.30025960466492 103.34009506536431 8.732233047033635
  endloop
endfacet
facet normal -1.0 0.0 0.0
  outer loop
    vertex 128.30025960466492 108.5723281123979 0.0
    vertex 128.30025960466492 103.34009506536431 8.732233047033635
    vertex 128.30025960466492 103.73739162185902 9.250000000000002
  endloop
endfacet
facet normal -1.0 0.0 0.0
  outer loop
    vertex 128.30025960466492 108.5723281123979 0.0
    vertex 128.30025960466492 103.73739162185902 9.250000000000002
    vertex 128.30025960466492 103.9871426781206 9.852952387243699
  endloop
endfacet
facet normal -1.0 0.0 0.0
  outer loop
    vertex 128.30025960466492 108.5723281123979 0.0
    vertex 128.30025960466492 103.9871426781206 9.852952387243699
    vertex 128.30025960466492 104.07232811239794 10.5
  endloop
endfacet
facet normal -1.0 0.0 0.0
  outer loop
    vertex 128.30025960466492 108.5723281123979 0.0
    vertex 128.30025960466492 104.07232811239794 10.5
    vertex 128.30025960466492 108.5723281123979 21.0
  endloop
endfacet
facet normal 0.0 0.9914448613738099 0.1305261922200564
  outer loop
    vertex 128.30025960466492 99.07232811239793 10.5
    vertex 133.30025960466492 99.15751354667526 9.8529523872437
    vertex 128.30025960466492 99.15751354667526 9.8529523872437
  endloop
endfacet
facet normal 0.0 0.9914448613738099 0.1305261922200564
  outer loop
    vertex 133.30025960466492 99.15751354667526 9.8529523872437
    vertex 128.30025960466492 99.07232811239793 10.5
    vertex 133.30025960466492 99.07232811239793 10.5
  endloop
endfacet
facet normal -1.0 0.0 0.0
  outer loop
    vertex 128.30025960466492 58.572328112397926 21.0
    vertex 128.30025960466492 63.15751354667526 11.147047612756303
    vertex 128.30025960466492 58.572328112397926 0.0
  endloop
endfacet
facet normal -1.0 0.0 0.0
  outer loop
    vertex 128.30025960466492 63.15751354667526 11.147047612756303
    vertex 128.30025960466492 58.572328112397926 21.0
    vertex 128.30025960466492 63.407264602936834 11.75
  endloop
endfacet
facet normal -1.0 0.0 0.0
  outer loop
    vertex 128.30025960466492 63.407264602936834 11.75
    vertex 128.30025960466492 58.572328112397926 21.0
    vertex 128.30025960466492 63.804561159431564 12.267766952966367
  endloop
endfacet
facet normal -1.0 0.0 0.0
  outer loop
    vertex 128.30025960466492 63.804561159431564 12.267766952966367
    vertex 128.30025960466492 58.572328112397926 21.0
    vertex 128.30025960466492 70.62640776165976 21.0
  endloop
endfacet
facet normal -1.0 0.0 0.0
  outer loop
    vertex 128.30025960466492 58.572328112397926 0.0
    vertex 128.30025960466492 63.15751354667526 11.147047612756303
    vertex 128.30025960466492 63.07232811239793 10.5
  endloop
endfacet
facet normal -1.0 0.0 0.0
  outer loop
    vertex 128.30025960466492 63.804561159431564 12.267766952966367
    vertex 128.30025960466492 70.62640776165976 21.0
    vertex 128.30025960466492 64.32232811239793 12.665063509461094
  endloop
endfacet
facet normal -1.0 0.0 0.0
  outer loop
    vertex 128.30025960466492 64.32232811239793 12.665063509461094
    vertex 128.30025960466492 70.62640776165976 21.0
    vertex 128.30025960466492 64.92528049964163 12.914814565722667
  endloop
endfacet
facet normal -1.0 0.0 0.0
  outer loop
    vertex 128.30025960466492 64.92528049964163 12.914814565722667
    vertex 128.30025960466492 70.62640776165976 21.0
    vertex 128.30025960466492 65.57232811239793 12.999999999999996
  endloop
endfacet
facet normal -1.0 0.0 0.0
  outer loop
    vertex 128.30025960466492 65.57232811239793 12.999999999999996
    vertex 128.30025960466492 70.62640776165976 21.0
    vertex 128.30025960466492 66.21937572515422 12.914814565722667
  endloop
endfacet
facet normal -1.0 0.0 0.0
  outer loop
    vertex 128.30025960466492 66.21937572515422 12.914814565722667
    vertex 128.30025960466492 70.62640776165976 21.0
    vertex 128.30025960466492 66.82232811239793 12.665063509461092
  endloop
endfacet
facet normal -1.0 0.0 0.0
  outer loop
    vertex 128.30025960466492 66.82232811239793 12.665063509461092
    vertex 128.30025960466492 70.62640776165976 21.0
    vertex 128.30025960466492 67.3400950653643 12.267766952966365
  endloop
endfacet
facet normal -1.0 0.0 0.0
  outer loop
    vertex 128.30025960466492 67.3400950653643 12.267766952966365
    vertex 128.30025960466492 70.62640776165976 21.0
    vertex 128.30025960466492 67.73739162185902 11.749999999999998
  endloop
endfacet
facet normal -1.0 0.0 0.0
  outer loop
    vertex 128.30025960466492 67.73739162185902 11.749999999999998
    vertex 128.30025960466492 70.62640776165976 21.0
    vertex 128.30025960466492 67.98714267812059 11.1470476127563
  endloop
endfacet
facet normal -1.0 0.0 0.0
  outer loop
    vertex 128.30025960466492 67.98714267812059 11.1470476127563
    vertex 128.30025960466492 70.62640776165976 21.0
    vertex 128.30025960466492 68.07232811239793 10.5
  endloop
endfacet
facet normal -1.0 0.0 0.0
  outer loop
    vertex 128.30025960466492 58.572328112397926 0.0
    vertex 128.30025960466492 63.804561159431564 8.732233047033636
    vertex 128.30025960466492 70.62640776165976 0.0
  endloop
endfacet
facet normal -1.0 0.0 0.0
  outer loop
    vertex 128.30025960466492 63.804561159431564 8.732233047033636
    vertex 128.30025960466492 58.572328112397926 0.0
    vertex 128.30025960466492 63.407264602936834 9.250000000000004
  endloop
endfacet
facet normal -1.0 0.0 0.0
  outer loop
    vertex 128.30025960466492 63.407264602936834 9.250000000000004
    vertex 128.30025960466492 58.572328112397926 0.0
    vertex 128.30025960466492 63.15751354667526 9.852952387243699
  endloop
endfacet
facet normal -1.0 0.0 0.0
  outer loop
    vertex 128.30025960466492 63.15751354667526 9.852952387243699
    vertex 128.30025960466492 58.572328112397926 0.0
    vertex 128.30025960466492 63.07232811239793 10.5
  endloop
endfacet
facet normal -1.0 0.0 0.0
  outer loop
    vertex 128.30025960466492 70.62640776165976 0.0
    vertex 128.30025960466492 63.804561159431564 8.732233047033636
    vertex 128.30025960466492 64.32232811239793 8.334936490538908
  endloop
endfacet
facet normal -1.0 0.0 0.0
  outer loop
    vertex 128.30025960466492 70.62640776165976 0.0
    vertex 128.30025960466492 64.32232811239793 8.334936490538908
    vertex 128.30025960466492 64.92528049964163 8.085185434277335
  endloop
endfacet
facet normal -1.0 0.0 0.0
  outer loop
    vertex 128.30025960466492 70.62640776165976 0.0
    vertex 128.30025960466492 64.92528049964163 8.085185434277335
    vertex 128.30025960466492 65.57232811239793 8.000000000000005
  endloop
endfacet
facet normal -1.0 0.0 0.0
  outer loop
    vertex 128.30025960466492 70.62640776165976 0.0
    vertex 128.30025960466492 65.57232811239793 8.000000000000005
    vertex 128.30025960466492 66.21937572515422 8.085185434277335
  endloop
endfacet
facet normal -1.0 0.0 0.0
  outer loop
    vertex 128.30025960466492 70.62640776165976 0.0
    vertex 128.30025960466492 66.21937572515422 8.085185434277335
    vertex 128.30025960466492 66.82232811239793 8.334936490538908
  endloop
endfacet
facet normal -1.0 0.0 0.0
  outer loop
    vertex 128.30025960466492 70.62640776165976 0.0
    vertex 128.30025960466492 66.82232811239793 8.334936490538908
    vertex 128.30025960466492 67.3400950653643 8.732233047033635
  endloop
endfacet
facet normal -1.0 0.0 0.0
  outer loop
    vertex 128.30025960466492 70.62640776165976 0.0
    vertex 128.30025960466492 67.3400950653643 8.732233047033635
    vertex 128.30025960466492 67.73739162185902 9.250000000000002
  endloop
endfacet
facet normal -1.0 0.0 0.0
  outer loop
    vertex 128.30025960466492 70.62640776165976 0.0
    vertex 128.30025960466492 67.73739162185902 9.250000000000002
    vertex 128.30025960466492 67.98714267812059 9.852952387243699
  endloop
endfacet
facet normal -1.0 0.0 0.0
  outer loop
    vertex 128.30025960466492 70.62640776165976 0.0
    vertex 128.30025960466492 67.98714267812059 9.852952387243699
    vertex 128.30025960466492 68.07232811239793 10.5
  endloop
endfacet
facet normal -1.0 0.0 0.0
  outer loop
    vertex 128.30025960466492 70.62640776165976 0.0
    vertex 128.30025960466492 68.07232811239793 10.5
    vertex 128.30025960466492 70.62640776165976 21.0
  endloop
endfacet
facet normal -0.0 -0.3826834323650902 -0.9238795325112866
  outer loop
    vertex 133.30025960466492 66.82232811239793 12.665063509461092
    vertex 128.30025960466492 66.21937572515422 12.914814565722667
    vertex 128.30025960466492 66.82232811239793 12.665063509461092
  endloop
endfacet
facet normal -0.0 -0.3826834323650902 -0.9238795325112866
  outer loop
    vertex 128.30025960466492 66.21937572515422 12.914814565722667
    vertex 133.30025960466492 66.82232811239793 12.665063509461092
    vertex 133.30025960466492 66.21937572515422 12.914814565722667
  endloop
endfacet
facet normal 0.0 -0.13052619222005188 0.9914448613738104
  outer loop
    vertex 133.30025960466492 65.57232811239793 8.000000000000005
    vertex 128.30025960466492 66.21937572515422 8.085185434277335
    vertex 128.30025960466492 65.57232811239793 8.000000000000005
  endloop
endfacet
facet normal 0.0 -0.13052619222005188 0.9914448613738104
  outer loop
    vertex 128.30025960466492 66.21937572515422 8.085185434277335
    vertex 133.30025960466492 65.57232811239793 8.000000000000005
    vertex 133.30025960466492 66.21937572515422 8.085185434277335
  endloop
endfacet
facet normal 0.0 0.13052619222005188 0.9914448613738104
  outer loop
    vertex 133.30025960466492 64.92528049964163 8.085185434277335
    vertex 128.30025960466492 65.57232811239793 8.000000000000005
    vertex 128.30025960466492 64.92528049964163 8.085185434277335
  endloop
endfacet
facet normal 0.0 0.13052619222005188 0.9914448613738104
  outer loop
    vertex 128.30025960466492 65.57232811239793 8.000000000000005
    vertex 133.30025960466492 64.92528049964163 8.085185434277335
    vertex 133.30025960466492 65.57232811239793 8.000000000000005
  endloop
endfacet
facet normal 0.0 0.38268343236508845 -0.9238795325112875
  outer loop
    vertex 133.30025960466492 64.92528049964163 12.914814565722667
    vertex 128.30025960466492 64.32232811239793 12.665063509461094
    vertex 128.30025960466492 64.92528049964163 12.914814565722667
  endloop
endfacet
facet normal 0.0 0.38268343236508845 -0.9238795325112875
  outer loop
    vertex 128.30025960466492 64.32232811239793 12.665063509461094
    vertex 133.30025960466492 64.92528049964163 12.914814565722667
    vertex 133.30025960466492 64.32232811239793 12.665063509461094
  endloop
endfacet
facet normal -0.0 -0.1305261922200541 -0.9914448613738102
  outer loop
    vertex 133.30025960466492 102.21937572515421 12.914814565722667
    vertex 128.30025960466492 101.57232811239793 12.999999999999996
    vertex 128.30025960466492 102.21937572515421 12.914814565722667
  endloop
endfacet
facet normal -0.0 -0.1305261922200541 -0.9914448613738102
  outer loop
    vertex 128.30025960466492 101.57232811239793 12.999999999999996
    vertex 133.30025960466492 102.21937572515421 12.914814565722667
    vertex 133.30025960466492 101.57232811239793 12.999999999999996
  endloop
endfacet
facet normal 0.0 0.9914448613738099 -0.13052619222005613
  outer loop
    vertex 128.30025960466492 99.15751354667526 11.147047612756301
    vertex 133.30025960466492 99.07232811239793 10.5
    vertex 128.30025960466492 99.07232811239793 10.5
  endloop
endfacet
facet normal 0.0 0.9914448613738099 -0.13052619222005613
  outer loop
    vertex 133.30025960466492 99.07232811239793 10.5
    vertex 128.30025960466492 99.15751354667526 11.147047612756301
    vertex 133.30025960466492 99.15751354667526 11.147047612756301
  endloop
endfacet
facet normal 0.0 0.92387953251129 0.3826834323650821
  outer loop
    vertex 128.30025960466492 99.15751354667526 9.8529523872437
    vertex 133.30025960466492 99.40726460293683 9.250000000000004
    vertex 128.30025960466492 99.40726460293683 9.250000000000004
  endloop
endfacet
facet normal 0.0 0.92387953251129 0.3826834323650821
  outer loop
    vertex 133.30025960466492 99.40726460293683 9.250000000000004
    vertex 128.30025960466492 99.15751354667526 9.8529523872437
    vertex 133.30025960466492 99.15751354667526 9.8529523872437
  endloop
endfacet
facet normal 0.0 -0.6087614290087071 0.7933533402912457
  outer loop
    vertex 133.30025960466492 102.8223281123979 8.334936490538906
    vertex 128.30025960466492 103.34009506536431 8.732233047033635
    vertex 128.30025960466492 102.8223281123979 8.334936490538906
  endloop
endfacet
facet normal 0.0 -0.6087614290087071 0.7933533402912457
  outer loop
    vertex 128.30025960466492 103.34009506536431 8.732233047033635
    vertex 133.30025960466492 102.8223281123979 8.334936490538906
    vertex 133.30025960466492 103.34009506536431 8.732233047033635
  endloop
endfacet
facet normal 0.0 0.13052619222005188 -0.9914448613738104
  outer loop
    vertex 133.30025960466492 65.57232811239793 12.999999999999996
    vertex 128.30025960466492 64.92528049964163 12.914814565722667
    vertex 128.30025960466492 65.57232811239793 12.999999999999996
  endloop
endfacet
facet normal 0.0 0.13052619222005188 -0.9914448613738104
  outer loop
    vertex 128.30025960466492 64.92528049964163 12.914814565722667
    vertex 133.30025960466492 65.57232811239793 12.999999999999996
    vertex 133.30025960466492 64.92528049964163 12.914814565722667
  endloop
endfacet
facet normal 0.0 0.6087614290087238 -0.793353340291233
  outer loop
    vertex 133.30025960466492 64.32232811239793 12.665063509461094
    vertex 128.30025960466492 63.804561159431564 12.267766952966367
    vertex 128.30025960466492 64.32232811239793 12.665063509461094
  endloop
endfacet
facet normal 0.0 0.6087614290087238 -0.793353340291233
  outer loop
    vertex 128.30025960466492 63.804561159431564 12.267766952966367
    vertex 133.30025960466492 64.32232811239793 12.665063509461094
    vertex 133.30025960466492 63.804561159431564 12.267766952966367
  endloop
endfacet
facet normal 0.0 0.9914448613738098 -0.13052619222005585
  outer loop
    vertex 128.30025960466492 63.15751354667526 11.147047612756303
    vertex 133.30025960466492 63.07232811239793 10.5
    vertex 128.30025960466492 63.07232811239793 10.5
  endloop
endfacet
facet normal 0.0 0.9914448613738098 -0.13052619222005585
  outer loop
    vertex 133.30025960466492 63.07232811239793 10.5
    vertex 128.30025960466492 63.15751354667526 11.147047612756303
    vertex 133.30025960466492 63.15751354667526 11.147047612756303
  endloop
endfacet
facet normal 0.0 0.9238795325112896 -0.38268343236508284
  outer loop
    vertex 128.30025960466492 63.407264602936834 11.75
    vertex 133.30025960466492 63.15751354667526 11.147047612756303
    vertex 128.30025960466492 63.15751354667526 11.147047612756303
  endloop
endfacet
facet normal 0.0 0.9238795325112896 -0.38268343236508284
  outer loop
    vertex 133.30025960466492 63.15751354667526 11.147047612756303
    vertex 128.30025960466492 63.407264602936834 11.75
    vertex 133.30025960466492 63.407264602936834 11.75
  endloop
endfacet
facet normal 0.0 0.9238795325112896 0.38268343236508284
  outer loop
    vertex 128.30025960466492 63.15751354667526 9.852952387243699
    vertex 133.30025960466492 63.407264602936834 9.250000000000004
    vertex 128.30025960466492 63.407264602936834 9.250000000000004
  endloop
endfacet
facet normal 0.0 0.9238795325112896 0.38268343236508284
  outer loop
    vertex 133.30025960466492 63.407264602936834 9.250000000000004
    vertex 128.30025960466492 63.15751354667526 9.852952387243699
    vertex 133.30025960466492 63.15751354667526 9.852952387243699
  endloop
endfacet
facet normal 0.0 0.9914448613738099 0.13052619222005613
  outer loop
    vertex 128.30025960466492 63.07232811239793 10.5
    vertex 133.30025960466492 63.15751354667526 9.852952387243699
    vertex 128.30025960466492 63.15751354667526 9.852952387243699
  endloop
endfacet
facet normal 0.0 0.9914448613738099 0.13052619222005613
  outer loop
    vertex 133.30025960466492 63.15751354667526 9.852952387243699
    vertex 128.30025960466492 63.07232811239793 10.5
    vertex 133.30025960466492 63.07232811239793 10.5
  endloop
endfacet
facet normal 0.0 0.6087614290087238 0.793353340291233
  outer loop
    vertex 133.30025960466492 63.804561159431564 8.732233047033636
    vertex 128.30025960466492 64.32232811239793 8.334936490538908
    vertex 128.30025960466492 63.804561159431564 8.732233047033636
  endloop
endfacet
facet normal 0.0 0.6087614290087238 0.793353340291233
  outer loop
    vertex 128.30025960466492 64.32232811239793 8.334936490538908
    vertex 133.30025960466492 63.804561159431564 8.732233047033636
    vertex 133.30025960466492 64.32232811239793 8.334936490538908
  endloop
endfacet
facet normal 0.0 0.7933533402912302 0.6087614290087271
  outer loop
    vertex 128.30025960466492 63.407264602936834 9.250000000000004
    vertex 133.30025960466492 63.804561159431564 8.732233047033636
    vertex 128.30025960466492 63.804561159431564 8.732233047033636
  endloop
endfacet
facet normal 0.0 0.7933533402912302 0.6087614290087271
  outer loop
    vertex 133.30025960466492 63.804561159431564 8.732233047033636
    vertex 128.30025960466492 63.407264602936834 9.250000000000004
    vertex 133.30025960466492 63.407264602936834 9.250000000000004
  endloop
endfacet
facet normal 0.0 -0.6087614290087224 0.7933533402912338
  outer loop
    vertex 133.30025960466492 66.82232811239793 8.334936490538908
    vertex 128.30025960466492 67.3400950653643 8.732233047033635
    vertex 128.30025960466492 66.82232811239793 8.334936490538908
  endloop
endfacet
facet normal 0.0 -0.6087614290087224 0.7933533402912338
  outer loop
    vertex 128.30025960466492 67.3400950653643 8.732233047033635
    vertex 133.30025960466492 66.82232811239793 8.334936490538908
    vertex 133.30025960466492 67.3400950653643 8.732233047033635
  endloop
endfacet
facet normal 0.0 -0.3826834323650902 0.9238795325112866
  outer loop
    vertex 133.30025960466492 66.21937572515422 8.085185434277335
    vertex 128.30025960466492 66.82232811239793 8.334936490538908
    vertex 128.30025960466492 66.21937572515422 8.085185434277335
  endloop
endfacet
facet normal 0.0 -0.3826834323650902 0.9238795325112866
  outer loop
    vertex 128.30025960466492 66.82232811239793 8.334936490538908
    vertex 133.30025960466492 66.21937572515422 8.085185434277335
    vertex 133.30025960466492 66.82232811239793 8.334936490538908
  endloop
endfacet
facet normal 0.0 0.3826834323650902 0.9238795325112866
  outer loop
    vertex 133.30025960466492 64.32232811239793 8.334936490538908
    vertex 128.30025960466492 64.92528049964163 8.085185434277335
    vertex 128.30025960466492 64.32232811239793 8.334936490538908
  endloop
endfacet
facet normal 0.0 0.3826834323650902 0.9238795325112866
  outer loop
    vertex 128.30025960466492 64.92528049964163 8.085185434277335
    vertex 133.30025960466492 64.32232811239793 8.334936490538908
    vertex 133.30025960466492 64.92528049964163 8.085185434277335
  endloop
endfacet
facet normal 0.0 -0.92387953251129 0.3826834323650821
  outer loop
    vertex 133.30025960466492 67.98714267812059 9.852952387243699
    vertex 128.30025960466492 67.73739162185902 9.250000000000002
    vertex 133.30025960466492 67.73739162185902 9.250000000000002
  endloop
endfacet
facet normal 0.0 -0.92387953251129 0.3826834323650821
  outer loop
    vertex 128.30025960466492 67.73739162185902 9.250000000000002
    vertex 133.30025960466492 67.98714267812059 9.852952387243699
    vertex 128.30025960466492 67.98714267812059 9.852952387243699
  endloop
endfacet
facet normal 0.0 -0.9914448613738099 0.13052619222005613
  outer loop
    vertex 133.30025960466492 68.07232811239793 10.5
    vertex 128.30025960466492 67.98714267812059 9.852952387243699
    vertex 133.30025960466492 67.98714267812059 9.852952387243699
  endloop
endfacet
facet normal 0.0 -0.9914448613738099 0.13052619222005613
  outer loop
    vertex 128.30025960466492 67.98714267812059 9.852952387243699
    vertex 133.30025960466492 68.07232811239793 10.5
    vertex 128.30025960466492 68.07232811239793 10.5
  endloop
endfacet
facet normal 0.0 -0.1305261922200541 0.9914448613738102
  outer loop
    vertex 133.30025960466492 101.57232811239793 8.000000000000005
    vertex 128.30025960466492 102.21937572515421 8.085185434277335
    vertex 128.30025960466492 101.57232811239793 8.000000000000005
  endloop
endfacet
facet normal 0.0 -0.1305261922200541 0.9914448613738102
  outer loop
    vertex 128.30025960466492 102.21937572515421 8.085185434277335
    vertex 133.30025960466492 101.57232811239793 8.000000000000005
    vertex 133.30025960466492 102.21937572515421 8.085185434277335
  endloop
endfacet
facet normal -0.0 -0.92387953251129 -0.3826834323650821
  outer loop
    vertex 133.30025960466492 67.73739162185902 11.749999999999998
    vertex 128.30025960466492 67.98714267812059 11.1470476127563
    vertex 133.30025960466492 67.98714267812059 11.1470476127563
  endloop
endfacet
facet normal -0.0 -0.92387953251129 -0.3826834323650821
  outer loop
    vertex 128.30025960466492 67.98714267812059 11.1470476127563
    vertex 133.30025960466492 67.73739162185902 11.749999999999998
    vertex 128.30025960466492 67.73739162185902 11.749999999999998
  endloop
endfacet
facet normal -0.0 -0.9914448613738099 -0.1305261922200564
  outer loop
    vertex 133.30025960466492 67.98714267812059 11.1470476127563
    vertex 128.30025960466492 68.07232811239793 10.5
    vertex 133.30025960466492 68.07232811239793 10.5
  endloop
endfacet
facet normal -0.0 -0.9914448613738099 -0.1305261922200564
  outer loop
    vertex 128.30025960466492 68.07232811239793 10.5
    vertex 133.30025960466492 67.98714267812059 11.1470476127563
    vertex 128.30025960466492 67.98714267812059 11.1470476127563
  endloop
endfacet
facet normal -0.0 -0.6087614290087238 -0.793353340291233
  outer loop
    vertex 133.30025960466492 67.3400950653643 12.267766952966365
    vertex 128.30025960466492 66.82232811239793 12.665063509461092
    vertex 128.30025960466492 67.3400950653643 12.267766952966365
  endloop
endfacet
facet normal -0.0 -0.6087614290087238 -0.793353340291233
  outer loop
    vertex 128.30025960466492 66.82232811239793 12.665063509461092
    vertex 133.30025960466492 67.3400950653643 12.267766952966365
    vertex 133.30025960466492 66.82232811239793 12.665063509461092
  endloop
endfacet
facet normal -0.0 -0.7933533402912302 -0.6087614290087271
  outer loop
    vertex 133.30025960466492 67.3400950653643 12.267766952966365
    vertex 128.30025960466492 67.73739162185902 11.749999999999998
    vertex 133.30025960466492 67.73739162185902 11.749999999999998
  endloop
endfacet
facet normal -0.0 -0.7933533402912302 -0.6087614290087271
  outer loop
    vertex 128.30025960466492 67.73739162185902 11.749999999999998
    vertex 133.30025960466492 67.3400950653643 12.267766952966365
    vertex 128.30025960466492 67.3400950653643 12.267766952966365
  endloop
endfacet
facet normal 0.0 -0.9238795325112836 0.3826834323650976
  outer loop
    vertex 133.30025960466492 103.9871426781206 9.852952387243699
    vertex 128.30025960466492 103.73739162185902 9.250000000000002
    vertex 133.30025960466492 103.73739162185902 9.250000000000002
  endloop
endfacet
facet normal 0.0 -0.9238795325112836 0.3826834323650976
  outer loop
    vertex 128.30025960466492 103.73739162185902 9.250000000000002
    vertex 133.30025960466492 103.9871426781206 9.852952387243699
    vertex 128.30025960466492 103.9871426781206 9.852952387243699
  endloop
endfacet
facet normal -0.0 -0.9914448613738099 -0.13052619222005613
  outer loop
    vertex 133.30025960466492 103.9871426781206 11.147047612756301
    vertex 128.30025960466492 104.07232811239794 10.5
    vertex 133.30025960466492 104.07232811239794 10.5
  endloop
endfacet
facet normal -0.0 -0.9914448613738099 -0.13052619222005613
  outer loop
    vertex 128.30025960466492 104.07232811239794 10.5
    vertex 133.30025960466492 103.9871426781206 11.147047612756301
    vertex 128.30025960466492 103.9871426781206 11.147047612756301
  endloop
endfacet
facet normal -0.0 -0.7933533402912468 -0.6087614290087053
  outer loop
    vertex 133.30025960466492 103.34009506536431 12.267766952966365
    vertex 128.30025960466492 103.73739162185902 11.749999999999998
    vertex 133.30025960466492 103.73739162185902 11.749999999999998
  endloop
endfacet
facet normal -0.0 -0.7933533402912468 -0.6087614290087053
  outer loop
    vertex 128.30025960466492 103.73739162185902 11.749999999999998
    vertex 133.30025960466492 103.34009506536431 12.267766952966365
    vertex 128.30025960466492 103.34009506536431 12.267766952966365
  endloop
endfacet
facet normal -0.0 -0.9238795325112836 -0.3826834323650976
  outer loop
    vertex 133.30025960466492 103.73739162185902 11.749999999999998
    vertex 128.30025960466492 103.9871426781206 11.147047612756301
    vertex 133.30025960466492 103.9871426781206 11.147047612756301
  endloop
endfacet
facet normal -0.0 -0.9238795325112836 -0.3826834323650976
  outer loop
    vertex 128.30025960466492 103.9871426781206 11.147047612756301
    vertex 133.30025960466492 103.73739162185902 11.749999999999998
    vertex 128.30025960466492 103.73739162185902 11.749999999999998
  endloop
endfacet
facet normal 0.0 -0.7933533402912468 0.6087614290087053
  outer loop
    vertex 133.30025960466492 103.73739162185902 9.250000000000002
    vertex 128.30025960466492 103.34009506536431 8.732233047033635
    vertex 133.30025960466492 103.34009506536431 8.732233047033635
  endloop
endfacet
facet normal 0.0 -0.7933533402912468 0.6087614290087053
  outer loop
    vertex 128.30025960466492 103.34009506536431 8.732233047033635
    vertex 133.30025960466492 103.73739162185902 9.250000000000002
    vertex 128.30025960466492 103.73739162185902 9.250000000000002
  endloop
endfacet
facet normal 0.0 -0.9914448613738098 0.13052619222005585
  outer loop
    vertex 133.30025960466492 104.07232811239794 10.5
    vertex 128.30025960466492 103.9871426781206 9.852952387243699
    vertex 133.30025960466492 103.9871426781206 9.852952387243699
  endloop
endfacet
facet normal 0.0 -0.9914448613738098 0.13052619222005585
  outer loop
    vertex 128.30025960466492 103.9871426781206 9.852952387243699
    vertex 133.30025960466492 104.07232811239794 10.5
    vertex 128.30025960466492 104.07232811239794 10.5
  endloop
endfacet
facet normal 0.0 0.3826834323650902 -0.9238795325112866
  outer loop
    vertex 133.30025960466492 100.92528049964163 12.914814565722667
    vertex 128.30025960466492 100.32232811239793 12.665063509461092
    vertex 128.30025960466492 100.92528049964163 12.914814565722667
  endloop
endfacet
facet normal 0.0 0.3826834323650902 -0.9238795325112866
  outer loop
    vertex 128.30025960466492 100.32232811239793 12.665063509461092
    vertex 133.30025960466492 100.92528049964163 12.914814565722667
    vertex 133.30025960466492 100.32232811239793 12.665063509461092
  endloop
endfacet
facet normal 0.0 0.7933533402912302 -0.6087614290087271
  outer loop
    vertex 128.30025960466492 63.804561159431564 12.267766952966367
    vertex 133.30025960466492 63.407264602936834 11.75
    vertex 128.30025960466492 63.407264602936834 11.75
  endloop
endfacet
facet normal 0.0 0.7933533402912302 -0.6087614290087271
  outer loop
    vertex 133.30025960466492 63.407264602936834 11.75
    vertex 128.30025960466492 63.804561159431564 12.267766952966367
    vertex 133.30025960466492 63.804561159431564 12.267766952966367
  endloop
endfacet
facet normal -0.0 -0.6087614290087238 -0.793353340291233
  outer loop
    vertex 133.30025960466492 103.34009506536431 12.267766952966365
    vertex 128.30025960466492 102.82232811239795 12.665063509461092
    vertex 128.30025960466492 103.34009506536431 12.267766952966365
  endloop
endfacet
facet normal -0.0 -0.6087614290087238 -0.793353340291233
  outer loop
    vertex 128.30025960466492 102.82232811239795 12.665063509461092
    vertex 133.30025960466492 103.34009506536431 12.267766952966365
    vertex 133.30025960466492 102.82232811239795 12.665063509461092
  endloop
endfacet
facet normal 0.0 0.13052619222005188 -0.9914448613738104
  outer loop
    vertex 133.30025960466492 101.57232811239793 12.999999999999996
    vertex 128.30025960466492 100.92528049964163 12.914814565722667
    vertex 128.30025960466492 101.57232811239793 12.999999999999996
  endloop
endfacet
facet normal 0.0 0.13052619222005188 -0.9914448613738104
  outer loop
    vertex 128.30025960466492 100.92528049964163 12.914814565722667
    vertex 133.30025960466492 101.57232811239793 12.999999999999996
    vertex 133.30025960466492 100.92528049964163 12.914814565722667
  endloop
endfacet
facet normal -0.0 -0.13052619222005188 -0.9914448613738104
  outer loop
    vertex 133.30025960466492 66.21937572515422 12.914814565722667
    vertex 128.30025960466492 65.57232811239793 12.999999999999996
    vertex 128.30025960466492 66.21937572515422 12.914814565722667
  endloop
endfacet
facet normal -0.0 -0.13052619222005188 -0.9914448613738104
  outer loop
    vertex 128.30025960466492 65.57232811239793 12.999999999999996
    vertex 133.30025960466492 66.21937572515422 12.914814565722667
    vertex 133.30025960466492 65.57232811239793 12.999999999999996
  endloop
endfacet
facet normal 0.0 0.6087614290087224 -0.7933533402912338
  outer loop
    vertex 133.30025960466492 100.32232811239793 12.665063509461092
    vertex 128.30025960466492 99.80456115943157 12.267766952966367
    vertex 128.30025960466492 100.32232811239793 12.665063509461092
  endloop
endfacet
facet normal 0.0 0.6087614290087224 -0.7933533402912338
  outer loop
    vertex 128.30025960466492 99.80456115943157 12.267766952966367
    vertex 133.30025960466492 100.32232811239793 12.665063509461092
    vertex 133.30025960466492 99.80456115943157 12.267766952966367
  endloop
endfacet
facet normal 0.0 -0.7933533402912302 0.6087614290087271
  outer loop
    vertex 133.30025960466492 67.73739162185902 9.250000000000002
    vertex 128.30025960466492 67.3400950653643 8.732233047033635
    vertex 133.30025960466492 67.3400950653643 8.732233047033635
  endloop
endfacet
facet normal 0.0 -0.7933533402912302 0.6087614290087271
  outer loop
    vertex 128.30025960466492 67.3400950653643 8.732233047033635
    vertex 133.30025960466492 67.73739162185902 9.250000000000002
    vertex 128.30025960466492 67.73739162185902 9.250000000000002
  endloop
endfacet
facet normal 0.3826834323650908 0.9238795325112865 -3.7596722461042525e-17
  outer loop
    vertex 116.80025960466492 79.24220109347571 21.0
    vertex 118.0061643791523 78.74269898095257 0.0
    vertex 116.80025960466492 79.24220109347571 0.0
  endloop
endfacet
facet normal 0.3826834323650908 0.9238795325112865 -3.7596722461042525e-17
  outer loop
    vertex 118.0061643791523 78.74269898095257 0.0
    vertex 116.80025960466492 79.24220109347571 21.0
    vertex 118.0061643791523 78.74269898095257 21.0
  endloop
endfacet
facet normal 0.3826834323650908 0.9238795325112865 -3.7596722461042525e-17
  outer loop
    vertex 118.0061643791523 78.74269898095257 21.0
    vertex 116.80025960466492 79.24220109347571 21.0
    vertex 116.92859856094263 79.18904135720467 21.0
  endloop
endfacet
facet normal 0.13052619222004763 0.9914448613738109 0.0
  outer loop
    vertex 118.0061643791523 78.74269898095257 21.0
    vertex 119.3002596046649 78.57232811239791 0.0
    vertex 118.0061643791523 78.74269898095257 0.0
  endloop
endfacet
facet normal 0.13052619222004763 0.9914448613738109 0.0
  outer loop
    vertex 119.3002596046649 78.57232811239791 0.0
    vertex 118.0061643791523 78.74269898095257 21.0
    vertex 119.3002596046649 78.57232811239791 21.0
  endloop
endfacet
facet normal -0.13052619222005613 0.9914448613738099 0.0
  outer loop
    vertex 119.3002596046649 78.57232811239791 21.0
    vertex 120.59435483017751 78.74269898095258 0.0
    vertex 119.3002596046649 78.57232811239791 0.0
  endloop
endfacet
facet normal -0.13052619222005613 0.9914448613738099 0.0
  outer loop
    vertex 120.59435483017751 78.74269898095258 0.0
    vertex 119.3002596046649 78.57232811239791 21.0
    vertex 120.59435483017751 78.74269898095258 21.0
  endloop
endfacet
facet normal -0.3826834323650902 0.9238795325112866 0.0
  outer loop
    vertex 120.59435483017751 78.74269898095258 21.0
    vertex 121.8002596046649 79.24220109347573 0.0
    vertex 120.59435483017751 78.74269898095258 0.0
  endloop
endfacet
facet normal -0.3826834323650902 0.9238795325112866 0.0
  outer loop
    vertex 121.8002596046649 79.24220109347573 0.0
    vertex 120.59435483017751 78.74269898095258 21.0
    vertex 121.8002596046649 79.24220109347573 21.0
  endloop
endfacet
facet normal -0.6087614290087154 0.7933533402912393 0.0
  outer loop
    vertex 121.8002596046649 79.24220109347573 21.0
    vertex 122.83579351059765 80.03679420646517 0.0
    vertex 121.8002596046649 79.24220109347573 0.0
  endloop
endfacet
facet normal -0.6087614290087154 0.7933533402912393 0.0
  outer loop
    vertex 122.83579351059765 80.03679420646517 0.0
    vertex 121.8002596046649 79.24220109347573 21.0
    vertex 122.83579351059765 80.03679420646517 21.0
  endloop
endfacet
facet normal -0.7933533402912402 0.6087614290087142 0.0
  outer loop
    vertex 123.6303866235871 81.07232811239793 21.0
    vertex 122.83579351059765 80.03679420646517 0.0
    vertex 122.83579351059765 80.03679420646517 21.0
  endloop
endfacet
facet normal -0.7933533402912402 0.6087614290087142 0.0
  outer loop
    vertex 122.83579351059765 80.03679420646517 0.0
    vertex 123.6303866235871 81.07232811239793 21.0
    vertex 123.6303866235871 81.07232811239793 0.0
  endloop
endfacet
facet normal -0.9238795325112836 0.3826834323650976 0.0
  outer loop
    vertex 124.12988873611026 82.27823288688532 21.0
    vertex 123.6303866235871 81.07232811239793 0.0
    vertex 123.6303866235871 81.07232811239793 21.0
  endloop
endfacet
facet normal -0.9238795325112836 0.3826834323650976 0.0
  outer loop
    vertex 123.6303866235871 81.07232811239793 0.0
    vertex 124.12988873611026 82.27823288688532 21.0
    vertex 124.12988873611026 82.27823288688532 0.0
  endloop
endfacet
facet normal -0.991444861373812 0.1305261922200391 0.0
  outer loop
    vertex 124.3002596046649 83.57232811239791 21.0
    vertex 124.12988873611026 82.27823288688532 0.0
    vertex 124.12988873611026 82.27823288688532 21.0
  endloop
endfacet
facet normal -0.991444861373812 0.1305261922200391 0.0
  outer loop
    vertex 124.12988873611026 82.27823288688532 0.0
    vertex 124.3002596046649 83.57232811239791 21.0
    vertex 124.3002596046649 83.57232811239791 0.0
  endloop
endfacet
facet normal -0.991444861373812 -0.1305261922200391 -0.0
  outer loop
    vertex 124.12988873611026 84.86642333791052 21.0
    vertex 124.3002596046649 83.57232811239791 0.0
    vertex 124.3002596046649 83.57232811239791 21.0
  endloop
endfacet
facet normal -0.991444861373812 -0.1305261922200391 -0.0
  outer loop
    vertex 124.3002596046649 83.57232811239791 0.0
    vertex 124.12988873611026 84.86642333791052 21.0
    vertex 124.12988873611026 84.86642333791052 0.0
  endloop
endfacet
facet normal -0.9238795325112849 -0.3826834323650946 -0.0
  outer loop
    vertex 123.6303866235871 86.07232811239793 21.0
    vertex 124.12988873611026 84.86642333791052 0.0
    vertex 124.12988873611026 84.86642333791052 21.0
  endloop
endfacet
facet normal -0.9238795325112849 -0.3826834323650946 -0.0
  outer loop
    vertex 124.12988873611026 84.86642333791052 0.0
    vertex 123.6303866235871 86.07232811239793 21.0
    vertex 123.6303866235871 86.07232811239793 0.0
  endloop
endfacet
facet normal -0.793353340291237 -0.6087614290087184 -0.0
  outer loop
    vertex 122.83579351059765 87.10786201833065 21.0
    vertex 123.6303866235871 86.07232811239793 0.0
    vertex 123.6303866235871 86.07232811239793 21.0
  endloop
endfacet
facet normal -0.793353340291237 -0.6087614290087184 -0.0
  outer loop
    vertex 123.6303866235871 86.07232811239793 0.0
    vertex 122.83579351059765 87.10786201833065 21.0
    vertex 122.83579351059765 87.10786201833065 0.0
  endloop
endfacet
facet normal -0.6087614290087154 -0.7933533402912393 -0.0
  outer loop
    vertex 122.83579351059765 87.10786201833065 21.0
    vertex 121.8002596046649 87.90245513132011 0.0
    vertex 122.83579351059765 87.10786201833065 0.0
  endloop
endfacet
facet normal -0.6087614290087154 -0.7933533402912393 -0.0
  outer loop
    vertex 121.8002596046649 87.90245513132011 0.0
    vertex 122.83579351059765 87.10786201833065 21.0
    vertex 121.8002596046649 87.90245513132011 21.0
  endloop
endfacet
facet normal -0.3826834323650902 -0.9238795325112866 -0.0
  outer loop
    vertex 121.8002596046649 87.90245513132011 21.0
    vertex 120.59435483017751 88.40195724384326 0.0
    vertex 121.8002596046649 87.90245513132011 0.0
  endloop
endfacet
facet normal -0.3826834323650902 -0.9238795325112866 -0.0
  outer loop
    vertex 120.59435483017751 88.40195724384326 0.0
    vertex 121.8002596046649 87.90245513132011 21.0
    vertex 120.59435483017751 88.40195724384326 21.0
  endloop
endfacet
facet normal -0.13052619222005613 -0.9914448613738099 -0.0
  outer loop
    vertex 120.59435483017751 88.40195724384326 21.0
    vertex 119.3002596046649 88.57232811239791 0.0
    vertex 120.59435483017751 88.40195724384326 0.0
  endloop
endfacet
facet normal -0.13052619222005613 -0.9914448613738099 -0.0
  outer loop
    vertex 119.3002596046649 88.57232811239791 0.0
    vertex 120.59435483017751 88.40195724384326 21.0
    vertex 119.3002596046649 88.57232811239791 21.0
  endloop
endfacet
facet normal 0.13052619222005613 -0.9914448613738099 0.0
  outer loop
    vertex 119.3002596046649 88.57232811239791 21.0
    vertex 118.0061643791523 88.40195724384326 0.0
    vertex 119.3002596046649 88.57232811239791 0.0
  endloop
endfacet
facet normal 0.13052619222005613 -0.9914448613738099 0.0
  outer loop
    vertex 118.0061643791523 88.40195724384326 0.0
    vertex 119.3002596046649 88.57232811239791 21.0
    vertex 118.0061643791523 88.40195724384326 21.0
  endloop
endfacet
facet normal 0.3826834323650845 -0.923879532511289 0.0
  outer loop
    vertex 118.0061643791523 88.40195724384326 21.0
    vertex 117.28158388450612 88.1018261759298 0.0
    vertex 118.0061643791523 88.40195724384326 0.0
  endloop
endfacet
facet normal 0.3826834323650845 -0.923879532511289 0.0
  outer loop
    vertex 117.28158388450612 88.1018261759298 0.0
    vertex 118.0061643791523 88.40195724384326 21.0
    vertex 117.28158388450612 88.1018261759298 21.0
  endloop
endfacet
facet normal 0.0 -1.0 0.0
  outer loop
    vertex 117.28158388450612 88.1018261759298 21.0
    vertex 112.27610640888518 88.1018261759298 0.0
    vertex 117.28158388450612 88.1018261759298 0.0
  endloop
endfacet
facet normal 0.0 -1.0 0.0
  outer loop
    vertex 112.27610640888518 88.1018261759298 0.0
    vertex 117.28158388450612 88.1018261759298 21.0
    vertex 112.27610640888518 88.1018261759298 21.0
  endloop
endfacet
facet normal 0.0 0.0 1.0
  outer loop
    vertex 112.33065868688007 75.06206001751322 21.0
    vertex 112.27603153586067 79.21023646374135 21.0
    vertex 110.36552261736402 77.15590582519165 21.0
  endloop
endfacet
facet normal 0.0 0.0 1.0
  outer loop
    vertex 112.27603153586067 79.21023646374135 21.0
    vertex 112.33065868688007 75.06206001751322 21.0
    vertex 116.92859856094263 79.18904135720467 21.0
  endloop
endfacet
facet normal 0.0 0.0 1.0
  outer loop
    vertex 116.92859856094263 79.18904135720467 21.0
    vertex 112.33065868688007 75.06206001751322 21.0
    vertex 114.77076154113303 73.5481749166182 21.0
  endloop
endfacet
facet normal 0.0 0.0 1.0
  outer loop
    vertex 116.92859856094263 79.18904135720467 21.0
    vertex 114.77076154113303 73.5481749166182 21.0
    vertex 117.51954220306625 72.71741929031914 21.0
  endloop
endfacet
facet normal 0.0 0.0 1.0
  outer loop
    vertex 116.92859856094263 79.18904135720467 21.0
    vertex 117.51954220306625 72.71741929031914 21.0
    vertex 118.0061643791523 78.74269898095257 21.0
  endloop
endfacet
facet normal 0.0 0.0 1.0
  outer loop
    vertex 118.0061643791523 78.74269898095257 21.0
    vertex 117.51954220306625 72.71741929031914 21.0
    vertex 120.38967581314374 72.62640776165976 21.0
  endloop
endfacet
facet normal 0.0 0.0 1.0
  outer loop
    vertex 118.0061643791523 78.74269898095257 21.0
    vertex 120.38967581314374 72.62640776165976 21.0
    vertex 119.3002596046649 78.57232811239791 21.0
  endloop
endfacet
facet normal 0.0 0.0 1.0
  outer loop
    vertex 119.3002596046649 78.57232811239791 21.0
    vertex 120.38967581314374 72.62640776165976 21.0
    vertex 120.59435483017751 78.74269898095258 21.0
  endloop
endfacet
facet normal 0.0 0.0 1.0
  outer loop
    vertex 120.59435483017751 78.74269898095258 21.0
    vertex 120.38967581314374 72.62640776165976 21.0
    vertex 126.30025960466492 72.62640776165976 21.0
  endloop
endfacet
facet normal 0.0 0.0 1.0
  outer loop
    vertex 120.59435483017751 78.74269898095258 21.0
    vertex 126.30025960466492 72.62640776165976 21.0
    vertex 121.8002596046649 79.24220109347573 21.0
  endloop
endfacet
facet normal 0.0 0.0 1.0
  outer loop
    vertex 121.8002596046649 79.24220109347573 21.0
    vertex 126.30025960466492 72.62640776165976 21.0
    vertex 122.83579351059765 80.03679420646517 21.0
  endloop
endfacet
facet normal 0.0 0.0 1.0
  outer loop
    vertex 122.83579351059765 80.03679420646517 21.0
    vertex 126.30025960466492 72.62640776165976 21.0
    vertex 123.6303866235871 81.07232811239793 21.0
  endloop
endfacet
facet normal 0.0 0.0 1.0
  outer loop
    vertex 123.6303866235871 81.07232811239793 21.0
    vertex 126.30025960466492 72.62640776165976 21.0
    vertex 124.12988873611026 82.27823288688532 21.0
  endloop
endfacet
facet normal 0.0 0.0 1.0
  outer loop
    vertex 124.12988873611026 82.27823288688532 21.0
    vertex 126.30025960466492 72.62640776165976 21.0
    vertex 124.3002596046649 83.57232811239791 21.0
  endloop
endfacet
facet normal 0.0 0.0 1.0
  outer loop
    vertex 133.30025960466492 58.572328112397926 21.0
    vertex 128.30025960466492 70.62640776165976 21.0
    vertex 128.30025960466492 58.572328112397926 21.0
  endloop
endfacet
facet normal 0.0 0.0 1.0
  outer loop
    vertex 128.30025960466492 70.62640776165976 21.0
    vertex 133.30025960466492 58.572328112397926 21.0
    vertex 128.30025960466492 96.51824846313606 21.0
  endloop
endfacet
facet normal 0.0 0.0 1.0
  outer loop
    vertex 128.30025960466492 96.51824846313606 21.0
    vertex 133.30025960466492 58.572328112397926 21.0
    vertex 128.30025960466492 108.5723281123979 21.0
  endloop
endfacet
facet normal 0.0 0.0 1.0
  outer loop
    vertex 128.30025960466492 108.5723281123979 21.0
    vertex 133.30025960466492 58.572328112397926 21.0
    vertex 133.30025960466492 108.5723281123979 21.0
  endloop
endfacet
facet normal 0.0 0.0 1.0
  outer loop
    vertex 112.27610640888518 88.1018261759298 21.0
    vertex 112.88383731745866 92.50706509969882 21.0
    vertex 110.78999150978021 90.54192903018279 21.0
  endloop
endfacet
facet normal 0.0 0.0 1.0
  outer loop
    vertex 112.88383731745866 92.50706509969882 21.0
    vertex 112.27610640888518 88.1018261759298 21.0
    vertex 117.28158388450612 88.1018261759298 21.0
  endloop
endfacet
facet normal 0.0 0.0 1.0
  outer loop
    vertex 112.88383731745866 92.50706509969882 21.0
    vertex 117.28158388450612 88.1018261759298 21.0
    vertex 115.414951700371 93.86331360888128 21.0
  endloop
endfacet
facet normal 0.0 0.0 1.0
  outer loop
    vertex 115.414951700371 93.86331360888128 21.0
    vertex 117.28158388450612 88.1018261759298 21.0
    vertex 118.21084339618609 94.51824846313608 21.0
  endloop
endfacet
facet normal 0.0 0.0 1.0
  outer loop
    vertex 118.21084339618609 94.51824846313608 21.0
    vertex 117.28158388450612 88.1018261759298 21.0
    vertex 118.0061643791523 88.40195724384326 21.0
  endloop
endfacet
facet normal 0.0 0.0 1.0
  outer loop
    vertex 118.21084339618609 94.51824846313608 21.0
    vertex 118.0061643791523 88.40195724384326 21.0
    vertex 119.3002596046649 88.57232811239791 21.0
  endloop
endfacet
facet normal 0.0 0.0 1.0
  outer loop
    vertex 118.21084339618609 94.51824846313608 21.0
    vertex 119.3002596046649 88.57232811239791 21.0
    vertex 126.30025960466492 94.51824846313608 21.0
  endloop
endfacet
facet normal 0.0 0.0 1.0
  outer loop
    vertex 126.30025960466492 94.51824846313608 21.0
    vertex 119.3002596046649 88.57232811239791 21.0
    vertex 120.59435483017751 88.40195724384326 21.0
  endloop
endfacet
facet normal 0.0 0.0 1.0
  outer loop
    vertex 126.30025960466492 94.51824846313608 21.0
    vertex 120.59435483017751 88.40195724384326 21.0
    vertex 121.8002596046649 87.90245513132011 21.0
  endloop
endfacet
facet normal 0.0 0.0 1.0
  outer loop
    vertex 126.30025960466492 94.51824846313608 21.0
    vertex 121.8002596046649 87.90245513132011 21.0
    vertex 122.83579351059765 87.10786201833065 21.0
  endloop
endfacet
facet normal 0.0 0.0 1.0
  outer loop
    vertex 126.30025960466492 94.51824846313608 21.0
    vertex 122.83579351059765 87.10786201833065 21.0
    vertex 123.6303866235871 86.07232811239793 21.0
  endloop
endfacet
facet normal 0.0 0.0 1.0
  outer loop
    vertex 126.30025960466492 94.51824846313608 21.0
    vertex 123.6303866235871 86.07232811239793 21.0
    vertex 124.12988873611026 84.86642333791052 21.0
  endloop
endfacet
facet normal 0.0 0.0 1.0
  outer loop
    vertex 126.30025960466492 94.51824846313608 21.0
    vertex 124.12988873611026 84.86642333791052 21.0
    vertex 124.3002596046649 83.57232811239791 21.0
  endloop
endfacet
facet normal 0.0 0.0 1.0
  outer loop
    vertex 126.30025960466492 94.51824846313608 21.0
    vertex 124.3002596046649 83.57232811239791 21.0
    vertex 126.30025960466492 72.62640776165976 21.0
  endloop
endfacet
facet normal 0.0 0.0 1.0
  outer loop
    vertex 126.30025960466492 94.51824846313608 21.0
    vertex 126.30025960466492 72.62640776165976 21.0
    vertex 128.30025960466492 70.62640776165976 21.0
  endloop
endfacet
facet normal 0.0 0.0 1.0
  outer loop
    vertex 126.30025960466492 94.51824846313608 21.0
    vertex 128.30025960466492 70.62640776165976 21.0
    vertex 128.30025960466492 96.51824846313606 21.0
  endloop
endfacet
facet normal 0.0 0.0 -1.0
  outer loop
    vertex 112.88383731745866 92.50706509969882 0.0
    vertex 112.27610640888518 88.1018261759298 0.0
    vertex 110.78999150978021 90.54192903018279 0.0
  endloop
endfacet
facet normal 0.0 0.0 -1.0
  outer loop
    vertex 112.27610640888518 88.1018261759298 0.0
    vertex 112.88383731745866 92.50706509969882 0.0
    vertex 117.28158388450612 88.1018261759298 0.0
  endloop
endfacet
facet normal 0.0 0.0 -1.0
  outer loop
    vertex 117.28158388450612 88.1018261759298 0.0
    vertex 112.88383731745866 92.50706509969882 0.0
    vertex 115.414951700371 93.86331360888128 0.0
  endloop
endfacet
facet normal 0.0 0.0 -1.0
  outer loop
    vertex 117.28158388450612 88.1018261759298 0.0
    vertex 115.414951700371 93.86331360888128 0.0
    vertex 118.21084339618609 94.51824846313608 0.0
  endloop
endfacet
facet normal 0.0 0.0 -1.0
  outer loop
    vertex 117.28158388450612 88.1018261759298 0.0
    vertex 118.21084339618609 94.51824846313608 0.0
    vertex 118.0061643791523 88.40195724384326 0.0
  endloop
endfacet
facet normal 0.0 0.0 -1.0
  outer loop
    vertex 118.0061643791523 88.40195724384326 0.0
    vertex 118.21084339618609 94.51824846313608 0.0
    vertex 119.3002596046649 88.57232811239791 0.0
  endloop
endfacet
facet normal 0.0 0.0 -1.0
  outer loop
    vertex 119.3002596046649 88.57232811239791 0.0
    vertex 118.21084339618609 94.51824846313608 0.0
    vertex 126.30025960466492 94.51824846313608 0.0
  endloop
endfacet
facet normal 0.0 0.0 -1.0
  outer loop
    vertex 119.3002596046649 88.57232811239791 0.0
    vertex 126.30025960466492 94.51824846313608 0.0
    vertex 120.59435483017751 88.40195724384326 0.0
  endloop
endfacet
facet normal 0.0 0.0 -1.0
  outer loop
    vertex 120.59435483017751 88.40195724384326 0.0
    vertex 126.30025960466492 94.51824846313608 0.0
    vertex 121.8002596046649 87.90245513132011 0.0
  endloop
endfacet
facet normal 0.0 0.0 -1.0
  outer loop
    vertex 121.8002596046649 87.90245513132011 0.0
    vertex 126.30025960466492 94.51824846313608 0.0
    vertex 122.83579351059765 87.10786201833065 0.0
  endloop
endfacet
facet normal 0.0 0.0 -1.0
  outer loop
    vertex 122.83579351059765 87.10786201833065 0.0
    vertex 126.30025960466492 94.51824846313608 0.0
    vertex 123.6303866235871 86.07232811239793 0.0
  endloop
endfacet
facet normal 0.0 0.0 -1.0
  outer loop
    vertex 123.6303866235871 86.07232811239793 0.0
    vertex 126.30025960466492 94.51824846313608 0.0
    vertex 124.12988873611026 84.86642333791052 0.0
  endloop
endfacet
facet normal 0.0 0.0 -1.0
  outer loop
    vertex 124.12988873611026 84.86642333791052 0.0
    vertex 126.30025960466492 94.51824846313608 0.0
    vertex 124.3002596046649 83.57232811239791 0.0
  endloop
endfacet
facet normal 0.0 0.0 -1.0
  outer loop
    vertex 133.30025960466492 108.5723281123979 0.0
    vertex 128.30025960466492 96.51824846313606 0.0
    vertex 128.30025960466492 108.5723281123979 0.0
  endloop
endfacet
facet normal 0.0 0.0 -1.0
  outer loop
    vertex 128.30025960466492 96.51824846313606 0.0
    vertex 133.30025960466492 108.5723281123979 0.0
    vertex 128.30025960466492 70.62640776165976 0.0
  endloop
endfacet
facet normal 0.0 0.0 -1.0
  outer loop
    vertex 128.30025960466492 70.62640776165976 0.0
    vertex 133.30025960466492 108.5723281123979 0.0
    vertex 128.30025960466492 58.572328112397926 0.0
  endloop
endfacet
facet normal 0.0 0.0 -1.0
  outer loop
    vertex 128.30025960466492 58.572328112397926 0.0
    vertex 133.30025960466492 108.5723281123979 0.0
    vertex 133.30025960466492 58.572328112397926 0.0
  endloop
endfacet
facet normal 0.0 0.0 -1.0
  outer loop
    vertex 112.27603153586067 79.21023646374135 0.0
    vertex 112.33065868688007 75.06206001751322 0.0
    vertex 110.36552261736402 77.15590582519165 0.0
  endloop
endfacet
facet normal 0.0 0.0 -1.0
  outer loop
    vertex 112.33065868688007 75.06206001751322 0.0
    vertex 112.27603153586067 79.21023646374135 0.0
    vertex 116.80025960466492 79.24220109347571 0.0
  endloop
endfacet
facet normal 0.0 0.0 -1.0
  outer loop
    vertex 112.33065868688007 75.06206001751322 0.0
    vertex 116.80025960466492 79.24220109347571 0.0
    vertex 114.77076154113303 73.5481749166182 0.0
  endloop
endfacet
facet normal 0.0 0.0 -1.0
  outer loop
    vertex 114.77076154113303 73.5481749166182 0.0
    vertex 116.80025960466492 79.24220109347571 0.0
    vertex 117.51954220306625 72.71741929031914 0.0
  endloop
endfacet
facet normal 0.0 0.0 -1.0
  outer loop
    vertex 117.51954220306625 72.71741929031914 0.0
    vertex 116.80025960466492 79.24220109347571 0.0
    vertex 118.0061643791523 78.74269898095257 0.0
  endloop
endfacet
facet normal 0.0 0.0 -1.0
  outer loop
    vertex 117.51954220306625 72.71741929031914 0.0
    vertex 118.0061643791523 78.74269898095257 0.0
    vertex 120.38967581314374 72.62640776165976 0.0
  endloop
endfacet
facet normal 0.0 0.0 -1.0
  outer loop
    vertex 120.38967581314374 72.62640776165976 0.0
    vertex 118.0061643791523 78.74269898095257 0.0
    vertex 119.3002596046649 78.57232811239791 0.0
  endloop
endfacet
facet normal 0.0 0.0 -1.0
  outer loop
    vertex 120.38967581314374 72.62640776165976 0.0
    vertex 119.3002596046649 78.57232811239791 0.0
    vertex 120.59435483017751 78.74269898095258 0.0
  endloop
endfacet
facet normal 0.0 0.0 -1.0
  outer loop
    vertex 120.38967581314374 72.62640776165976 0.0
    vertex 120.59435483017751 78.74269898095258 0.0
    vertex 126.30025960466492 72.62640776165976 0.0
  endloop
endfacet
facet normal 0.0 0.0 -1.0
  outer loop
    vertex 126.30025960466492 72.62640776165976 0.0
    vertex 120.59435483017751 78.74269898095258 0.0
    vertex 121.8002596046649 79.24220109347573 0.0
  endloop
endfacet
facet normal 0.0 0.0 -1.0
  outer loop
    vertex 126.30025960466492 72.62640776165976 0.0
    vertex 121.8002596046649 79.24220109347573 0.0
    vertex 122.83579351059765 80.03679420646517 0.0
  endloop
endfacet
facet normal 0.0 0.0 -1.0
  outer loop
    vertex 126.30025960466492 72.62640776165976 0.0
    vertex 122.83579351059765 80.03679420646517 0.0
    vertex 123.6303866235871 81.07232811239793 0.0
  endloop
endfacet
facet normal 0.0 0.0 -1.0
  outer loop
    vertex 126.30025960466492 72.62640776165976 0.0
    vertex 123.6303866235871 81.07232811239793 0.0
    vertex 124.12988873611026 82.27823288688532 0.0
  endloop
endfacet
facet normal 0.0 0.0 -1.0
  outer loop
    vertex 126.30025960466492 72.62640776165976 0.0
    vertex 124.12988873611026 82.27823288688532 0.0
    vertex 124.3002596046649 83.57232811239791 0.0
  endloop
endfacet
facet normal 0.0 0.0 -1.0
  outer loop
    vertex 126.30025960466492 72.62640776165976 0.0
    vertex 124.3002596046649 83.57232811239791 0.0
    vertex 126.30025960466492 94.51824846313608 0.0
  endloop
endfacet
facet normal 0.0 0.0 -1.0
  outer loop
    vertex 126.30025960466492 72.62640776165976 0.0
    vertex 126.30025960466492 94.51824846313608 0.0
    vertex 128.30025960466492 96.51824846313606 0.0
  endloop
endfacet
facet normal 0.0 0.0 -1.0
  outer loop
    vertex 126.30025960466492 72.62640776165976 0.0
    vertex 128.30025960466492 96.51824846313606 0.0
    vertex 128.30025960466492 70.62640776165976 0.0
  endloop
endfacet
facet normal -0.007065035512228231 0.9999750423251628 0.0
  outer loop
    vertex 112.27603153586067 79.21023646374135 21.0
    vertex 116.80025960466492 79.24220109347571 0.0
    vertex 112.27603153586067 79.21023646374135 0.0
  endloop
endfacet
facet normal -0.007065035512228231 0.9999750423251628 0.0
  outer loop
    vertex 116.80025960466492 79.24220109347571 0.0
    vertex 112.27603153586067 79.21023646374135 21.0
    vertex 116.80025960466492 79.24220109347571 21.0
  endloop
endfacet
facet normal 0.0 0.0 1.0
  outer loop
    vertex 116.92859856094263 79.18904135720467 21.0
    vertex 116.80025960466492 79.24220109347571 21.0
    vertex 112.27603153586067 79.21023646374135 21.0
  endloop
endfacet
facet normal -0.8540687401265875 -0.52016015527776 0.0
  outer loop
    vertex 110.78999150978021 90.54192903018279 21.0
    vertex 112.27610640888518 88.1018261759298 0.0
    vertex 112.27610640888518 88.1018261759298 21.0
  endloop
endfacet
facet normal -0.8540687401265875 -0.52016015527776 0.0
  outer loop
    vertex 112.27610640888518 88.1018261759298 0.0
    vertex 110.78999150978021 90.54192903018279 21.0
    vertex 110.78999150978021 90.54192903018279 0.0
  endloop
endfacet
facet normal -0.7322749600744457 0.6810090916044874 0.0
  outer loop
    vertex 112.27603153586067 79.21023646374135 21.0
    vertex 110.36552261736402 77.15590582519165 0.0
    vertex 110.36552261736402 77.15590582519165 21.0
  endloop
endfacet
facet normal -0.7322749600744457 0.6810090916044874 0.0
  outer loop
    vertex 110.36552261736402 77.15590582519165 0.0
    vertex 112.27603153586067 79.21023646374135 21.0
    vertex 112.27603153586067 79.21023646374135 0.0
  endloop
endfacet
endsolid rod holder
