solid rod holder
facet normal -0.6087614290087312 -0.7933533402912273 -0.0
  outer loop
    vertex 207.28053492854085 91.0898987441324 23.0
    vertex 206.6592145849812 91.56665461192607 0.0
    vertex 207.28053492854085 91.0898987441324 0.0
  endloop
endfacet
facet normal -0.6087614290087312 -0.7933533402912273 -0.0
  outer loop
    vertex 206.6592145849812 91.56665461192607 0.0
    vertex 207.28053492854085 91.0898987441324 23.0
    vertex 206.6592145849812 91.56665461192607 23.0
  endloop
endfacet
facet normal -0.38268343236508295 -0.9238795325112896 -0.0
  outer loop
    vertex 206.6592145849812 91.56665461192607 23.0
    vertex 205.93567172028875 91.86635587943996 0.0
    vertex 206.6592145849812 91.56665461192607 0.0
  endloop
endfacet
facet normal -0.38268343236508295 -0.9238795325112896 -0.0
  outer loop
    vertex 205.93567172028875 91.86635587943996 0.0
    vertex 206.6592145849812 91.56665461192607 23.0
    vertex 205.93567172028875 91.86635587943996 23.0
  endloop
endfacet
facet normal -0.7933533402912465 0.6087614290087061 0.0
  outer loop
    vertex 207.7572907963345 87.46857840057277 23.0
    vertex 207.28053492854085 86.84725805701312 0.0
    vertex 207.28053492854085 86.84725805701312 23.0
  endloop
endfacet
facet normal -0.7933533402912465 0.6087614290087061 0.0
  outer loop
    vertex 207.28053492854085 86.84725805701312 0.0
    vertex 207.7572907963345 87.46857840057277 23.0
    vertex 207.7572907963345 87.46857840057277 0.0
  endloop
endfacet
facet normal -0.7933533402912465 -0.6087614290087061 -0.0
  outer loop
    vertex 207.28053492854085 91.0898987441324 23.0
    vertex 207.7572907963345 90.46857840057275 0.0
    vertex 207.7572907963345 90.46857840057275 23.0
  endloop
endfacet
facet normal -0.7933533402912465 -0.6087614290087061 -0.0
  outer loop
    vertex 207.7572907963345 90.46857840057275 0.0
    vertex 207.28053492854085 91.0898987441324 23.0
    vertex 207.28053492854085 91.0898987441324 0.0
  endloop
endfacet
facet normal -0.1305261922200525 -0.9914448613738103 -0.0
  outer loop
    vertex 205.15921458498119 84.46857840057274 23.0
    vertex 203.99452888201984 84.62191218227194 0.0
    vertex 205.15921458498119 84.46857840057274 0.0
  endloop
endfacet
facet normal -0.1305261922200525 -0.9914448613738103 -0.0
  outer loop
    vertex 203.99452888201984 84.62191218227194 0.0
    vertex 205.15921458498119 84.46857840057274 23.0
    vertex 203.99452888201984 84.62191218227194 23.0
  endloop
endfacet
facet normal -0.38268343236509234 -0.9238795325112856 -0.0
  outer loop
    vertex 203.99452888201984 84.62191218227194 23.0
    vertex 202.90921458498119 85.07146408354278 0.0
    vertex 203.99452888201984 84.62191218227194 0.0
  endloop
endfacet
facet normal -0.38268343236509234 -0.9238795325112856 -0.0
  outer loop
    vertex 202.90921458498119 85.07146408354278 0.0
    vertex 203.99452888201984 84.62191218227194 23.0
    vertex 202.90921458498119 85.07146408354278 23.0
  endloop
endfacet
facet normal -0.9914448613738114 0.1305261922200443 0.0
  outer loop
    vertex 200.81254836668035 90.1332641035341 23.0
    vertex 200.65921458498119 88.96857840057275 0.0
    vertex 200.65921458498119 88.96857840057275 23.0
  endloop
endfacet
facet normal -0.9914448613738114 0.1305261922200443 0.0
  outer loop
    vertex 200.65921458498119 88.96857840057275 0.0
    vertex 200.81254836668035 90.1332641035341 23.0
    vertex 200.81254836668035 90.1332641035341 0.0
  endloop
endfacet
facet normal 0.9914448613738113 -0.13052619222004555 0.0
  outer loop
    vertex 202.261437106114 89.74503553588032 0.0
    vertex 202.15921458498119 88.96857840057275 23.0
    vertex 202.15921458498119 88.96857840057275 0.0
  endloop
endfacet
facet normal 0.9914448613738113 -0.13052619222004555 0.0
  outer loop
    vertex 202.15921458498119 88.96857840057275 23.0
    vertex 202.261437106114 89.74503553588032 0.0
    vertex 202.261437106114 89.74503553588032 23.0
  endloop
endfacet
facet normal 0.38268343236507063 0.9238795325112947 0.0
  outer loop
    vertex 203.65921458498116 86.37050218921945 23.0
    vertex 204.38275744967362 86.07080092170557 0.0
    vertex 203.65921458498116 86.37050218921945 0.0
  endloop
endfacet
facet normal 0.38268343236507063 0.9238795325112947 0.0
  outer loop
    vertex 204.38275744967362 86.07080092170557 0.0
    vertex 203.65921458498116 86.37050218921945 23.0
    vertex 204.38275744967362 86.07080092170557 23.0
  endloop
endfacet
facet normal -0.6087614290087219 0.7933533402912343 0.0
  outer loop
    vertex 201.97723406964172 92.15055891591223 23.0
    vertex 202.90921458498119 92.86569271760274 0.0
    vertex 201.97723406964172 92.15055891591223 0.0
  endloop
endfacet
facet normal -0.6087614290087219 0.7933533402912343 0.0
  outer loop
    vertex 202.90921458498119 92.86569271760274 0.0
    vertex 201.97723406964172 92.15055891591223 23.0
    vertex 202.90921458498119 92.86569271760274 23.0
  endloop
endfacet
facet normal -0.13052619222004555 -0.9914448613738113 -0.0
  outer loop
    vertex 205.93567172028875 91.86635587943996 23.0
    vertex 205.15921458498119 91.96857840057275 0.0
    vertex 205.93567172028875 91.86635587943996 0.0
  endloop
endfacet
facet normal -0.13052619222004555 -0.9914448613738113 -0.0
  outer loop
    vertex 205.15921458498119 91.96857840057275 0.0
    vertex 205.93567172028875 91.86635587943996 23.0
    vertex 205.15921458498119 91.96857840057275 23.0
  endloop
endfacet
facet normal -0.7071067811865476 0.7071067811865476 0.0
  outer loop
    vertex 209.6592145849812 95.46857840057277 23.0
    vertex 207.6592145849812 93.46857840057277 0.0
    vertex 207.6592145849812 93.46857840057277 23.0
  endloop
endfacet
facet normal -0.7071067811865476 0.7071067811865476 0.0
  outer loop
    vertex 207.6592145849812 93.46857840057277 0.0
    vertex 209.6592145849812 95.46857840057277 23.0
    vertex 209.6592145849812 95.46857840057277 0.0
  endloop
endfacet
facet normal 0.6087614290087312 0.7933533402912273 0.0
  outer loop
    vertex 203.03789424142155 86.84725805701312 23.0
    vertex 203.65921458498116 86.37050218921945 0.0
    vertex 203.03789424142155 86.84725805701312 0.0
  endloop
endfacet
facet normal 0.6087614290087312 0.7933533402912273 0.0
  outer loop
    vertex 203.65921458498116 86.37050218921945 0.0
    vertex 203.03789424142155 86.84725805701312 23.0
    vertex 203.65921458498116 86.37050218921945 23.0
  endloop
endfacet
facet normal 0.9914448613738113 0.13052619222004555 0.0
  outer loop
    vertex 202.15921458498119 88.96857840057275 0.0
    vertex 202.261437106114 88.1921212652652 23.0
    vertex 202.261437106114 88.1921212652652 0.0
  endloop
endfacet
facet normal 0.9914448613738113 0.13052619222004555 0.0
  outer loop
    vertex 202.261437106114 88.1921212652652 23.0
    vertex 202.15921458498119 88.96857840057275 0.0
    vertex 202.15921458498119 88.96857840057275 23.0
  endloop
endfacet
facet normal -0.7933533402912296 -0.6087614290087279 -0.0
  outer loop
    vertex 201.26210026795118 86.71857840057275 23.0
    vertex 201.97723406964172 85.78659788523329 0.0
    vertex 201.97723406964172 85.78659788523329 23.0
  endloop
endfacet
facet normal -0.7933533402912296 -0.6087614290087279 -0.0
  outer loop
    vertex 201.97723406964172 85.78659788523329 0.0
    vertex 201.26210026795118 86.71857840057275 23.0
    vertex 201.26210026795118 86.71857840057275 0.0
  endloop
endfacet
facet normal 0.13052619222004555 -0.9914448613738113 0.0
  outer loop
    vertex 205.15921458498119 91.96857840057275 23.0
    vertex 204.38275744967362 91.86635587943996 0.0
    vertex 205.15921458498119 91.96857840057275 0.0
  endloop
endfacet
facet normal 0.13052619222004555 -0.9914448613738113 0.0
  outer loop
    vertex 204.38275744967362 91.86635587943996 0.0
    vertex 205.15921458498119 91.96857840057275 23.0
    vertex 204.38275744967362 91.86635587943996 23.0
  endloop
endfacet
facet normal 0.0 1.0 0.0
  outer loop
    vertex 205.15921458498119 93.46857840057277 23.0
    vertex 207.6592145849812 93.46857840057277 0.0
    vertex 205.15921458498119 93.46857840057277 0.0
  endloop
endfacet
facet normal 0.0 1.0 0.0
  outer loop
    vertex 207.6592145849812 93.46857840057277 0.0
    vertex 205.15921458498119 93.46857840057277 23.0
    vertex 207.6592145849812 93.46857840057277 23.0
  endloop
endfacet
facet normal -0.38268343236509234 0.9238795325112856 0.0
  outer loop
    vertex 202.90921458498119 92.86569271760274 23.0
    vertex 203.99452888201984 93.31524461887358 0.0
    vertex 202.90921458498119 92.86569271760274 0.0
  endloop
endfacet
facet normal -0.38268343236509234 0.9238795325112856 0.0
  outer loop
    vertex 203.99452888201984 93.31524461887358 0.0
    vertex 202.90921458498119 92.86569271760274 23.0
    vertex 203.99452888201984 93.31524461887358 23.0
  endloop
endfacet
facet normal -0.3826834323651033 0.9238795325112812 0.0
  outer loop
    vertex 205.93567172028875 86.07080092170555 23.0
    vertex 206.65921458498116 86.37050218921945 0.0
    vertex 205.93567172028875 86.07080092170555 0.0
  endloop
endfacet
facet normal -0.3826834323651033 0.9238795325112812 0.0
  outer loop
    vertex 206.65921458498116 86.37050218921945 0.0
    vertex 205.93567172028875 86.07080092170555 23.0
    vertex 206.65921458498116 86.37050218921945 23.0
  endloop
endfacet
facet normal -0.9238795325112782 0.3826834323651105 0.0
  outer loop
    vertex 208.05699206384838 88.19212126526519 23.0
    vertex 207.7572907963345 87.46857840057277 0.0
    vertex 207.7572907963345 87.46857840057277 23.0
  endloop
endfacet
facet normal -0.9238795325112782 0.3826834323651105 0.0
  outer loop
    vertex 207.7572907963345 87.46857840057277 0.0
    vertex 208.05699206384838 88.19212126526519 23.0
    vertex 208.05699206384838 88.19212126526519 0.0
  endloop
endfacet
facet normal 0.3826834323651033 -0.9238795325112812 0.0
  outer loop
    vertex 204.38275744967362 91.86635587943996 23.0
    vertex 203.6592145849812 91.56665461192607 0.0
    vertex 204.38275744967362 91.86635587943996 0.0
  endloop
endfacet
facet normal 0.3826834323651033 -0.9238795325112812 0.0
  outer loop
    vertex 203.6592145849812 91.56665461192607 0.0
    vertex 204.38275744967362 91.86635587943996 23.0
    vertex 203.6592145849812 91.56665461192607 23.0
  endloop
endfacet
facet normal -0.0 -1.0 -0.0
  outer loop
    vertex 212.1592145849812 73.96857840057277 23.0
    vertex 209.6592145849812 73.96857840057277 0.0
    vertex 212.1592145849812 73.96857840057277 0.0
  endloop
endfacet
facet normal -0.0 -1.0 -0.0
  outer loop
    vertex 209.6592145849812 73.96857840057277 0.0
    vertex 212.1592145849812 73.96857840057277 23.0
    vertex 209.6592145849812 73.96857840057277 23.0
  endloop
endfacet
facet normal -0.9914448613738114 -0.1305261922200443 -0.0
  outer loop
    vertex 200.65921458498119 88.96857840057275 23.0
    vertex 200.81254836668035 87.80389269761142 0.0
    vertex 200.81254836668035 87.80389269761142 23.0
  endloop
endfacet
facet normal -0.9914448613738114 -0.1305261922200443 -0.0
  outer loop
    vertex 200.81254836668035 87.80389269761142 0.0
    vertex 200.65921458498119 88.96857840057275 23.0
    vertex 200.65921458498119 88.96857840057275 0.0
  endloop
endfacet
facet normal -0.7933533402912296 0.6087614290087279 0.0
  outer loop
    vertex 201.97723406964172 92.15055891591223 23.0
    vertex 201.26210026795118 91.21857840057277 0.0
    vertex 201.26210026795118 91.21857840057277 23.0
  endloop
endfacet
facet normal -0.7933533402912296 0.6087614290087279 0.0
  outer loop
    vertex 201.26210026795118 91.21857840057277 0.0
    vertex 201.97723406964172 92.15055891591223 23.0
    vertex 201.97723406964172 92.15055891591223 0.0
  endloop
endfacet
facet normal -0.0 -1.0 -0.0
  outer loop
    vertex 207.6592145849812 84.46857840057274 23.0
    vertex 205.15921458498119 84.46857840057274 0.0
    vertex 207.6592145849812 84.46857840057274 0.0
  endloop
endfacet
facet normal -0.0 -1.0 -0.0
  outer loop
    vertex 205.15921458498119 84.46857840057274 0.0
    vertex 207.6592145849812 84.46857840057274 23.0
    vertex 205.15921458498119 84.46857840057274 23.0
  endloop
endfacet
facet normal 1.0 0.0 0.0
  outer loop
    vertex 212.1592145849812 103.96857840057275 0.0
    vertex 212.1592145849812 73.96857840057277 23.0
    vertex 212.1592145849812 73.96857840057277 0.0
  endloop
endfacet
facet normal 1.0 0.0 0.0
  outer loop
    vertex 212.1592145849812 73.96857840057277 23.0
    vertex 212.1592145849812 103.96857840057275 0.0
    vertex 212.1592145849812 103.96857840057275 23.0
  endloop
endfacet
facet normal -0.7071067811865476 -0.7071067811865476 -0.0
  outer loop
    vertex 207.6592145849812 84.46857840057274 23.0
    vertex 209.6592145849812 82.46857840057275 0.0
    vertex 209.6592145849812 82.46857840057275 23.0
  endloop
endfacet
facet normal -0.7071067811865476 -0.7071067811865476 -0.0
  outer loop
    vertex 209.6592145849812 82.46857840057275 0.0
    vertex 207.6592145849812 84.46857840057274 23.0
    vertex 207.6592145849812 84.46857840057274 0.0
  endloop
endfacet
facet normal 0.0 0.0 1.0
  outer loop
    vertex 200.81254836668035 87.80389269761142 23.0
    vertex 200.81254836668035 90.1332641035341 23.0
    vertex 200.65921458498119 88.96857840057275 23.0
  endloop
endfacet
facet normal 0.0 0.0 1.0
  outer loop
    vertex 200.81254836668035 90.1332641035341 23.0
    vertex 200.81254836668035 87.80389269761142 23.0
    vertex 201.26210026795118 86.71857840057275 23.0
  endloop
endfacet
facet normal 0.0 0.0 1.0
  outer loop
    vertex 200.81254836668035 90.1332641035341 23.0
    vertex 201.26210026795118 86.71857840057275 23.0
    vertex 201.26210026795118 91.21857840057277 23.0
  endloop
endfacet
facet normal 0.0 0.0 1.0
  outer loop
    vertex 201.26210026795118 91.21857840057277 23.0
    vertex 201.26210026795118 86.71857840057275 23.0
    vertex 201.97723406964172 85.78659788523329 23.0
  endloop
endfacet
facet normal 0.0 0.0 1.0
  outer loop
    vertex 201.26210026795118 91.21857840057277 23.0
    vertex 201.97723406964172 85.78659788523329 23.0
    vertex 201.97723406964172 92.15055891591223 23.0
  endloop
endfacet
facet normal 0.0 0.0 1.0
  outer loop
    vertex 201.97723406964172 92.15055891591223 23.0
    vertex 201.97723406964172 85.78659788523329 23.0
    vertex 202.15921458498119 88.96857840057275 23.0
  endloop
endfacet
facet normal 0.0 0.0 1.0
  outer loop
    vertex 202.15921458498119 88.96857840057275 23.0
    vertex 201.97723406964172 85.78659788523329 23.0
    vertex 202.261437106114 88.1921212652652 23.0
  endloop
endfacet
facet normal 0.0 0.0 1.0
  outer loop
    vertex 202.261437106114 88.1921212652652 23.0
    vertex 201.97723406964172 85.78659788523329 23.0
    vertex 202.90921458498119 85.07146408354278 23.0
  endloop
endfacet
facet normal 0.0 0.0 1.0
  outer loop
    vertex 202.261437106114 88.1921212652652 23.0
    vertex 202.90921458498119 85.07146408354278 23.0
    vertex 202.5611383736279 87.46857840057277 23.0
  endloop
endfacet
facet normal 0.0 0.0 1.0
  outer loop
    vertex 202.5611383736279 87.46857840057277 23.0
    vertex 202.90921458498119 85.07146408354278 23.0
    vertex 203.03789424142155 86.84725805701312 23.0
  endloop
endfacet
facet normal 0.0 0.0 1.0
  outer loop
    vertex 203.03789424142155 86.84725805701312 23.0
    vertex 202.90921458498119 85.07146408354278 23.0
    vertex 203.99452888201984 84.62191218227194 23.0
  endloop
endfacet
facet normal 0.0 0.0 1.0
  outer loop
    vertex 203.03789424142155 86.84725805701312 23.0
    vertex 203.99452888201984 84.62191218227194 23.0
    vertex 203.65921458498116 86.37050218921945 23.0
  endloop
endfacet
facet normal 0.0 0.0 1.0
  outer loop
    vertex 203.65921458498116 86.37050218921945 23.0
    vertex 203.99452888201984 84.62191218227194 23.0
    vertex 204.38275744967362 86.07080092170557 23.0
  endloop
endfacet
facet normal 0.0 0.0 1.0
  outer loop
    vertex 204.38275744967362 86.07080092170557 23.0
    vertex 203.99452888201984 84.62191218227194 23.0
    vertex 205.15921458498119 84.46857840057274 23.0
  endloop
endfacet
facet normal 0.0 0.0 1.0
  outer loop
    vertex 204.38275744967362 86.07080092170557 23.0
    vertex 205.15921458498119 84.46857840057274 23.0
    vertex 205.15921458498119 85.96857840057277 23.0
  endloop
endfacet
facet normal 0.0 0.0 1.0
  outer loop
    vertex 205.15921458498119 85.96857840057277 23.0
    vertex 205.15921458498119 84.46857840057274 23.0
    vertex 207.6592145849812 84.46857840057274 23.0
  endloop
endfacet
facet normal 0.0 0.0 1.0
  outer loop
    vertex 205.15921458498119 85.96857840057277 23.0
    vertex 207.6592145849812 84.46857840057274 23.0
    vertex 205.93567172028875 86.07080092170555 23.0
  endloop
endfacet
facet normal 0.0 0.0 1.0
  outer loop
    vertex 205.93567172028875 86.07080092170555 23.0
    vertex 207.6592145849812 84.46857840057274 23.0
    vertex 206.65921458498116 86.37050218921945 23.0
  endloop
endfacet
facet normal 0.0 0.0 1.0
  outer loop
    vertex 206.65921458498116 86.37050218921945 23.0
    vertex 207.6592145849812 84.46857840057274 23.0
    vertex 207.28053492854085 86.84725805701312 23.0
  endloop
endfacet
facet normal 0.0 0.0 1.0
  outer loop
    vertex 207.28053492854085 86.84725805701312 23.0
    vertex 207.6592145849812 84.46857840057274 23.0
    vertex 207.7572907963345 87.46857840057277 23.0
  endloop
endfacet
facet normal 0.0 0.0 1.0
  outer loop
    vertex 207.7572907963345 87.46857840057277 23.0
    vertex 207.6592145849812 84.46857840057274 23.0
    vertex 209.6592145849812 82.46857840057275 23.0
  endloop
endfacet
facet normal 0.0 0.0 1.0
  outer loop
    vertex 207.7572907963345 87.46857840057277 23.0
    vertex 209.6592145849812 82.46857840057275 23.0
    vertex 208.05699206384838 88.19212126526519 23.0
  endloop
endfacet
facet normal 0.0 0.0 1.0
  outer loop
    vertex 208.05699206384838 88.19212126526519 23.0
    vertex 209.6592145849812 82.46857840057275 23.0
    vertex 208.15921458498119 88.96857840057275 23.0
  endloop
endfacet
facet normal 0.0 0.0 1.0
  outer loop
    vertex 212.1592145849812 73.96857840057277 23.0
    vertex 209.6592145849812 82.46857840057275 23.0
    vertex 209.6592145849812 73.96857840057277 23.0
  endloop
endfacet
facet normal 0.0 0.0 1.0
  outer loop
    vertex 209.6592145849812 82.46857840057275 23.0
    vertex 212.1592145849812 73.96857840057277 23.0
    vertex 209.6592145849812 95.46857840057277 23.0
  endloop
endfacet
facet normal 0.0 0.0 1.0
  outer loop
    vertex 209.6592145849812 95.46857840057277 23.0
    vertex 212.1592145849812 73.96857840057277 23.0
    vertex 209.6592145849812 103.96857840057275 23.0
  endloop
endfacet
facet normal 0.0 0.0 1.0
  outer loop
    vertex 209.6592145849812 103.96857840057275 23.0
    vertex 212.1592145849812 73.96857840057277 23.0
    vertex 212.1592145849812 103.96857840057275 23.0
  endloop
endfacet
facet normal 0.0 0.0 1.0
  outer loop
    vertex 201.97723406964172 92.15055891591223 23.0
    vertex 202.261437106114 89.74503553588032 23.0
    vertex 202.90921458498119 92.86569271760274 23.0
  endloop
endfacet
facet normal 0.0 0.0 1.0
  outer loop
    vertex 202.261437106114 89.74503553588032 23.0
    vertex 201.97723406964172 92.15055891591223 23.0
    vertex 202.15921458498119 88.96857840057275 23.0
  endloop
endfacet
facet normal 0.0 0.0 1.0
  outer loop
    vertex 202.90921458498119 92.86569271760274 23.0
    vertex 202.261437106114 89.74503553588032 23.0
    vertex 202.5611383736279 90.46857840057275 23.0
  endloop
endfacet
facet normal 0.0 0.0 1.0
  outer loop
    vertex 202.90921458498119 92.86569271760274 23.0
    vertex 202.5611383736279 90.46857840057275 23.0
    vertex 203.03789424142155 91.0898987441324 23.0
  endloop
endfacet
facet normal 0.0 0.0 1.0
  outer loop
    vertex 202.90921458498119 92.86569271760274 23.0
    vertex 203.03789424142155 91.0898987441324 23.0
    vertex 203.99452888201984 93.31524461887358 23.0
  endloop
endfacet
facet normal 0.0 0.0 1.0
  outer loop
    vertex 203.99452888201984 93.31524461887358 23.0
    vertex 203.03789424142155 91.0898987441324 23.0
    vertex 203.6592145849812 91.56665461192607 23.0
  endloop
endfacet
facet normal 0.0 0.0 1.0
  outer loop
    vertex 203.99452888201984 93.31524461887358 23.0
    vertex 203.6592145849812 91.56665461192607 23.0
    vertex 204.38275744967362 91.86635587943996 23.0
  endloop
endfacet
facet normal 0.0 0.0 1.0
  outer loop
    vertex 203.99452888201984 93.31524461887358 23.0
    vertex 204.38275744967362 91.86635587943996 23.0
    vertex 205.15921458498119 93.46857840057277 23.0
  endloop
endfacet
facet normal 0.0 0.0 1.0
  outer loop
    vertex 205.15921458498119 93.46857840057277 23.0
    vertex 204.38275744967362 91.86635587943996 23.0
    vertex 205.15921458498119 91.96857840057275 23.0
  endloop
endfacet
facet normal 0.0 0.0 1.0
  outer loop
    vertex 205.15921458498119 93.46857840057277 23.0
    vertex 205.15921458498119 91.96857840057275 23.0
    vertex 205.93567172028875 91.86635587943996 23.0
  endloop
endfacet
facet normal 0.0 0.0 1.0
  outer loop
    vertex 205.15921458498119 93.46857840057277 23.0
    vertex 205.93567172028875 91.86635587943996 23.0
    vertex 207.6592145849812 93.46857840057277 23.0
  endloop
endfacet
facet normal 0.0 0.0 1.0
  outer loop
    vertex 207.6592145849812 93.46857840057277 23.0
    vertex 205.93567172028875 91.86635587943996 23.0
    vertex 206.6592145849812 91.56665461192607 23.0
  endloop
endfacet
facet normal 0.0 0.0 1.0
  outer loop
    vertex 207.6592145849812 93.46857840057277 23.0
    vertex 206.6592145849812 91.56665461192607 23.0
    vertex 207.28053492854085 91.0898987441324 23.0
  endloop
endfacet
facet normal 0.0 0.0 1.0
  outer loop
    vertex 207.6592145849812 93.46857840057277 23.0
    vertex 207.28053492854085 91.0898987441324 23.0
    vertex 207.7572907963345 90.46857840057275 23.0
  endloop
endfacet
facet normal 0.0 0.0 1.0
  outer loop
    vertex 207.6592145849812 93.46857840057277 23.0
    vertex 207.7572907963345 90.46857840057275 23.0
    vertex 209.6592145849812 95.46857840057277 23.0
  endloop
endfacet
facet normal 0.0 0.0 1.0
  outer loop
    vertex 209.6592145849812 95.46857840057277 23.0
    vertex 207.7572907963345 90.46857840057275 23.0
    vertex 208.05699206384838 89.74503553588032 23.0
  endloop
endfacet
facet normal 0.0 0.0 1.0
  outer loop
    vertex 209.6592145849812 95.46857840057277 23.0
    vertex 208.05699206384838 89.74503553588032 23.0
    vertex 208.15921458498119 88.96857840057275 23.0
  endloop
endfacet
facet normal 0.0 0.0 1.0
  outer loop
    vertex 209.6592145849812 95.46857840057277 23.0
    vertex 208.15921458498119 88.96857840057275 23.0
    vertex 209.6592145849812 82.46857840057275 23.0
  endloop
endfacet
facet normal -0.9238795325112872 0.382683432365089 0.0
  outer loop
    vertex 201.26210026795118 91.21857840057277 23.0
    vertex 200.81254836668035 90.1332641035341 0.0
    vertex 200.81254836668035 90.1332641035341 23.0
  endloop
endfacet
facet normal -0.9238795325112872 0.382683432365089 0.0
  outer loop
    vertex 200.81254836668035 90.1332641035341 0.0
    vertex 201.26210026795118 91.21857840057277 23.0
    vertex 201.26210026795118 91.21857840057277 0.0
  endloop
endfacet
facet normal -0.9238795325112803 -0.3826834323651054 -0.0
  outer loop
    vertex 207.7572907963345 90.46857840057275 23.0
    vertex 208.05699206384838 89.74503553588032 0.0
    vertex 208.05699206384838 89.74503553588032 23.0
  endloop
endfacet
facet normal -0.9238795325112803 -0.3826834323651054 -0.0
  outer loop
    vertex 208.05699206384838 89.74503553588032 0.0
    vertex 207.7572907963345 90.46857840057275 23.0
    vertex 207.7572907963345 90.46857840057275 0.0
  endloop
endfacet
facet normal -1.0 0.0 0.0
  outer loop
    vertex 209.6592145849812 103.96857840057275 23.0
    vertex 209.6592145849812 95.46857840057277 0.0
    vertex 209.6592145849812 95.46857840057277 23.0
  endloop
endfacet
facet normal -1.0 0.0 0.0
  outer loop
    vertex 209.6592145849812 95.46857840057277 0.0
    vertex 209.6592145849812 103.96857840057275 23.0
    vertex 209.6592145849812 103.96857840057275 0.0
  endloop
endfacet
facet normal -0.9914448613738113 -0.13052619222004555 -0.0
  outer loop
    vertex 208.05699206384838 89.74503553588032 23.0
    vertex 208.15921458498119 88.96857840057275 0.0
    vertex 208.15921458498119 88.96857840057275 23.0
  endloop
endfacet
facet normal -0.9914448613738113 -0.13052619222004555 -0.0
  outer loop
    vertex 208.15921458498119 88.96857840057275 0.0
    vertex 208.05699206384838 89.74503553588032 23.0
    vertex 208.05699206384838 89.74503553588032 0.0
  endloop
endfacet
facet normal -0.13052619222004555 0.9914448613738113 0.0
  outer loop
    vertex 205.15921458498119 85.96857840057277 23.0
    vertex 205.93567172028875 86.07080092170555 0.0
    vertex 205.15921458498119 85.96857840057277 0.0
  endloop
endfacet
facet normal -0.13052619222004555 0.9914448613738113 0.0
  outer loop
    vertex 205.93567172028875 86.07080092170555 0.0
    vertex 205.15921458498119 85.96857840057277 23.0
    vertex 205.93567172028875 86.07080092170555 23.0
  endloop
endfacet
facet normal 0.7933533402912465 0.6087614290087061 0.0
  outer loop
    vertex 202.5611383736279 87.46857840057277 0.0
    vertex 203.03789424142155 86.84725805701312 23.0
    vertex 203.03789424142155 86.84725805701312 0.0
  endloop
endfacet
facet normal 0.7933533402912465 0.6087614290087061 0.0
  outer loop
    vertex 203.03789424142155 86.84725805701312 23.0
    vertex 202.5611383736279 87.46857840057277 0.0
    vertex 202.5611383736279 87.46857840057277 23.0
  endloop
endfacet
facet normal 0.6087614290087033 -0.7933533402912485 0.0
  outer loop
    vertex 203.6592145849812 91.56665461192607 23.0
    vertex 203.03789424142155 91.0898987441324 0.0
    vertex 203.6592145849812 91.56665461192607 0.0
  endloop
endfacet
facet normal 0.6087614290087033 -0.7933533402912485 0.0
  outer loop
    vertex 203.03789424142155 91.0898987441324 0.0
    vertex 203.6592145849812 91.56665461192607 23.0
    vertex 203.03789424142155 91.0898987441324 23.0
  endloop
endfacet
facet normal 0.9238795325112803 0.3826834323651054 0.0
  outer loop
    vertex 202.261437106114 88.1921212652652 0.0
    vertex 202.5611383736279 87.46857840057277 23.0
    vertex 202.5611383736279 87.46857840057277 0.0
  endloop
endfacet
facet normal 0.9238795325112803 0.3826834323651054 0.0
  outer loop
    vertex 202.5611383736279 87.46857840057277 23.0
    vertex 202.261437106114 88.1921212652652 0.0
    vertex 202.261437106114 88.1921212652652 23.0
  endloop
endfacet
facet normal -0.6087614290087219 -0.7933533402912343 -0.0
  outer loop
    vertex 202.90921458498119 85.07146408354278 23.0
    vertex 201.97723406964172 85.78659788523329 0.0
    vertex 202.90921458498119 85.07146408354278 0.0
  endloop
endfacet
facet normal -0.6087614290087219 -0.7933533402912343 -0.0
  outer loop
    vertex 201.97723406964172 85.78659788523329 0.0
    vertex 202.90921458498119 85.07146408354278 23.0
    vertex 201.97723406964172 85.78659788523329 23.0
  endloop
endfacet
facet normal -0.9914448613738114 0.13052619222004366 0.0
  outer loop
    vertex 208.15921458498119 88.96857840057275 23.0
    vertex 208.05699206384838 88.19212126526519 0.0
    vertex 208.05699206384838 88.19212126526519 23.0
  endloop
endfacet
facet normal -0.9914448613738114 0.13052619222004366 0.0
  outer loop
    vertex 208.05699206384838 88.19212126526519 0.0
    vertex 208.15921458498119 88.96857840057275 23.0
    vertex 208.15921458498119 88.96857840057275 0.0
  endloop
endfacet
facet normal -0.9238795325112872 -0.382683432365089 -0.0
  outer loop
    vertex 200.81254836668035 87.80389269761142 23.0
    vertex 201.26210026795118 86.71857840057275 0.0
    vertex 201.26210026795118 86.71857840057275 23.0
  endloop
endfacet
facet normal -0.9238795325112872 -0.382683432365089 -0.0
  outer loop
    vertex 201.26210026795118 86.71857840057275 0.0
    vertex 200.81254836668035 87.80389269761142 23.0
    vertex 200.81254836668035 87.80389269761142 0.0
  endloop
endfacet
facet normal 0.0 1.0 0.0
  outer loop
    vertex 209.6592145849812 103.96857840057275 23.0
    vertex 212.1592145849812 103.96857840057275 0.0
    vertex 209.6592145849812 103.96857840057275 0.0
  endloop
endfacet
facet normal 0.0 1.0 0.0
  outer loop
    vertex 212.1592145849812 103.96857840057275 0.0
    vertex 209.6592145849812 103.96857840057275 23.0
    vertex 212.1592145849812 103.96857840057275 23.0
  endloop
endfacet
facet normal 0.7933533402912465 -0.6087614290087061 0.0
  outer loop
    vertex 203.03789424142155 91.0898987441324 0.0
    vertex 202.5611383736279 90.46857840057275 23.0
    vertex 202.5611383736279 90.46857840057275 0.0
  endloop
endfacet
facet normal 0.7933533402912465 -0.6087614290087061 0.0
  outer loop
    vertex 202.5611383736279 90.46857840057275 23.0
    vertex 203.03789424142155 91.0898987441324 0.0
    vertex 203.03789424142155 91.0898987441324 23.0
  endloop
endfacet
facet normal -1.0 0.0 0.0
  outer loop
    vertex 209.6592145849812 82.46857840057275 23.0
    vertex 209.6592145849812 73.96857840057277 0.0
    vertex 209.6592145849812 73.96857840057277 23.0
  endloop
endfacet
facet normal -1.0 0.0 0.0
  outer loop
    vertex 209.6592145849812 73.96857840057277 0.0
    vertex 209.6592145849812 82.46857840057275 23.0
    vertex 209.6592145849812 82.46857840057275 0.0
  endloop
endfacet
facet normal 0.9238795325112803 -0.3826834323651054 0.0
  outer loop
    vertex 202.5611383736279 90.46857840057275 0.0
    vertex 202.261437106114 89.74503553588032 23.0
    vertex 202.261437106114 89.74503553588032 0.0
  endloop
endfacet
facet normal 0.9238795325112803 -0.3826834323651054 0.0
  outer loop
    vertex 202.261437106114 89.74503553588032 23.0
    vertex 202.5611383736279 90.46857840057275 0.0
    vertex 202.5611383736279 90.46857840057275 23.0
  endloop
endfacet
facet normal -0.6087614290087033 0.7933533402912485 0.0
  outer loop
    vertex 206.65921458498116 86.37050218921945 23.0
    vertex 207.28053492854085 86.84725805701312 0.0
    vertex 206.65921458498116 86.37050218921945 0.0
  endloop
endfacet
facet normal -0.6087614290087033 0.7933533402912485 0.0
  outer loop
    vertex 207.28053492854085 86.84725805701312 0.0
    vertex 206.65921458498116 86.37050218921945 23.0
    vertex 207.28053492854085 86.84725805701312 23.0
  endloop
endfacet
facet normal 0.13052619222005968 0.9914448613738094 0.0
  outer loop
    vertex 204.38275744967362 86.07080092170557 23.0
    vertex 205.15921458498119 85.96857840057277 0.0
    vertex 204.38275744967362 86.07080092170557 0.0
  endloop
endfacet
facet normal 0.13052619222005968 0.9914448613738094 0.0
  outer loop
    vertex 205.15921458498119 85.96857840057277 0.0
    vertex 204.38275744967362 86.07080092170557 23.0
    vertex 205.15921458498119 85.96857840057277 23.0
  endloop
endfacet
facet normal -0.1305261922200525 0.9914448613738103 0.0
  outer loop
    vertex 203.99452888201984 93.31524461887358 23.0
    vertex 205.15921458498119 93.46857840057277 0.0
    vertex 203.99452888201984 93.31524461887358 0.0
  endloop
endfacet
facet normal -0.1305261922200525 0.9914448613738103 0.0
  outer loop
    vertex 205.15921458498119 93.46857840057277 0.0
    vertex 203.99452888201984 93.31524461887358 23.0
    vertex 205.15921458498119 93.46857840057277 23.0
  endloop
endfacet
facet normal 0.0 0.0 -1.0
  outer loop
    vertex 200.81254836668035 90.1332641035341 0.0
    vertex 200.81254836668035 87.80389269761142 0.0
    vertex 200.65921458498119 88.96857840057275 0.0
  endloop
endfacet
facet normal 0.0 0.0 -1.0
  outer loop
    vertex 200.81254836668035 87.80389269761142 0.0
    vertex 200.81254836668035 90.1332641035341 0.0
    vertex 201.26210026795118 91.21857840057277 0.0
  endloop
endfacet
facet normal 0.0 0.0 -1.0
  outer loop
    vertex 200.81254836668035 87.80389269761142 0.0
    vertex 201.26210026795118 91.21857840057277 0.0
    vertex 201.26210026795118 86.71857840057275 0.0
  endloop
endfacet
facet normal 0.0 0.0 -1.0
  outer loop
    vertex 201.26210026795118 86.71857840057275 0.0
    vertex 201.26210026795118 91.21857840057277 0.0
    vertex 201.97723406964172 92.15055891591223 0.0
  endloop
endfacet
facet normal 0.0 0.0 -1.0
  outer loop
    vertex 201.26210026795118 86.71857840057275 0.0
    vertex 201.97723406964172 92.15055891591223 0.0
    vertex 201.97723406964172 85.78659788523329 0.0
  endloop
endfacet
facet normal 0.0 0.0 -1.0
  outer loop
    vertex 201.97723406964172 85.78659788523329 0.0
    vertex 201.97723406964172 92.15055891591223 0.0
    vertex 202.15921458498119 88.96857840057275 0.0
  endloop
endfacet
facet normal 0.0 0.0 -1.0
  outer loop
    vertex 202.15921458498119 88.96857840057275 0.0
    vertex 201.97723406964172 92.15055891591223 0.0
    vertex 202.261437106114 89.74503553588032 0.0
  endloop
endfacet
facet normal 0.0 0.0 -1.0
  outer loop
    vertex 202.261437106114 89.74503553588032 0.0
    vertex 201.97723406964172 92.15055891591223 0.0
    vertex 202.90921458498119 92.86569271760274 0.0
  endloop
endfacet
facet normal 0.0 0.0 -1.0
  outer loop
    vertex 202.261437106114 89.74503553588032 0.0
    vertex 202.90921458498119 92.86569271760274 0.0
    vertex 202.5611383736279 90.46857840057275 0.0
  endloop
endfacet
facet normal 0.0 0.0 -1.0
  outer loop
    vertex 202.5611383736279 90.46857840057275 0.0
    vertex 202.90921458498119 92.86569271760274 0.0
    vertex 203.03789424142155 91.0898987441324 0.0
  endloop
endfacet
facet normal 0.0 0.0 -1.0
  outer loop
    vertex 203.03789424142155 91.0898987441324 0.0
    vertex 202.90921458498119 92.86569271760274 0.0
    vertex 203.99452888201984 93.31524461887358 0.0
  endloop
endfacet
facet normal 0.0 0.0 -1.0
  outer loop
    vertex 203.03789424142155 91.0898987441324 0.0
    vertex 203.99452888201984 93.31524461887358 0.0
    vertex 203.6592145849812 91.56665461192607 0.0
  endloop
endfacet
facet normal 0.0 0.0 -1.0
  outer loop
    vertex 203.6592145849812 91.56665461192607 0.0
    vertex 203.99452888201984 93.31524461887358 0.0
    vertex 204.38275744967362 91.86635587943996 0.0
  endloop
endfacet
facet normal 0.0 0.0 -1.0
  outer loop
    vertex 204.38275744967362 91.86635587943996 0.0
    vertex 203.99452888201984 93.31524461887358 0.0
    vertex 205.15921458498119 93.46857840057277 0.0
  endloop
endfacet
facet normal 0.0 0.0 -1.0
  outer loop
    vertex 204.38275744967362 91.86635587943996 0.0
    vertex 205.15921458498119 93.46857840057277 0.0
    vertex 205.15921458498119 91.96857840057275 0.0
  endloop
endfacet
facet normal 0.0 0.0 -1.0
  outer loop
    vertex 205.15921458498119 91.96857840057275 0.0
    vertex 205.15921458498119 93.46857840057277 0.0
    vertex 207.6592145849812 93.46857840057277 0.0
  endloop
endfacet
facet normal 0.0 0.0 -1.0
  outer loop
    vertex 205.15921458498119 91.96857840057275 0.0
    vertex 207.6592145849812 93.46857840057277 0.0
    vertex 205.93567172028875 91.86635587943996 0.0
  endloop
endfacet
facet normal 0.0 0.0 -1.0
  outer loop
    vertex 205.93567172028875 91.86635587943996 0.0
    vertex 207.6592145849812 93.46857840057277 0.0
    vertex 206.6592145849812 91.56665461192607 0.0
  endloop
endfacet
facet normal 0.0 0.0 -1.0
  outer loop
    vertex 206.6592145849812 91.56665461192607 0.0
    vertex 207.6592145849812 93.46857840057277 0.0
    vertex 207.28053492854085 91.0898987441324 0.0
  endloop
endfacet
facet normal 0.0 0.0 -1.0
  outer loop
    vertex 207.28053492854085 91.0898987441324 0.0
    vertex 207.6592145849812 93.46857840057277 0.0
    vertex 207.7572907963345 90.46857840057275 0.0
  endloop
endfacet
facet normal 0.0 0.0 -1.0
  outer loop
    vertex 207.7572907963345 90.46857840057275 0.0
    vertex 207.6592145849812 93.46857840057277 0.0
    vertex 209.6592145849812 95.46857840057277 0.0
  endloop
endfacet
facet normal 0.0 0.0 -1.0
  outer loop
    vertex 207.7572907963345 90.46857840057275 0.0
    vertex 209.6592145849812 95.46857840057277 0.0
    vertex 208.05699206384838 89.74503553588032 0.0
  endloop
endfacet
facet normal 0.0 0.0 -1.0
  outer loop
    vertex 208.05699206384838 89.74503553588032 0.0
    vertex 209.6592145849812 95.46857840057277 0.0
    vertex 208.15921458498119 88.96857840057275 0.0
  endloop
endfacet
facet normal 0.0 0.0 -1.0
  outer loop
    vertex 212.1592145849812 103.96857840057275 0.0
    vertex 209.6592145849812 95.46857840057277 0.0
    vertex 209.6592145849812 103.96857840057275 0.0
  endloop
endfacet
facet normal 0.0 0.0 -1.0
  outer loop
    vertex 209.6592145849812 95.46857840057277 0.0
    vertex 212.1592145849812 103.96857840057275 0.0
    vertex 209.6592145849812 82.46857840057275 0.0
  endloop
endfacet
facet normal 0.0 0.0 -1.0
  outer loop
    vertex 209.6592145849812 82.46857840057275 0.0
    vertex 212.1592145849812 103.96857840057275 0.0
    vertex 209.6592145849812 73.96857840057277 0.0
  endloop
endfacet
facet normal 0.0 0.0 -1.0
  outer loop
    vertex 209.6592145849812 73.96857840057277 0.0
    vertex 212.1592145849812 103.96857840057275 0.0
    vertex 212.1592145849812 73.96857840057277 0.0
  endloop
endfacet
facet normal 0.0 0.0 -1.0
  outer loop
    vertex 201.97723406964172 85.78659788523329 0.0
    vertex 202.261437106114 88.1921212652652 0.0
    vertex 202.90921458498119 85.07146408354278 0.0
  endloop
endfacet
facet normal 0.0 0.0 -1.0
  outer loop
    vertex 202.261437106114 88.1921212652652 0.0
    vertex 201.97723406964172 85.78659788523329 0.0
    vertex 202.15921458498119 88.96857840057275 0.0
  endloop
endfacet
facet normal 0.0 0.0 -1.0
  outer loop
    vertex 202.90921458498119 85.07146408354278 0.0
    vertex 202.261437106114 88.1921212652652 0.0
    vertex 202.5611383736279 87.46857840057277 0.0
  endloop
endfacet
facet normal 0.0 0.0 -1.0
  outer loop
    vertex 202.90921458498119 85.07146408354278 0.0
    vertex 202.5611383736279 87.46857840057277 0.0
    vertex 203.03789424142155 86.84725805701312 0.0
  endloop
endfacet
facet normal 0.0 0.0 -1.0
  outer loop
    vertex 202.90921458498119 85.07146408354278 0.0
    vertex 203.03789424142155 86.84725805701312 0.0
    vertex 203.99452888201984 84.62191218227194 0.0
  endloop
endfacet
facet normal 0.0 0.0 -1.0
  outer loop
    vertex 203.99452888201984 84.62191218227194 0.0
    vertex 203.03789424142155 86.84725805701312 0.0
    vertex 203.65921458498116 86.37050218921945 0.0
  endloop
endfacet
facet normal 0.0 0.0 -1.0
  outer loop
    vertex 203.99452888201984 84.62191218227194 0.0
    vertex 203.65921458498116 86.37050218921945 0.0
    vertex 204.38275744967362 86.07080092170557 0.0
  endloop
endfacet
facet normal 0.0 0.0 -1.0
  outer loop
    vertex 203.99452888201984 84.62191218227194 0.0
    vertex 204.38275744967362 86.07080092170557 0.0
    vertex 205.15921458498119 84.46857840057274 0.0
  endloop
endfacet
facet normal 0.0 0.0 -1.0
  outer loop
    vertex 205.15921458498119 84.46857840057274 0.0
    vertex 204.38275744967362 86.07080092170557 0.0
    vertex 205.15921458498119 85.96857840057277 0.0
  endloop
endfacet
facet normal 0.0 0.0 -1.0
  outer loop
    vertex 205.15921458498119 84.46857840057274 0.0
    vertex 205.15921458498119 85.96857840057277 0.0
    vertex 205.93567172028875 86.07080092170555 0.0
  endloop
endfacet
facet normal 0.0 0.0 -1.0
  outer loop
    vertex 205.15921458498119 84.46857840057274 0.0
    vertex 205.93567172028875 86.07080092170555 0.0
    vertex 207.6592145849812 84.46857840057274 0.0
  endloop
endfacet
facet normal 0.0 0.0 -1.0
  outer loop
    vertex 207.6592145849812 84.46857840057274 0.0
    vertex 205.93567172028875 86.07080092170555 0.0
    vertex 206.65921458498116 86.37050218921945 0.0
  endloop
endfacet
facet normal 0.0 0.0 -1.0
  outer loop
    vertex 207.6592145849812 84.46857840057274 0.0
    vertex 206.65921458498116 86.37050218921945 0.0
    vertex 207.28053492854085 86.84725805701312 0.0
  endloop
endfacet
facet normal 0.0 0.0 -1.0
  outer loop
    vertex 207.6592145849812 84.46857840057274 0.0
    vertex 207.28053492854085 86.84725805701312 0.0
    vertex 207.7572907963345 87.46857840057277 0.0
  endloop
endfacet
facet normal 0.0 0.0 -1.0
  outer loop
    vertex 207.6592145849812 84.46857840057274 0.0
    vertex 207.7572907963345 87.46857840057277 0.0
    vertex 209.6592145849812 82.46857840057275 0.0
  endloop
endfacet
facet normal 0.0 0.0 -1.0
  outer loop
    vertex 209.6592145849812 82.46857840057275 0.0
    vertex 207.7572907963345 87.46857840057277 0.0
    vertex 208.05699206384838 88.19212126526519 0.0
  endloop
endfacet
facet normal 0.0 0.0 -1.0
  outer loop
    vertex 209.6592145849812 82.46857840057275 0.0
    vertex 208.05699206384838 88.19212126526519 0.0
    vertex 208.15921458498119 88.96857840057275 0.0
  endloop
endfacet
facet normal 0.0 0.0 -1.0
  outer loop
    vertex 209.6592145849812 82.46857840057275 0.0
    vertex 208.15921458498119 88.96857840057275 0.0
    vertex 209.6592145849812 95.46857840057277 0.0
  endloop
endfacet
endsolid rod holder
