solid rod holder
facet normal -0.3953974168647805 0.9185101429688509 0.0
  outer loop
    vertex 167.30855884940542 80.46195852641632 25.0
    vertex 168.74723442713204 81.08127515726036 0.0
    vertex 167.30855884940542 80.46195852641632 0.0
  endloop
endfacet
facet normal -0.3953974168647805 0.9185101429688509 0.0
  outer loop
    vertex 168.74723442713204 81.08127515726036 0.0
    vertex 167.30855884940542 80.46195852641632 25.0
    vertex 168.74723442713204 81.08127515726036 25.0
  endloop
endfacet
facet normal -0.7071067811865489 0.7071067811865462 0.0
  outer loop
    vertex 175.6748558366328 99.23457743130592 25.0
    vertex 172.6748558366328 96.23457743130591 0.0
    vertex 172.6748558366328 96.23457743130591 25.0
  endloop
endfacet
facet normal -0.7071067811865489 0.7071067811865462 0.0
  outer loop
    vertex 172.6748558366328 96.23457743130591 0.0
    vertex 175.6748558366328 99.23457743130592 25.0
    vertex 175.6748558366328 99.23457743130592 0.0
  endloop
endfacet
facet normal 0.6196524947178497 -0.7848762869331354 0.0
  outer loop
    vertex 162.60438200359266 91.38978446281064 25.0
    vertex 161.37501904642633 90.41921389518852 0.0
    vertex 162.60438200359266 91.38978446281064 0.0
  endloop
endfacet
facet normal 0.6196524947178497 -0.7848762869331354 0.0
  outer loop
    vertex 161.37501904642633 90.41921389518852 0.0
    vertex 162.60438200359266 91.38978446281064 25.0
    vertex 161.37501904642633 90.41921389518852 25.0
  endloop
endfacet
facet normal -0.6196524947178497 0.7848762869331354 0.0
  outer loop
    vertex 168.74723442713204 81.08127515726036 25.0
    vertex 169.97659738429837 82.05184572488248 0.0
    vertex 168.74723442713204 81.08127515726036 0.0
  endloop
endfacet
facet normal -0.6196524947178497 0.7848762869331354 0.0
  outer loop
    vertex 169.97659738429837 82.05184572488248 0.0
    vertex 168.74723442713204 81.08127515726036 25.0
    vertex 169.97659738429837 82.05184572488248 25.0
  endloop
endfacet
facet normal 0.9290729454106312 -0.36989655595316717 0.0
  outer loop
    vertex 160.43874776373283 89.16353217102807 0.0
    vertex 159.85937349616628 87.70831192471867 25.0
    vertex 159.85937349616628 87.70831192471867 0.0
  endloop
endfacet
facet normal 0.9290729454106312 -0.36989655595316717 0.0
  outer loop
    vertex 159.85937349616628 87.70831192471867 25.0
    vertex 160.43874776373283 89.16353217102807 0.0
    vertex 160.43874776373283 89.16353217102807 25.0
  endloop
endfacet
facet normal 0.11683086388878261 0.9931518258770916 0.0
  outer loop
    vertex 164.20302610067918 80.41909509083943 25.0
    vertex 165.75861401421673 80.23610123727325 0.0
    vertex 164.20302610067918 80.41909509083943 0.0
  endloop
endfacet
facet normal 0.11683086388878261 0.9931518258770916 0.0
  outer loop
    vertex 165.75861401421673 80.23610123727325 0.0
    vertex 164.20302610067918 80.41909509083943 25.0
    vertex 165.75861401421673 80.23610123727325 25.0
  endloop
endfacet
facet normal -0.918510142968853 -0.3953974168647755 -0.0
  outer loop
    vertex 156.0531894093304 83.51427875329709 25.0
    vertex 157.08538379407048 81.11648612375271 0.0
    vertex 157.08538379407048 81.11648612375271 25.0
  endloop
endfacet
facet normal -0.918510142968853 -0.3953974168647755 -0.0
  outer loop
    vertex 157.08538379407048 81.11648612375271 0.0
    vertex 156.0531894093304 83.51427875329709 25.0
    vertex 156.0531894093304 83.51427875329709 0.0
  endloop
endfacet
facet normal -0.11683086388878644 -0.993151825877091 -0.0
  outer loop
    vertex 165.81381788011967 76.2364821887651 25.0
    vertex 163.2211713575571 76.54147194470875 0.0
    vertex 165.81381788011967 76.2364821887651 0.0
  endloop
endfacet
facet normal -0.11683086388878644 -0.993151825877091 -0.0
  outer loop
    vertex 163.2211713575571 76.54147194470875 0.0
    vertex 165.81381788011967 76.2364821887651 25.0
    vertex 163.2211713575571 76.54147194470875 25.0
  endloop
endfacet
facet normal -0.1441966584774935 0.9895490506710242 0.0
  outer loop
    vertex 165.75861401421673 80.23610123727325 25.0
    vertex 167.30855884940542 80.46195852641632 0.0
    vertex 165.75861401421673 80.23610123727325 0.0
  endloop
endfacet
facet normal -0.1441966584774935 0.9895490506710242 0.0
  outer loop
    vertex 167.30855884940542 80.46195852641632 0.0
    vertex 165.75861401421673 80.23610123727325 25.0
    vertex 167.30855884940542 80.46195852641632 25.0
  endloop
endfacet
facet normal -0.9895490506710232 -0.14419665847750013 -0.0
  outer loop
    vertex 155.67676059409195 86.0975201452782 25.0
    vertex 156.0531894093304 83.51427875329709 0.0
    vertex 156.0531894093304 83.51427875329709 25.0
  endloop
endfacet
facet normal -0.9895490506710232 -0.14419665847750013 -0.0
  outer loop
    vertex 156.0531894093304 83.51427875329709 0.0
    vertex 155.67676059409195 86.0975201452782 25.0
    vertex 155.67676059409195 86.0975201452782 0.0
  endloop
endfacet
facet normal -1.0 0.0 0.0
  outer loop
    vertex 175.6748558366328 73.2364821887651 25.0
    vertex 175.6748558366328 61.37353947479281 0.0
    vertex 175.6748558366328 61.37353947479281 25.0
  endloop
endfacet
facet normal -1.0 0.0 0.0
  outer loop
    vertex 175.6748558366328 61.37353947479281 0.0
    vertex 175.6748558366328 73.2364821887651 25.0
    vertex 175.6748558366328 73.2364821887651 0.0
  endloop
endfacet
facet normal -0.5977544090123094 -0.8016792790800725 -0.0
  outer loop
    vertex 160.79580428037477 77.50709572398632 25.0
    vertex 158.70300140677398 79.0675478618088 0.0
    vertex 160.79580428037477 77.50709572398632 0.0
  endloop
endfacet
facet normal -0.5977544090123094 -0.8016792790800725 -0.0
  outer loop
    vertex 158.70300140677398 79.0675478618088 0.0
    vertex 160.79580428037477 77.50709572398632 25.0
    vertex 158.70300140677398 79.0675478618088 25.0
  endloop
endfacet
facet normal 0.0 0.0 -1.0
  outer loop
    vertex 155.98175035003558 88.69016666784077 0.0
    vertex 156.0531894093304 83.51427875329709 0.0
    vertex 155.67676059409195 86.0975201452782 0.0
  endloop
endfacet
facet normal 0.0 0.0 -1.0
  outer loop
    vertex 156.0531894093304 83.51427875329709 0.0
    vertex 155.98175035003558 88.69016666784077 0.0
    vertex 156.94737412931318 91.11553374502311 0.0
  endloop
endfacet
facet normal 0.0 0.0 -1.0
  outer loop
    vertex 156.0531894093304 83.51427875329709 0.0
    vertex 156.94737412931318 91.11553374502311 0.0
    vertex 157.08538379407048 81.11648612375271 0.0
  endloop
endfacet
facet normal 0.0 0.0 -1.0
  outer loop
    vertex 157.08538379407048 81.11648612375271 0.0
    vertex 156.94737412931318 91.11553374502311 0.0
    vertex 158.50782626713567 93.20833661862386 0.0
  endloop
endfacet
facet normal 0.0 0.0 -1.0
  outer loop
    vertex 157.08538379407048 81.11648612375271 0.0
    vertex 158.50782626713567 93.20833661862386 0.0
    vertex 158.70300140677398 79.0675478618088 0.0
  endloop
endfacet
facet normal 0.0 0.0 -1.0
  outer loop
    vertex 158.70300140677398 79.0675478618088 0.0
    vertex 158.50782626713567 93.20833661862386 0.0
    vertex 160.55676452907954 94.82595423132739 0.0
  endloop
endfacet
facet normal 0.0 0.0 -1.0
  outer loop
    vertex 158.70300140677398 79.0675478618088 0.0
    vertex 160.55676452907954 94.82595423132739 0.0
    vertex 159.6763796426001 86.15272401118112 0.0
  endloop
endfacet
facet normal 0.0 0.0 -1.0
  outer loop
    vertex 159.6763796426001 86.15272401118112 0.0
    vertex 160.55676452907954 94.82595423132739 0.0
    vertex 159.85937349616628 87.70831192471867 0.0
  endloop
endfacet
facet normal 0.0 0.0 -1.0
  outer loop
    vertex 159.85937349616628 87.70831192471867 0.0
    vertex 160.55676452907954 94.82595423132739 0.0
    vertex 160.43874776373283 89.16353217102807 0.0
  endloop
endfacet
facet normal 0.0 0.0 -1.0
  outer loop
    vertex 160.43874776373283 89.16353217102807 0.0
    vertex 160.55676452907954 94.82595423132739 0.0
    vertex 161.37501904642633 90.41921389518852 0.0
  endloop
endfacet
facet normal 0.0 0.0 -1.0
  outer loop
    vertex 161.37501904642633 90.41921389518852 0.0
    vertex 160.55676452907954 94.82595423132739 0.0
    vertex 162.95455715862394 95.85814861606745 0.0
  endloop
endfacet
facet normal 0.0 0.0 -1.0
  outer loop
    vertex 161.37501904642633 90.41921389518852 0.0
    vertex 162.95455715862394 95.85814861606745 0.0
    vertex 162.60438200359266 91.38978446281064 0.0
  endloop
endfacet
facet normal 0.0 0.0 -1.0
  outer loop
    vertex 162.60438200359266 91.38978446281064 0.0
    vertex 162.95455715862394 95.85814861606745 0.0
    vertex 164.0430575813193 92.00910109365469 0.0
  endloop
endfacet
facet normal 0.0 0.0 -1.0
  outer loop
    vertex 164.0430575813193 92.00910109365469 0.0
    vertex 162.95455715862394 95.85814861606745 0.0
    vertex 165.53779855060506 96.23457743130591 0.0
  endloop
endfacet
facet normal 0.0 0.0 -1.0
  outer loop
    vertex 164.0430575813193 92.00910109365469 0.0
    vertex 165.53779855060506 96.23457743130591 0.0
    vertex 165.59300241650797 92.23495838279776 0.0
  endloop
endfacet
facet normal 0.0 0.0 -1.0
  outer loop
    vertex 165.59300241650797 92.23495838279776 0.0
    vertex 165.53779855060506 96.23457743130591 0.0
    vertex 172.6748558366328 96.23457743130591 0.0
  endloop
endfacet
facet normal 0.0 0.0 -1.0
  outer loop
    vertex 165.59300241650797 92.23495838279776 0.0
    vertex 172.6748558366328 96.23457743130591 0.0
    vertex 167.14859033004552 92.05196452923157 0.0
  endloop
endfacet
facet normal 0.0 0.0 -1.0
  outer loop
    vertex 167.14859033004552 92.05196452923157 0.0
    vertex 172.6748558366328 96.23457743130591 0.0
    vertex 168.60381057635493 91.47259026166503 0.0
  endloop
endfacet
facet normal 0.0 0.0 -1.0
  outer loop
    vertex 168.60381057635493 91.47259026166503 0.0
    vertex 172.6748558366328 96.23457743130591 0.0
    vertex 169.85949230051537 90.53631897897152 0.0
  endloop
endfacet
facet normal 0.0 0.0 -1.0
  outer loop
    vertex 169.85949230051537 90.53631897897152 0.0
    vertex 172.6748558366328 96.23457743130591 0.0
    vertex 170.8300628681375 89.30695602180519 0.0
  endloop
endfacet
facet normal 0.0 0.0 -1.0
  outer loop
    vertex 170.8300628681375 89.30695602180519 0.0
    vertex 172.6748558366328 96.23457743130591 0.0
    vertex 171.44937949898153 87.86828044407855 0.0
  endloop
endfacet
facet normal 0.0 0.0 -1.0
  outer loop
    vertex 171.44937949898153 87.86828044407855 0.0
    vertex 172.6748558366328 96.23457743130591 0.0
    vertex 171.6752367881246 86.3183356088899 0.0
  endloop
endfacet
facet normal 0.0 0.0 -1.0
  outer loop
    vertex 179.67485583663276 111.3735394747928 0.0
    vertex 175.6748558366328 99.23457743130592 0.0
    vertex 175.6748558366328 111.3735394747928 0.0
  endloop
endfacet
facet normal 0.0 0.0 -1.0
  outer loop
    vertex 175.6748558366328 99.23457743130592 0.0
    vertex 179.67485583663276 111.3735394747928 0.0
    vertex 175.6748558366328 73.2364821887651 0.0
  endloop
endfacet
facet normal 0.0 0.0 -1.0
  outer loop
    vertex 175.6748558366328 73.2364821887651 0.0
    vertex 179.67485583663276 111.3735394747928 0.0
    vertex 175.6748558366328 61.37353947479281 0.0
  endloop
endfacet
facet normal 0.0 0.0 -1.0
  outer loop
    vertex 175.6748558366328 61.37353947479281 0.0
    vertex 179.67485583663276 111.3735394747928 0.0
    vertex 179.67485583663276 61.37353947479281 0.0
  endloop
endfacet
facet normal 0.0 0.0 -1.0
  outer loop
    vertex 159.6763796426001 86.15272401118112 0.0
    vertex 160.79580428037477 77.50709572398632 0.0
    vertex 158.70300140677398 79.0675478618088 0.0
  endloop
endfacet
facet normal 0.0 0.0 -1.0
  outer loop
    vertex 160.79580428037477 77.50709572398632 0.0
    vertex 159.6763796426001 86.15272401118112 0.0
    vertex 159.90223693174318 84.60277917599245 0.0
  endloop
endfacet
facet normal 0.0 0.0 -1.0
  outer loop
    vertex 160.79580428037477 77.50709572398632 0.0
    vertex 159.90223693174318 84.60277917599245 0.0
    vertex 160.52155356258723 83.16410359826583 0.0
  endloop
endfacet
facet normal 0.0 0.0 -1.0
  outer loop
    vertex 160.79580428037477 77.50709572398632 0.0
    vertex 160.52155356258723 83.16410359826583 0.0
    vertex 161.49212413020933 81.93474064109948 0.0
  endloop
endfacet
facet normal 0.0 0.0 -1.0
  outer loop
    vertex 160.79580428037477 77.50709572398632 0.0
    vertex 161.49212413020933 81.93474064109948 0.0
    vertex 163.2211713575571 76.54147194470875 0.0
  endloop
endfacet
facet normal 0.0 0.0 -1.0
  outer loop
    vertex 163.2211713575571 76.54147194470875 0.0
    vertex 161.49212413020933 81.93474064109948 0.0
    vertex 162.7478058543698 80.99846935840598 0.0
  endloop
endfacet
facet normal 0.0 0.0 -1.0
  outer loop
    vertex 163.2211713575571 76.54147194470875 0.0
    vertex 162.7478058543698 80.99846935840598 0.0
    vertex 164.20302610067918 80.41909509083943 0.0
  endloop
endfacet
facet normal 0.0 0.0 -1.0
  outer loop
    vertex 163.2211713575571 76.54147194470875 0.0
    vertex 164.20302610067918 80.41909509083943 0.0
    vertex 165.81381788011967 76.2364821887651 0.0
  endloop
endfacet
facet normal 0.0 0.0 -1.0
  outer loop
    vertex 165.81381788011967 76.2364821887651 0.0
    vertex 164.20302610067918 80.41909509083943 0.0
    vertex 165.75861401421673 80.23610123727325 0.0
  endloop
endfacet
facet normal 0.0 0.0 -1.0
  outer loop
    vertex 165.81381788011967 76.2364821887651 0.0
    vertex 165.75861401421673 80.23610123727325 0.0
    vertex 167.30855884940542 80.46195852641632 0.0
  endloop
endfacet
facet normal 0.0 0.0 -1.0
  outer loop
    vertex 165.81381788011967 76.2364821887651 0.0
    vertex 167.30855884940542 80.46195852641632 0.0
    vertex 172.6748558366328 76.2364821887651 0.0
  endloop
endfacet
facet normal 0.0 0.0 -1.0
  outer loop
    vertex 172.6748558366328 76.2364821887651 0.0
    vertex 167.30855884940542 80.46195852641632 0.0
    vertex 168.74723442713204 81.08127515726036 0.0
  endloop
endfacet
facet normal 0.0 0.0 -1.0
  outer loop
    vertex 172.6748558366328 76.2364821887651 0.0
    vertex 168.74723442713204 81.08127515726036 0.0
    vertex 169.97659738429837 82.05184572488248 0.0
  endloop
endfacet
facet normal 0.0 0.0 -1.0
  outer loop
    vertex 172.6748558366328 76.2364821887651 0.0
    vertex 169.97659738429837 82.05184572488248 0.0
    vertex 170.91286866699187 83.30752744904294 0.0
  endloop
endfacet
facet normal 0.0 0.0 -1.0
  outer loop
    vertex 172.6748558366328 76.2364821887651 0.0
    vertex 170.91286866699187 83.30752744904294 0.0
    vertex 171.49224293455842 84.76274769535235 0.0
  endloop
endfacet
facet normal 0.0 0.0 -1.0
  outer loop
    vertex 172.6748558366328 76.2364821887651 0.0
    vertex 171.49224293455842 84.76274769535235 0.0
    vertex 171.6752367881246 86.3183356088899 0.0
  endloop
endfacet
facet normal 0.0 0.0 -1.0
  outer loop
    vertex 172.6748558366328 76.2364821887651 0.0
    vertex 171.6752367881246 86.3183356088899 0.0
    vertex 172.6748558366328 96.23457743130591 0.0
  endloop
endfacet
facet normal 0.0 0.0 -1.0
  outer loop
    vertex 172.6748558366328 76.2364821887651 0.0
    vertex 172.6748558366328 96.23457743130591 0.0
    vertex 175.6748558366328 99.23457743130592 0.0
  endloop
endfacet
facet normal 0.0 0.0 -1.0
  outer loop
    vertex 172.6748558366328 76.2364821887651 0.0
    vertex 175.6748558366328 99.23457743130592 0.0
    vertex 175.6748558366328 73.2364821887651 0.0
  endloop
endfacet
facet normal -0.0 -1.0 -0.0
  outer loop
    vertex 172.6748558366328 76.2364821887651 25.0
    vertex 165.81381788011967 76.2364821887651 0.0
    vertex 172.6748558366328 76.2364821887651 0.0
  endloop
endfacet
facet normal -0.0 -1.0 -0.0
  outer loop
    vertex 165.81381788011967 76.2364821887651 0.0
    vertex 172.6748558366328 76.2364821887651 25.0
    vertex 165.81381788011967 76.2364821887651 25.0
  endloop
endfacet
facet normal -0.9290729454106312 0.36989655595316717 0.0
  outer loop
    vertex 171.49224293455842 84.76274769535235 25.0
    vertex 170.91286866699187 83.30752744904294 0.0
    vertex 170.91286866699187 83.30752744904294 25.0
  endloop
endfacet
facet normal -0.9290729454106312 0.36989655595316717 0.0
  outer loop
    vertex 170.91286866699187 83.30752744904294 0.0
    vertex 171.49224293455842 84.76274769535235 25.0
    vertex 171.49224293455842 84.76274769535235 0.0
  endloop
endfacet
facet normal -0.3953974168647771 0.9185101429688525 0.0
  outer loop
    vertex 160.55676452907954 94.82595423132739 25.0
    vertex 162.95455715862394 95.85814861606745 0.0
    vertex 160.55676452907954 94.82595423132739 0.0
  endloop
endfacet
facet normal -0.3953974168647771 0.9185101429688525 0.0
  outer loop
    vertex 162.95455715862394 95.85814861606745 0.0
    vertex 160.55676452907954 94.82595423132739 25.0
    vertex 162.95455715862394 95.85814861606745 25.0
  endloop
endfacet
facet normal 0.0 1.0 0.0
  outer loop
    vertex 175.6748558366328 111.3735394747928 25.0
    vertex 179.67485583663276 111.3735394747928 0.0
    vertex 175.6748558366328 111.3735394747928 0.0
  endloop
endfacet
facet normal 0.0 1.0 0.0
  outer loop
    vertex 179.67485583663276 111.3735394747928 0.0
    vertex 175.6748558366328 111.3735394747928 25.0
    vertex 179.67485583663276 111.3735394747928 25.0
  endloop
endfacet
facet normal 0.3953974168647805 -0.9185101429688509 0.0
  outer loop
    vertex 164.0430575813193 92.00910109365469 25.0
    vertex 162.60438200359266 91.38978446281064 0.0
    vertex 164.0430575813193 92.00910109365469 0.0
  endloop
endfacet
facet normal 0.3953974168647805 -0.9185101429688509 0.0
  outer loop
    vertex 162.60438200359266 91.38978446281064 0.0
    vertex 164.0430575813193 92.00910109365469 25.0
    vertex 162.60438200359266 91.38978446281064 25.0
  endloop
endfacet
facet normal -0.36989655595317333 -0.9290729454106286 -0.0
  outer loop
    vertex 168.60381057635493 91.47259026166503 25.0
    vertex 167.14859033004552 92.05196452923157 0.0
    vertex 168.60381057635493 91.47259026166503 0.0
  endloop
endfacet
facet normal -0.36989655595317333 -0.9290729454106286 -0.0
  outer loop
    vertex 167.14859033004552 92.05196452923157 0.0
    vertex 168.60381057635493 91.47259026166503 25.0
    vertex 167.14859033004552 92.05196452923157 25.0
  endloop
endfacet
facet normal -1.0 0.0 0.0
  outer loop
    vertex 175.6748558366328 111.3735394747928 25.0
    vertex 175.6748558366328 99.23457743130592 0.0
    vertex 175.6748558366328 99.23457743130592 25.0
  endloop
endfacet
facet normal -1.0 0.0 0.0
  outer loop
    vertex 175.6748558366328 99.23457743130592 0.0
    vertex 175.6748558366328 111.3735394747928 25.0
    vertex 175.6748558366328 111.3735394747928 0.0
  endloop
endfacet
facet normal -0.7848762869331354 -0.6196524947178497 -0.0
  outer loop
    vertex 169.85949230051537 90.53631897897152 25.0
    vertex 170.8300628681375 89.30695602180519 0.0
    vertex 170.8300628681375 89.30695602180519 25.0
  endloop
endfacet
facet normal -0.7848762869331354 -0.6196524947178497 -0.0
  outer loop
    vertex 170.8300628681375 89.30695602180519 0.0
    vertex 169.85949230051537 90.53631897897152 25.0
    vertex 169.85949230051537 90.53631897897152 0.0
  endloop
endfacet
facet normal 1.0 0.0 0.0
  outer loop
    vertex 179.67485583663276 111.3735394747928 0.0
    vertex 179.67485583663276 61.37353947479281 25.0
    vertex 179.67485583663276 61.37353947479281 0.0
  endloop
endfacet
facet normal 1.0 0.0 0.0
  outer loop
    vertex 179.67485583663276 61.37353947479281 25.0
    vertex 179.67485583663276 111.3735394747928 0.0
    vertex 179.67485583663276 111.3735394747928 25.0
  endloop
endfacet
facet normal -0.9185101429688521 -0.395397416864778 -0.0
  outer loop
    vertex 170.8300628681375 89.30695602180519 25.0
    vertex 171.44937949898153 87.86828044407855 0.0
    vertex 171.44937949898153 87.86828044407855 25.0
  endloop
endfacet
facet normal -0.9185101429688521 -0.395397416864778 -0.0
  outer loop
    vertex 171.44937949898153 87.86828044407855 0.0
    vertex 170.8300628681375 89.30695602180519 25.0
    vertex 170.8300628681375 89.30695602180519 0.0
  endloop
endfacet
facet normal -0.9931518258770906 0.1168308638887902 0.0
  outer loop
    vertex 155.98175035003558 88.69016666784077 25.0
    vertex 155.67676059409195 86.0975201452782 0.0
    vertex 155.67676059409195 86.0975201452782 25.0
  endloop
endfacet
facet normal -0.9931518258770906 0.1168308638887902 0.0
  outer loop
    vertex 155.67676059409195 86.0975201452782 0.0
    vertex 155.98175035003558 88.69016666784077 25.0
    vertex 155.98175035003558 88.69016666784077 0.0
  endloop
endfacet
facet normal -0.1441966584774953 0.9895490506710238 0.0
  outer loop
    vertex 162.95455715862394 95.85814861606745 25.0
    vertex 165.53779855060506 96.23457743130591 0.0
    vertex 162.95455715862394 95.85814861606745 0.0
  endloop
endfacet
facet normal -0.1441966584774953 0.9895490506710238 0.0
  outer loop
    vertex 165.53779855060506 96.23457743130591 0.0
    vertex 162.95455715862394 95.85814861606745 25.0
    vertex 165.53779855060506 96.23457743130591 25.0
  endloop
endfacet
facet normal -0.7848762869331378 -0.6196524947178464 -0.0
  outer loop
    vertex 157.08538379407048 81.11648612375271 25.0
    vertex 158.70300140677398 79.0675478618088 0.0
    vertex 158.70300140677398 79.0675478618088 25.0
  endloop
endfacet
facet normal -0.7848762869331378 -0.6196524947178464 -0.0
  outer loop
    vertex 158.70300140677398 79.0675478618088 0.0
    vertex 157.08538379407048 81.11648612375271 25.0
    vertex 157.08538379407048 81.11648612375271 0.0
  endloop
endfacet
facet normal 0.8016792790800678 -0.5977544090123158 0.0
  outer loop
    vertex 161.37501904642633 90.41921389518852 0.0
    vertex 160.43874776373283 89.16353217102807 25.0
    vertex 160.43874776373283 89.16353217102807 0.0
  endloop
endfacet
facet normal 0.8016792790800678 -0.5977544090123158 0.0
  outer loop
    vertex 160.43874776373283 89.16353217102807 25.0
    vertex 161.37501904642633 90.41921389518852 0.0
    vertex 161.37501904642633 90.41921389518852 25.0
  endloop
endfacet
facet normal 0.1441966584774935 -0.9895490506710242 0.0
  outer loop
    vertex 165.59300241650797 92.23495838279776 25.0
    vertex 164.0430575813193 92.00910109365469 0.0
    vertex 165.59300241650797 92.23495838279776 0.0
  endloop
endfacet
facet normal 0.1441966584774935 -0.9895490506710242 0.0
  outer loop
    vertex 164.0430575813193 92.00910109365469 0.0
    vertex 165.59300241650797 92.23495838279776 25.0
    vertex 164.0430575813193 92.00910109365469 25.0
  endloop
endfacet
facet normal 0.36989655595317333 0.9290729454106286 0.0
  outer loop
    vertex 162.7478058543698 80.99846935840598 25.0
    vertex 164.20302610067918 80.41909509083943 0.0
    vertex 162.7478058543698 80.99846935840598 0.0
  endloop
endfacet
facet normal 0.36989655595317333 0.9290729454106286 0.0
  outer loop
    vertex 164.20302610067918 80.41909509083943 0.0
    vertex 162.7478058543698 80.99846935840598 25.0
    vertex 164.20302610067918 80.41909509083943 25.0
  endloop
endfacet
facet normal 0.0 1.0 0.0
  outer loop
    vertex 165.53779855060506 96.23457743130591 25.0
    vertex 172.6748558366328 96.23457743130591 0.0
    vertex 165.53779855060506 96.23457743130591 0.0
  endloop
endfacet
facet normal 0.0 1.0 0.0
  outer loop
    vertex 172.6748558366328 96.23457743130591 0.0
    vertex 165.53779855060506 96.23457743130591 25.0
    vertex 172.6748558366328 96.23457743130591 25.0
  endloop
endfacet
facet normal 0.9895490506710239 0.1441966584774945 0.0
  outer loop
    vertex 159.6763796426001 86.15272401118112 0.0
    vertex 159.90223693174318 84.60277917599245 25.0
    vertex 159.90223693174318 84.60277917599245 0.0
  endloop
endfacet
facet normal 0.9895490506710239 0.1441966584774945 0.0
  outer loop
    vertex 159.90223693174318 84.60277917599245 25.0
    vertex 159.6763796426001 86.15272401118112 0.0
    vertex 159.6763796426001 86.15272401118112 25.0
  endloop
endfacet
facet normal -0.9931518258770907 0.1168308638887897 0.0
  outer loop
    vertex 171.6752367881246 86.3183356088899 25.0
    vertex 171.49224293455842 84.76274769535235 0.0
    vertex 171.49224293455842 84.76274769535235 25.0
  endloop
endfacet
facet normal -0.9931518258770907 0.1168308638887897 0.0
  outer loop
    vertex 171.49224293455842 84.76274769535235 0.0
    vertex 171.6752367881246 86.3183356088899 25.0
    vertex 171.6752367881246 86.3183356088899 0.0
  endloop
endfacet
facet normal -0.8016792790800678 0.5977544090123158 0.0
  outer loop
    vertex 170.91286866699187 83.30752744904294 25.0
    vertex 169.97659738429837 82.05184572488248 0.0
    vertex 169.97659738429837 82.05184572488248 25.0
  endloop
endfacet
facet normal -0.8016792790800678 0.5977544090123158 0.0
  outer loop
    vertex 169.97659738429837 82.05184572488248 0.0
    vertex 170.91286866699187 83.30752744904294 25.0
    vertex 170.91286866699187 83.30752744904294 0.0
  endloop
endfacet
facet normal -0.6196524947178491 0.7848762869331356 0.0
  outer loop
    vertex 158.50782626713567 93.20833661862386 25.0
    vertex 160.55676452907954 94.82595423132739 0.0
    vertex 158.50782626713567 93.20833661862386 0.0
  endloop
endfacet
facet normal -0.6196524947178491 0.7848762869331356 0.0
  outer loop
    vertex 160.55676452907954 94.82595423132739 0.0
    vertex 158.50782626713567 93.20833661862386 25.0
    vertex 160.55676452907954 94.82595423132739 25.0
  endloop
endfacet
facet normal 0.0 0.0 1.0
  outer loop
    vertex 160.79580428037477 77.50709572398632 25.0
    vertex 159.6763796426001 86.15272401118112 25.0
    vertex 158.70300140677398 79.0675478618088 25.0
  endloop
endfacet
facet normal 0.0 0.0 1.0
  outer loop
    vertex 159.6763796426001 86.15272401118112 25.0
    vertex 160.79580428037477 77.50709572398632 25.0
    vertex 159.90223693174318 84.60277917599245 25.0
  endloop
endfacet
facet normal 0.0 0.0 1.0
  outer loop
    vertex 159.90223693174318 84.60277917599245 25.0
    vertex 160.79580428037477 77.50709572398632 25.0
    vertex 160.52155356258723 83.16410359826583 25.0
  endloop
endfacet
facet normal 0.0 0.0 1.0
  outer loop
    vertex 160.52155356258723 83.16410359826583 25.0
    vertex 160.79580428037477 77.50709572398632 25.0
    vertex 161.49212413020933 81.93474064109948 25.0
  endloop
endfacet
facet normal 0.0 0.0 1.0
  outer loop
    vertex 161.49212413020933 81.93474064109948 25.0
    vertex 160.79580428037477 77.50709572398632 25.0
    vertex 163.2211713575571 76.54147194470875 25.0
  endloop
endfacet
facet normal 0.0 0.0 1.0
  outer loop
    vertex 161.49212413020933 81.93474064109948 25.0
    vertex 163.2211713575571 76.54147194470875 25.0
    vertex 162.7478058543698 80.99846935840598 25.0
  endloop
endfacet
facet normal 0.0 0.0 1.0
  outer loop
    vertex 162.7478058543698 80.99846935840598 25.0
    vertex 163.2211713575571 76.54147194470875 25.0
    vertex 164.20302610067918 80.41909509083943 25.0
  endloop
endfacet
facet normal 0.0 0.0 1.0
  outer loop
    vertex 164.20302610067918 80.41909509083943 25.0
    vertex 163.2211713575571 76.54147194470875 25.0
    vertex 165.81381788011967 76.2364821887651 25.0
  endloop
endfacet
facet normal 0.0 0.0 1.0
  outer loop
    vertex 164.20302610067918 80.41909509083943 25.0
    vertex 165.81381788011967 76.2364821887651 25.0
    vertex 165.75861401421673 80.23610123727325 25.0
  endloop
endfacet
facet normal 0.0 0.0 1.0
  outer loop
    vertex 165.75861401421673 80.23610123727325 25.0
    vertex 165.81381788011967 76.2364821887651 25.0
    vertex 167.30855884940542 80.46195852641632 25.0
  endloop
endfacet
facet normal 0.0 0.0 1.0
  outer loop
    vertex 167.30855884940542 80.46195852641632 25.0
    vertex 165.81381788011967 76.2364821887651 25.0
    vertex 172.6748558366328 76.2364821887651 25.0
  endloop
endfacet
facet normal 0.0 0.0 1.0
  outer loop
    vertex 167.30855884940542 80.46195852641632 25.0
    vertex 172.6748558366328 76.2364821887651 25.0
    vertex 168.74723442713204 81.08127515726036 25.0
  endloop
endfacet
facet normal 0.0 0.0 1.0
  outer loop
    vertex 168.74723442713204 81.08127515726036 25.0
    vertex 172.6748558366328 76.2364821887651 25.0
    vertex 169.97659738429837 82.05184572488248 25.0
  endloop
endfacet
facet normal 0.0 0.0 1.0
  outer loop
    vertex 169.97659738429837 82.05184572488248 25.0
    vertex 172.6748558366328 76.2364821887651 25.0
    vertex 170.91286866699187 83.30752744904294 25.0
  endloop
endfacet
facet normal 0.0 0.0 1.0
  outer loop
    vertex 170.91286866699187 83.30752744904294 25.0
    vertex 172.6748558366328 76.2364821887651 25.0
    vertex 171.49224293455842 84.76274769535235 25.0
  endloop
endfacet
facet normal 0.0 0.0 1.0
  outer loop
    vertex 171.49224293455842 84.76274769535235 25.0
    vertex 172.6748558366328 76.2364821887651 25.0
    vertex 171.6752367881246 86.3183356088899 25.0
  endloop
endfacet
facet normal 0.0 0.0 1.0
  outer loop
    vertex 179.67485583663276 61.37353947479281 25.0
    vertex 175.6748558366328 73.2364821887651 25.0
    vertex 175.6748558366328 61.37353947479281 25.0
  endloop
endfacet
facet normal 0.0 0.0 1.0
  outer loop
    vertex 175.6748558366328 73.2364821887651 25.0
    vertex 179.67485583663276 61.37353947479281 25.0
    vertex 175.6748558366328 99.23457743130592 25.0
  endloop
endfacet
facet normal 0.0 0.0 1.0
  outer loop
    vertex 175.6748558366328 99.23457743130592 25.0
    vertex 179.67485583663276 61.37353947479281 25.0
    vertex 175.6748558366328 111.3735394747928 25.0
  endloop
endfacet
facet normal 0.0 0.0 1.0
  outer loop
    vertex 175.6748558366328 111.3735394747928 25.0
    vertex 179.67485583663276 61.37353947479281 25.0
    vertex 179.67485583663276 111.3735394747928 25.0
  endloop
endfacet
facet normal 0.0 0.0 1.0
  outer loop
    vertex 156.0531894093304 83.51427875329709 25.0
    vertex 155.98175035003558 88.69016666784077 25.0
    vertex 155.67676059409195 86.0975201452782 25.0
  endloop
endfacet
facet normal 0.0 0.0 1.0
  outer loop
    vertex 155.98175035003558 88.69016666784077 25.0
    vertex 156.0531894093304 83.51427875329709 25.0
    vertex 156.94737412931318 91.11553374502311 25.0
  endloop
endfacet
facet normal 0.0 0.0 1.0
  outer loop
    vertex 156.94737412931318 91.11553374502311 25.0
    vertex 156.0531894093304 83.51427875329709 25.0
    vertex 157.08538379407048 81.11648612375271 25.0
  endloop
endfacet
facet normal 0.0 0.0 1.0
  outer loop
    vertex 156.94737412931318 91.11553374502311 25.0
    vertex 157.08538379407048 81.11648612375271 25.0
    vertex 158.50782626713567 93.20833661862386 25.0
  endloop
endfacet
facet normal 0.0 0.0 1.0
  outer loop
    vertex 158.50782626713567 93.20833661862386 25.0
    vertex 157.08538379407048 81.11648612375271 25.0
    vertex 158.70300140677398 79.0675478618088 25.0
  endloop
endfacet
facet normal 0.0 0.0 1.0
  outer loop
    vertex 158.50782626713567 93.20833661862386 25.0
    vertex 158.70300140677398 79.0675478618088 25.0
    vertex 160.55676452907954 94.82595423132739 25.0
  endloop
endfacet
facet normal 0.0 0.0 1.0
  outer loop
    vertex 160.55676452907954 94.82595423132739 25.0
    vertex 158.70300140677398 79.0675478618088 25.0
    vertex 159.6763796426001 86.15272401118112 25.0
  endloop
endfacet
facet normal 0.0 0.0 1.0
  outer loop
    vertex 160.55676452907954 94.82595423132739 25.0
    vertex 159.6763796426001 86.15272401118112 25.0
    vertex 159.85937349616628 87.70831192471867 25.0
  endloop
endfacet
facet normal 0.0 0.0 1.0
  outer loop
    vertex 160.55676452907954 94.82595423132739 25.0
    vertex 159.85937349616628 87.70831192471867 25.0
    vertex 160.43874776373283 89.16353217102807 25.0
  endloop
endfacet
facet normal 0.0 0.0 1.0
  outer loop
    vertex 160.55676452907954 94.82595423132739 25.0
    vertex 160.43874776373283 89.16353217102807 25.0
    vertex 161.37501904642633 90.41921389518852 25.0
  endloop
endfacet
facet normal 0.0 0.0 1.0
  outer loop
    vertex 160.55676452907954 94.82595423132739 25.0
    vertex 161.37501904642633 90.41921389518852 25.0
    vertex 162.95455715862394 95.85814861606745 25.0
  endloop
endfacet
facet normal 0.0 0.0 1.0
  outer loop
    vertex 162.95455715862394 95.85814861606745 25.0
    vertex 161.37501904642633 90.41921389518852 25.0
    vertex 162.60438200359266 91.38978446281064 25.0
  endloop
endfacet
facet normal 0.0 0.0 1.0
  outer loop
    vertex 162.95455715862394 95.85814861606745 25.0
    vertex 162.60438200359266 91.38978446281064 25.0
    vertex 164.0430575813193 92.00910109365469 25.0
  endloop
endfacet
facet normal 0.0 0.0 1.0
  outer loop
    vertex 162.95455715862394 95.85814861606745 25.0
    vertex 164.0430575813193 92.00910109365469 25.0
    vertex 165.53779855060506 96.23457743130591 25.0
  endloop
endfacet
facet normal 0.0 0.0 1.0
  outer loop
    vertex 165.53779855060506 96.23457743130591 25.0
    vertex 164.0430575813193 92.00910109365469 25.0
    vertex 165.59300241650797 92.23495838279776 25.0
  endloop
endfacet
facet normal 0.0 0.0 1.0
  outer loop
    vertex 165.53779855060506 96.23457743130591 25.0
    vertex 165.59300241650797 92.23495838279776 25.0
    vertex 172.6748558366328 96.23457743130591 25.0
  endloop
endfacet
facet normal 0.0 0.0 1.0
  outer loop
    vertex 172.6748558366328 96.23457743130591 25.0
    vertex 165.59300241650797 92.23495838279776 25.0
    vertex 167.14859033004552 92.05196452923157 25.0
  endloop
endfacet
facet normal 0.0 0.0 1.0
  outer loop
    vertex 172.6748558366328 96.23457743130591 25.0
    vertex 167.14859033004552 92.05196452923157 25.0
    vertex 168.60381057635493 91.47259026166503 25.0
  endloop
endfacet
facet normal 0.0 0.0 1.0
  outer loop
    vertex 172.6748558366328 96.23457743130591 25.0
    vertex 168.60381057635493 91.47259026166503 25.0
    vertex 169.85949230051537 90.53631897897152 25.0
  endloop
endfacet
facet normal 0.0 0.0 1.0
  outer loop
    vertex 172.6748558366328 96.23457743130591 25.0
    vertex 169.85949230051537 90.53631897897152 25.0
    vertex 170.8300628681375 89.30695602180519 25.0
  endloop
endfacet
facet normal 0.0 0.0 1.0
  outer loop
    vertex 172.6748558366328 96.23457743130591 25.0
    vertex 170.8300628681375 89.30695602180519 25.0
    vertex 171.44937949898153 87.86828044407855 25.0
  endloop
endfacet
facet normal 0.0 0.0 1.0
  outer loop
    vertex 172.6748558366328 96.23457743130591 25.0
    vertex 171.44937949898153 87.86828044407855 25.0
    vertex 171.6752367881246 86.3183356088899 25.0
  endloop
endfacet
facet normal 0.0 0.0 1.0
  outer loop
    vertex 172.6748558366328 96.23457743130591 25.0
    vertex 171.6752367881246 86.3183356088899 25.0
    vertex 172.6748558366328 76.2364821887651 25.0
  endloop
endfacet
facet normal 0.0 0.0 1.0
  outer loop
    vertex 172.6748558366328 96.23457743130591 25.0
    vertex 172.6748558366328 76.2364821887651 25.0
    vertex 175.6748558366328 73.2364821887651 25.0
  endloop
endfacet
facet normal 0.0 0.0 1.0
  outer loop
    vertex 172.6748558366328 96.23457743130591 25.0
    vertex 175.6748558366328 73.2364821887651 25.0
    vertex 175.6748558366328 99.23457743130592 25.0
  endloop
endfacet
facet normal 0.9931518258770907 -0.1168308638887897 0.0
  outer loop
    vertex 159.85937349616628 87.70831192471867 0.0
    vertex 159.6763796426001 86.15272401118112 25.0
    vertex 159.6763796426001 86.15272401118112 0.0
  endloop
endfacet
facet normal 0.9931518258770907 -0.1168308638887897 0.0
  outer loop
    vertex 159.6763796426001 86.15272401118112 25.0
    vertex 159.85937349616628 87.70831192471867 0.0
    vertex 159.85937349616628 87.70831192471867 25.0
  endloop
endfacet
facet normal -0.0 -1.0 -0.0
  outer loop
    vertex 179.67485583663276 61.37353947479281 25.0
    vertex 175.6748558366328 61.37353947479281 0.0
    vertex 179.67485583663276 61.37353947479281 0.0
  endloop
endfacet
facet normal -0.0 -1.0 -0.0
  outer loop
    vertex 175.6748558366328 61.37353947479281 0.0
    vertex 179.67485583663276 61.37353947479281 25.0
    vertex 175.6748558366328 61.37353947479281 25.0
  endloop
endfacet
facet normal -0.9895490506710239 -0.1441966584774945 -0.0
  outer loop
    vertex 171.44937949898153 87.86828044407855 25.0
    vertex 171.6752367881246 86.3183356088899 0.0
    vertex 171.6752367881246 86.3183356088899 25.0
  endloop
endfacet
facet normal -0.9895490506710239 -0.1441966584774945 -0.0
  outer loop
    vertex 171.6752367881246 86.3183356088899 0.0
    vertex 171.44937949898153 87.86828044407855 25.0
    vertex 171.44937949898153 87.86828044407855 0.0
  endloop
endfacet
facet normal 0.7848762869331354 0.6196524947178497 0.0
  outer loop
    vertex 160.52155356258723 83.16410359826583 0.0
    vertex 161.49212413020933 81.93474064109948 25.0
    vertex 161.49212413020933 81.93474064109948 0.0
  endloop
endfacet
facet normal 0.7848762869331354 0.6196524947178497 0.0
  outer loop
    vertex 161.49212413020933 81.93474064109948 25.0
    vertex 160.52155356258723 83.16410359826583 0.0
    vertex 160.52155356258723 83.16410359826583 25.0
  endloop
endfacet
facet normal -0.11683086388878261 -0.9931518258770916 -0.0
  outer loop
    vertex 167.14859033004552 92.05196452923157 25.0
    vertex 165.59300241650797 92.23495838279776 0.0
    vertex 167.14859033004552 92.05196452923157 0.0
  endloop
endfacet
facet normal -0.11683086388878261 -0.9931518258770916 -0.0
  outer loop
    vertex 165.59300241650797 92.23495838279776 0.0
    vertex 167.14859033004552 92.05196452923157 25.0
    vertex 165.59300241650797 92.23495838279776 25.0
  endloop
endfacet
facet normal -0.5977544090123158 -0.8016792790800678 -0.0
  outer loop
    vertex 169.85949230051537 90.53631897897152 25.0
    vertex 168.60381057635493 91.47259026166503 0.0
    vertex 169.85949230051537 90.53631897897152 0.0
  endloop
endfacet
facet normal -0.5977544090123158 -0.8016792790800678 -0.0
  outer loop
    vertex 168.60381057635493 91.47259026166503 0.0
    vertex 169.85949230051537 90.53631897897152 25.0
    vertex 168.60381057635493 91.47259026166503 25.0
  endloop
endfacet
facet normal -0.3698965559531721 -0.9290729454106291 -0.0
  outer loop
    vertex 163.2211713575571 76.54147194470875 25.0
    vertex 160.79580428037477 77.50709572398632 0.0
    vertex 163.2211713575571 76.54147194470875 0.0
  endloop
endfacet
facet normal -0.3698965559531721 -0.9290729454106291 -0.0
  outer loop
    vertex 160.79580428037477 77.50709572398632 0.0
    vertex 163.2211713575571 76.54147194470875 25.0
    vertex 160.79580428037477 77.50709572398632 25.0
  endloop
endfacet
facet normal 0.5977544090123158 0.8016792790800678 0.0
  outer loop
    vertex 161.49212413020933 81.93474064109948 25.0
    vertex 162.7478058543698 80.99846935840598 0.0
    vertex 161.49212413020933 81.93474064109948 0.0
  endloop
endfacet
facet normal 0.5977544090123158 0.8016792790800678 0.0
  outer loop
    vertex 162.7478058543698 80.99846935840598 0.0
    vertex 161.49212413020933 81.93474064109948 25.0
    vertex 162.7478058543698 80.99846935840598 25.0
  endloop
endfacet
facet normal -0.7071067811865489 -0.7071067811865462 -0.0
  outer loop
    vertex 172.6748558366328 76.2364821887651 25.0
    vertex 175.6748558366328 73.2364821887651 0.0
    vertex 175.6748558366328 73.2364821887651 25.0
  endloop
endfacet
facet normal -0.7071067811865489 -0.7071067811865462 -0.0
  outer loop
    vertex 175.6748558366328 73.2364821887651 0.0
    vertex 172.6748558366328 76.2364821887651 25.0
    vertex 172.6748558366328 76.2364821887651 0.0
  endloop
endfacet
facet normal 0.9185101429688521 0.395397416864778 0.0
  outer loop
    vertex 159.90223693174318 84.60277917599245 0.0
    vertex 160.52155356258723 83.16410359826583 25.0
    vertex 160.52155356258723 83.16410359826583 0.0
  endloop
endfacet
facet normal 0.9185101429688521 0.395397416864778 0.0
  outer loop
    vertex 160.52155356258723 83.16410359826583 25.0
    vertex 159.90223693174318 84.60277917599245 0.0
    vertex 159.90223693174318 84.60277917599245 25.0
  endloop
endfacet
facet normal -0.8016792790800694 0.5977544090123135 0.0
  outer loop
    vertex 158.50782626713567 93.20833661862386 25.0
    vertex 156.94737412931318 91.11553374502311 0.0
    vertex 156.94737412931318 91.11553374502311 25.0
  endloop
endfacet
facet normal -0.8016792790800694 0.5977544090123135 0.0
  outer loop
    vertex 156.94737412931318 91.11553374502311 0.0
    vertex 158.50782626713567 93.20833661862386 25.0
    vertex 158.50782626713567 93.20833661862386 0.0
  endloop
endfacet
facet normal -0.9290729454106291 0.3698965559531721 0.0
  outer loop
    vertex 156.94737412931318 91.11553374502311 25.0
    vertex 155.98175035003558 88.69016666784077 0.0
    vertex 155.98175035003558 88.69016666784077 25.0
  endloop
endfacet
facet normal -0.9290729454106291 0.3698965559531721 0.0
  outer loop
    vertex 155.98175035003558 88.69016666784077 0.0
    vertex 156.94737412931318 91.11553374502311 25.0
    vertex 156.94737412931318 91.11553374502311 0.0
  endloop
endfacet
endsolid rod holder
