solid spool holder
facet normal -1.0 0.0 0.0
  outer loop
    vertex 70.45108601995256 111.30184541957523 40.0
    vertex 70.45108601995256 63.30184541957523 0.0
    vertex 70.45108601995256 63.30184541957523 40.0
  endloop
endfacet
facet normal -1.0 0.0 0.0
  outer loop
    vertex 70.45108601995256 63.30184541957523 0.0
    vertex 70.45108601995256 111.30184541957523 40.0
    vertex 70.45108601995256 111.30184541957523 0.0
  endloop
endfacet
facet normal 1.0 0.0 0.0
  outer loop
    vertex 76.45108601995256 103.30184541957523 0.0
    vertex 76.45108601995256 63.30184541957523 40.0
    vertex 76.45108601995256 63.30184541957523 0.0
  endloop
endfacet
facet normal 1.0 0.0 0.0
  outer loop
    vertex 76.45108601995256 63.30184541957523 40.0
    vertex 76.45108601995256 103.30184541957523 0.0
    vertex 76.45108601995256 103.30184541957523 40.0
  endloop
endfacet
facet normal -1.0 0.0 0.0
  outer loop
    vertex 96.95108601995254 103.30184541957523 40.0
    vertex 96.95108601995254 63.30184541957523 0.0
    vertex 96.95108601995254 63.30184541957523 40.0
  endloop
endfacet
facet normal -1.0 0.0 0.0
  outer loop
    vertex 96.95108601995254 63.30184541957523 0.0
    vertex 96.95108601995254 103.30184541957523 40.0
    vertex 96.95108601995254 103.30184541957523 0.0
  endloop
endfacet
facet normal -0.0 -1.0 -0.0
  outer loop
    vertex 113.45108601995256 63.30184541957523 40.0
    vertex 96.95108601995254 63.30184541957523 0.0
    vertex 113.45108601995256 63.30184541957523 0.0
  endloop
endfacet
facet normal -0.0 -1.0 -0.0
  outer loop
    vertex 96.95108601995254 63.30184541957523 0.0
    vertex 113.45108601995256 63.30184541957523 40.0
    vertex 96.95108601995254 63.30184541957523 40.0
  endloop
endfacet
facet normal 0.0 1.0 0.0
  outer loop
    vertex 70.45108601995256 111.30184541957523 0.0
    vertex 102.95108601995254 111.30184541957523 6.999999999999998
    vertex 113.45108601995256 111.30184541957523 0.0
  endloop
endfacet
facet normal 0.0 1.0 0.0
  outer loop
    vertex 102.95108601995254 111.30184541957523 6.999999999999998
    vertex 70.45108601995256 111.30184541957523 0.0
    vertex 70.45108601995256 111.30184541957523 40.0
  endloop
endfacet
facet normal 0.0 1.0 0.0
  outer loop
    vertex 102.95108601995254 111.30184541957523 6.999999999999998
    vertex 70.45108601995256 111.30184541957523 40.0
    vertex 102.95108601995254 111.30184541957523 40.0
  endloop
endfacet
facet normal 0.0 1.0 0.0
  outer loop
    vertex 113.45108601995256 111.30184541957523 0.0
    vertex 105.45108601995253 111.30184541957523 7.000000000000018
    vertex 113.45108601995258 111.30184541957523 40.0
  endloop
endfacet
facet normal 0.0 1.0 0.0
  outer loop
    vertex 105.45108601995253 111.30184541957523 7.000000000000018
    vertex 113.45108601995256 111.30184541957523 0.0
    vertex 102.95108601995254 111.30184541957523 6.999999999999998
  endloop
endfacet
facet normal 0.0 1.0 0.0
  outer loop
    vertex 113.45108601995258 111.30184541957523 40.0
    vertex 105.45108601995253 111.30184541957523 7.000000000000018
    vertex 105.45108601995256 111.30184541957523 40.00000000000002
  endloop
endfacet
facet normal -0.0 -1.0 -0.0
  outer loop
    vertex 76.45108601995256 63.30184541957523 40.0
    vertex 70.45108601995256 63.30184541957523 0.0
    vertex 76.45108601995256 63.30184541957523 0.0
  endloop
endfacet
facet normal -0.0 -1.0 -0.0
  outer loop
    vertex 70.45108601995256 63.30184541957523 0.0
    vertex 76.45108601995256 63.30184541957523 40.0
    vertex 70.45108601995256 63.30184541957523 40.0
  endloop
endfacet
facet normal -0.0 -1.0 -0.0
  outer loop
    vertex 96.95108601995254 103.30184541957523 40.0
    vertex 76.45108601995256 103.30184541957523 0.0
    vertex 96.95108601995254 103.30184541957523 0.0
  endloop
endfacet
facet normal -0.0 -1.0 -0.0
  outer loop
    vertex 76.45108601995256 103.30184541957523 0.0
    vertex 96.95108601995254 103.30184541957523 40.0
    vertex 76.45108601995256 103.30184541957523 40.0
  endloop
endfacet
facet normal -1.01864540541422e-16 2.2804187351926297e-17 1.0
  outer loop
    vertex 96.95108601995254 63.30184541957523 40.0
    vertex 102.95108601995254 74.80184541957523 40.0
    vertex 96.95108601995254 103.30184541957523 40.0
  endloop
endfacet
facet normal -1.01864540541422e-16 2.2804187351926297e-17 1.0
  outer loop
    vertex 102.95108601995254 74.80184541957523 40.0
    vertex 96.95108601995254 63.30184541957523 40.0
    vertex 113.45108601995256 63.30184541957523 40.0
  endloop
endfacet
facet normal -1.01864540541422e-16 2.2804187351926297e-17 1.0
  outer loop
    vertex 102.95108601995254 74.80184541957523 40.0
    vertex 113.45108601995256 63.30184541957523 40.0
    vertex 113.45108601995256 74.80184541957523 40.00000000000001
  endloop
endfacet
facet normal -1.01864540541422e-16 2.2804187351926297e-17 1.0
  outer loop
    vertex 76.45108601995256 63.30184541957523 40.0
    vertex 70.45108601995256 111.30184541957523 40.0
    vertex 70.45108601995256 63.30184541957523 40.0
  endloop
endfacet
facet normal -1.01864540541422e-16 2.2804187351926297e-17 1.0
  outer loop
    vertex 70.45108601995256 111.30184541957523 40.0
    vertex 76.45108601995256 63.30184541957523 40.0
    vertex 76.45108601995256 103.30184541957523 40.0
  endloop
endfacet
facet normal -1.01864540541422e-16 2.2804187351926297e-17 1.0
  outer loop
    vertex 70.45108601995256 111.30184541957523 40.0
    vertex 76.45108601995256 103.30184541957523 40.0
    vertex 102.95108601995254 111.30184541957523 40.0
  endloop
endfacet
facet normal -1.01864540541422e-16 2.2804187351926297e-17 1.0
  outer loop
    vertex 102.95108601995254 111.30184541957523 40.0
    vertex 76.45108601995256 103.30184541957523 40.0
    vertex 96.95108601995254 103.30184541957523 40.0
  endloop
endfacet
facet normal -1.01864540541422e-16 2.2804187351926297e-17 1.0
  outer loop
    vertex 102.95108601995254 111.30184541957523 40.0
    vertex 96.95108601995254 103.30184541957523 40.0
    vertex 102.95108601995254 74.80184541957523 40.0
  endloop
endfacet
facet normal 1.3015229919451815e-15 8.294019066317345e-17 1.0
  outer loop
    vertex 113.45108601995258 77.30184541957523 40.00000000000001
    vertex 105.45108601995256 111.30184541957523 40.00000000000002
    vertex 105.45108601995256 77.30184541957523 40.00000000000002
  endloop
endfacet
facet normal 1.3015229919451815e-15 8.294019066317345e-17 1.0
  outer loop
    vertex 105.45108601995256 111.30184541957523 40.00000000000002
    vertex 113.45108601995258 77.30184541957523 40.00000000000001
    vertex 113.45108601995258 111.30184541957523 40.0
  endloop
endfacet
facet normal 1.0 0.0 0.0
  outer loop
    vertex 113.45108601995256 63.30184541957523 0.0
    vertex 113.45108601995256 74.80184541957523 7.000000000000004
    vertex 113.45108601995256 63.30184541957523 40.0
  endloop
endfacet
facet normal 1.0 0.0 0.0
  outer loop
    vertex 113.45108601995256 74.80184541957523 7.000000000000004
    vertex 113.45108601995256 63.30184541957523 0.0
    vertex 113.45108601995256 111.30184541957523 0.0
  endloop
endfacet
facet normal 1.0 0.0 0.0
  outer loop
    vertex 113.45108601995256 74.80184541957523 7.000000000000004
    vertex 113.45108601995256 111.30184541957523 0.0
    vertex 113.45108601995256 77.30184541957523 7.000000000000004
  endloop
endfacet
facet normal 1.0 0.0 0.0
  outer loop
    vertex 113.45108601995256 77.30184541957523 7.000000000000004
    vertex 113.45108601995256 111.30184541957523 0.0
    vertex 113.45108601995258 77.30184541957523 40.00000000000001
  endloop
endfacet
facet normal 1.0 0.0 0.0
  outer loop
    vertex 113.45108601995258 77.30184541957523 40.00000000000001
    vertex 113.45108601995256 111.30184541957523 0.0
    vertex 113.45108601995258 111.30184541957523 40.0
  endloop
endfacet
facet normal 1.0 0.0 0.0
  outer loop
    vertex 113.45108601995256 74.80184541957523 40.00000000000001
    vertex 113.45108601995256 63.30184541957523 40.0
    vertex 113.45108601995256 74.80184541957523 7.000000000000004
  endloop
endfacet
facet normal 3.9813577011233006e-16 6.85360414438791e-17 1.0
  outer loop
    vertex 102.95108601995254 74.80184541957523 7.000000000000001
    vertex 105.45108601995253 77.30184541957523 7.000000000000018
    vertex 102.95108601995254 111.30184541957523 6.999999999999998
  endloop
endfacet
facet normal 3.9813577011233006e-16 6.85360414438791e-17 1.0
  outer loop
    vertex 105.45108601995253 77.30184541957523 7.000000000000018
    vertex 102.95108601995254 74.80184541957523 7.000000000000001
    vertex 113.45108601995256 74.80184541957523 7.000000000000004
  endloop
endfacet
facet normal 3.9813577011233006e-16 6.85360414438791e-17 1.0
  outer loop
    vertex 105.45108601995253 77.30184541957523 7.000000000000018
    vertex 113.45108601995256 74.80184541957523 7.000000000000004
    vertex 113.45108601995256 77.30184541957523 7.000000000000004
  endloop
endfacet
facet normal 3.9813577011233006e-16 6.85360414438791e-17 1.0
  outer loop
    vertex 105.45108601995253 111.30184541957523 7.000000000000018
    vertex 102.95108601995254 111.30184541957523 6.999999999999998
    vertex 105.45108601995253 77.30184541957523 7.000000000000018
  endloop
endfacet
facet normal 7.433436143009705e-32 -1.0 6.85360414438791e-17
  outer loop
    vertex 113.45108601995258 77.30184541957523 40.00000000000001
    vertex 105.45108601995253 77.30184541957523 7.000000000000018
    vertex 113.45108601995256 77.30184541957523 7.000000000000004
  endloop
endfacet
facet normal 7.433436143009705e-32 -1.0 6.85360414438791e-17
  outer loop
    vertex 105.45108601995253 77.30184541957523 7.000000000000018
    vertex 113.45108601995258 77.30184541957523 40.00000000000001
    vertex 105.45108601995256 77.30184541957523 40.00000000000002
  endloop
endfacet
facet normal -1.0 0.0 3.981357701123301e-16
  outer loop
    vertex 105.45108601995256 111.30184541957523 40.00000000000002
    vertex 105.45108601995253 77.30184541957523 7.000000000000018
    vertex 105.45108601995256 77.30184541957523 40.00000000000002
  endloop
endfacet
facet normal -1.0 0.0 3.981357701123301e-16
  outer loop
    vertex 105.45108601995253 77.30184541957523 7.000000000000018
    vertex 105.45108601995256 111.30184541957523 40.00000000000002
    vertex 105.45108601995253 111.30184541957523 7.000000000000018
  endloop
endfacet
facet normal 1.2468989659242093e-32 1.0 -6.853604144387911e-17
  outer loop
    vertex 102.95108601995254 74.80184541957523 40.0
    vertex 113.45108601995256 74.80184541957523 7.000000000000004
    vertex 102.95108601995254 74.80184541957523 7.000000000000001
  endloop
endfacet
facet normal 1.2468989659242093e-32 1.0 -6.853604144387911e-17
  outer loop
    vertex 113.45108601995256 74.80184541957523 7.000000000000004
    vertex 102.95108601995254 74.80184541957523 40.0
    vertex 113.45108601995256 74.80184541957523 40.00000000000001
  endloop
endfacet
facet normal 1.0 -3.0759713074525084e-32 -3.9813577011233e-16
  outer loop
    vertex 102.95108601995254 111.30184541957523 6.999999999999998
    vertex 102.95108601995254 74.80184541957523 40.0
    vertex 102.95108601995254 74.80184541957523 7.000000000000001
  endloop
endfacet
facet normal 1.0 -3.0759713074525084e-32 -3.9813577011233e-16
  outer loop
    vertex 102.95108601995254 74.80184541957523 40.0
    vertex 102.95108601995254 111.30184541957523 6.999999999999998
    vertex 102.95108601995254 111.30184541957523 40.0
  endloop
endfacet
facet normal 0.0 0.0 -1.0
  outer loop
    vertex 70.45108601995256 111.30184541957523 0.0
    vertex 76.45108601995256 103.30184541957523 0.0
    vertex 70.45108601995256 63.30184541957523 0.0
  endloop
endfacet
facet normal 0.0 0.0 -1.0
  outer loop
    vertex 76.45108601995256 103.30184541957523 0.0
    vertex 70.45108601995256 111.30184541957523 0.0
    vertex 113.45108601995256 111.30184541957523 0.0
  endloop
endfacet
facet normal 0.0 0.0 -1.0
  outer loop
    vertex 76.45108601995256 103.30184541957523 0.0
    vertex 113.45108601995256 111.30184541957523 0.0
    vertex 96.95108601995254 103.30184541957523 0.0
  endloop
endfacet
facet normal 0.0 0.0 -1.0
  outer loop
    vertex 96.95108601995254 103.30184541957523 0.0
    vertex 113.45108601995256 111.30184541957523 0.0
    vertex 96.95108601995254 63.30184541957523 0.0
  endloop
endfacet
facet normal 0.0 0.0 -1.0
  outer loop
    vertex 96.95108601995254 63.30184541957523 0.0
    vertex 113.45108601995256 111.30184541957523 0.0
    vertex 113.45108601995256 63.30184541957523 0.0
  endloop
endfacet
facet normal 0.0 0.0 -1.0
  outer loop
    vertex 76.45108601995256 63.30184541957523 0.0
    vertex 70.45108601995256 63.30184541957523 0.0
    vertex 76.45108601995256 103.30184541957523 0.0
  endloop
endfacet
endsolid spool holder
