solid CATIA STL
  facet normal  0.000000e+000  0.000000e+000 -1.000000e+000
    outer loop
      vertex -3.594721e+001  1.500000e+000  0.000000e+000
      vertex -3.594721e+001  3.500000e+000  0.000000e+000
      vertex -2.750000e+001  3.500000e+000  0.000000e+000
    endloop
  endfacet
  facet normal  0.000000e+000  -0.000000e+000 -9.999999e-001
    outer loop
      vertex -3.594721e+001  1.500000e+000  0.000000e+000
      vertex -2.750000e+001  3.500000e+000  0.000000e+000
      vertex  1.071566e-015  3.500000e+000  0.000000e+000
    endloop
  endfacet
  facet normal  0.000000e+000  -0.000000e+000 -1.000000e+000
    outer loop
      vertex -3.594721e+001  1.500000e+000  0.000000e+000
      vertex  1.071566e-015  3.500000e+000  0.000000e+000
      vertex  2.057248e+000  2.831559e+000  0.000000e+000
    endloop
  endfacet
  facet normal  0.000000e+000  0.000000e+000 -1.000000e+000
    outer loop
      vertex -3.594721e+001  1.500000e+000  0.000000e+000
      vertex  2.057248e+000  2.831559e+000  0.000000e+000
      vertex  0.000000e+000  1.500000e+000  0.000000e+000
    endloop
  endfacet
  facet normal  0.000000e+000  0.000000e+000 -9.999999e-001
    outer loop
      vertex -3.594721e+001 -7.500000e-001  0.000000e+000
      vertex -3.594721e+001  1.250000e+000  0.000000e+000
      vertex -2.825000e+001  1.250000e+000  0.000000e+000
    endloop
  endfacet
  facet normal  0.000000e+000  -0.000000e+000 -1.000000e+000
    outer loop
      vertex -3.594721e+001 -7.500000e-001  0.000000e+000
      vertex -2.825000e+001  1.250000e+000  0.000000e+000
      vertex -2.771967e+001  1.030330e+000  0.000000e+000
    endloop
  endfacet
  facet normal  0.000000e+000  -0.000000e+000 -1.000000e+000
    outer loop
      vertex -3.594721e+001 -7.500000e-001  0.000000e+000
      vertex -2.771967e+001  1.030330e+000  0.000000e+000
      vertex -2.750000e+001  5.000000e-001  0.000000e+000
    endloop
  endfacet
  facet normal  0.000000e+000  0.000000e+000 -9.999999e-001
    outer loop
      vertex -3.594721e+001 -7.500000e-001  0.000000e+000
      vertex -2.750000e+001  5.000000e-001  0.000000e+000
      vertex -3.022970e+001 -7.500000e-001  0.000000e+000
    endloop
  endfacet
  facet normal  0.000000e+000  -0.000000e+000 -1.000000e+000
    outer loop
      vertex  1.060660e+000 -1.060660e+000  0.000000e+000
      vertex  1.500000e+000 -3.673940e-016  0.000000e+000
      vertex  3.328698e+000 -1.081560e+000  0.000000e+000
    endloop
  endfacet
  facet normal  0.000000e+000  0.000000e+000 -1.000000e+000
    outer loop
      vertex  3.328698e+000 -1.081560e+000  0.000000e+000
      vertex  1.500000e+000 -3.673940e-016  0.000000e+000
      vertex  1.060660e+000  1.060660e+000  0.000000e+000
    endloop
  endfacet
  facet normal  0.000000e+000  0.000000e+000 -1.000000e+000
    outer loop
      vertex  3.328698e+000 -1.081560e+000  0.000000e+000
      vertex  1.060660e+000  1.060660e+000  0.000000e+000
      vertex  3.328698e+000  1.081560e+000  0.000000e+000
    endloop
  endfacet
  facet normal  -0.000000e+000  0.000000e+000 -1.000000e+000
    outer loop
      vertex  3.328698e+000  1.081560e+000  0.000000e+000
      vertex  1.060660e+000  1.060660e+000  0.000000e+000
      vertex  0.000000e+000  1.500000e+000  0.000000e+000
    endloop
  endfacet
  facet normal  0.000000e+000  0.000000e+000 -1.000000e+000
    outer loop
      vertex  3.328698e+000  1.081560e+000  0.000000e+000
      vertex  0.000000e+000  1.500000e+000  0.000000e+000
      vertex  2.057248e+000  2.831559e+000  0.000000e+000
    endloop
  endfacet
  facet normal  -0.000000e+000  0.000000e+000 -1.000000e+000
    outer loop
      vertex -2.947970e+001 -1.500000e+000  0.000000e+000
      vertex -2.750000e+001 -1.500000e+000  0.000000e+000
      vertex -2.947970e+001 -2.750000e+000  0.000000e+000
    endloop
  endfacet
  facet normal  0.000000e+000  0.000000e+000 -1.000000e+000
    outer loop
      vertex -2.947970e+001 -2.750000e+000  0.000000e+000
      vertex -2.750000e+001 -1.500000e+000  0.000000e+000
      vertex  0.000000e+000 -1.500000e+000  0.000000e+000
    endloop
  endfacet
  facet normal  0.000000e+000  -0.000000e+000 -1.000000e+000
    outer loop
      vertex -2.947970e+001 -2.750000e+000  0.000000e+000
      vertex  0.000000e+000 -1.500000e+000  0.000000e+000
      vertex  2.057248e+000 -2.831559e+000  0.000000e+000
    endloop
  endfacet
  facet normal  0.000000e+000  0.000000e+000 -1.000000e+000
    outer loop
      vertex  2.057248e+000 -2.831559e+000  0.000000e+000
      vertex  0.000000e+000 -1.500000e+000  0.000000e+000
      vertex  1.060660e+000 -1.060660e+000  0.000000e+000
    endloop
  endfacet
  facet normal  0.000000e+000  0.000000e+000 -9.999999e-001
    outer loop
      vertex  2.057248e+000 -2.831559e+000  0.000000e+000
      vertex  1.060660e+000 -1.060660e+000  0.000000e+000
      vertex  3.328698e+000 -1.081560e+000  0.000000e+000
    endloop
  endfacet
  facet normal  0.000000e+000  0.000000e+000 -1.000000e+000
    outer loop
      vertex -2.947970e+001 -1.500000e+000  0.000000e+000
      vertex -2.969937e+001 -9.696699e-001  0.000000e+000
      vertex -2.750000e+001 -1.500000e+000  0.000000e+000
    endloop
  endfacet
  facet normal  0.000000e+000  0.000000e+000 -1.000000e+000
    outer loop
      vertex -2.750000e+001 -1.500000e+000  0.000000e+000
      vertex -2.969937e+001 -9.696699e-001  0.000000e+000
      vertex -3.022970e+001 -7.500000e-001  0.000000e+000
    endloop
  endfacet
  facet normal  0.000000e+000  0.000000e+000 -1.000000e+000
    outer loop
      vertex -2.750000e+001 -1.500000e+000  0.000000e+000
      vertex -3.022970e+001 -7.500000e-001  0.000000e+000
      vertex -2.750000e+001  5.000000e-001  0.000000e+000
    endloop
  endfacet
  facet normal  0.000000e+000  0.000000e+000 -9.999999e-001
    outer loop
      vertex -2.872970e+001 -3.500000e+000  0.000000e+000
      vertex -2.926003e+001 -3.280330e+000  0.000000e+000
      vertex  0.000000e+000 -3.500000e+000  0.000000e+000
    endloop
  endfacet
  facet normal  0.000000e+000  0.000000e+000 -1.000000e+000
    outer loop
      vertex  0.000000e+000 -3.500000e+000  0.000000e+000
      vertex -2.926003e+001 -3.280330e+000  0.000000e+000
      vertex -2.947970e+001 -2.750000e+000  0.000000e+000
    endloop
  endfacet
  facet normal  0.000000e+000  0.000000e+000 -1.000000e+000
    outer loop
      vertex  0.000000e+000 -3.500000e+000  0.000000e+000
      vertex -2.947970e+001 -2.750000e+000  0.000000e+000
      vertex  2.057248e+000 -2.831559e+000  0.000000e+000
    endloop
  endfacet
  facet normal  0.000000e+000 -1.000000e+000  -0.000000e+000
    outer loop
      vertex -3.022970e+001 -7.500000e-001  0.000000e+000
      vertex -3.155440e+001 -7.500000e-001  5.295805e+000
      vertex -3.342940e+001 -7.500000e-001  3.933538e+000
    endloop
  endfacet
  facet normal  0.000000e+000 -9.999999e-001  -0.000000e+000
    outer loop
      vertex -3.022970e+001 -7.500000e-001  0.000000e+000
      vertex -3.083821e+001 -7.500000e-001  7.500000e+000
      vertex -3.155440e+001 -7.500000e-001  5.295805e+000
    endloop
  endfacet
  facet normal  -0.000000e+000 -1.000000e+000  0.000000e+000
    outer loop
      vertex -3.894721e+001 -7.500000e-001  3.000000e+000
      vertex -3.762202e+001 -7.500000e-001  5.295805e+000
      vertex -3.833821e+001 -7.500000e-001  7.500000e+000
    endloop
  endfacet
  facet normal  -0.000000e+000 -1.000000e+000  0.000000e+000
    outer loop
      vertex -3.894721e+001 -7.500000e-001  3.000000e+000
      vertex -3.574702e+001 -7.500000e-001  3.933538e+000
      vertex -3.762202e+001 -7.500000e-001  5.295805e+000
    endloop
  endfacet
  facet normal  0.000000e+000 -9.999999e-001  0.000000e+000
    outer loop
      vertex -3.894721e+001 -7.500000e-001  1.200000e+001
      vertex -3.894721e+001 -7.500000e-001  3.000000e+000
      vertex -3.833821e+001 -7.500000e-001  7.500000e+000
    endloop
  endfacet
  facet normal  0.000000e+000 -1.000000e+000  0.000000e+000
    outer loop
      vertex -3.894721e+001 -7.500000e-001  1.200000e+001
      vertex -3.833821e+001 -7.500000e-001  7.500000e+000
      vertex -3.762202e+001 -7.500000e-001  9.704195e+000
    endloop
  endfacet
  facet normal  0.000000e+000 -1.000000e+000  0.000000e+000
    outer loop
      vertex -3.894721e+001 -7.500000e-001  1.200000e+001
      vertex -3.762202e+001 -7.500000e-001  9.704195e+000
      vertex -3.574702e+001 -7.500000e-001  1.106646e+001
    endloop
  endfacet
  facet normal  0.000000e+000 -1.000000e+000  0.000000e+000
    outer loop
      vertex -3.022970e+001 -7.500000e-001  1.500000e+001
      vertex -3.342940e+001 -7.500000e-001  1.106646e+001
      vertex -3.155440e+001 -7.500000e-001  9.704195e+000
    endloop
  endfacet
  facet normal  0.000000e+000 -9.999999e-001  0.000000e+000
    outer loop
      vertex -3.022970e+001 -7.500000e-001  1.500000e+001
      vertex -3.155440e+001 -7.500000e-001  9.704195e+000
      vertex -3.083821e+001 -7.500000e-001  7.500000e+000
    endloop
  endfacet
  facet normal  0.000000e+000 -1.000000e+000  0.000000e+000
    outer loop
      vertex -3.022970e+001 -7.500000e-001  1.500000e+001
      vertex -3.083821e+001 -7.500000e-001  7.500000e+000
      vertex -3.022970e+001 -7.500000e-001  0.000000e+000
    endloop
  endfacet
  facet normal  0.000000e+000 -9.999999e-001  -0.000000e+000
    outer loop
      vertex -3.022970e+001 -7.500000e-001  0.000000e+000
      vertex -3.342940e+001 -7.500000e-001  3.933538e+000
      vertex -3.594721e+001 -7.500000e-001  0.000000e+000
    endloop
  endfacet
  facet normal  0.000000e+000 -1.000000e+000  0.000000e+000
    outer loop
      vertex -3.594721e+001 -7.500000e-001  0.000000e+000
      vertex -3.342940e+001 -7.500000e-001  3.933538e+000
      vertex -3.574702e+001 -7.500000e-001  3.933538e+000
    endloop
  endfacet
  facet normal  0.000000e+000 -9.999999e-001  0.000000e+000
    outer loop
      vertex -3.594721e+001 -7.500000e-001  0.000000e+000
      vertex -3.574702e+001 -7.500000e-001  3.933538e+000
      vertex -3.744721e+001 -7.500000e-001  4.019238e-001
    endloop
  endfacet
  facet normal  0.000000e+000 -1.000000e+000  0.000000e+000
    outer loop
      vertex -3.744721e+001 -7.500000e-001  4.019238e-001
      vertex -3.574702e+001 -7.500000e-001  3.933538e+000
      vertex -3.894721e+001 -7.500000e-001  3.000000e+000
    endloop
  endfacet
  facet normal  0.000000e+000 -1.000000e+000  0.000000e+000
    outer loop
      vertex -3.744721e+001 -7.500000e-001  4.019238e-001
      vertex -3.894721e+001 -7.500000e-001  3.000000e+000
      vertex -3.854529e+001 -7.500000e-001  1.500000e+000
    endloop
  endfacet
  facet normal  0.000000e+000 -1.000000e+000  0.000000e+000
    outer loop
      vertex -3.342940e+001 -7.500000e-001  1.106646e+001
      vertex -3.022970e+001 -7.500000e-001  1.500000e+001
      vertex -3.574702e+001 -7.500000e-001  1.106646e+001
    endloop
  endfacet
  facet normal  0.000000e+000 -9.999999e-001  0.000000e+000
    outer loop
      vertex -3.574702e+001 -7.500000e-001  1.106646e+001
      vertex -3.022970e+001 -7.500000e-001  1.500000e+001
      vertex -3.594721e+001 -7.500000e-001  1.500000e+001
    endloop
  endfacet
  facet normal  0.000000e+000 -1.000000e+000  -0.000000e+000
    outer loop
      vertex -3.574702e+001 -7.500000e-001  1.106646e+001
      vertex -3.594721e+001 -7.500000e-001  1.500000e+001
      vertex -3.894721e+001 -7.500000e-001  1.200000e+001
    endloop
  endfacet
  facet normal  0.000000e+000 -1.000000e+000  0.000000e+000
    outer loop
      vertex -3.894721e+001 -7.500000e-001  1.200000e+001
      vertex -3.594721e+001 -7.500000e-001  1.500000e+001
      vertex -3.744721e+001 -7.500000e-001  1.459808e+001
    endloop
  endfacet
  facet normal  0.000000e+000 -1.000000e+000  0.000000e+000
    outer loop
      vertex -3.894721e+001 -7.500000e-001  1.200000e+001
      vertex -3.744721e+001 -7.500000e-001  1.459808e+001
      vertex -3.854529e+001 -7.500000e-001  1.350000e+001
    endloop
  endfacet
  facet normal  0.000000e+000  1.000000e+000  0.000000e+000
    outer loop
      vertex -3.458821e+001  1.250000e+000  5.250000e+000
      vertex -2.825000e+001  1.250000e+000  0.000000e+000
      vertex -3.594721e+001  1.250000e+000  0.000000e+000
    endloop
  endfacet
  facet normal  0.000000e+000  1.000000e+000  -0.000000e+000
    outer loop
      vertex -3.458821e+001  1.250000e+000  5.250000e+000
      vertex -3.594721e+001  1.250000e+000  0.000000e+000
      vertex -3.744721e+001  1.250000e+000  4.019238e-001
    endloop
  endfacet
  facet normal  0.000000e+000  1.000000e+000  -0.000000e+000
    outer loop
      vertex -3.458821e+001  1.250000e+000  5.250000e+000
      vertex -3.744721e+001  1.250000e+000  4.019238e-001
      vertex -3.854529e+001  1.250000e+000  1.500000e+000
    endloop
  endfacet
  facet normal  0.000000e+000  1.000000e+000  -0.000000e+000
    outer loop
      vertex -3.458821e+001  1.250000e+000  5.250000e+000
      vertex -3.854529e+001  1.250000e+000  1.500000e+000
      vertex -3.894721e+001  1.250000e+000  3.000000e+000
    endloop
  endfacet
  facet normal  -0.000000e+000  1.000000e+000  0.000000e+000
    outer loop
      vertex -2.825000e+001  1.250000e+000  0.000000e+000
      vertex -3.458821e+001  1.250000e+000  5.250000e+000
      vertex -3.299722e+001  1.250000e+000  5.909010e+000
    endloop
  endfacet
  facet normal  -0.000000e+000  1.000000e+000  0.000000e+000
    outer loop
      vertex -2.825000e+001  1.250000e+000  0.000000e+000
      vertex -3.299722e+001  1.250000e+000  5.909010e+000
      vertex -3.233821e+001  1.250000e+000  7.500000e+000
    endloop
  endfacet
  facet normal  -0.000000e+000  1.000000e+000  -0.000000e+000
    outer loop
      vertex -2.825000e+001  1.250000e+000  0.000000e+000
      vertex -3.233821e+001  1.250000e+000  7.500000e+000
      vertex -3.299722e+001  1.250000e+000  9.090990e+000
    endloop
  endfacet
  facet normal  -0.000000e+000  1.000000e+000  0.000000e+000
    outer loop
      vertex -2.825000e+001  1.250000e+000  0.000000e+000
      vertex -3.299722e+001  1.250000e+000  9.090990e+000
      vertex -2.825000e+001  1.250000e+000  1.500000e+001
    endloop
  endfacet
  facet normal  0.000000e+000  1.000000e+000  -0.000000e+000
    outer loop
      vertex -3.458821e+001  1.250000e+000  9.750000e+000
      vertex -3.617920e+001  1.250000e+000  9.090990e+000
      vertex -3.894721e+001  1.250000e+000  1.200000e+001
    endloop
  endfacet
  facet normal  -0.000000e+000  1.000000e+000  0.000000e+000
    outer loop
      vertex -3.458821e+001  1.250000e+000  9.750000e+000
      vertex -3.894721e+001  1.250000e+000  1.200000e+001
      vertex -3.854529e+001  1.250000e+000  1.350000e+001
    endloop
  endfacet
  facet normal  -0.000000e+000  1.000000e+000  0.000000e+000
    outer loop
      vertex -3.458821e+001  1.250000e+000  9.750000e+000
      vertex -3.854529e+001  1.250000e+000  1.350000e+001
      vertex -3.744721e+001  1.250000e+000  1.459808e+001
    endloop
  endfacet
  facet normal  -0.000000e+000  1.000000e+000  0.000000e+000
    outer loop
      vertex -3.458821e+001  1.250000e+000  9.750000e+000
      vertex -3.744721e+001  1.250000e+000  1.459808e+001
      vertex -3.594721e+001  1.250000e+000  1.500000e+001
    endloop
  endfacet
  facet normal  -0.000000e+000  1.000000e+000  0.000000e+000
    outer loop
      vertex -3.458821e+001  1.250000e+000  9.750000e+000
      vertex -3.594721e+001  1.250000e+000  1.500000e+001
      vertex -2.825000e+001  1.250000e+000  1.500000e+001
    endloop
  endfacet
  facet normal  0.000000e+000  1.000000e+000  0.000000e+000
    outer loop
      vertex -3.458821e+001  1.250000e+000  9.750000e+000
      vertex -2.825000e+001  1.250000e+000  1.500000e+001
      vertex -3.299722e+001  1.250000e+000  9.090990e+000
    endloop
  endfacet
  facet normal  0.000000e+000  1.000000e+000  0.000000e+000
    outer loop
      vertex -3.894721e+001  1.250000e+000  3.000000e+000
      vertex -3.894721e+001  1.250000e+000  1.200000e+001
      vertex -3.617920e+001  1.250000e+000  9.090990e+000
    endloop
  endfacet
  facet normal  0.000000e+000  1.000000e+000  0.000000e+000
    outer loop
      vertex -3.894721e+001  1.250000e+000  3.000000e+000
      vertex -3.617920e+001  1.250000e+000  9.090990e+000
      vertex -3.683821e+001  1.250000e+000  7.500000e+000
    endloop
  endfacet
  facet normal  0.000000e+000  9.999999e-001  0.000000e+000
    outer loop
      vertex -3.894721e+001  1.250000e+000  3.000000e+000
      vertex -3.683821e+001  1.250000e+000  7.500000e+000
      vertex -3.617920e+001  1.250000e+000  5.909010e+000
    endloop
  endfacet
  facet normal  0.000000e+000  1.000000e+000  0.000000e+000
    outer loop
      vertex -3.894721e+001  1.250000e+000  3.000000e+000
      vertex -3.617920e+001  1.250000e+000  5.909010e+000
      vertex -3.458821e+001  1.250000e+000  5.250000e+000
    endloop
  endfacet
  facet normal -1.000000e+000  0.000000e+000  0.000000e+000
    outer loop
      vertex -3.894721e+001  1.250000e+000  3.000000e+000
      vertex -3.894721e+001 -7.500000e-001  3.000000e+000
      vertex -3.894721e+001  1.250000e+000  1.200000e+001
    endloop
  endfacet
  facet normal -1.000000e+000  -0.000000e+000  0.000000e+000
    outer loop
      vertex -3.894721e+001  1.250000e+000  1.200000e+001
      vertex -3.894721e+001 -7.500000e-001  3.000000e+000
      vertex -3.894721e+001 -7.500000e-001  1.200000e+001
    endloop
  endfacet
  facet normal -2.588190e-001  0.000000e+000 -9.659259e-001
    outer loop
      vertex -3.594721e+001  1.250000e+000  0.000000e+000
      vertex -3.594721e+001 -7.500000e-001  0.000000e+000
      vertex -3.744721e+001  1.250000e+000  4.019238e-001
    endloop
  endfacet
  facet normal -2.588190e-001  -0.000000e+000 -9.659259e-001
    outer loop
      vertex -3.744721e+001  1.250000e+000  4.019238e-001
      vertex -3.594721e+001 -7.500000e-001  0.000000e+000
      vertex -3.744721e+001 -7.500000e-001  4.019238e-001
    endloop
  endfacet
  facet normal -7.071069e-001  0.000000e+000 -7.071066e-001
    outer loop
      vertex -3.744721e+001  1.250000e+000  4.019238e-001
      vertex -3.744721e+001 -7.500000e-001  4.019238e-001
      vertex -3.854529e+001  1.250000e+000  1.500000e+000
    endloop
  endfacet
  facet normal -7.071069e-001  -0.000000e+000 -7.071066e-001
    outer loop
      vertex -3.854529e+001  1.250000e+000  1.500000e+000
      vertex -3.744721e+001 -7.500000e-001  4.019238e-001
      vertex -3.854529e+001 -7.500000e-001  1.500000e+000
    endloop
  endfacet
  facet normal -9.659258e-001  0.000000e+000 -2.588193e-001
    outer loop
      vertex -3.854529e+001  1.250000e+000  1.500000e+000
      vertex -3.854529e+001 -7.500000e-001  1.500000e+000
      vertex -3.894721e+001  1.250000e+000  3.000000e+000
    endloop
  endfacet
  facet normal -9.659258e-001  -0.000000e+000 -2.588193e-001
    outer loop
      vertex -3.894721e+001  1.250000e+000  3.000000e+000
      vertex -3.854529e+001 -7.500000e-001  1.500000e+000
      vertex -3.894721e+001 -7.500000e-001  3.000000e+000
    endloop
  endfacet
  facet normal  0.000000e+000  1.000000e+000  0.000000e+000
    outer loop
      vertex -3.594721e+001  3.500000e+000  1.500000e+001
      vertex -2.750000e+001  3.500000e+000  1.500000e+001
      vertex -2.750000e+001  3.500000e+000  0.000000e+000
    endloop
  endfacet
  facet normal  0.000000e+000  1.000000e+000  0.000000e+000
    outer loop
      vertex -3.594721e+001  3.500000e+000  1.500000e+001
      vertex -2.750000e+001  3.500000e+000  0.000000e+000
      vertex -3.299722e+001  3.500000e+000  9.090990e+000
    endloop
  endfacet
  facet normal  0.000000e+000  9.999999e-001  0.000000e+000
    outer loop
      vertex -3.594721e+001  3.500000e+000  1.500000e+001
      vertex -3.299722e+001  3.500000e+000  9.090990e+000
      vertex -3.458821e+001  3.500000e+000  9.750000e+000
    endloop
  endfacet
  facet normal  0.000000e+000  9.999999e-001  0.000000e+000
    outer loop
      vertex -3.594721e+001  3.500000e+000  1.500000e+001
      vertex -3.458821e+001  3.500000e+000  9.750000e+000
      vertex -3.617920e+001  3.500000e+000  9.090990e+000
    endloop
  endfacet
  facet normal  0.000000e+000  1.000000e+000  -0.000000e+000
    outer loop
      vertex -3.594721e+001  3.500000e+000  1.500000e+001
      vertex -3.617920e+001  3.500000e+000  9.090990e+000
      vertex -3.683821e+001  3.500000e+000  7.500000e+000
    endloop
  endfacet
  facet normal  0.000000e+000  9.999999e-001  -0.000000e+000
    outer loop
      vertex -3.594721e+001  3.500000e+000  1.500000e+001
      vertex -3.683821e+001  3.500000e+000  7.500000e+000
      vertex -3.744721e+001  3.500000e+000  1.459808e+001
    endloop
  endfacet
  facet normal  0.000000e+000  1.000000e+000  0.000000e+000
    outer loop
      vertex -2.750000e+001  3.500000e+000  0.000000e+000
      vertex -3.594721e+001  3.500000e+000  0.000000e+000
      vertex -3.458821e+001  3.500000e+000  5.250000e+000
    endloop
  endfacet
  facet normal  -0.000000e+000  1.000000e+000  0.000000e+000
    outer loop
      vertex -2.750000e+001  3.500000e+000  0.000000e+000
      vertex -3.458821e+001  3.500000e+000  5.250000e+000
      vertex -3.299722e+001  3.500000e+000  5.909010e+000
    endloop
  endfacet
  facet normal  -0.000000e+000  1.000000e+000  0.000000e+000
    outer loop
      vertex -2.750000e+001  3.500000e+000  0.000000e+000
      vertex -3.299722e+001  3.500000e+000  5.909010e+000
      vertex -3.233821e+001  3.500000e+000  7.500000e+000
    endloop
  endfacet
  facet normal  -0.000000e+000  9.999999e-001  -0.000000e+000
    outer loop
      vertex -2.750000e+001  3.500000e+000  0.000000e+000
      vertex -3.233821e+001  3.500000e+000  7.500000e+000
      vertex -3.299722e+001  3.500000e+000  9.090990e+000
    endloop
  endfacet
  facet normal  0.000000e+000  1.000000e+000  0.000000e+000
    outer loop
      vertex -3.854529e+001  3.500000e+000  1.500000e+000
      vertex -3.894721e+001  3.500000e+000  3.000000e+000
      vertex -3.744721e+001  3.500000e+000  4.019238e-001
    endloop
  endfacet
  facet normal  0.000000e+000  1.000000e+000  0.000000e+000
    outer loop
      vertex -3.744721e+001  3.500000e+000  4.019238e-001
      vertex -3.894721e+001  3.500000e+000  3.000000e+000
      vertex -3.894721e+001  3.500000e+000  1.200000e+001
    endloop
  endfacet
  facet normal  0.000000e+000  1.000000e+000  0.000000e+000
    outer loop
      vertex -3.744721e+001  3.500000e+000  4.019238e-001
      vertex -3.894721e+001  3.500000e+000  1.200000e+001
      vertex -3.683821e+001  3.500000e+000  7.500000e+000
    endloop
  endfacet
  facet normal  0.000000e+000  1.000000e+000  0.000000e+000
    outer loop
      vertex -3.683821e+001  3.500000e+000  7.500000e+000
      vertex -3.894721e+001  3.500000e+000  1.200000e+001
      vertex -3.854529e+001  3.500000e+000  1.350000e+001
    endloop
  endfacet
  facet normal  -0.000000e+000  1.000000e+000  0.000000e+000
    outer loop
      vertex -3.683821e+001  3.500000e+000  7.500000e+000
      vertex -3.854529e+001  3.500000e+000  1.350000e+001
      vertex -3.744721e+001  3.500000e+000  1.459808e+001
    endloop
  endfacet
  facet normal  0.000000e+000  9.999999e-001  -0.000000e+000
    outer loop
      vertex -3.458821e+001  3.500000e+000  5.250000e+000
      vertex -3.594721e+001  3.500000e+000  0.000000e+000
      vertex -3.617920e+001  3.500000e+000  5.909010e+000
    endloop
  endfacet
  facet normal  0.000000e+000  1.000000e+000  0.000000e+000
    outer loop
      vertex -3.617920e+001  3.500000e+000  5.909010e+000
      vertex -3.594721e+001  3.500000e+000  0.000000e+000
      vertex -3.744721e+001  3.500000e+000  4.019238e-001
    endloop
  endfacet
  facet normal  0.000000e+000  9.999999e-001  0.000000e+000
    outer loop
      vertex -3.617920e+001  3.500000e+000  5.909010e+000
      vertex -3.744721e+001  3.500000e+000  4.019238e-001
      vertex -3.683821e+001  3.500000e+000  7.500000e+000
    endloop
  endfacet
  facet normal  0.000000e+000 -9.999999e-001  0.000000e+000
    outer loop
      vertex -3.594721e+001  1.500000e+000  1.500000e+001
      vertex -3.744721e+001  1.500000e+000  1.459808e+001
      vertex -3.683821e+001  1.500000e+000  7.500000e+000
    endloop
  endfacet
  facet normal  0.000000e+000 -1.000000e+000  0.000000e+000
    outer loop
      vertex -3.594721e+001  1.500000e+000  1.500000e+001
      vertex -3.683821e+001  1.500000e+000  7.500000e+000
      vertex -3.617920e+001  1.500000e+000  9.090990e+000
    endloop
  endfacet
  facet normal  0.000000e+000 -1.000000e+000  0.000000e+000
    outer loop
      vertex -3.594721e+001  1.500000e+000  1.500000e+001
      vertex -3.617920e+001  1.500000e+000  9.090990e+000
      vertex -3.458821e+001  1.500000e+000  9.750000e+000
    endloop
  endfacet
  facet normal  0.000000e+000 -9.999999e-001  0.000000e+000
    outer loop
      vertex -3.594721e+001  1.500000e+000  1.500000e+001
      vertex -3.458821e+001  1.500000e+000  9.750000e+000
      vertex -3.299722e+001  1.500000e+000  9.090990e+000
    endloop
  endfacet
  facet normal  0.000000e+000 -1.000000e+000  0.000000e+000
    outer loop
      vertex -3.594721e+001  1.500000e+000  1.500000e+001
      vertex -3.299722e+001  1.500000e+000  9.090990e+000
      vertex  0.000000e+000  1.500000e+000  0.000000e+000
    endloop
  endfacet
  facet normal  0.000000e+000 -1.000000e+000  0.000000e+000
    outer loop
      vertex -3.594721e+001  1.500000e+000  1.500000e+001
      vertex  0.000000e+000  1.500000e+000  0.000000e+000
      vertex  0.000000e+000  1.500000e+000  1.500000e+001
    endloop
  endfacet
  facet normal  0.000000e+000 -1.000000e+000  0.000000e+000
    outer loop
      vertex  0.000000e+000  1.500000e+000  0.000000e+000
      vertex -3.299722e+001  1.500000e+000  9.090990e+000
      vertex -3.233821e+001  1.500000e+000  7.500000e+000
    endloop
  endfacet
  facet normal  0.000000e+000 -9.999999e-001  -0.000000e+000
    outer loop
      vertex  0.000000e+000  1.500000e+000  0.000000e+000
      vertex -3.233821e+001  1.500000e+000  7.500000e+000
      vertex -3.299722e+001  1.500000e+000  5.909010e+000
    endloop
  endfacet
  facet normal  0.000000e+000 -1.000000e+000  -0.000000e+000
    outer loop
      vertex  0.000000e+000  1.500000e+000  0.000000e+000
      vertex -3.299722e+001  1.500000e+000  5.909010e+000
      vertex -3.458821e+001  1.500000e+000  5.250000e+000
    endloop
  endfacet
  facet normal  0.000000e+000 -1.000000e+000  -0.000000e+000
    outer loop
      vertex  0.000000e+000  1.500000e+000  0.000000e+000
      vertex -3.458821e+001  1.500000e+000  5.250000e+000
      vertex -3.594721e+001  1.500000e+000  0.000000e+000
    endloop
  endfacet
  facet normal  0.000000e+000 -1.000000e+000  0.000000e+000
    outer loop
      vertex -3.744721e+001  1.500000e+000  1.459808e+001
      vertex -3.854529e+001  1.500000e+000  1.350000e+001
      vertex -3.683821e+001  1.500000e+000  7.500000e+000
    endloop
  endfacet
  facet normal  0.000000e+000 -1.000000e+000  0.000000e+000
    outer loop
      vertex -3.683821e+001  1.500000e+000  7.500000e+000
      vertex -3.854529e+001  1.500000e+000  1.350000e+001
      vertex -3.894721e+001  1.500000e+000  1.200000e+001
    endloop
  endfacet
  facet normal  0.000000e+000 -1.000000e+000  0.000000e+000
    outer loop
      vertex -3.683821e+001  1.500000e+000  7.500000e+000
      vertex -3.894721e+001  1.500000e+000  1.200000e+001
      vertex -3.744721e+001  1.500000e+000  4.019238e-001
    endloop
  endfacet
  facet normal  0.000000e+000 -1.000000e+000  0.000000e+000
    outer loop
      vertex -3.744721e+001  1.500000e+000  4.019238e-001
      vertex -3.894721e+001  1.500000e+000  1.200000e+001
      vertex -3.894721e+001  1.500000e+000  3.000000e+000
    endloop
  endfacet
  facet normal  0.000000e+000 -1.000000e+000  0.000000e+000
    outer loop
      vertex -3.744721e+001  1.500000e+000  4.019238e-001
      vertex -3.894721e+001  1.500000e+000  3.000000e+000
      vertex -3.854529e+001  1.500000e+000  1.500000e+000
    endloop
  endfacet
  facet normal  0.000000e+000 -9.999999e-001  0.000000e+000
    outer loop
      vertex -3.683821e+001  1.500000e+000  7.500000e+000
      vertex -3.744721e+001  1.500000e+000  4.019238e-001
      vertex -3.617920e+001  1.500000e+000  5.909010e+000
    endloop
  endfacet
  facet normal  0.000000e+000 -1.000000e+000  -0.000000e+000
    outer loop
      vertex -3.617920e+001  1.500000e+000  5.909010e+000
      vertex -3.744721e+001  1.500000e+000  4.019238e-001
      vertex -3.594721e+001  1.500000e+000  0.000000e+000
    endloop
  endfacet
  facet normal  0.000000e+000 -9.999999e-001  0.000000e+000
    outer loop
      vertex -3.617920e+001  1.500000e+000  5.909010e+000
      vertex -3.594721e+001  1.500000e+000  0.000000e+000
      vertex -3.458821e+001  1.500000e+000  5.250000e+000
    endloop
  endfacet
  facet normal -1.000000e+000  0.000000e+000  0.000000e+000
    outer loop
      vertex -3.894721e+001  3.500000e+000  3.000000e+000
      vertex -3.894721e+001  1.500000e+000  3.000000e+000
      vertex -3.894721e+001  3.500000e+000  1.200000e+001
    endloop
  endfacet
  facet normal -1.000000e+000  -0.000000e+000  0.000000e+000
    outer loop
      vertex -3.894721e+001  3.500000e+000  1.200000e+001
      vertex -3.894721e+001  1.500000e+000  3.000000e+000
      vertex -3.894721e+001  1.500000e+000  1.200000e+001
    endloop
  endfacet
  facet normal -2.588190e-001  0.000000e+000 -9.659259e-001
    outer loop
      vertex -3.594721e+001  3.500000e+000  0.000000e+000
      vertex -3.594721e+001  1.500000e+000  0.000000e+000
      vertex -3.744721e+001  3.500000e+000  4.019238e-001
    endloop
  endfacet
  facet normal -2.588190e-001  -0.000000e+000 -9.659259e-001
    outer loop
      vertex -3.744721e+001  3.500000e+000  4.019238e-001
      vertex -3.594721e+001  1.500000e+000  0.000000e+000
      vertex -3.744721e+001  1.500000e+000  4.019238e-001
    endloop
  endfacet
  facet normal -7.071069e-001  0.000000e+000 -7.071066e-001
    outer loop
      vertex -3.744721e+001  3.500000e+000  4.019238e-001
      vertex -3.744721e+001  1.500000e+000  4.019238e-001
      vertex -3.854529e+001  3.500000e+000  1.500000e+000
    endloop
  endfacet
  facet normal -7.071069e-001  -0.000000e+000 -7.071066e-001
    outer loop
      vertex -3.854529e+001  3.500000e+000  1.500000e+000
      vertex -3.744721e+001  1.500000e+000  4.019238e-001
      vertex -3.854529e+001  1.500000e+000  1.500000e+000
    endloop
  endfacet
  facet normal -9.659258e-001  0.000000e+000 -2.588193e-001
    outer loop
      vertex -3.854529e+001  3.500000e+000  1.500000e+000
      vertex -3.854529e+001  1.500000e+000  1.500000e+000
      vertex -3.894721e+001  3.500000e+000  3.000000e+000
    endloop
  endfacet
  facet normal -9.659258e-001  -0.000000e+000 -2.588193e-001
    outer loop
      vertex -3.894721e+001  3.500000e+000  3.000000e+000
      vertex -3.854529e+001  1.500000e+000  1.500000e+000
      vertex -3.894721e+001  1.500000e+000  3.000000e+000
    endloop
  endfacet
  facet normal  0.000000e+000  0.000000e+000  1.000000e+000
    outer loop
      vertex -2.750000e+001 -1.500000e+000  1.500000e+001
      vertex -2.750000e+001  5.000000e-001  1.500000e+001
      vertex -3.022970e+001 -7.500000e-001  1.500000e+001
    endloop
  endfacet
  facet normal  0.000000e+000  0.000000e+000  1.000000e+000
    outer loop
      vertex -2.750000e+001 -1.500000e+000  1.500000e+001
      vertex -3.022970e+001 -7.500000e-001  1.500000e+001
      vertex -2.969937e+001 -9.696699e-001  1.500000e+001
    endloop
  endfacet
  facet normal  0.000000e+000  0.000000e+000  1.000000e+000
    outer loop
      vertex -2.750000e+001 -1.500000e+000  1.500000e+001
      vertex -2.969937e+001 -9.696699e-001  1.500000e+001
      vertex -2.947970e+001 -1.500000e+000  1.500000e+001
    endloop
  endfacet
  facet normal  -0.000000e+000  0.000000e+000  1.000000e+000
    outer loop
      vertex -2.750000e+001 -1.500000e+000  1.500000e+001
      vertex -2.947970e+001 -1.500000e+000  1.500000e+001
      vertex -2.947970e+001 -2.750000e+000  1.500000e+001
    endloop
  endfacet
  facet normal  -0.000000e+000  0.000000e+000  9.999999e-001
    outer loop
      vertex -2.750000e+001 -1.500000e+000  1.500000e+001
      vertex -2.947970e+001 -2.750000e+000  1.500000e+001
      vertex  2.057248e+000 -2.831559e+000  1.500000e+001
    endloop
  endfacet
  facet normal  0.000000e+000  0.000000e+000  9.999999e-001
    outer loop
      vertex -2.750000e+001 -1.500000e+000  1.500000e+001
      vertex  2.057248e+000 -2.831559e+000  1.500000e+001
      vertex  0.000000e+000 -1.500000e+000  1.500000e+001
    endloop
  endfacet
  facet normal  0.000000e+000  -0.000000e+000  1.000000e+000
    outer loop
      vertex -3.594721e+001  1.500000e+000  1.500000e+001
      vertex  0.000000e+000  1.500000e+000  1.500000e+001
      vertex  2.057248e+000  2.831559e+000  1.500000e+001
    endloop
  endfacet
  facet normal  0.000000e+000  0.000000e+000  9.999999e-001
    outer loop
      vertex -3.594721e+001  1.500000e+000  1.500000e+001
      vertex  2.057248e+000  2.831559e+000  1.500000e+001
      vertex  1.071566e-015  3.500000e+000  1.500000e+001
    endloop
  endfacet
  facet normal  0.000000e+000  0.000000e+000  9.999999e-001
    outer loop
      vertex -3.594721e+001  1.500000e+000  1.500000e+001
      vertex  1.071566e-015  3.500000e+000  1.500000e+001
      vertex -2.750000e+001  3.500000e+000  1.500000e+001
    endloop
  endfacet
  facet normal  0.000000e+000  0.000000e+000  1.000000e+000
    outer loop
      vertex -3.594721e+001  1.500000e+000  1.500000e+001
      vertex -2.750000e+001  3.500000e+000  1.500000e+001
      vertex -3.594721e+001  3.500000e+000  1.500000e+001
    endloop
  endfacet
  facet normal  0.000000e+000  -0.000000e+000  9.999999e-001
    outer loop
      vertex -3.594721e+001 -7.500000e-001  1.500000e+001
      vertex -3.022970e+001 -7.500000e-001  1.500000e+001
      vertex -2.750000e+001  5.000000e-001  1.500000e+001
    endloop
  endfacet
  facet normal  0.000000e+000  0.000000e+000  1.000000e+000
    outer loop
      vertex -3.594721e+001 -7.500000e-001  1.500000e+001
      vertex -2.750000e+001  5.000000e-001  1.500000e+001
      vertex -2.771967e+001  1.030330e+000  1.500000e+001
    endloop
  endfacet
  facet normal  0.000000e+000  0.000000e+000  1.000000e+000
    outer loop
      vertex -3.594721e+001 -7.500000e-001  1.500000e+001
      vertex -2.771967e+001  1.030330e+000  1.500000e+001
      vertex -2.825000e+001  1.250000e+000  1.500000e+001
    endloop
  endfacet
  facet normal  0.000000e+000  0.000000e+000  9.999999e-001
    outer loop
      vertex -3.594721e+001 -7.500000e-001  1.500000e+001
      vertex -2.825000e+001  1.250000e+000  1.500000e+001
      vertex -3.594721e+001  1.250000e+000  1.500000e+001
    endloop
  endfacet
  facet normal  -0.000000e+000  0.000000e+000  1.000000e+000
    outer loop
      vertex  2.057248e+000  2.831559e+000  1.500000e+001
      vertex  0.000000e+000  1.500000e+000  1.500000e+001
      vertex  3.328698e+000  1.081560e+000  1.500000e+001
    endloop
  endfacet
  facet normal  0.000000e+000  0.000000e+000  1.000000e+000
    outer loop
      vertex  3.328698e+000  1.081560e+000  1.500000e+001
      vertex  0.000000e+000  1.500000e+000  1.500000e+001
      vertex  1.060660e+000  1.060660e+000  1.500000e+001
    endloop
  endfacet
  facet normal  -0.000000e+000  0.000000e+000  1.000000e+000
    outer loop
      vertex  3.328698e+000  1.081560e+000  1.500000e+001
      vertex  1.060660e+000  1.060660e+000  1.500000e+001
      vertex  3.328698e+000 -1.081560e+000  1.500000e+001
    endloop
  endfacet
  facet normal  0.000000e+000  0.000000e+000  1.000000e+000
    outer loop
      vertex  3.328698e+000 -1.081560e+000  1.500000e+001
      vertex  1.060660e+000  1.060660e+000  1.500000e+001
      vertex  1.500000e+000 -3.673940e-016  1.500000e+001
    endloop
  endfacet
  facet normal  0.000000e+000  0.000000e+000  1.000000e+000
    outer loop
      vertex  3.328698e+000 -1.081560e+000  1.500000e+001
      vertex  1.500000e+000 -3.673940e-016  1.500000e+001
      vertex  1.060660e+000 -1.060660e+000  1.500000e+001
    endloop
  endfacet
  facet normal  0.000000e+000  0.000000e+000  1.000000e+000
    outer loop
      vertex  0.000000e+000 -1.500000e+000  1.500000e+001
      vertex  2.057248e+000 -2.831559e+000  1.500000e+001
      vertex  1.060660e+000 -1.060660e+000  1.500000e+001
    endloop
  endfacet
  facet normal  0.000000e+000  0.000000e+000  9.999999e-001
    outer loop
      vertex  1.060660e+000 -1.060660e+000  1.500000e+001
      vertex  2.057248e+000 -2.831559e+000  1.500000e+001
      vertex  3.328698e+000 -1.081560e+000  1.500000e+001
    endloop
  endfacet
  facet normal  0.000000e+000  0.000000e+000  1.000000e+000
    outer loop
      vertex  2.057248e+000 -2.831559e+000  1.500000e+001
      vertex -2.947970e+001 -2.750000e+000  1.500000e+001
      vertex  0.000000e+000 -3.500000e+000  1.500000e+001
    endloop
  endfacet
  facet normal  0.000000e+000  0.000000e+000  1.000000e+000
    outer loop
      vertex  0.000000e+000 -3.500000e+000  1.500000e+001
      vertex -2.947970e+001 -2.750000e+000  1.500000e+001
      vertex -2.926003e+001 -3.280330e+000  1.500000e+001
    endloop
  endfacet
  facet normal  0.000000e+000  0.000000e+000  9.999999e-001
    outer loop
      vertex  0.000000e+000 -3.500000e+000  1.500000e+001
      vertex -2.926003e+001 -3.280330e+000  1.500000e+001
      vertex -2.872970e+001 -3.500000e+000  1.500000e+001
    endloop
  endfacet
  facet normal -9.659258e-001  0.000000e+000  2.588193e-001
    outer loop
      vertex -3.894721e+001  3.500000e+000  1.200000e+001
      vertex -3.894721e+001  1.500000e+000  1.200000e+001
      vertex -3.854529e+001  3.500000e+000  1.350000e+001
    endloop
  endfacet
  facet normal -9.659258e-001  0.000000e+000  2.588193e-001
    outer loop
      vertex -3.854529e+001  3.500000e+000  1.350000e+001
      vertex -3.894721e+001  1.500000e+000  1.200000e+001
      vertex -3.854529e+001  1.500000e+000  1.350000e+001
    endloop
  endfacet
  facet normal -7.071068e-001  0.000000e+000  7.071068e-001
    outer loop
      vertex -3.854529e+001  3.500000e+000  1.350000e+001
      vertex -3.854529e+001  1.500000e+000  1.350000e+001
      vertex -3.744721e+001  3.500000e+000  1.459808e+001
    endloop
  endfacet
  facet normal -7.071068e-001  0.000000e+000  7.071068e-001
    outer loop
      vertex -3.744721e+001  3.500000e+000  1.459808e+001
      vertex -3.854529e+001  1.500000e+000  1.350000e+001
      vertex -3.744721e+001  1.500000e+000  1.459808e+001
    endloop
  endfacet
  facet normal -2.588193e-001  0.000000e+000  9.659258e-001
    outer loop
      vertex -3.744721e+001  3.500000e+000  1.459808e+001
      vertex -3.744721e+001  1.500000e+000  1.459808e+001
      vertex -3.594721e+001  3.500000e+000  1.500000e+001
    endloop
  endfacet
  facet normal -2.588193e-001  0.000000e+000  9.659258e-001
    outer loop
      vertex -3.594721e+001  3.500000e+000  1.500000e+001
      vertex -3.744721e+001  1.500000e+000  1.459808e+001
      vertex -3.594721e+001  1.500000e+000  1.500000e+001
    endloop
  endfacet
  facet normal -9.659258e-001  0.000000e+000  2.588193e-001
    outer loop
      vertex -3.894721e+001  1.250000e+000  1.200000e+001
      vertex -3.894721e+001 -7.500000e-001  1.200000e+001
      vertex -3.854529e+001  1.250000e+000  1.350000e+001
    endloop
  endfacet
  facet normal -9.659258e-001  0.000000e+000  2.588193e-001
    outer loop
      vertex -3.854529e+001  1.250000e+000  1.350000e+001
      vertex -3.894721e+001 -7.500000e-001  1.200000e+001
      vertex -3.854529e+001 -7.500000e-001  1.350000e+001
    endloop
  endfacet
  facet normal -7.071068e-001  0.000000e+000  7.071068e-001
    outer loop
      vertex -3.854529e+001  1.250000e+000  1.350000e+001
      vertex -3.854529e+001 -7.500000e-001  1.350000e+001
      vertex -3.744721e+001  1.250000e+000  1.459808e+001
    endloop
  endfacet
  facet normal -7.071068e-001  0.000000e+000  7.071068e-001
    outer loop
      vertex -3.744721e+001  1.250000e+000  1.459808e+001
      vertex -3.854529e+001 -7.500000e-001  1.350000e+001
      vertex -3.744721e+001 -7.500000e-001  1.459808e+001
    endloop
  endfacet
  facet normal -2.588193e-001  0.000000e+000  9.659258e-001
    outer loop
      vertex -3.744721e+001  1.250000e+000  1.459808e+001
      vertex -3.744721e+001 -7.500000e-001  1.459808e+001
      vertex -3.594721e+001  1.250000e+000  1.500000e+001
    endloop
  endfacet
  facet normal -2.588193e-001  0.000000e+000  9.659258e-001
    outer loop
      vertex -3.594721e+001  1.250000e+000  1.500000e+001
      vertex -3.744721e+001 -7.500000e-001  1.459808e+001
      vertex -3.594721e+001 -7.500000e-001  1.500000e+001
    endloop
  endfacet
  facet normal  3.826832e-001  0.000000e+000 -9.238796e-001
    outer loop
      vertex -3.458821e+001  1.250000e+000  9.750000e+000
      vertex -3.617920e+001  7.500000e-001  9.090990e+000
      vertex -3.617920e+001  1.250000e+000  9.090990e+000
    endloop
  endfacet
  facet normal  9.238799e-001  0.000000e+000 -3.826826e-001
    outer loop
      vertex -3.617920e+001  1.250000e+000  9.090990e+000
      vertex -3.617920e+001  7.500000e-001  9.090990e+000
      vertex -3.683821e+001  7.500000e-001  7.500000e+000
    endloop
  endfacet
  facet normal  9.238799e-001  0.000000e+000 -3.826826e-001
    outer loop
      vertex -3.617920e+001  1.250000e+000  9.090990e+000
      vertex -3.683821e+001  7.500000e-001  7.500000e+000
      vertex -3.683821e+001  1.250000e+000  7.500000e+000
    endloop
  endfacet
  facet normal  3.826832e-001  0.000000e+000 -9.238796e-001
    outer loop
      vertex -3.617920e+001  7.500000e-001  9.090990e+000
      vertex -3.458821e+001  1.250000e+000  9.750000e+000
      vertex -3.458821e+001  7.500000e-001  9.750000e+000
    endloop
  endfacet
  facet normal -3.826840e-001  0.000000e+000 -9.238793e-001
    outer loop
      vertex -3.458821e+001  7.500000e-001  9.750000e+000
      vertex -3.458821e+001  1.250000e+000  9.750000e+000
      vertex -3.299722e+001  1.250000e+000  9.090990e+000
    endloop
  endfacet
  facet normal -3.826840e-001  -0.000000e+000 -9.238793e-001
    outer loop
      vertex -3.458821e+001  7.500000e-001  9.750000e+000
      vertex -3.299722e+001  1.250000e+000  9.090990e+000
      vertex -3.299722e+001  7.500000e-001  9.090990e+000
    endloop
  endfacet
  facet normal -9.238791e-001  0.000000e+000 -3.826845e-001
    outer loop
      vertex -3.299722e+001  7.500000e-001  9.090990e+000
      vertex -3.299722e+001  1.250000e+000  9.090990e+000
      vertex -3.233821e+001  1.250000e+000  7.500000e+000
    endloop
  endfacet
  facet normal -9.238791e-001  -0.000000e+000 -3.826845e-001
    outer loop
      vertex -3.299722e+001  7.500000e-001  9.090990e+000
      vertex -3.233821e+001  1.250000e+000  7.500000e+000
      vertex -3.233821e+001  7.500000e-001  7.500000e+000
    endloop
  endfacet
  facet normal -3.826840e-001  0.000000e+000  9.238793e-001
    outer loop
      vertex -3.458821e+001  1.250000e+000  5.250000e+000
      vertex -3.299722e+001  7.500000e-001  5.909010e+000
      vertex -3.299722e+001  1.250000e+000  5.909010e+000
    endloop
  endfacet
  facet normal -9.238791e-001  0.000000e+000  3.826845e-001
    outer loop
      vertex -3.299722e+001  1.250000e+000  5.909010e+000
      vertex -3.299722e+001  7.500000e-001  5.909010e+000
      vertex -3.233821e+001  7.500000e-001  7.500000e+000
    endloop
  endfacet
  facet normal -9.238791e-001  0.000000e+000  3.826845e-001
    outer loop
      vertex -3.299722e+001  1.250000e+000  5.909010e+000
      vertex -3.233821e+001  7.500000e-001  7.500000e+000
      vertex -3.233821e+001  1.250000e+000  7.500000e+000
    endloop
  endfacet
  facet normal -3.826840e-001  0.000000e+000  9.238793e-001
    outer loop
      vertex -3.299722e+001  7.500000e-001  5.909010e+000
      vertex -3.458821e+001  1.250000e+000  5.250000e+000
      vertex -3.458821e+001  7.500000e-001  5.250000e+000
    endloop
  endfacet
  facet normal  3.826832e-001  -0.000000e+000  9.238796e-001
    outer loop
      vertex -3.458821e+001  7.500000e-001  5.250000e+000
      vertex -3.458821e+001  1.250000e+000  5.250000e+000
      vertex -3.617920e+001  1.250000e+000  5.909010e+000
    endloop
  endfacet
  facet normal  3.826832e-001  0.000000e+000  9.238796e-001
    outer loop
      vertex -3.458821e+001  7.500000e-001  5.250000e+000
      vertex -3.617920e+001  1.250000e+000  5.909010e+000
      vertex -3.617920e+001  7.500000e-001  5.909010e+000
    endloop
  endfacet
  facet normal  9.238799e-001  -0.000000e+000  3.826826e-001
    outer loop
      vertex -3.617920e+001  7.500000e-001  5.909010e+000
      vertex -3.617920e+001  1.250000e+000  5.909010e+000
      vertex -3.683821e+001  1.250000e+000  7.500000e+000
    endloop
  endfacet
  facet normal  9.238799e-001  0.000000e+000  3.826826e-001
    outer loop
      vertex -3.617920e+001  7.500000e-001  5.909010e+000
      vertex -3.683821e+001  1.250000e+000  7.500000e+000
      vertex -3.683821e+001  7.500000e-001  7.500000e+000
    endloop
  endfacet
  facet normal  6.387184e-001 -7.225262e-001 -2.645651e-001
    outer loop
      vertex -3.617920e+001  7.500000e-001  9.090990e+000
      vertex -3.762202e+001 -7.500000e-001  9.704195e+000
      vertex -3.683821e+001  7.500000e-001  7.500000e+000
    endloop
  endfacet
  facet normal  6.891518e-001 -6.891518e-001 -2.239190e-001
    outer loop
      vertex -3.762202e+001 -7.500000e-001  9.704195e+000
      vertex -3.833821e+001 -7.500000e-001  7.500000e+000
      vertex -3.683821e+001  7.500000e-001  7.500000e+000
    endloop
  endfacet
  facet normal -6.891522e-001 -6.891513e-001 -2.239186e-001
    outer loop
      vertex -3.083821e+001 -7.500000e-001  7.500000e+000
      vertex -3.155440e+001 -7.500000e-001  9.704195e+000
      vertex -3.233821e+001  7.500000e-001  7.500000e+000
    endloop
  endfacet
  facet normal -6.387171e-001 -7.225270e-001 -2.645662e-001
    outer loop
      vertex -3.155440e+001 -7.500000e-001  9.704195e+000
      vertex -3.299722e+001  7.500000e-001  9.090990e+000
      vertex -3.233821e+001  7.500000e-001  7.500000e+000
    endloop
  endfacet
  facet normal -4.377429e-001 -6.673625e-001 -6.025018e-001
    outer loop
      vertex -3.155440e+001 -7.500000e-001  9.704195e+000
      vertex -3.342940e+001 -7.500000e-001  1.106646e+001
      vertex -3.299722e+001  7.500000e-001  9.090990e+000
    endloop
  endfacet
  facet normal  0.000000e+000 -6.596281e-001 -7.515921e-001
    outer loop
      vertex -3.342940e+001 -7.500000e-001  1.106646e+001
      vertex -3.574702e+001 -7.500000e-001  1.106646e+001
      vertex -3.458821e+001  7.500000e-001  9.750000e+000
    endloop
  endfacet
  facet normal -2.565932e-001 -7.419011e-001 -6.194697e-001
    outer loop
      vertex -3.299722e+001  7.500000e-001  9.090990e+000
      vertex -3.342940e+001 -7.500000e-001  1.106646e+001
      vertex -3.458821e+001  7.500000e-001  9.750000e+000
    endloop
  endfacet
  facet normal  4.377433e-001 -6.673619e-001 -6.025022e-001
    outer loop
      vertex -3.574702e+001 -7.500000e-001  1.106646e+001
      vertex -3.762202e+001 -7.500000e-001  9.704195e+000
      vertex -3.617920e+001  7.500000e-001  9.090990e+000
    endloop
  endfacet
  facet normal  2.565927e-001 -7.419010e-001 -6.194700e-001
    outer loop
      vertex -3.458821e+001  7.500000e-001  9.750000e+000
      vertex -3.574702e+001 -7.500000e-001  1.106646e+001
      vertex -3.617920e+001  7.500000e-001  9.090990e+000
    endloop
  endfacet
  facet normal -6.387172e-001 -7.225270e-001  2.645662e-001
    outer loop
      vertex -3.299722e+001  7.500000e-001  5.909010e+000
      vertex -3.155440e+001 -7.500000e-001  5.295805e+000
      vertex -3.233821e+001  7.500000e-001  7.500000e+000
    endloop
  endfacet
  facet normal -6.891522e-001 -6.891513e-001  2.239186e-001
    outer loop
      vertex -3.155440e+001 -7.500000e-001  5.295805e+000
      vertex -3.083821e+001 -7.500000e-001  7.500000e+000
      vertex -3.233821e+001  7.500000e-001  7.500000e+000
    endloop
  endfacet
  facet normal  6.891518e-001 -6.891518e-001  2.239191e-001
    outer loop
      vertex -3.833821e+001 -7.500000e-001  7.500000e+000
      vertex -3.762202e+001 -7.500000e-001  5.295805e+000
      vertex -3.683821e+001  7.500000e-001  7.500000e+000
    endloop
  endfacet
  facet normal  6.387184e-001 -7.225261e-001  2.645652e-001
    outer loop
      vertex -3.762202e+001 -7.500000e-001  5.295805e+000
      vertex -3.617920e+001  7.500000e-001  5.909010e+000
      vertex -3.683821e+001  7.500000e-001  7.500000e+000
    endloop
  endfacet
  facet normal  4.377434e-001 -6.673617e-001  6.025022e-001
    outer loop
      vertex -3.762202e+001 -7.500000e-001  5.295805e+000
      vertex -3.574702e+001 -7.500000e-001  3.933538e+000
      vertex -3.617920e+001  7.500000e-001  5.909010e+000
    endloop
  endfacet
  facet normal  7.731767e-008 -6.596282e-001  7.515920e-001
    outer loop
      vertex -3.574702e+001 -7.500000e-001  3.933538e+000
      vertex -3.342940e+001 -7.500000e-001  3.933538e+000
      vertex -3.458821e+001  7.500000e-001  5.250000e+000
    endloop
  endfacet
  facet normal  2.565927e-001 -7.419010e-001  6.194700e-001
    outer loop
      vertex -3.617920e+001  7.500000e-001  5.909010e+000
      vertex -3.574702e+001 -7.500000e-001  3.933538e+000
      vertex -3.458821e+001  7.500000e-001  5.250000e+000
    endloop
  endfacet
  facet normal -4.377432e-001 -6.673625e-001  6.025017e-001
    outer loop
      vertex -3.342940e+001 -7.500000e-001  3.933538e+000
      vertex -3.155440e+001 -7.500000e-001  5.295805e+000
      vertex -3.299722e+001  7.500000e-001  5.909010e+000
    endloop
  endfacet
  facet normal -2.565931e-001 -7.419012e-001  6.194696e-001
    outer loop
      vertex -3.458821e+001  7.500000e-001  5.250000e+000
      vertex -3.342940e+001 -7.500000e-001  3.933538e+000
      vertex -3.299722e+001  7.500000e-001  5.909010e+000
    endloop
  endfacet
  facet normal  3.826832e-001  0.000000e+000 -9.238796e-001
    outer loop
      vertex -3.458821e+001  3.500000e+000  9.750000e+000
      vertex -3.617920e+001  1.500000e+000  9.090990e+000
      vertex -3.617920e+001  3.500000e+000  9.090990e+000
    endloop
  endfacet
  facet normal  9.238799e-001  0.000000e+000 -3.826826e-001
    outer loop
      vertex -3.617920e+001  3.500000e+000  9.090990e+000
      vertex -3.617920e+001  1.500000e+000  9.090990e+000
      vertex -3.683821e+001  1.500000e+000  7.500000e+000
    endloop
  endfacet
  facet normal  9.238799e-001  0.000000e+000 -3.826826e-001
    outer loop
      vertex -3.617920e+001  3.500000e+000  9.090990e+000
      vertex -3.683821e+001  1.500000e+000  7.500000e+000
      vertex -3.683821e+001  3.500000e+000  7.500000e+000
    endloop
  endfacet
  facet normal  3.826832e-001  0.000000e+000 -9.238796e-001
    outer loop
      vertex -3.617920e+001  1.500000e+000  9.090990e+000
      vertex -3.458821e+001  3.500000e+000  9.750000e+000
      vertex -3.458821e+001  1.500000e+000  9.750000e+000
    endloop
  endfacet
  facet normal -3.826840e-001  0.000000e+000 -9.238793e-001
    outer loop
      vertex -3.458821e+001  1.500000e+000  9.750000e+000
      vertex -3.458821e+001  3.500000e+000  9.750000e+000
      vertex -3.299722e+001  3.500000e+000  9.090990e+000
    endloop
  endfacet
  facet normal -3.826840e-001  -0.000000e+000 -9.238793e-001
    outer loop
      vertex -3.458821e+001  1.500000e+000  9.750000e+000
      vertex -3.299722e+001  3.500000e+000  9.090990e+000
      vertex -3.299722e+001  1.500000e+000  9.090990e+000
    endloop
  endfacet
  facet normal -9.238791e-001  0.000000e+000 -3.826845e-001
    outer loop
      vertex -3.299722e+001  1.500000e+000  9.090990e+000
      vertex -3.299722e+001  3.500000e+000  9.090990e+000
      vertex -3.233821e+001  3.500000e+000  7.500000e+000
    endloop
  endfacet
  facet normal -9.238791e-001  -0.000000e+000 -3.826845e-001
    outer loop
      vertex -3.299722e+001  1.500000e+000  9.090990e+000
      vertex -3.233821e+001  3.500000e+000  7.500000e+000
      vertex -3.233821e+001  1.500000e+000  7.500000e+000
    endloop
  endfacet
  facet normal -3.826840e-001  0.000000e+000  9.238793e-001
    outer loop
      vertex -3.458821e+001  3.500000e+000  5.250000e+000
      vertex -3.299722e+001  1.500000e+000  5.909010e+000
      vertex -3.299722e+001  3.500000e+000  5.909010e+000
    endloop
  endfacet
  facet normal -9.238791e-001  0.000000e+000  3.826845e-001
    outer loop
      vertex -3.299722e+001  3.500000e+000  5.909010e+000
      vertex -3.299722e+001  1.500000e+000  5.909010e+000
      vertex -3.233821e+001  1.500000e+000  7.500000e+000
    endloop
  endfacet
  facet normal -9.238791e-001  0.000000e+000  3.826845e-001
    outer loop
      vertex -3.299722e+001  3.500000e+000  5.909010e+000
      vertex -3.233821e+001  1.500000e+000  7.500000e+000
      vertex -3.233821e+001  3.500000e+000  7.500000e+000
    endloop
  endfacet
  facet normal -3.826840e-001  0.000000e+000  9.238793e-001
    outer loop
      vertex -3.299722e+001  1.500000e+000  5.909010e+000
      vertex -3.458821e+001  3.500000e+000  5.250000e+000
      vertex -3.458821e+001  1.500000e+000  5.250000e+000
    endloop
  endfacet
  facet normal  3.826832e-001  -0.000000e+000  9.238796e-001
    outer loop
      vertex -3.458821e+001  1.500000e+000  5.250000e+000
      vertex -3.458821e+001  3.500000e+000  5.250000e+000
      vertex -3.617920e+001  3.500000e+000  5.909010e+000
    endloop
  endfacet
  facet normal  3.826832e-001  0.000000e+000  9.238796e-001
    outer loop
      vertex -3.458821e+001  1.500000e+000  5.250000e+000
      vertex -3.617920e+001  3.500000e+000  5.909010e+000
      vertex -3.617920e+001  1.500000e+000  5.909010e+000
    endloop
  endfacet
  facet normal  9.238799e-001  -0.000000e+000  3.826826e-001
    outer loop
      vertex -3.617920e+001  1.500000e+000  5.909010e+000
      vertex -3.617920e+001  3.500000e+000  5.909010e+000
      vertex -3.683821e+001  3.500000e+000  7.500000e+000
    endloop
  endfacet
  facet normal  9.238799e-001  0.000000e+000  3.826826e-001
    outer loop
      vertex -3.617920e+001  1.500000e+000  5.909010e+000
      vertex -3.683821e+001  3.500000e+000  7.500000e+000
      vertex -3.683821e+001  1.500000e+000  7.500000e+000
    endloop
  endfacet
  facet normal -9.238794e-001 -3.826835e-001  -0.000000e+000
    outer loop
      vertex  1.500000e+000 -3.673940e-016  0.000000e+000
      vertex  1.060660e+000  1.060660e+000  1.500000e+001
      vertex  1.060660e+000  1.060660e+000  0.000000e+000
    endloop
  endfacet
  facet normal -3.826835e-001 -9.238794e-001  0.000000e+000
    outer loop
      vertex  1.060660e+000  1.060660e+000  0.000000e+000
      vertex  1.060660e+000  1.060660e+000  1.500000e+001
      vertex  0.000000e+000  1.500000e+000  1.500000e+001
    endloop
  endfacet
  facet normal -3.826835e-001 -9.238794e-001  -0.000000e+000
    outer loop
      vertex  1.060660e+000  1.060660e+000  0.000000e+000
      vertex  0.000000e+000  1.500000e+000  1.500000e+001
      vertex  0.000000e+000  1.500000e+000  0.000000e+000
    endloop
  endfacet
  facet normal -9.238794e-001 -3.826835e-001  0.000000e+000
    outer loop
      vertex  1.060660e+000  1.060660e+000  1.500000e+001
      vertex  1.500000e+000 -3.673940e-016  0.000000e+000
      vertex  1.500000e+000 -3.673940e-016  1.500000e+001
    endloop
  endfacet
  facet normal -9.238794e-001  3.826835e-001  0.000000e+000
    outer loop
      vertex  1.500000e+000 -3.673940e-016  1.500000e+001
      vertex  1.500000e+000 -3.673940e-016  0.000000e+000
      vertex  1.060660e+000 -1.060660e+000  0.000000e+000
    endloop
  endfacet
  facet normal -9.238794e-001  3.826835e-001  0.000000e+000
    outer loop
      vertex  1.500000e+000 -3.673940e-016  1.500000e+001
      vertex  1.060660e+000 -1.060660e+000  0.000000e+000
      vertex  1.060660e+000 -1.060660e+000  1.500000e+001
    endloop
  endfacet
  facet normal -3.826835e-001  9.238794e-001  0.000000e+000
    outer loop
      vertex  1.060660e+000 -1.060660e+000  1.500000e+001
      vertex  1.060660e+000 -1.060660e+000  0.000000e+000
      vertex  0.000000e+000 -1.500000e+000  0.000000e+000
    endloop
  endfacet
  facet normal -3.826835e-001  9.238794e-001  0.000000e+000
    outer loop
      vertex  1.060660e+000 -1.060660e+000  1.500000e+001
      vertex  0.000000e+000 -1.500000e+000  0.000000e+000
      vertex  0.000000e+000 -1.500000e+000  1.500000e+001
    endloop
  endfacet
  facet normal  0.000000e+000  1.000000e+000  0.000000e+000
    outer loop
      vertex -2.750000e+001  3.500000e+000  1.500000e+001
      vertex  1.071566e-015  3.500000e+000  1.500000e+001
      vertex -2.750000e+001  3.500000e+000  0.000000e+000
    endloop
  endfacet
  facet normal  0.000000e+000  1.000000e+000  0.000000e+000
    outer loop
      vertex -2.750000e+001  3.500000e+000  0.000000e+000
      vertex  1.071566e-015  3.500000e+000  1.500000e+001
      vertex  1.071566e-015  3.500000e+000  0.000000e+000
    endloop
  endfacet
  facet normal  3.090170e-001  9.510565e-001  0.000000e+000
    outer loop
      vertex  1.071566e-015  3.500000e+000  0.000000e+000
      vertex  1.071566e-015  3.500000e+000  1.500000e+001
      vertex  2.057248e+000  2.831559e+000  0.000000e+000
    endloop
  endfacet
  facet normal  3.090170e-001  9.510565e-001  -0.000000e+000
    outer loop
      vertex  2.057248e+000  2.831559e+000  0.000000e+000
      vertex  1.071566e-015  3.500000e+000  1.500000e+001
      vertex  2.057248e+000  2.831559e+000  1.500000e+001
    endloop
  endfacet
  facet normal  8.090170e-001  5.877854e-001  0.000000e+000
    outer loop
      vertex  2.057248e+000  2.831559e+000  0.000000e+000
      vertex  2.057248e+000  2.831559e+000  1.500000e+001
      vertex  3.328698e+000  1.081560e+000  0.000000e+000
    endloop
  endfacet
  facet normal  8.090170e-001  5.877854e-001  -0.000000e+000
    outer loop
      vertex  3.328698e+000  1.081560e+000  0.000000e+000
      vertex  2.057248e+000  2.831559e+000  1.500000e+001
      vertex  3.328698e+000  1.081560e+000  1.500000e+001
    endloop
  endfacet
  facet normal  1.000000e+000  0.000000e+000  0.000000e+000
    outer loop
      vertex  3.328698e+000  1.081560e+000  0.000000e+000
      vertex  3.328698e+000  1.081560e+000  1.500000e+001
      vertex  3.328698e+000 -1.081560e+000  0.000000e+000
    endloop
  endfacet
  facet normal  1.000000e+000  0.000000e+000  0.000000e+000
    outer loop
      vertex  3.328698e+000 -1.081560e+000  0.000000e+000
      vertex  3.328698e+000  1.081560e+000  1.500000e+001
      vertex  3.328698e+000 -1.081560e+000  1.500000e+001
    endloop
  endfacet
  facet normal  8.090170e-001 -5.877854e-001  0.000000e+000
    outer loop
      vertex  3.328698e+000 -1.081560e+000  0.000000e+000
      vertex  3.328698e+000 -1.081560e+000  1.500000e+001
      vertex  2.057248e+000 -2.831559e+000  0.000000e+000
    endloop
  endfacet
  facet normal  8.090170e-001 -5.877854e-001  0.000000e+000
    outer loop
      vertex  2.057248e+000 -2.831559e+000  0.000000e+000
      vertex  3.328698e+000 -1.081560e+000  1.500000e+001
      vertex  2.057248e+000 -2.831559e+000  1.500000e+001
    endloop
  endfacet
  facet normal  3.090170e-001 -9.510565e-001  0.000000e+000
    outer loop
      vertex  2.057248e+000 -2.831559e+000  0.000000e+000
      vertex  2.057248e+000 -2.831559e+000  1.500000e+001
      vertex  0.000000e+000 -3.500000e+000  0.000000e+000
    endloop
  endfacet
  facet normal  3.090170e-001 -9.510565e-001  0.000000e+000
    outer loop
      vertex  0.000000e+000 -3.500000e+000  0.000000e+000
      vertex  2.057248e+000 -2.831559e+000  1.500000e+001
      vertex  0.000000e+000 -3.500000e+000  1.500000e+001
    endloop
  endfacet
  facet normal  0.000000e+000 -1.000000e+000  0.000000e+000
    outer loop
      vertex  0.000000e+000 -3.500000e+000  1.500000e+001
      vertex -2.872970e+001 -3.500000e+000  1.500000e+001
      vertex  0.000000e+000 -3.500000e+000  0.000000e+000
    endloop
  endfacet
  facet normal  0.000000e+000 -1.000000e+000  0.000000e+000
    outer loop
      vertex  0.000000e+000 -3.500000e+000  0.000000e+000
      vertex -2.872970e+001 -3.500000e+000  1.500000e+001
      vertex -2.872970e+001 -3.500000e+000  0.000000e+000
    endloop
  endfacet
  facet normal -3.826829e-001 -9.238797e-001  -0.000000e+000
    outer loop
      vertex -2.872970e+001 -3.500000e+000  0.000000e+000
      vertex -2.872970e+001 -3.500000e+000  1.500000e+001
      vertex -2.926003e+001 -3.280330e+000  0.000000e+000
    endloop
  endfacet
  facet normal -3.826829e-001 -9.238797e-001  0.000000e+000
    outer loop
      vertex -2.926003e+001 -3.280330e+000  0.000000e+000
      vertex -2.872970e+001 -3.500000e+000  1.500000e+001
      vertex -2.926003e+001 -3.280330e+000  1.500000e+001
    endloop
  endfacet
  facet normal -9.238799e-001 -3.826825e-001  -0.000000e+000
    outer loop
      vertex -2.926003e+001 -3.280330e+000  0.000000e+000
      vertex -2.926003e+001 -3.280330e+000  1.500000e+001
      vertex -2.947970e+001 -2.750000e+000  0.000000e+000
    endloop
  endfacet
  facet normal -9.238799e-001 -3.826825e-001  0.000000e+000
    outer loop
      vertex -2.947970e+001 -2.750000e+000  0.000000e+000
      vertex -2.926003e+001 -3.280330e+000  1.500000e+001
      vertex -2.947970e+001 -2.750000e+000  1.500000e+001
    endloop
  endfacet
  facet normal -1.000000e+000  0.000000e+000  0.000000e+000
    outer loop
      vertex -2.947970e+001 -1.500000e+000  0.000000e+000
      vertex -2.947970e+001 -2.750000e+000  0.000000e+000
      vertex -2.947970e+001 -1.500000e+000  1.500000e+001
    endloop
  endfacet
  facet normal -1.000000e+000  -0.000000e+000  0.000000e+000
    outer loop
      vertex -2.947970e+001 -1.500000e+000  1.500000e+001
      vertex -2.947970e+001 -2.750000e+000  0.000000e+000
      vertex -2.947970e+001 -2.750000e+000  1.500000e+001
    endloop
  endfacet
  facet normal -3.826831e-001 -9.238797e-001  0.000000e+000
    outer loop
      vertex -3.022970e+001 -7.500000e-001  0.000000e+000
      vertex -2.969937e+001 -9.696699e-001  0.000000e+000
      vertex -3.022970e+001 -7.500000e-001  1.500000e+001
    endloop
  endfacet
  facet normal -3.826831e-001 -9.238797e-001  0.000000e+000
    outer loop
      vertex -3.022970e+001 -7.500000e-001  1.500000e+001
      vertex -2.969937e+001 -9.696699e-001  0.000000e+000
      vertex -2.969937e+001 -9.696699e-001  1.500000e+001
    endloop
  endfacet
  facet normal -9.238799e-001 -3.826826e-001  0.000000e+000
    outer loop
      vertex -2.969937e+001 -9.696699e-001  0.000000e+000
      vertex -2.947970e+001 -1.500000e+000  0.000000e+000
      vertex -2.969937e+001 -9.696699e-001  1.500000e+001
    endloop
  endfacet
  facet normal -9.238799e-001 -3.826826e-001  0.000000e+000
    outer loop
      vertex -2.969937e+001 -9.696699e-001  1.500000e+001
      vertex -2.947970e+001 -1.500000e+000  0.000000e+000
      vertex -2.947970e+001 -1.500000e+000  1.500000e+001
    endloop
  endfacet
  facet normal  3.826831e-001  9.238797e-001  0.000000e+000
    outer loop
      vertex -2.825000e+001  1.250000e+000  0.000000e+000
      vertex -2.825000e+001  1.250000e+000  1.500000e+001
      vertex -2.771967e+001  1.030330e+000  0.000000e+000
    endloop
  endfacet
  facet normal  3.826831e-001  9.238797e-001  -0.000000e+000
    outer loop
      vertex -2.771967e+001  1.030330e+000  0.000000e+000
      vertex -2.825000e+001  1.250000e+000  1.500000e+001
      vertex -2.771967e+001  1.030330e+000  1.500000e+001
    endloop
  endfacet
  facet normal  9.238799e-001  3.826826e-001  0.000000e+000
    outer loop
      vertex -2.771967e+001  1.030330e+000  0.000000e+000
      vertex -2.771967e+001  1.030330e+000  1.500000e+001
      vertex -2.750000e+001  5.000000e-001  0.000000e+000
    endloop
  endfacet
  facet normal  9.238799e-001  3.826826e-001  -0.000000e+000
    outer loop
      vertex -2.750000e+001  5.000000e-001  0.000000e+000
      vertex -2.771967e+001  1.030330e+000  1.500000e+001
      vertex -2.750000e+001  5.000000e-001  1.500000e+001
    endloop
  endfacet
  facet normal  1.000000e+000  0.000000e+000  0.000000e+000
    outer loop
      vertex -2.750000e+001 -1.500000e+000  0.000000e+000
      vertex -2.750000e+001  5.000000e-001  0.000000e+000
      vertex -2.750000e+001 -1.500000e+000  1.500000e+001
    endloop
  endfacet
  facet normal  1.000000e+000  -0.000000e+000  0.000000e+000
    outer loop
      vertex -2.750000e+001 -1.500000e+000  1.500000e+001
      vertex -2.750000e+001  5.000000e-001  0.000000e+000
      vertex -2.750000e+001  5.000000e-001  1.500000e+001
    endloop
  endfacet
  facet normal  0.000000e+000  1.000000e+000  -0.000000e+000
    outer loop
      vertex  0.000000e+000 -1.500000e+000  1.500000e+001
      vertex  0.000000e+000 -1.500000e+000  0.000000e+000
      vertex -2.750000e+001 -1.500000e+000  1.500000e+001
    endloop
  endfacet
  facet normal  0.000000e+000  1.000000e+000  0.000000e+000
    outer loop
      vertex -2.750000e+001 -1.500000e+000  1.500000e+001
      vertex  0.000000e+000 -1.500000e+000  0.000000e+000
      vertex -2.750000e+001 -1.500000e+000  0.000000e+000
    endloop
  endfacet
endsolid CATIA STL
