solid spacers
facet normal 0.9238795325112884 -0.38268343236508595 0.0
  outer loop
    vertex 118.59125118722883 122.32979724229351 0.0
    vertex 118.19164949721034 121.3650734227036 3.0
    vertex 118.19164949721034 121.3650734227036 0.0
  endloop
endfacet
facet normal 0.9238795325112884 -0.38268343236508595 0.0
  outer loop
    vertex 118.19164949721034 121.3650734227036 3.0
    vertex 118.59125118722883 122.32979724229351 0.0
    vertex 118.59125118722883 122.32979724229351 3.0
  endloop
endfacet
facet normal 1.0 0.0 0.0
  outer loop
    vertex 132.0553528023666 128.82979724229352 0.0
    vertex 132.0553528023666 111.82979724229354 3.0
    vertex 132.0553528023666 111.82979724229354 0.0
  endloop
endfacet
facet normal 1.0 0.0 0.0
  outer loop
    vertex 132.0553528023666 111.82979724229354 3.0
    vertex 132.0553528023666 128.82979724229352 0.0
    vertex 132.0553528023666 128.82979724229352 3.0
  endloop
endfacet
facet normal -0.3826834323650986 0.9238795325112831 0.0
  outer loop
    vertex 93.09062898277666 116.46609393713725 3.0
    vertex 94.05535280236658 116.86569562715579 0.0
    vertex 93.09062898277666 116.46609393713725 0.0
  endloop
endfacet
facet normal -0.3826834323650986 0.9238795325112831 0.0
  outer loop
    vertex 94.05535280236658 116.86569562715579 0.0
    vertex 93.09062898277666 116.46609393713725 3.0
    vertex 94.05535280236658 116.86569562715579 3.0
  endloop
endfacet
facet normal -0.7933533402912281 -0.60876142900873 -0.0
  outer loop
    vertex 124.88377992711277 123.15822436703974 3.0
    vertex 125.51945441750435 122.32979724229355 0.0
    vertex 125.51945441750435 122.32979724229355 3.0
  endloop
endfacet
facet normal -0.7933533402912281 -0.60876142900873 -0.0
  outer loop
    vertex 125.51945441750435 122.32979724229355 0.0
    vertex 124.88377992711277 123.15822436703974 3.0
    vertex 124.88377992711277 123.15822436703974 0.0
  endloop
endfacet
facet normal 0.0 0.0 -1.0
  outer loop
    vertex 82.05535280236661 128.82979724229352 0.0
    vertex 88.59125118722888 122.32979724229355 0.0
    vertex 82.05535280236661 111.82979724229354 0.0
  endloop
endfacet
facet normal 0.0 0.0 -1.0
  outer loop
    vertex 88.59125118722888 122.32979724229355 0.0
    vertex 82.05535280236661 128.82979724229352 0.0
    vertex 89.22692567762043 123.15822436703974 0.0
  endloop
endfacet
facet normal 0.0 0.0 -1.0
  outer loop
    vertex 89.22692567762043 123.15822436703974 0.0
    vertex 82.05535280236661 128.82979724229352 0.0
    vertex 90.05535280236663 123.7938988574313 0.0
  endloop
endfacet
facet normal 0.0 0.0 -1.0
  outer loop
    vertex 90.05535280236663 123.7938988574313 0.0
    vertex 82.05535280236661 128.82979724229352 0.0
    vertex 91.02007662195655 124.19350054744983 0.0
  endloop
endfacet
facet normal 0.0 0.0 -1.0
  outer loop
    vertex 91.02007662195655 124.19350054744983 0.0
    vertex 82.05535280236661 128.82979724229352 0.0
    vertex 92.05535280236663 124.32979724229354 0.0
  endloop
endfacet
facet normal 0.0 0.0 -1.0
  outer loop
    vertex 92.05535280236663 124.32979724229354 0.0
    vertex 82.05535280236661 128.82979724229352 0.0
    vertex 132.0553528023666 128.82979724229352 0.0
  endloop
endfacet
facet normal 0.0 0.0 -1.0
  outer loop
    vertex 82.05535280236661 111.82979724229354 0.0
    vertex 88.59125118722888 122.32979724229355 0.0
    vertex 88.19164949721034 121.36507342270365 0.0
  endloop
endfacet
facet normal 0.0 0.0 -1.0
  outer loop
    vertex 82.05535280236661 111.82979724229354 0.0
    vertex 88.19164949721034 121.36507342270365 0.0
    vertex 88.05535280236661 120.32979724229357 0.0
  endloop
endfacet
facet normal 0.0 0.0 -1.0
  outer loop
    vertex 92.05535280236663 124.32979724229354 0.0
    vertex 132.0553528023666 128.82979724229352 0.0
    vertex 93.09062898277672 124.1935005474498 0.0
  endloop
endfacet
facet normal 0.0 0.0 -1.0
  outer loop
    vertex 93.09062898277672 124.1935005474498 0.0
    vertex 132.0553528023666 128.82979724229352 0.0
    vertex 94.05535280236663 123.79389885743127 0.0
  endloop
endfacet
facet normal 0.0 0.0 -1.0
  outer loop
    vertex 94.05535280236663 123.79389885743127 0.0
    vertex 132.0553528023666 128.82979724229352 0.0
    vertex 94.88377992711281 123.15822436703971 0.0
  endloop
endfacet
facet normal 0.0 0.0 -1.0
  outer loop
    vertex 94.88377992711281 123.15822436703971 0.0
    vertex 132.0553528023666 128.82979724229352 0.0
    vertex 95.51945441750438 122.32979724229351 0.0
  endloop
endfacet
facet normal 0.0 0.0 -1.0
  outer loop
    vertex 95.51945441750438 122.32979724229351 0.0
    vertex 132.0553528023666 128.82979724229352 0.0
    vertex 95.91905610752288 121.3650734227036 0.0
  endloop
endfacet
facet normal 0.0 0.0 -1.0
  outer loop
    vertex 95.91905610752288 121.3650734227036 0.0
    vertex 132.0553528023666 128.82979724229352 0.0
    vertex 96.05535280236661 120.32979724229352 0.0
  endloop
endfacet
facet normal 0.0 0.0 -1.0
  outer loop
    vertex 96.05535280236661 120.32979724229352 0.0
    vertex 132.0553528023666 128.82979724229352 0.0
    vertex 120.05535280236657 123.7938988574313 0.0
  endloop
endfacet
facet normal 0.0 0.0 -1.0
  outer loop
    vertex 96.05535280236661 120.32979724229352 0.0
    vertex 120.05535280236657 123.7938988574313 0.0
    vertex 119.2269256776204 123.15822436703971 0.0
  endloop
endfacet
facet normal 0.0 0.0 -1.0
  outer loop
    vertex 96.05535280236661 120.32979724229352 0.0
    vertex 119.2269256776204 123.15822436703971 0.0
    vertex 118.59125118722883 122.32979724229351 0.0
  endloop
endfacet
facet normal 0.0 0.0 -1.0
  outer loop
    vertex 96.05535280236661 120.32979724229352 0.0
    vertex 118.59125118722883 122.32979724229351 0.0
    vertex 118.19164949721034 121.3650734227036 0.0
  endloop
endfacet
facet normal 0.0 0.0 -1.0
  outer loop
    vertex 96.05535280236661 120.32979724229352 0.0
    vertex 118.19164949721034 121.3650734227036 0.0
    vertex 118.0553528023666 120.32979724229352 0.0
  endloop
endfacet
facet normal 0.0 0.0 -1.0
  outer loop
    vertex 120.05535280236657 123.7938988574313 0.0
    vertex 132.0553528023666 128.82979724229352 0.0
    vertex 121.0200766219565 124.1935005474498 0.0
  endloop
endfacet
facet normal 0.0 0.0 -1.0
  outer loop
    vertex 121.0200766219565 124.1935005474498 0.0
    vertex 132.0553528023666 128.82979724229352 0.0
    vertex 122.05535280236657 124.32979724229354 0.0
  endloop
endfacet
facet normal 0.0 0.0 -1.0
  outer loop
    vertex 122.05535280236657 124.32979724229354 0.0
    vertex 132.0553528023666 128.82979724229352 0.0
    vertex 123.09062898277666 124.19350054744983 0.0
  endloop
endfacet
facet normal 0.0 0.0 -1.0
  outer loop
    vertex 123.09062898277666 124.19350054744983 0.0
    vertex 132.0553528023666 128.82979724229352 0.0
    vertex 124.05535280236658 123.79389885743132 0.0
  endloop
endfacet
facet normal 0.0 0.0 -1.0
  outer loop
    vertex 124.05535280236658 123.79389885743132 0.0
    vertex 132.0553528023666 128.82979724229352 0.0
    vertex 124.88377992711277 123.15822436703974 0.0
  endloop
endfacet
facet normal 0.0 0.0 -1.0
  outer loop
    vertex 124.88377992711277 123.15822436703974 0.0
    vertex 132.0553528023666 128.82979724229352 0.0
    vertex 125.51945441750435 122.32979724229355 0.0
  endloop
endfacet
facet normal 0.0 0.0 -1.0
  outer loop
    vertex 125.51945441750435 122.32979724229355 0.0
    vertex 132.0553528023666 128.82979724229352 0.0
    vertex 125.91905610752288 121.36507342270365 0.0
  endloop
endfacet
facet normal 0.0 0.0 -1.0
  outer loop
    vertex 125.91905610752288 121.36507342270365 0.0
    vertex 132.0553528023666 128.82979724229352 0.0
    vertex 126.05535280236661 120.32979724229357 0.0
  endloop
endfacet
facet normal 0.0 0.0 -1.0
  outer loop
    vertex 82.05535280236661 111.82979724229354 0.0
    vertex 92.05535280236658 116.32979724229355 0.0
    vertex 132.0553528023666 111.82979724229354 0.0
  endloop
endfacet
facet normal 0.0 0.0 -1.0
  outer loop
    vertex 92.05535280236658 116.32979724229355 0.0
    vertex 82.05535280236661 111.82979724229354 0.0
    vertex 91.0200766219565 116.46609393713727 0.0
  endloop
endfacet
facet normal 0.0 0.0 -1.0
  outer loop
    vertex 91.0200766219565 116.46609393713727 0.0
    vertex 82.05535280236661 111.82979724229354 0.0
    vertex 90.05535280236658 116.8656956271558 0.0
  endloop
endfacet
facet normal 0.0 0.0 -1.0
  outer loop
    vertex 90.05535280236658 116.8656956271558 0.0
    vertex 82.05535280236661 111.82979724229354 0.0
    vertex 89.2269256776204 117.50137011754737 0.0
  endloop
endfacet
facet normal 0.0 0.0 -1.0
  outer loop
    vertex 89.2269256776204 117.50137011754737 0.0
    vertex 82.05535280236661 111.82979724229354 0.0
    vertex 88.59125118722885 118.32979724229357 0.0
  endloop
endfacet
facet normal 0.0 0.0 -1.0
  outer loop
    vertex 88.59125118722885 118.32979724229357 0.0
    vertex 82.05535280236661 111.82979724229354 0.0
    vertex 88.19164949721032 119.29452106188347 0.0
  endloop
endfacet
facet normal 0.0 0.0 -1.0
  outer loop
    vertex 88.19164949721032 119.29452106188347 0.0
    vertex 82.05535280236661 111.82979724229354 0.0
    vertex 88.05535280236661 120.32979724229357 0.0
  endloop
endfacet
facet normal 0.0 0.0 -1.0
  outer loop
    vertex 132.0553528023666 111.82979724229354 0.0
    vertex 92.05535280236658 116.32979724229355 0.0
    vertex 93.09062898277666 116.46609393713725 0.0
  endloop
endfacet
facet normal 0.0 0.0 -1.0
  outer loop
    vertex 132.0553528023666 111.82979724229354 0.0
    vertex 93.09062898277666 116.46609393713725 0.0
    vertex 94.05535280236658 116.86569562715579 0.0
  endloop
endfacet
facet normal 0.0 0.0 -1.0
  outer loop
    vertex 132.0553528023666 111.82979724229354 0.0
    vertex 94.05535280236658 116.86569562715579 0.0
    vertex 94.88377992711278 117.50137011754734 0.0
  endloop
endfacet
facet normal 0.0 0.0 -1.0
  outer loop
    vertex 132.0553528023666 111.82979724229354 0.0
    vertex 94.88377992711278 117.50137011754734 0.0
    vertex 95.51945441750435 118.32979724229352 0.0
  endloop
endfacet
facet normal 0.0 0.0 -1.0
  outer loop
    vertex 132.0553528023666 111.82979724229354 0.0
    vertex 95.51945441750435 118.32979724229352 0.0
    vertex 95.91905610752288 119.29452106188343 0.0
  endloop
endfacet
facet normal 0.0 0.0 -1.0
  outer loop
    vertex 132.0553528023666 111.82979724229354 0.0
    vertex 95.91905610752288 119.29452106188343 0.0
    vertex 96.05535280236661 120.32979724229352 0.0
  endloop
endfacet
facet normal 0.0 0.0 -1.0
  outer loop
    vertex 132.0553528023666 111.82979724229354 0.0
    vertex 96.05535280236661 120.32979724229352 0.0
    vertex 120.05535280236663 116.86569562715576 0.0
  endloop
endfacet
facet normal 0.0 0.0 -1.0
  outer loop
    vertex 120.05535280236663 116.86569562715576 0.0
    vertex 96.05535280236661 120.32979724229352 0.0
    vertex 119.22692567762041 117.50137011754734 0.0
  endloop
endfacet
facet normal 0.0 0.0 -1.0
  outer loop
    vertex 119.22692567762041 117.50137011754734 0.0
    vertex 96.05535280236661 120.32979724229352 0.0
    vertex 118.59125118722886 118.32979724229352 0.0
  endloop
endfacet
facet normal 0.0 0.0 -1.0
  outer loop
    vertex 118.59125118722886 118.32979724229352 0.0
    vertex 96.05535280236661 120.32979724229352 0.0
    vertex 118.19164949721034 119.29452106188343 0.0
  endloop
endfacet
facet normal 0.0 0.0 -1.0
  outer loop
    vertex 118.19164949721034 119.29452106188343 0.0
    vertex 96.05535280236661 120.32979724229352 0.0
    vertex 118.0553528023666 120.32979724229352 0.0
  endloop
endfacet
facet normal 0.0 0.0 -1.0
  outer loop
    vertex 132.0553528023666 111.82979724229354 0.0
    vertex 120.05535280236663 116.86569562715576 0.0
    vertex 121.02007662195652 116.46609393713725 0.0
  endloop
endfacet
facet normal 0.0 0.0 -1.0
  outer loop
    vertex 132.0553528023666 111.82979724229354 0.0
    vertex 121.02007662195652 116.46609393713725 0.0
    vertex 122.05535280236661 116.32979724229355 0.0
  endloop
endfacet
facet normal 0.0 0.0 -1.0
  outer loop
    vertex 132.0553528023666 111.82979724229354 0.0
    vertex 122.05535280236661 116.32979724229355 0.0
    vertex 123.0906289827767 116.46609393713727 0.0
  endloop
endfacet
facet normal 0.0 0.0 -1.0
  outer loop
    vertex 132.0553528023666 111.82979724229354 0.0
    vertex 123.0906289827767 116.46609393713727 0.0
    vertex 124.05535280236661 116.86569562715579 0.0
  endloop
endfacet
facet normal 0.0 0.0 -1.0
  outer loop
    vertex 132.0553528023666 111.82979724229354 0.0
    vertex 124.05535280236661 116.86569562715579 0.0
    vertex 124.88377992711281 117.50137011754737 0.0
  endloop
endfacet
facet normal 0.0 0.0 -1.0
  outer loop
    vertex 132.0553528023666 111.82979724229354 0.0
    vertex 124.88377992711281 117.50137011754737 0.0
    vertex 125.51945441750438 118.32979724229357 0.0
  endloop
endfacet
facet normal 0.0 0.0 -1.0
  outer loop
    vertex 132.0553528023666 111.82979724229354 0.0
    vertex 125.51945441750438 118.32979724229357 0.0
    vertex 125.9190561075229 119.29452106188347 0.0
  endloop
endfacet
facet normal 0.0 0.0 -1.0
  outer loop
    vertex 132.0553528023666 111.82979724229354 0.0
    vertex 125.9190561075229 119.29452106188347 0.0
    vertex 126.05535280236661 120.32979724229357 0.0
  endloop
endfacet
facet normal 0.0 0.0 -1.0
  outer loop
    vertex 132.0553528023666 111.82979724229354 0.0
    vertex 126.05535280236661 120.32979724229357 0.0
    vertex 132.0553528023666 128.82979724229352 0.0
  endloop
endfacet
facet normal -0.0 -1.0 -0.0
  outer loop
    vertex 132.0553528023666 111.82979724229354 3.0
    vertex 82.05535280236661 111.82979724229354 0.0
    vertex 132.0553528023666 111.82979724229354 0.0
  endloop
endfacet
facet normal -0.0 -1.0 -0.0
  outer loop
    vertex 82.05535280236661 111.82979724229354 0.0
    vertex 132.0553528023666 111.82979724229354 3.0
    vertex 82.05535280236661 111.82979724229354 3.0
  endloop
endfacet
facet normal 0.0 0.0 1.0
  outer loop
    vertex 82.05535280236661 111.82979724229354 3.0
    vertex 88.59125118722885 118.32979724229357 3.0
    vertex 82.05535280236661 128.82979724229352 3.0
  endloop
endfacet
facet normal 0.0 0.0 1.0
  outer loop
    vertex 88.59125118722885 118.32979724229357 3.0
    vertex 82.05535280236661 111.82979724229354 3.0
    vertex 89.2269256776204 117.50137011754737 3.0
  endloop
endfacet
facet normal 0.0 0.0 1.0
  outer loop
    vertex 89.2269256776204 117.50137011754737 3.0
    vertex 82.05535280236661 111.82979724229354 3.0
    vertex 90.05535280236658 116.8656956271558 3.0
  endloop
endfacet
facet normal 0.0 0.0 1.0
  outer loop
    vertex 90.05535280236658 116.8656956271558 3.0
    vertex 82.05535280236661 111.82979724229354 3.0
    vertex 91.0200766219565 116.46609393713727 3.0
  endloop
endfacet
facet normal 0.0 0.0 1.0
  outer loop
    vertex 91.0200766219565 116.46609393713727 3.0
    vertex 82.05535280236661 111.82979724229354 3.0
    vertex 92.05535280236658 116.32979724229355 3.0
  endloop
endfacet
facet normal 0.0 0.0 1.0
  outer loop
    vertex 92.05535280236658 116.32979724229355 3.0
    vertex 82.05535280236661 111.82979724229354 3.0
    vertex 132.0553528023666 111.82979724229354 3.0
  endloop
endfacet
facet normal 0.0 0.0 1.0
  outer loop
    vertex 82.05535280236661 128.82979724229352 3.0
    vertex 88.59125118722885 118.32979724229357 3.0
    vertex 88.19164949721032 119.29452106188347 3.0
  endloop
endfacet
facet normal 0.0 0.0 1.0
  outer loop
    vertex 82.05535280236661 128.82979724229352 3.0
    vertex 88.19164949721032 119.29452106188347 3.0
    vertex 88.05535280236661 120.32979724229357 3.0
  endloop
endfacet
facet normal 0.0 0.0 1.0
  outer loop
    vertex 92.05535280236658 116.32979724229355 3.0
    vertex 132.0553528023666 111.82979724229354 3.0
    vertex 93.09062898277666 116.46609393713725 3.0
  endloop
endfacet
facet normal 0.0 0.0 1.0
  outer loop
    vertex 93.09062898277666 116.46609393713725 3.0
    vertex 132.0553528023666 111.82979724229354 3.0
    vertex 94.05535280236658 116.86569562715579 3.0
  endloop
endfacet
facet normal 0.0 0.0 1.0
  outer loop
    vertex 94.05535280236658 116.86569562715579 3.0
    vertex 132.0553528023666 111.82979724229354 3.0
    vertex 94.88377992711278 117.50137011754734 3.0
  endloop
endfacet
facet normal 0.0 0.0 1.0
  outer loop
    vertex 94.88377992711278 117.50137011754734 3.0
    vertex 132.0553528023666 111.82979724229354 3.0
    vertex 95.51945441750435 118.32979724229352 3.0
  endloop
endfacet
facet normal 0.0 0.0 1.0
  outer loop
    vertex 95.51945441750435 118.32979724229352 3.0
    vertex 132.0553528023666 111.82979724229354 3.0
    vertex 95.91905610752288 119.29452106188343 3.0
  endloop
endfacet
facet normal 0.0 0.0 1.0
  outer loop
    vertex 95.91905610752288 119.29452106188343 3.0
    vertex 132.0553528023666 111.82979724229354 3.0
    vertex 96.05535280236661 120.32979724229352 3.0
  endloop
endfacet
facet normal 0.0 0.0 1.0
  outer loop
    vertex 96.05535280236661 120.32979724229352 3.0
    vertex 132.0553528023666 111.82979724229354 3.0
    vertex 120.05535280236663 116.86569562715576 3.0
  endloop
endfacet
facet normal 0.0 0.0 1.0
  outer loop
    vertex 96.05535280236661 120.32979724229352 3.0
    vertex 120.05535280236663 116.86569562715576 3.0
    vertex 119.22692567762041 117.50137011754734 3.0
  endloop
endfacet
facet normal 0.0 0.0 1.0
  outer loop
    vertex 96.05535280236661 120.32979724229352 3.0
    vertex 119.22692567762041 117.50137011754734 3.0
    vertex 118.59125118722886 118.32979724229352 3.0
  endloop
endfacet
facet normal 0.0 0.0 1.0
  outer loop
    vertex 96.05535280236661 120.32979724229352 3.0
    vertex 118.59125118722886 118.32979724229352 3.0
    vertex 118.19164949721034 119.29452106188343 3.0
  endloop
endfacet
facet normal 0.0 0.0 1.0
  outer loop
    vertex 96.05535280236661 120.32979724229352 3.0
    vertex 118.19164949721034 119.29452106188343 3.0
    vertex 118.0553528023666 120.32979724229352 3.0
  endloop
endfacet
facet normal 0.0 0.0 1.0
  outer loop
    vertex 120.05535280236663 116.86569562715576 3.0
    vertex 132.0553528023666 111.82979724229354 3.0
    vertex 121.02007662195652 116.46609393713725 3.0
  endloop
endfacet
facet normal 0.0 0.0 1.0
  outer loop
    vertex 121.02007662195652 116.46609393713725 3.0
    vertex 132.0553528023666 111.82979724229354 3.0
    vertex 122.05535280236661 116.32979724229355 3.0
  endloop
endfacet
facet normal 0.0 0.0 1.0
  outer loop
    vertex 122.05535280236661 116.32979724229355 3.0
    vertex 132.0553528023666 111.82979724229354 3.0
    vertex 123.0906289827767 116.46609393713727 3.0
  endloop
endfacet
facet normal 0.0 0.0 1.0
  outer loop
    vertex 123.0906289827767 116.46609393713727 3.0
    vertex 132.0553528023666 111.82979724229354 3.0
    vertex 124.05535280236661 116.86569562715579 3.0
  endloop
endfacet
facet normal 0.0 0.0 1.0
  outer loop
    vertex 124.05535280236661 116.86569562715579 3.0
    vertex 132.0553528023666 111.82979724229354 3.0
    vertex 124.88377992711281 117.50137011754737 3.0
  endloop
endfacet
facet normal 0.0 0.0 1.0
  outer loop
    vertex 124.88377992711281 117.50137011754737 3.0
    vertex 132.0553528023666 111.82979724229354 3.0
    vertex 125.51945441750438 118.32979724229357 3.0
  endloop
endfacet
facet normal 0.0 0.0 1.0
  outer loop
    vertex 125.51945441750438 118.32979724229357 3.0
    vertex 132.0553528023666 111.82979724229354 3.0
    vertex 125.9190561075229 119.29452106188347 3.0
  endloop
endfacet
facet normal 0.0 0.0 1.0
  outer loop
    vertex 125.9190561075229 119.29452106188347 3.0
    vertex 132.0553528023666 111.82979724229354 3.0
    vertex 126.05535280236661 120.32979724229357 3.0
  endloop
endfacet
facet normal 0.0 0.0 1.0
  outer loop
    vertex 82.05535280236661 128.82979724229352 3.0
    vertex 92.05535280236663 124.32979724229354 3.0
    vertex 132.0553528023666 128.82979724229352 3.0
  endloop
endfacet
facet normal 0.0 0.0 1.0
  outer loop
    vertex 92.05535280236663 124.32979724229354 3.0
    vertex 82.05535280236661 128.82979724229352 3.0
    vertex 91.02007662195655 124.19350054744983 3.0
  endloop
endfacet
facet normal 0.0 0.0 1.0
  outer loop
    vertex 91.02007662195655 124.19350054744983 3.0
    vertex 82.05535280236661 128.82979724229352 3.0
    vertex 90.05535280236663 123.7938988574313 3.0
  endloop
endfacet
facet normal 0.0 0.0 1.0
  outer loop
    vertex 90.05535280236663 123.7938988574313 3.0
    vertex 82.05535280236661 128.82979724229352 3.0
    vertex 89.22692567762043 123.15822436703974 3.0
  endloop
endfacet
facet normal 0.0 0.0 1.0
  outer loop
    vertex 89.22692567762043 123.15822436703974 3.0
    vertex 82.05535280236661 128.82979724229352 3.0
    vertex 88.59125118722888 122.32979724229355 3.0
  endloop
endfacet
facet normal 0.0 0.0 1.0
  outer loop
    vertex 88.59125118722888 122.32979724229355 3.0
    vertex 82.05535280236661 128.82979724229352 3.0
    vertex 88.19164949721034 121.36507342270365 3.0
  endloop
endfacet
facet normal 0.0 0.0 1.0
  outer loop
    vertex 88.19164949721034 121.36507342270365 3.0
    vertex 82.05535280236661 128.82979724229352 3.0
    vertex 88.05535280236661 120.32979724229357 3.0
  endloop
endfacet
facet normal 0.0 0.0 1.0
  outer loop
    vertex 132.0553528023666 128.82979724229352 3.0
    vertex 92.05535280236663 124.32979724229354 3.0
    vertex 93.09062898277672 124.1935005474498 3.0
  endloop
endfacet
facet normal 0.0 0.0 1.0
  outer loop
    vertex 132.0553528023666 128.82979724229352 3.0
    vertex 93.09062898277672 124.1935005474498 3.0
    vertex 94.05535280236663 123.79389885743127 3.0
  endloop
endfacet
facet normal 0.0 0.0 1.0
  outer loop
    vertex 132.0553528023666 128.82979724229352 3.0
    vertex 94.05535280236663 123.79389885743127 3.0
    vertex 94.88377992711281 123.15822436703971 3.0
  endloop
endfacet
facet normal 0.0 0.0 1.0
  outer loop
    vertex 132.0553528023666 128.82979724229352 3.0
    vertex 94.88377992711281 123.15822436703971 3.0
    vertex 95.51945441750438 122.32979724229351 3.0
  endloop
endfacet
facet normal 0.0 0.0 1.0
  outer loop
    vertex 132.0553528023666 128.82979724229352 3.0
    vertex 95.51945441750438 122.32979724229351 3.0
    vertex 95.91905610752288 121.3650734227036 3.0
  endloop
endfacet
facet normal 0.0 0.0 1.0
  outer loop
    vertex 132.0553528023666 128.82979724229352 3.0
    vertex 95.91905610752288 121.3650734227036 3.0
    vertex 96.05535280236661 120.32979724229352 3.0
  endloop
endfacet
facet normal 0.0 0.0 1.0
  outer loop
    vertex 132.0553528023666 128.82979724229352 3.0
    vertex 96.05535280236661 120.32979724229352 3.0
    vertex 120.05535280236657 123.7938988574313 3.0
  endloop
endfacet
facet normal 0.0 0.0 1.0
  outer loop
    vertex 120.05535280236657 123.7938988574313 3.0
    vertex 96.05535280236661 120.32979724229352 3.0
    vertex 119.2269256776204 123.15822436703971 3.0
  endloop
endfacet
facet normal 0.0 0.0 1.0
  outer loop
    vertex 119.2269256776204 123.15822436703971 3.0
    vertex 96.05535280236661 120.32979724229352 3.0
    vertex 118.59125118722883 122.32979724229351 3.0
  endloop
endfacet
facet normal 0.0 0.0 1.0
  outer loop
    vertex 118.59125118722883 122.32979724229351 3.0
    vertex 96.05535280236661 120.32979724229352 3.0
    vertex 118.19164949721034 121.3650734227036 3.0
  endloop
endfacet
facet normal 0.0 0.0 1.0
  outer loop
    vertex 118.19164949721034 121.3650734227036 3.0
    vertex 96.05535280236661 120.32979724229352 3.0
    vertex 118.0553528023666 120.32979724229352 3.0
  endloop
endfacet
facet normal 0.0 0.0 1.0
  outer loop
    vertex 132.0553528023666 128.82979724229352 3.0
    vertex 120.05535280236657 123.7938988574313 3.0
    vertex 121.0200766219565 124.1935005474498 3.0
  endloop
endfacet
facet normal 0.0 0.0 1.0
  outer loop
    vertex 132.0553528023666 128.82979724229352 3.0
    vertex 121.0200766219565 124.1935005474498 3.0
    vertex 122.05535280236657 124.32979724229354 3.0
  endloop
endfacet
facet normal 0.0 0.0 1.0
  outer loop
    vertex 132.0553528023666 128.82979724229352 3.0
    vertex 122.05535280236657 124.32979724229354 3.0
    vertex 123.09062898277666 124.19350054744983 3.0
  endloop
endfacet
facet normal 0.0 0.0 1.0
  outer loop
    vertex 132.0553528023666 128.82979724229352 3.0
    vertex 123.09062898277666 124.19350054744983 3.0
    vertex 124.05535280236658 123.79389885743132 3.0
  endloop
endfacet
facet normal 0.0 0.0 1.0
  outer loop
    vertex 132.0553528023666 128.82979724229352 3.0
    vertex 124.05535280236658 123.79389885743132 3.0
    vertex 124.88377992711277 123.15822436703974 3.0
  endloop
endfacet
facet normal 0.0 0.0 1.0
  outer loop
    vertex 132.0553528023666 128.82979724229352 3.0
    vertex 124.88377992711277 123.15822436703974 3.0
    vertex 125.51945441750435 122.32979724229355 3.0
  endloop
endfacet
facet normal 0.0 0.0 1.0
  outer loop
    vertex 132.0553528023666 128.82979724229352 3.0
    vertex 125.51945441750435 122.32979724229355 3.0
    vertex 125.91905610752288 121.36507342270365 3.0
  endloop
endfacet
facet normal 0.0 0.0 1.0
  outer loop
    vertex 132.0553528023666 128.82979724229352 3.0
    vertex 125.91905610752288 121.36507342270365 3.0
    vertex 126.05535280236661 120.32979724229357 3.0
  endloop
endfacet
facet normal 0.0 0.0 1.0
  outer loop
    vertex 132.0553528023666 128.82979724229352 3.0
    vertex 126.05535280236661 120.32979724229357 3.0
    vertex 132.0553528023666 111.82979724229354 3.0
  endloop
endfacet
facet normal 0.9914448613738093 0.13052619222006137 0.0
  outer loop
    vertex 118.0553528023666 120.32979724229352 0.0
    vertex 118.19164949721034 119.29452106188343 3.0
    vertex 118.19164949721034 119.29452106188343 0.0
  endloop
endfacet
facet normal 0.9914448613738093 0.13052619222006137 0.0
  outer loop
    vertex 118.19164949721034 119.29452106188343 3.0
    vertex 118.0553528023666 120.32979724229352 0.0
    vertex 118.0553528023666 120.32979724229352 3.0
  endloop
endfacet
facet normal 0.0 1.0 0.0
  outer loop
    vertex 82.05535280236661 128.82979724229352 3.0
    vertex 132.0553528023666 128.82979724229352 0.0
    vertex 82.05535280236661 128.82979724229352 0.0
  endloop
endfacet
facet normal 0.0 1.0 0.0
  outer loop
    vertex 132.0553528023666 128.82979724229352 0.0
    vertex 82.05535280236661 128.82979724229352 3.0
    vertex 132.0553528023666 128.82979724229352 3.0
  endloop
endfacet
facet normal -1.0 0.0 0.0
  outer loop
    vertex 82.05535280236661 128.82979724229352 3.0
    vertex 82.05535280236661 111.82979724229354 0.0
    vertex 82.05535280236661 111.82979724229354 3.0
  endloop
endfacet
facet normal -1.0 0.0 0.0
  outer loop
    vertex 82.05535280236661 111.82979724229354 0.0
    vertex 82.05535280236661 128.82979724229352 3.0
    vertex 82.05535280236661 128.82979724229352 0.0
  endloop
endfacet
facet normal -0.9238795325112826 0.3826834323650997 0.0
  outer loop
    vertex 95.91905610752288 119.29452106188343 3.0
    vertex 95.51945441750435 118.32979724229352 0.0
    vertex 95.51945441750435 118.32979724229352 3.0
  endloop
endfacet
facet normal -0.9238795325112826 0.3826834323650997 0.0
  outer loop
    vertex 95.51945441750435 118.32979724229352 0.0
    vertex 95.91905610752288 119.29452106188343 3.0
    vertex 95.91905610752288 119.29452106188343 0.0
  endloop
endfacet
facet normal -0.6087614290087315 0.7933533402912268 0.0
  outer loop
    vertex 124.05535280236661 116.86569562715579 3.0
    vertex 124.88377992711281 117.50137011754737 0.0
    vertex 124.05535280236661 116.86569562715579 0.0
  endloop
endfacet
facet normal -0.6087614290087315 0.7933533402912268 0.0
  outer loop
    vertex 124.88377992711281 117.50137011754737 0.0
    vertex 124.05535280236661 116.86569562715579 3.0
    vertex 124.88377992711281 117.50137011754737 3.0
  endloop
endfacet
facet normal -0.13052619222005143 -0.9914448613738105 -0.0
  outer loop
    vertex 93.09062898277672 124.1935005474498 3.0
    vertex 92.05535280236663 124.32979724229354 0.0
    vertex 93.09062898277672 124.1935005474498 0.0
  endloop
endfacet
facet normal -0.13052619222005143 -0.9914448613738105 -0.0
  outer loop
    vertex 92.05535280236663 124.32979724229354 0.0
    vertex 93.09062898277672 124.1935005474498 3.0
    vertex 92.05535280236663 124.32979724229354 3.0
  endloop
endfacet
facet normal 0.6087614290087315 0.7933533402912268 0.0
  outer loop
    vertex 119.22692567762041 117.50137011754734 3.0
    vertex 120.05535280236663 116.86569562715576 0.0
    vertex 119.22692567762041 117.50137011754734 0.0
  endloop
endfacet
facet normal 0.6087614290087315 0.7933533402912268 0.0
  outer loop
    vertex 120.05535280236663 116.86569562715576 0.0
    vertex 119.22692567762041 117.50137011754734 3.0
    vertex 120.05535280236663 116.86569562715576 3.0
  endloop
endfacet
facet normal 0.9238795325112865 0.38268343236509056 0.0
  outer loop
    vertex 88.19164949721032 119.29452106188347 0.0
    vertex 88.59125118722885 118.32979724229357 3.0
    vertex 88.59125118722885 118.32979724229357 0.0
  endloop
endfacet
facet normal 0.9238795325112865 0.38268343236509056 0.0
  outer loop
    vertex 88.59125118722885 118.32979724229357 3.0
    vertex 88.19164949721032 119.29452106188347 0.0
    vertex 88.19164949721032 119.29452106188347 3.0
  endloop
endfacet
facet normal -0.13052619222003092 0.9914448613738132 0.0
  outer loop
    vertex 92.05535280236658 116.32979724229355 3.0
    vertex 93.09062898277666 116.46609393713725 0.0
    vertex 92.05535280236658 116.32979724229355 0.0
  endloop
endfacet
facet normal -0.13052619222003092 0.9914448613738132 0.0
  outer loop
    vertex 93.09062898277666 116.46609393713725 0.0
    vertex 92.05535280236658 116.32979724229355 3.0
    vertex 93.09062898277666 116.46609393713725 3.0
  endloop
endfacet
facet normal -0.9238795325112807 -0.3826834323651044 -0.0
  outer loop
    vertex 125.51945441750435 122.32979724229355 3.0
    vertex 125.91905610752288 121.36507342270365 0.0
    vertex 125.91905610752288 121.36507342270365 3.0
  endloop
endfacet
facet normal -0.9238795325112807 -0.3826834323651044 -0.0
  outer loop
    vertex 125.91905610752288 121.36507342270365 0.0
    vertex 125.51945441750435 122.32979724229355 3.0
    vertex 125.51945441750435 122.32979724229355 0.0
  endloop
endfacet
facet normal 0.38268343236510055 -0.9238795325112824 0.0
  outer loop
    vertex 91.02007662195655 124.19350054744983 3.0
    vertex 90.05535280236663 123.7938988574313 0.0
    vertex 91.02007662195655 124.19350054744983 0.0
  endloop
endfacet
facet normal 0.38268343236510055 -0.9238795325112824 0.0
  outer loop
    vertex 90.05535280236663 123.7938988574313 0.0
    vertex 91.02007662195655 124.19350054744983 3.0
    vertex 90.05535280236663 123.7938988574313 3.0
  endloop
endfacet
facet normal 0.7933533402912307 -0.6087614290087265 0.0
  outer loop
    vertex 89.22692567762043 123.15822436703974 0.0
    vertex 88.59125118722888 122.32979724229355 3.0
    vertex 88.59125118722888 122.32979724229355 0.0
  endloop
endfacet
facet normal 0.7933533402912307 -0.6087614290087265 0.0
  outer loop
    vertex 88.59125118722888 122.32979724229355 3.0
    vertex 89.22692567762043 123.15822436703974 0.0
    vertex 89.22692567762043 123.15822436703974 3.0
  endloop
endfacet
facet normal -0.9914448613738099 0.13052619222005607 0.0
  outer loop
    vertex 96.05535280236661 120.32979724229352 3.0
    vertex 95.91905610752288 119.29452106188343 0.0
    vertex 95.91905610752288 119.29452106188343 3.0
  endloop
endfacet
facet normal -0.9914448613738099 0.13052619222005607 0.0
  outer loop
    vertex 95.91905610752288 119.29452106188343 0.0
    vertex 96.05535280236661 120.32979724229352 3.0
    vertex 96.05535280236661 120.32979724229352 0.0
  endloop
endfacet
facet normal -0.3826834323651025 -0.9238795325112816 -0.0
  outer loop
    vertex 94.05535280236663 123.79389885743127 3.0
    vertex 93.09062898277672 124.1935005474498 0.0
    vertex 94.05535280236663 123.79389885743127 0.0
  endloop
endfacet
facet normal -0.3826834323651025 -0.9238795325112816 -0.0
  outer loop
    vertex 93.09062898277672 124.1935005474498 0.0
    vertex 94.05535280236663 123.79389885743127 3.0
    vertex 93.09062898277672 124.1935005474498 3.0
  endloop
endfacet
facet normal -0.9914448613738106 -0.13052619222005077 -0.0
  outer loop
    vertex 125.91905610752288 121.36507342270365 3.0
    vertex 126.05535280236661 120.32979724229357 0.0
    vertex 126.05535280236661 120.32979724229357 3.0
  endloop
endfacet
facet normal -0.9914448613738106 -0.13052619222005077 -0.0
  outer loop
    vertex 126.05535280236661 120.32979724229357 0.0
    vertex 125.91905610752288 121.36507342270365 3.0
    vertex 125.91905610752288 121.36507342270365 0.0
  endloop
endfacet
facet normal -0.38268343236508207 0.92387953251129 0.0
  outer loop
    vertex 123.0906289827767 116.46609393713727 3.0
    vertex 124.05535280236661 116.86569562715579 0.0
    vertex 123.0906289827767 116.46609393713727 0.0
  endloop
endfacet
facet normal -0.38268343236508207 0.92387953251129 0.0
  outer loop
    vertex 124.05535280236661 116.86569562715579 0.0
    vertex 123.0906289827767 116.46609393713727 3.0
    vertex 124.05535280236661 116.86569562715579 3.0
  endloop
endfacet
facet normal 0.13052619222003023 -0.9914448613738134 0.0
  outer loop
    vertex 92.05535280236663 124.32979724229354 3.0
    vertex 91.02007662195655 124.19350054744983 0.0
    vertex 92.05535280236663 124.32979724229354 0.0
  endloop
endfacet
facet normal 0.13052619222003023 -0.9914448613738134 0.0
  outer loop
    vertex 91.02007662195655 124.19350054744983 0.0
    vertex 92.05535280236663 124.32979724229354 3.0
    vertex 91.02007662195655 124.19350054744983 3.0
  endloop
endfacet
facet normal 0.3826834323651025 0.9238795325112816 0.0
  outer loop
    vertex 90.05535280236658 116.8656956271558 3.0
    vertex 91.0200766219565 116.46609393713727 0.0
    vertex 90.05535280236658 116.8656956271558 0.0
  endloop
endfacet
facet normal 0.3826834323651025 0.9238795325112816 0.0
  outer loop
    vertex 91.0200766219565 116.46609393713727 0.0
    vertex 90.05535280236658 116.8656956271558 3.0
    vertex 91.0200766219565 116.46609393713727 3.0
  endloop
endfacet
facet normal -0.7933533402912413 0.6087614290087128 0.0
  outer loop
    vertex 125.51945441750438 118.32979724229357 3.0
    vertex 124.88377992711281 117.50137011754737 0.0
    vertex 124.88377992711281 117.50137011754737 3.0
  endloop
endfacet
facet normal -0.7933533402912413 0.6087614290087128 0.0
  outer loop
    vertex 124.88377992711281 117.50137011754737 0.0
    vertex 125.51945441750438 118.32979724229357 3.0
    vertex 125.51945441750438 118.32979724229357 0.0
  endloop
endfacet
facet normal 0.9914448613738099 -0.13052619222005607 0.0
  outer loop
    vertex 88.19164949721034 121.36507342270365 0.0
    vertex 88.05535280236661 120.32979724229357 3.0
    vertex 88.05535280236661 120.32979724229357 0.0
  endloop
endfacet
facet normal 0.9914448613738099 -0.13052619222005607 0.0
  outer loop
    vertex 88.05535280236661 120.32979724229357 3.0
    vertex 88.19164949721034 121.36507342270365 0.0
    vertex 88.19164949721034 121.36507342270365 3.0
  endloop
endfacet
facet normal 0.9238795325112826 -0.3826834323650997 0.0
  outer loop
    vertex 88.59125118722888 122.32979724229355 0.0
    vertex 88.19164949721034 121.36507342270365 3.0
    vertex 88.19164949721034 121.36507342270365 0.0
  endloop
endfacet
facet normal 0.9238795325112826 -0.3826834323650997 0.0
  outer loop
    vertex 88.19164949721034 121.36507342270365 3.0
    vertex 88.59125118722888 122.32979724229355 0.0
    vertex 88.59125118722888 122.32979724229355 3.0
  endloop
endfacet
facet normal 0.13052619222005216 -0.9914448613738104 0.0
  outer loop
    vertex 122.05535280236657 124.32979724229354 3.0
    vertex 121.0200766219565 124.1935005474498 0.0
    vertex 122.05535280236657 124.32979724229354 0.0
  endloop
endfacet
facet normal 0.13052619222005216 -0.9914448613738104 0.0
  outer loop
    vertex 121.0200766219565 124.1935005474498 0.0
    vertex 122.05535280236657 124.32979724229354 3.0
    vertex 121.0200766219565 124.1935005474498 3.0
  endloop
endfacet
facet normal -0.13052619222005216 0.9914448613738104 0.0
  outer loop
    vertex 122.05535280236661 116.32979724229355 3.0
    vertex 123.0906289827767 116.46609393713727 0.0
    vertex 122.05535280236661 116.32979724229355 0.0
  endloop
endfacet
facet normal -0.13052619222005216 0.9914448613738104 0.0
  outer loop
    vertex 123.0906289827767 116.46609393713727 0.0
    vertex 122.05535280236661 116.32979724229355 3.0
    vertex 123.0906289827767 116.46609393713727 3.0
  endloop
endfacet
facet normal 0.6087614290087153 -0.7933533402912393 0.0
  outer loop
    vertex 90.05535280236663 123.7938988574313 3.0
    vertex 89.22692567762043 123.15822436703974 0.0
    vertex 90.05535280236663 123.7938988574313 0.0
  endloop
endfacet
facet normal 0.6087614290087153 -0.7933533402912393 0.0
  outer loop
    vertex 89.22692567762043 123.15822436703974 0.0
    vertex 90.05535280236663 123.7938988574313 3.0
    vertex 89.22692567762043 123.15822436703974 3.0
  endloop
endfacet
facet normal -0.7933533402912413 -0.6087614290087128 -0.0
  outer loop
    vertex 94.88377992711281 123.15822436703971 3.0
    vertex 95.51945441750438 122.32979724229351 0.0
    vertex 95.51945441750438 122.32979724229351 3.0
  endloop
endfacet
facet normal -0.7933533402912413 -0.6087614290087128 -0.0
  outer loop
    vertex 95.51945441750438 122.32979724229351 0.0
    vertex 94.88377992711281 123.15822436703971 3.0
    vertex 94.88377992711281 123.15822436703971 0.0
  endloop
endfacet
facet normal 0.7933533402912413 -0.6087614290087128 0.0
  outer loop
    vertex 119.2269256776204 123.15822436703971 0.0
    vertex 118.59125118722883 122.32979724229351 3.0
    vertex 118.59125118722883 122.32979724229351 0.0
  endloop
endfacet
facet normal 0.7933533402912413 -0.6087614290087128 0.0
  outer loop
    vertex 118.59125118722883 122.32979724229351 3.0
    vertex 119.2269256776204 123.15822436703971 0.0
    vertex 119.2269256776204 123.15822436703971 3.0
  endloop
endfacet
facet normal 0.38268343236508207 0.92387953251129 0.0
  outer loop
    vertex 120.05535280236663 116.86569562715576 3.0
    vertex 121.02007662195652 116.46609393713725 0.0
    vertex 120.05535280236663 116.86569562715576 0.0
  endloop
endfacet
facet normal 0.38268343236508207 0.92387953251129 0.0
  outer loop
    vertex 121.02007662195652 116.46609393713725 0.0
    vertex 120.05535280236663 116.86569562715576 3.0
    vertex 121.02007662195652 116.46609393713725 3.0
  endloop
endfacet
facet normal 0.9238795325112845 0.3826834323650951 0.0
  outer loop
    vertex 118.19164949721034 119.29452106188343 0.0
    vertex 118.59125118722886 118.32979724229352 3.0
    vertex 118.59125118722886 118.32979724229352 0.0
  endloop
endfacet
facet normal 0.9238795325112845 0.3826834323650951 0.0
  outer loop
    vertex 118.59125118722886 118.32979724229352 3.0
    vertex 118.19164949721034 119.29452106188343 0.0
    vertex 118.19164949721034 119.29452106188343 3.0
  endloop
endfacet
facet normal 0.9914448613738106 -0.13052619222005077 0.0
  outer loop
    vertex 118.19164949721034 121.3650734227036 0.0
    vertex 118.0553528023666 120.32979724229352 3.0
    vertex 118.0553528023666 120.32979724229352 0.0
  endloop
endfacet
facet normal 0.9914448613738106 -0.13052619222005077 0.0
  outer loop
    vertex 118.0553528023666 120.32979724229352 3.0
    vertex 118.19164949721034 121.3650734227036 0.0
    vertex 118.19164949721034 121.3650734227036 3.0
  endloop
endfacet
facet normal -0.6087614290087315 -0.7933533402912268 -0.0
  outer loop
    vertex 124.88377992711277 123.15822436703974 3.0
    vertex 124.05535280236658 123.79389885743132 0.0
    vertex 124.88377992711277 123.15822436703974 0.0
  endloop
endfacet
facet normal -0.6087614290087315 -0.7933533402912268 -0.0
  outer loop
    vertex 124.05535280236658 123.79389885743132 0.0
    vertex 124.88377992711277 123.15822436703974 3.0
    vertex 124.05535280236658 123.79389885743132 3.0
  endloop
endfacet
facet normal 0.7933533402912281 0.60876142900873 0.0
  outer loop
    vertex 118.59125118722886 118.32979724229352 0.0
    vertex 119.22692567762041 117.50137011754734 3.0
    vertex 119.22692567762041 117.50137011754734 0.0
  endloop
endfacet
facet normal 0.7933533402912281 0.60876142900873 0.0
  outer loop
    vertex 119.22692567762041 117.50137011754734 3.0
    vertex 118.59125118722886 118.32979724229352 0.0
    vertex 118.59125118722886 118.32979724229352 3.0
  endloop
endfacet
facet normal -0.9238795325112865 -0.38268343236509056 -0.0
  outer loop
    vertex 95.51945441750438 122.32979724229351 3.0
    vertex 95.91905610752288 121.3650734227036 0.0
    vertex 95.91905610752288 121.3650734227036 3.0
  endloop
endfacet
facet normal -0.9238795325112865 -0.38268343236509056 -0.0
  outer loop
    vertex 95.91905610752288 121.3650734227036 0.0
    vertex 95.51945441750438 122.32979724229351 3.0
    vertex 95.51945441750438 122.32979724229351 0.0
  endloop
endfacet
facet normal -0.7933533402912307 0.6087614290087265 0.0
  outer loop
    vertex 95.51945441750435 118.32979724229352 3.0
    vertex 94.88377992711278 117.50137011754734 0.0
    vertex 94.88377992711278 117.50137011754734 3.0
  endloop
endfacet
facet normal -0.7933533402912307 0.6087614290087265 0.0
  outer loop
    vertex 94.88377992711278 117.50137011754734 0.0
    vertex 95.51945441750435 118.32979724229352 3.0
    vertex 95.51945441750435 118.32979724229352 0.0
  endloop
endfacet
facet normal 0.7933533402912438 0.6087614290087093 0.0
  outer loop
    vertex 88.59125118722885 118.32979724229357 0.0
    vertex 89.2269256776204 117.50137011754737 3.0
    vertex 89.2269256776204 117.50137011754737 0.0
  endloop
endfacet
facet normal 0.7933533402912438 0.6087614290087093 0.0
  outer loop
    vertex 89.2269256776204 117.50137011754737 3.0
    vertex 88.59125118722885 118.32979724229357 0.0
    vertex 88.59125118722885 118.32979724229357 3.0
  endloop
endfacet
facet normal 0.6087614290087179 0.7933533402912372 0.0
  outer loop
    vertex 89.2269256776204 117.50137011754737 3.0
    vertex 90.05535280236658 116.8656956271558 0.0
    vertex 89.2269256776204 117.50137011754737 0.0
  endloop
endfacet
facet normal 0.6087614290087179 0.7933533402912372 0.0
  outer loop
    vertex 90.05535280236658 116.8656956271558 0.0
    vertex 89.2269256776204 117.50137011754737 3.0
    vertex 90.05535280236658 116.8656956271558 3.0
  endloop
endfacet
facet normal -0.38268343236508207 -0.92387953251129 -0.0
  outer loop
    vertex 124.05535280236658 123.79389885743132 3.0
    vertex 123.09062898277666 124.19350054744983 0.0
    vertex 124.05535280236658 123.79389885743132 0.0
  endloop
endfacet
facet normal -0.38268343236508207 -0.92387953251129 -0.0
  outer loop
    vertex 123.09062898277666 124.19350054744983 0.0
    vertex 124.05535280236658 123.79389885743132 3.0
    vertex 123.09062898277666 124.19350054744983 3.0
  endloop
endfacet
facet normal 0.13052619222005143 0.9914448613738105 0.0
  outer loop
    vertex 91.0200766219565 116.46609393713727 3.0
    vertex 92.05535280236658 116.32979724229355 0.0
    vertex 91.0200766219565 116.46609393713727 0.0
  endloop
endfacet
facet normal 0.13052619222005143 0.9914448613738105 0.0
  outer loop
    vertex 92.05535280236658 116.32979724229355 0.0
    vertex 91.0200766219565 116.46609393713727 3.0
    vertex 92.05535280236658 116.32979724229355 3.0
  endloop
endfacet
facet normal -0.9914448613738113 -0.13052619222004544 -0.0
  outer loop
    vertex 95.91905610752288 121.3650734227036 3.0
    vertex 96.05535280236661 120.32979724229352 0.0
    vertex 96.05535280236661 120.32979724229352 3.0
  endloop
endfacet
facet normal -0.9914448613738113 -0.13052619222004544 -0.0
  outer loop
    vertex 96.05535280236661 120.32979724229352 0.0
    vertex 95.91905610752288 121.3650734227036 3.0
    vertex 95.91905610752288 121.3650734227036 0.0
  endloop
endfacet
facet normal -0.6087614290087205 -0.7933533402912353 -0.0
  outer loop
    vertex 94.88377992711281 123.15822436703971 3.0
    vertex 94.05535280236663 123.79389885743127 0.0
    vertex 94.88377992711281 123.15822436703971 0.0
  endloop
endfacet
facet normal -0.6087614290087205 -0.7933533402912353 -0.0
  outer loop
    vertex 94.05535280236663 123.79389885743127 0.0
    vertex 94.88377992711281 123.15822436703971 3.0
    vertex 94.05535280236663 123.79389885743127 3.0
  endloop
endfacet
facet normal 0.13052619222002954 0.9914448613738135 0.0
  outer loop
    vertex 121.02007662195652 116.46609393713725 3.0
    vertex 122.05535280236661 116.32979724229355 0.0
    vertex 121.02007662195652 116.46609393713725 0.0
  endloop
endfacet
facet normal 0.13052619222002954 0.9914448613738135 0.0
  outer loop
    vertex 122.05535280236661 116.32979724229355 0.0
    vertex 121.02007662195652 116.46609393713725 3.0
    vertex 122.05535280236661 116.32979724229355 3.0
  endloop
endfacet
facet normal 0.38268343236508207 -0.92387953251129 0.0
  outer loop
    vertex 121.0200766219565 124.1935005474498 3.0
    vertex 120.05535280236657 123.7938988574313 0.0
    vertex 121.0200766219565 124.1935005474498 0.0
  endloop
endfacet
facet normal 0.38268343236508207 -0.92387953251129 0.0
  outer loop
    vertex 120.05535280236657 123.7938988574313 0.0
    vertex 121.0200766219565 124.1935005474498 3.0
    vertex 120.05535280236657 123.7938988574313 3.0
  endloop
endfacet
facet normal 0.9914448613738113 0.13052619222004544 0.0
  outer loop
    vertex 88.05535280236661 120.32979724229357 0.0
    vertex 88.19164949721032 119.29452106188347 3.0
    vertex 88.19164949721032 119.29452106188347 0.0
  endloop
endfacet
facet normal 0.9914448613738113 0.13052619222004544 0.0
  outer loop
    vertex 88.19164949721032 119.29452106188347 3.0
    vertex 88.05535280236661 120.32979724229357 0.0
    vertex 88.05535280236661 120.32979724229357 3.0
  endloop
endfacet
facet normal -0.9238795325112845 0.3826834323650951 0.0
  outer loop
    vertex 125.9190561075229 119.29452106188347 3.0
    vertex 125.51945441750438 118.32979724229357 0.0
    vertex 125.51945441750438 118.32979724229357 3.0
  endloop
endfacet
facet normal -0.9238795325112845 0.3826834323650951 0.0
  outer loop
    vertex 125.51945441750438 118.32979724229357 0.0
    vertex 125.9190561075229 119.29452106188347 3.0
    vertex 125.9190561075229 119.29452106188347 0.0
  endloop
endfacet
facet normal -0.9914448613738119 0.13052619222004014 0.0
  outer loop
    vertex 126.05535280236661 120.32979724229357 3.0
    vertex 125.9190561075229 119.29452106188347 0.0
    vertex 125.9190561075229 119.29452106188347 3.0
  endloop
endfacet
facet normal -0.9914448613738119 0.13052619222004014 0.0
  outer loop
    vertex 125.9190561075229 119.29452106188347 0.0
    vertex 126.05535280236661 120.32979724229357 3.0
    vertex 126.05535280236661 120.32979724229357 0.0
  endloop
endfacet
facet normal -0.6087614290087153 0.7933533402912393 0.0
  outer loop
    vertex 94.05535280236658 116.86569562715579 3.0
    vertex 94.88377992711278 117.50137011754734 0.0
    vertex 94.05535280236658 116.86569562715579 0.0
  endloop
endfacet
facet normal -0.6087614290087153 0.7933533402912393 0.0
  outer loop
    vertex 94.88377992711278 117.50137011754734 0.0
    vertex 94.05535280236658 116.86569562715579 3.0
    vertex 94.88377992711278 117.50137011754734 3.0
  endloop
endfacet
facet normal -0.13052619222002954 -0.9914448613738135 -0.0
  outer loop
    vertex 123.09062898277666 124.19350054744983 3.0
    vertex 122.05535280236657 124.32979724229354 0.0
    vertex 123.09062898277666 124.19350054744983 0.0
  endloop
endfacet
facet normal -0.13052619222002954 -0.9914448613738135 -0.0
  outer loop
    vertex 122.05535280236657 124.32979724229354 0.0
    vertex 123.09062898277666 124.19350054744983 3.0
    vertex 122.05535280236657 124.32979724229354 3.0
  endloop
endfacet
facet normal 0.6087614290087315 -0.7933533402912268 0.0
  outer loop
    vertex 120.05535280236657 123.7938988574313 3.0
    vertex 119.2269256776204 123.15822436703971 0.0
    vertex 120.05535280236657 123.7938988574313 0.0
  endloop
endfacet
facet normal 0.6087614290087315 -0.7933533402912268 0.0
  outer loop
    vertex 119.2269256776204 123.15822436703971 0.0
    vertex 120.05535280236657 123.7938988574313 3.0
    vertex 119.2269256776204 123.15822436703971 3.0
  endloop
endfacet
endsolid spacers
