solid spacers
facet normal -0.7933533402912281 -0.60876142900873 -0.0
  outer loop
    vertex 66.25679057348262 123.42170735533345 1.9999999999999998
    vertex 66.89246506387418 122.59328023058727 0.0
    vertex 66.89246506387418 122.59328023058727 1.9999999999999998
  endloop
endfacet
facet normal -0.7933533402912281 -0.60876142900873 -0.0
  outer loop
    vertex 66.89246506387418 122.59328023058727 0.0
    vertex 66.25679057348262 123.42170735533345 1.9999999999999998
    vertex 66.25679057348262 123.42170735533345 0.0
  endloop
endfacet
facet normal -0.9914448613738119 0.13052619222004014 0.0
  outer loop
    vertex 67.42836344873643 120.59328023058727 1.9999999999999998
    vertex 67.29206675389273 119.55800405017719 0.0
    vertex 67.29206675389273 119.55800405017719 1.9999999999999998
  endloop
endfacet
facet normal -0.9914448613738119 0.13052619222004014 0.0
  outer loop
    vertex 67.29206675389273 119.55800405017719 0.0
    vertex 67.42836344873643 120.59328023058727 1.9999999999999998
    vertex 67.42836344873643 120.59328023058727 0.0
  endloop
endfacet
facet normal -0.9238795325112845 0.3826834323650951 0.0
  outer loop
    vertex 67.29206675389273 119.55800405017719 1.9999999999999998
    vertex 66.8924650638742 118.59328023058728 0.0
    vertex 66.8924650638742 118.59328023058728 1.9999999999999998
  endloop
endfacet
facet normal -0.9238795325112845 0.3826834323650951 0.0
  outer loop
    vertex 66.8924650638742 118.59328023058728 0.0
    vertex 67.29206675389273 119.55800405017719 1.9999999999999998
    vertex 67.29206675389273 119.55800405017719 0.0
  endloop
endfacet
facet normal -0.7933533402912413 0.6087614290087128 0.0
  outer loop
    vertex 66.8924650638742 118.59328023058728 1.9999999999999998
    vertex 66.25679057348265 117.76485310584108 0.0
    vertex 66.25679057348265 117.76485310584108 1.9999999999999998
  endloop
endfacet
facet normal -0.7933533402912413 0.6087614290087128 0.0
  outer loop
    vertex 66.25679057348265 117.76485310584108 0.0
    vertex 66.8924650638742 118.59328023058728 1.9999999999999998
    vertex 66.8924650638742 118.59328023058728 0.0
  endloop
endfacet
facet normal -0.9238795325112807 -0.3826834323651044 -0.0
  outer loop
    vertex 66.89246506387418 122.59328023058727 1.9999999999999998
    vertex 67.29206675389271 121.62855641099736 0.0
    vertex 67.29206675389271 121.62855641099736 1.9999999999999998
  endloop
endfacet
facet normal -0.9238795325112807 -0.3826834323651044 -0.0
  outer loop
    vertex 67.29206675389271 121.62855641099736 0.0
    vertex 66.89246506387418 122.59328023058727 1.9999999999999998
    vertex 66.89246506387418 122.59328023058727 0.0
  endloop
endfacet
facet normal -0.38268343236508207 0.92387953251129 0.0
  outer loop
    vertex 64.46363962914654 116.72957692543099 1.9999999999999998
    vertex 65.42836344873646 117.12917861544949 0.0
    vertex 64.46363962914654 116.72957692543099 0.0
  endloop
endfacet
facet normal -0.38268343236508207 0.92387953251129 0.0
  outer loop
    vertex 65.42836344873646 117.12917861544949 0.0
    vertex 64.46363962914654 116.72957692543099 1.9999999999999998
    vertex 65.42836344873646 117.12917861544949 1.9999999999999998
  endloop
endfacet
facet normal 0.6087614290087315 0.7933533402912268 0.0
  outer loop
    vertex 60.59993632399026 117.76485310584106 1.9999999999999998
    vertex 61.428363448736455 117.12917861544948 0.0
    vertex 60.59993632399026 117.76485310584106 0.0
  endloop
endfacet
facet normal 0.6087614290087315 0.7933533402912268 0.0
  outer loop
    vertex 61.428363448736455 117.12917861544948 0.0
    vertex 60.59993632399026 117.76485310584106 1.9999999999999998
    vertex 61.428363448736455 117.12917861544948 1.9999999999999998
  endloop
endfacet
facet normal 0.38268343236508207 0.92387953251129 0.0
  outer loop
    vertex 61.428363448736455 117.12917861544948 1.9999999999999998
    vertex 62.39308726832637 116.72957692543096 0.0
    vertex 61.428363448736455 117.12917861544948 0.0
  endloop
endfacet
facet normal 0.38268343236508207 0.92387953251129 0.0
  outer loop
    vertex 62.39308726832637 116.72957692543096 0.0
    vertex 61.428363448736455 117.12917861544948 1.9999999999999998
    vertex 62.39308726832637 116.72957692543096 1.9999999999999998
  endloop
endfacet
facet normal -0.6087614290087315 -0.7933533402912268 -0.0
  outer loop
    vertex 66.25679057348262 123.42170735533345 1.9999999999999998
    vertex 65.42836344873642 124.05738184572503 0.0
    vertex 66.25679057348262 123.42170735533345 0.0
  endloop
endfacet
facet normal -0.6087614290087315 -0.7933533402912268 -0.0
  outer loop
    vertex 65.42836344873642 124.05738184572503 0.0
    vertex 66.25679057348262 123.42170735533345 1.9999999999999998
    vertex 65.42836344873642 124.05738184572503 1.9999999999999998
  endloop
endfacet
facet normal 0.3826834323651025 0.9238795325112816 0.0
  outer loop
    vertex 31.428363448736423 117.12917861544952 1.9999999999999998
    vertex 32.39308726832633 116.72957692543099 0.0
    vertex 31.428363448736423 117.12917861544952 0.0
  endloop
endfacet
facet normal 0.3826834323651025 0.9238795325112816 0.0
  outer loop
    vertex 32.39308726832633 116.72957692543099 0.0
    vertex 31.428363448736423 117.12917861544952 1.9999999999999998
    vertex 32.39308726832633 116.72957692543099 1.9999999999999998
  endloop
endfacet
facet normal 0.13052619222005143 0.9914448613738105 0.0
  outer loop
    vertex 32.39308726832633 116.72957692543099 1.9999999999999998
    vertex 33.42836344873642 116.59328023058725 0.0
    vertex 32.39308726832633 116.72957692543099 0.0
  endloop
endfacet
facet normal 0.13052619222005143 0.9914448613738105 0.0
  outer loop
    vertex 33.42836344873642 116.59328023058725 0.0
    vertex 32.39308726832633 116.72957692543099 1.9999999999999998
    vertex 33.42836344873642 116.59328023058725 1.9999999999999998
  endloop
endfacet
facet normal -0.13052619222002954 -0.9914448613738135 -0.0
  outer loop
    vertex 64.4636396291465 124.45698353574355 1.9999999999999998
    vertex 63.42836344873641 124.59328023058724 0.0
    vertex 64.4636396291465 124.45698353574355 0.0
  endloop
endfacet
facet normal -0.13052619222002954 -0.9914448613738135 -0.0
  outer loop
    vertex 63.42836344873641 124.59328023058724 0.0
    vertex 64.4636396291465 124.45698353574355 1.9999999999999998
    vertex 63.42836344873641 124.59328023058724 1.9999999999999998
  endloop
endfacet
facet normal -0.38268343236508207 -0.92387953251129 -0.0
  outer loop
    vertex 65.42836344873642 124.05738184572503 1.9999999999999998
    vertex 64.4636396291465 124.45698353574355 0.0
    vertex 65.42836344873642 124.05738184572503 0.0
  endloop
endfacet
facet normal -0.38268343236508207 -0.92387953251129 -0.0
  outer loop
    vertex 64.4636396291465 124.45698353574355 0.0
    vertex 65.42836344873642 124.05738184572503 1.9999999999999998
    vertex 64.4636396291465 124.45698353574355 1.9999999999999998
  endloop
endfacet
facet normal 0.38268343236508207 -0.92387953251129 0.0
  outer loop
    vertex 62.39308726832633 124.45698353574352 1.9999999999999998
    vertex 61.42836344873642 124.057381845725 0.0
    vertex 62.39308726832633 124.45698353574352 0.0
  endloop
endfacet
facet normal 0.38268343236508207 -0.92387953251129 0.0
  outer loop
    vertex 61.42836344873642 124.057381845725 0.0
    vertex 62.39308726832633 124.45698353574352 1.9999999999999998
    vertex 61.42836344873642 124.057381845725 1.9999999999999998
  endloop
endfacet
facet normal 0.9238795325112884 -0.38268343236508595 0.0
  outer loop
    vertex 59.96426183359867 122.59328023058723 0.0
    vertex 59.56466014358016 121.62855641099732 1.9999999999999998
    vertex 59.56466014358016 121.62855641099732 0.0
  endloop
endfacet
facet normal 0.9238795325112884 -0.38268343236508595 0.0
  outer loop
    vertex 59.56466014358016 121.62855641099732 1.9999999999999998
    vertex 59.96426183359867 122.59328023058723 0.0
    vertex 59.96426183359867 122.59328023058723 1.9999999999999998
  endloop
endfacet
facet normal -0.13052619222003092 0.9914448613738132 0.0
  outer loop
    vertex 33.42836344873642 116.59328023058725 1.9999999999999998
    vertex 34.4636396291465 116.72957692543096 0.0
    vertex 33.42836344873642 116.59328023058725 0.0
  endloop
endfacet
facet normal -0.13052619222003092 0.9914448613738132 0.0
  outer loop
    vertex 34.4636396291465 116.72957692543096 0.0
    vertex 33.42836344873642 116.59328023058725 1.9999999999999998
    vertex 34.4636396291465 116.72957692543096 1.9999999999999998
  endloop
endfacet
facet normal 0.6087614290087315 -0.7933533402912268 0.0
  outer loop
    vertex 61.42836344873642 124.057381845725 1.9999999999999998
    vertex 60.59993632399023 123.42170735533342 0.0
    vertex 61.42836344873642 124.057381845725 0.0
  endloop
endfacet
facet normal 0.6087614290087315 -0.7933533402912268 0.0
  outer loop
    vertex 60.59993632399023 123.42170735533342 0.0
    vertex 61.42836344873642 124.057381845725 1.9999999999999998
    vertex 60.59993632399023 123.42170735533342 1.9999999999999998
  endloop
endfacet
facet normal -0.13052619222005216 0.9914448613738104 0.0
  outer loop
    vertex 63.42836344873646 116.59328023058725 1.9999999999999998
    vertex 64.46363962914654 116.72957692543099 0.0
    vertex 63.42836344873646 116.59328023058725 0.0
  endloop
endfacet
facet normal -0.13052619222005216 0.9914448613738104 0.0
  outer loop
    vertex 64.46363962914654 116.72957692543099 0.0
    vertex 63.42836344873646 116.59328023058725 1.9999999999999998
    vertex 64.46363962914654 116.72957692543099 1.9999999999999998
  endloop
endfacet
facet normal 0.13052619222002954 0.9914448613738135 0.0
  outer loop
    vertex 62.39308726832637 116.72957692543096 1.9999999999999998
    vertex 63.42836344873646 116.59328023058725 0.0
    vertex 62.39308726832637 116.72957692543096 0.0
  endloop
endfacet
facet normal 0.13052619222002954 0.9914448613738135 0.0
  outer loop
    vertex 63.42836344873646 116.59328023058725 0.0
    vertex 62.39308726832637 116.72957692543096 1.9999999999999998
    vertex 63.42836344873646 116.59328023058725 1.9999999999999998
  endloop
endfacet
facet normal 0.13052619222005216 -0.9914448613738104 0.0
  outer loop
    vertex 63.42836344873641 124.59328023058724 1.9999999999999998
    vertex 62.39308726832633 124.45698353574352 0.0
    vertex 63.42836344873641 124.59328023058724 0.0
  endloop
endfacet
facet normal 0.13052619222005216 -0.9914448613738104 0.0
  outer loop
    vertex 62.39308726832633 124.45698353574352 0.0
    vertex 63.42836344873641 124.59328023058724 1.9999999999999998
    vertex 62.39308726832633 124.45698353574352 1.9999999999999998
  endloop
endfacet
facet normal -0.6087614290087315 0.7933533402912268 0.0
  outer loop
    vertex 65.42836344873646 117.12917861544949 1.9999999999999998
    vertex 66.25679057348265 117.76485310584108 0.0
    vertex 65.42836344873646 117.12917861544949 0.0
  endloop
endfacet
facet normal -0.6087614290087315 0.7933533402912268 0.0
  outer loop
    vertex 66.25679057348265 117.76485310584108 0.0
    vertex 65.42836344873646 117.12917861544949 1.9999999999999998
    vertex 66.25679057348265 117.76485310584108 1.9999999999999998
  endloop
endfacet
facet normal 0.7933533402912281 0.60876142900873 0.0
  outer loop
    vertex 59.96426183359869 118.59328023058724 0.0
    vertex 60.59993632399026 117.76485310584106 1.9999999999999998
    vertex 60.59993632399026 117.76485310584106 0.0
  endloop
endfacet
facet normal 0.7933533402912281 0.60876142900873 0.0
  outer loop
    vertex 60.59993632399026 117.76485310584106 1.9999999999999998
    vertex 59.96426183359869 118.59328023058724 0.0
    vertex 59.96426183359869 118.59328023058724 1.9999999999999998
  endloop
endfacet
facet normal 0.9914448613738106 -0.13052619222005077 0.0
  outer loop
    vertex 59.56466014358016 121.62855641099732 0.0
    vertex 59.428363448736434 120.59328023058723 1.9999999999999998
    vertex 59.428363448736434 120.59328023058723 0.0
  endloop
endfacet
facet normal 0.9914448613738106 -0.13052619222005077 0.0
  outer loop
    vertex 59.428363448736434 120.59328023058723 1.9999999999999998
    vertex 59.56466014358016 121.62855641099732 0.0
    vertex 59.56466014358016 121.62855641099732 1.9999999999999998
  endloop
endfacet
facet normal 0.9238795325112845 0.3826834323650951 0.0
  outer loop
    vertex 59.56466014358017 119.55800405017713 0.0
    vertex 59.96426183359869 118.59328023058724 1.9999999999999998
    vertex 59.96426183359869 118.59328023058724 0.0
  endloop
endfacet
facet normal 0.9238795325112845 0.3826834323650951 0.0
  outer loop
    vertex 59.96426183359869 118.59328023058724 1.9999999999999998
    vertex 59.56466014358017 119.55800405017713 0.0
    vertex 59.56466014358017 119.55800405017713 1.9999999999999998
  endloop
endfacet
facet normal 0.7933533402912413 -0.6087614290087128 0.0
  outer loop
    vertex 60.59993632399023 123.42170735533342 0.0
    vertex 59.96426183359867 122.59328023058723 1.9999999999999998
    vertex 59.96426183359867 122.59328023058723 0.0
  endloop
endfacet
facet normal 0.7933533402912413 -0.6087614290087128 0.0
  outer loop
    vertex 59.96426183359867 122.59328023058723 1.9999999999999998
    vertex 60.59993632399023 123.42170735533342 0.0
    vertex 60.59993632399023 123.42170735533342 1.9999999999999998
  endloop
endfacet
facet normal -0.9914448613738106 -0.13052619222005077 -0.0
  outer loop
    vertex 67.29206675389271 121.62855641099736 1.9999999999999998
    vertex 67.42836344873643 120.59328023058727 0.0
    vertex 67.42836344873643 120.59328023058727 1.9999999999999998
  endloop
endfacet
facet normal -0.9914448613738106 -0.13052619222005077 -0.0
  outer loop
    vertex 67.42836344873643 120.59328023058727 0.0
    vertex 67.29206675389271 121.62855641099736 1.9999999999999998
    vertex 67.29206675389271 121.62855641099736 0.0
  endloop
endfacet
facet normal 0.6087614290087179 0.7933533402912372 0.0
  outer loop
    vertex 30.59993632399023 117.76485310584108 1.9999999999999998
    vertex 31.428363448736423 117.12917861544952 0.0
    vertex 30.59993632399023 117.76485310584108 0.0
  endloop
endfacet
facet normal 0.6087614290087179 0.7933533402912372 0.0
  outer loop
    vertex 31.428363448736423 117.12917861544952 0.0
    vertex 30.59993632399023 117.76485310584108 1.9999999999999998
    vertex 31.428363448736423 117.12917861544952 1.9999999999999998
  endloop
endfacet
facet normal 0.7933533402912438 0.6087614290087093 0.0
  outer loop
    vertex 29.96426183359868 118.59328023058728 0.0
    vertex 30.59993632399023 117.76485310584108 1.9999999999999998
    vertex 30.59993632399023 117.76485310584108 0.0
  endloop
endfacet
facet normal 0.7933533402912438 0.6087614290087093 0.0
  outer loop
    vertex 30.59993632399023 117.76485310584108 1.9999999999999998
    vertex 29.96426183359868 118.59328023058728 0.0
    vertex 29.96426183359868 118.59328023058728 1.9999999999999998
  endloop
endfacet
facet normal 0.9238795325112865 0.38268343236509056 0.0
  outer loop
    vertex 29.564660143580163 119.55800405017719 0.0
    vertex 29.96426183359868 118.59328023058728 1.9999999999999998
    vertex 29.96426183359868 118.59328023058728 0.0
  endloop
endfacet
facet normal 0.9238795325112865 0.38268343236509056 0.0
  outer loop
    vertex 29.96426183359868 118.59328023058728 1.9999999999999998
    vertex 29.564660143580163 119.55800405017719 0.0
    vertex 29.564660143580163 119.55800405017719 1.9999999999999998
  endloop
endfacet
facet normal 0.9914448613738113 0.13052619222004544 0.0
  outer loop
    vertex 29.42836344873644 120.59328023058727 0.0
    vertex 29.564660143580163 119.55800405017719 1.9999999999999998
    vertex 29.564660143580163 119.55800405017719 0.0
  endloop
endfacet
facet normal 0.9914448613738113 0.13052619222004544 0.0
  outer loop
    vertex 29.564660143580163 119.55800405017719 1.9999999999999998
    vertex 29.42836344873644 120.59328023058727 0.0
    vertex 29.42836344873644 120.59328023058727 1.9999999999999998
  endloop
endfacet
facet normal 0.9914448613738099 -0.13052619222005607 0.0
  outer loop
    vertex 29.564660143580173 121.62855641099736 0.0
    vertex 29.42836344873644 120.59328023058727 1.9999999999999998
    vertex 29.42836344873644 120.59328023058727 0.0
  endloop
endfacet
facet normal 0.9914448613738099 -0.13052619222005607 0.0
  outer loop
    vertex 29.42836344873644 120.59328023058727 1.9999999999999998
    vertex 29.564660143580173 121.62855641099736 0.0
    vertex 29.564660143580173 121.62855641099736 1.9999999999999998
  endloop
endfacet
facet normal 0.9238795325112826 -0.3826834323650997 0.0
  outer loop
    vertex 29.9642618335987 122.59328023058727 0.0
    vertex 29.564660143580173 121.62855641099736 1.9999999999999998
    vertex 29.564660143580173 121.62855641099736 0.0
  endloop
endfacet
facet normal 0.9238795325112826 -0.3826834323650997 0.0
  outer loop
    vertex 29.564660143580173 121.62855641099736 1.9999999999999998
    vertex 29.9642618335987 122.59328023058727 0.0
    vertex 29.9642618335987 122.59328023058727 1.9999999999999998
  endloop
endfacet
facet normal 0.7933533402912307 -0.6087614290087265 0.0
  outer loop
    vertex 30.599936323990267 123.42170735533345 0.0
    vertex 29.9642618335987 122.59328023058727 1.9999999999999998
    vertex 29.9642618335987 122.59328023058727 0.0
  endloop
endfacet
facet normal 0.7933533402912307 -0.6087614290087265 0.0
  outer loop
    vertex 29.9642618335987 122.59328023058727 1.9999999999999998
    vertex 30.599936323990267 123.42170735533345 0.0
    vertex 30.599936323990267 123.42170735533345 1.9999999999999998
  endloop
endfacet
facet normal 0.6087614290087153 -0.7933533402912393 0.0
  outer loop
    vertex 31.428363448736462 124.057381845725 1.9999999999999998
    vertex 30.599936323990267 123.42170735533345 0.0
    vertex 31.428363448736462 124.057381845725 0.0
  endloop
endfacet
facet normal 0.6087614290087153 -0.7933533402912393 0.0
  outer loop
    vertex 30.599936323990267 123.42170735533345 0.0
    vertex 31.428363448736462 124.057381845725 1.9999999999999998
    vertex 30.599936323990267 123.42170735533345 1.9999999999999998
  endloop
endfacet
facet normal 0.38268343236510055 -0.9238795325112824 0.0
  outer loop
    vertex 32.393087268326376 124.45698353574355 1.9999999999999998
    vertex 31.428363448736462 124.057381845725 0.0
    vertex 32.393087268326376 124.45698353574355 0.0
  endloop
endfacet
facet normal 0.38268343236510055 -0.9238795325112824 0.0
  outer loop
    vertex 31.428363448736462 124.057381845725 0.0
    vertex 32.393087268326376 124.45698353574355 1.9999999999999998
    vertex 31.428363448736462 124.057381845725 1.9999999999999998
  endloop
endfacet
facet normal 0.13052619222003023 -0.9914448613738134 0.0
  outer loop
    vertex 33.42836344873646 124.59328023058724 1.9999999999999998
    vertex 32.393087268326376 124.45698353574355 0.0
    vertex 33.42836344873646 124.59328023058724 0.0
  endloop
endfacet
facet normal 0.13052619222003023 -0.9914448613738134 0.0
  outer loop
    vertex 32.393087268326376 124.45698353574355 0.0
    vertex 33.42836344873646 124.59328023058724 1.9999999999999998
    vertex 32.393087268326376 124.45698353574355 1.9999999999999998
  endloop
endfacet
facet normal -0.13052619222005143 -0.9914448613738105 -0.0
  outer loop
    vertex 34.46363962914655 124.45698353574352 1.9999999999999998
    vertex 33.42836344873646 124.59328023058724 0.0
    vertex 34.46363962914655 124.45698353574352 0.0
  endloop
endfacet
facet normal -0.13052619222005143 -0.9914448613738105 -0.0
  outer loop
    vertex 33.42836344873646 124.59328023058724 0.0
    vertex 34.46363962914655 124.45698353574352 1.9999999999999998
    vertex 33.42836344873646 124.59328023058724 1.9999999999999998
  endloop
endfacet
facet normal -0.3826834323651025 -0.9238795325112816 -0.0
  outer loop
    vertex 35.42836344873646 124.05738184572499 1.9999999999999998
    vertex 34.46363962914655 124.45698353574352 0.0
    vertex 35.42836344873646 124.05738184572499 0.0
  endloop
endfacet
facet normal -0.3826834323651025 -0.9238795325112816 -0.0
  outer loop
    vertex 34.46363962914655 124.45698353574352 0.0
    vertex 35.42836344873646 124.05738184572499 1.9999999999999998
    vertex 34.46363962914655 124.45698353574352 1.9999999999999998
  endloop
endfacet
facet normal -0.6087614290087205 -0.7933533402912353 -0.0
  outer loop
    vertex 36.25679057348265 123.42170735533342 1.9999999999999998
    vertex 35.42836344873646 124.05738184572499 0.0
    vertex 36.25679057348265 123.42170735533342 0.0
  endloop
endfacet
facet normal -0.6087614290087205 -0.7933533402912353 -0.0
  outer loop
    vertex 35.42836344873646 124.05738184572499 0.0
    vertex 36.25679057348265 123.42170735533342 1.9999999999999998
    vertex 35.42836344873646 124.05738184572499 1.9999999999999998
  endloop
endfacet
facet normal -0.7933533402912413 -0.6087614290087128 -0.0
  outer loop
    vertex 36.25679057348265 123.42170735533342 1.9999999999999998
    vertex 36.892465063874205 122.59328023058723 0.0
    vertex 36.892465063874205 122.59328023058723 1.9999999999999998
  endloop
endfacet
facet normal -0.7933533402912413 -0.6087614290087128 -0.0
  outer loop
    vertex 36.892465063874205 122.59328023058723 0.0
    vertex 36.25679057348265 123.42170735533342 1.9999999999999998
    vertex 36.25679057348265 123.42170735533342 0.0
  endloop
endfacet
facet normal -0.9238795325112865 -0.38268343236509056 -0.0
  outer loop
    vertex 36.892465063874205 122.59328023058723 1.9999999999999998
    vertex 37.29206675389272 121.62855641099732 0.0
    vertex 37.29206675389272 121.62855641099732 1.9999999999999998
  endloop
endfacet
facet normal -0.9238795325112865 -0.38268343236509056 -0.0
  outer loop
    vertex 37.29206675389272 121.62855641099732 0.0
    vertex 36.892465063874205 122.59328023058723 1.9999999999999998
    vertex 36.892465063874205 122.59328023058723 0.0
  endloop
endfacet
facet normal -0.9914448613738113 -0.13052619222004544 -0.0
  outer loop
    vertex 37.29206675389272 121.62855641099732 1.9999999999999998
    vertex 37.42836344873644 120.59328023058723 0.0
    vertex 37.42836344873644 120.59328023058723 1.9999999999999998
  endloop
endfacet
facet normal -0.9914448613738113 -0.13052619222004544 -0.0
  outer loop
    vertex 37.42836344873644 120.59328023058723 0.0
    vertex 37.29206675389272 121.62855641099732 1.9999999999999998
    vertex 37.29206675389272 121.62855641099732 0.0
  endloop
endfacet
facet normal -0.9914448613738099 0.13052619222005607 0.0
  outer loop
    vertex 37.42836344873644 120.59328023058723 1.9999999999999998
    vertex 37.292066753892705 119.55800405017713 0.0
    vertex 37.292066753892705 119.55800405017713 1.9999999999999998
  endloop
endfacet
facet normal -0.9914448613738099 0.13052619222005607 0.0
  outer loop
    vertex 37.292066753892705 119.55800405017713 0.0
    vertex 37.42836344873644 120.59328023058723 1.9999999999999998
    vertex 37.42836344873644 120.59328023058723 0.0
  endloop
endfacet
facet normal -0.9238795325112826 0.3826834323650997 0.0
  outer loop
    vertex 37.292066753892705 119.55800405017713 1.9999999999999998
    vertex 36.892465063874184 118.59328023058724 0.0
    vertex 36.892465063874184 118.59328023058724 1.9999999999999998
  endloop
endfacet
facet normal -0.9238795325112826 0.3826834323650997 0.0
  outer loop
    vertex 36.892465063874184 118.59328023058724 0.0
    vertex 37.292066753892705 119.55800405017713 1.9999999999999998
    vertex 37.292066753892705 119.55800405017713 0.0
  endloop
endfacet
facet normal -0.7933533402912307 0.6087614290087265 0.0
  outer loop
    vertex 36.892465063874184 118.59328023058724 1.9999999999999998
    vertex 36.25679057348262 117.76485310584106 0.0
    vertex 36.25679057348262 117.76485310584106 1.9999999999999998
  endloop
endfacet
facet normal -0.7933533402912307 0.6087614290087265 0.0
  outer loop
    vertex 36.25679057348262 117.76485310584106 0.0
    vertex 36.892465063874184 118.59328023058724 1.9999999999999998
    vertex 36.892465063874184 118.59328023058724 0.0
  endloop
endfacet
facet normal -0.6087614290087153 0.7933533402912393 0.0
  outer loop
    vertex 35.42836344873642 117.12917861544949 1.9999999999999998
    vertex 36.25679057348262 117.76485310584106 0.0
    vertex 35.42836344873642 117.12917861544949 0.0
  endloop
endfacet
facet normal -0.6087614290087153 0.7933533402912393 0.0
  outer loop
    vertex 36.25679057348262 117.76485310584106 0.0
    vertex 35.42836344873642 117.12917861544949 1.9999999999999998
    vertex 36.25679057348262 117.76485310584106 1.9999999999999998
  endloop
endfacet
facet normal -0.3826834323650986 0.9238795325112831 0.0
  outer loop
    vertex 34.4636396291465 116.72957692543096 1.9999999999999998
    vertex 35.42836344873642 117.12917861544949 0.0
    vertex 34.4636396291465 116.72957692543096 0.0
  endloop
endfacet
facet normal -0.3826834323650986 0.9238795325112831 0.0
  outer loop
    vertex 35.42836344873642 117.12917861544949 0.0
    vertex 34.4636396291465 116.72957692543096 1.9999999999999998
    vertex 35.42836344873642 117.12917861544949 1.9999999999999998
  endloop
endfacet
facet normal 1.0 0.0 0.0
  outer loop
    vertex 73.42836344873643 128.09328023058723 0.0
    vertex 73.42836344873643 115.09328023058724 1.9999999999999998
    vertex 73.42836344873643 115.09328023058724 0.0
  endloop
endfacet
facet normal 1.0 0.0 0.0
  outer loop
    vertex 73.42836344873643 115.09328023058724 1.9999999999999998
    vertex 73.42836344873643 128.09328023058723 0.0
    vertex 73.42836344873643 128.09328023058723 1.9999999999999998
  endloop
endfacet
facet normal 0.0 1.0 0.0
  outer loop
    vertex 23.428363448736444 128.09328023058723 1.9999999999999998
    vertex 73.42836344873643 128.09328023058723 0.0
    vertex 23.428363448736444 128.09328023058723 0.0
  endloop
endfacet
facet normal 0.0 1.0 0.0
  outer loop
    vertex 73.42836344873643 128.09328023058723 0.0
    vertex 23.428363448736444 128.09328023058723 1.9999999999999998
    vertex 73.42836344873643 128.09328023058723 1.9999999999999998
  endloop
endfacet
facet normal -1.0 0.0 0.0
  outer loop
    vertex 23.428363448736444 128.09328023058723 1.9999999999999998
    vertex 23.428363448736444 115.09328023058724 0.0
    vertex 23.428363448736444 115.09328023058724 1.9999999999999998
  endloop
endfacet
facet normal -1.0 0.0 0.0
  outer loop
    vertex 23.428363448736444 115.09328023058724 0.0
    vertex 23.428363448736444 128.09328023058723 1.9999999999999998
    vertex 23.428363448736444 128.09328023058723 0.0
  endloop
endfacet
facet normal -0.0 -1.0 -0.0
  outer loop
    vertex 73.42836344873643 115.09328023058724 1.9999999999999998
    vertex 23.428363448736444 115.09328023058724 0.0
    vertex 73.42836344873643 115.09328023058724 0.0
  endloop
endfacet
facet normal -0.0 -1.0 -0.0
  outer loop
    vertex 23.428363448736444 115.09328023058724 0.0
    vertex 73.42836344873643 115.09328023058724 1.9999999999999998
    vertex 23.428363448736444 115.09328023058724 1.9999999999999998
  endloop
endfacet
facet normal 0.0 0.0 1.0
  outer loop
    vertex 23.428363448736444 115.09328023058724 1.9999999999999998
    vertex 29.96426183359868 118.59328023058728 1.9999999999999998
    vertex 23.428363448736444 128.09328023058723 1.9999999999999998
  endloop
endfacet
facet normal 0.0 0.0 1.0
  outer loop
    vertex 29.96426183359868 118.59328023058728 1.9999999999999998
    vertex 23.428363448736444 115.09328023058724 1.9999999999999998
    vertex 30.59993632399023 117.76485310584108 1.9999999999999998
  endloop
endfacet
facet normal 0.0 0.0 1.0
  outer loop
    vertex 30.59993632399023 117.76485310584108 1.9999999999999998
    vertex 23.428363448736444 115.09328023058724 1.9999999999999998
    vertex 31.428363448736423 117.12917861544952 1.9999999999999998
  endloop
endfacet
facet normal 0.0 0.0 1.0
  outer loop
    vertex 31.428363448736423 117.12917861544952 1.9999999999999998
    vertex 23.428363448736444 115.09328023058724 1.9999999999999998
    vertex 32.39308726832633 116.72957692543099 1.9999999999999998
  endloop
endfacet
facet normal 0.0 0.0 1.0
  outer loop
    vertex 32.39308726832633 116.72957692543099 1.9999999999999998
    vertex 23.428363448736444 115.09328023058724 1.9999999999999998
    vertex 33.42836344873642 116.59328023058725 1.9999999999999998
  endloop
endfacet
facet normal 0.0 0.0 1.0
  outer loop
    vertex 33.42836344873642 116.59328023058725 1.9999999999999998
    vertex 23.428363448736444 115.09328023058724 1.9999999999999998
    vertex 73.42836344873643 115.09328023058724 1.9999999999999998
  endloop
endfacet
facet normal 0.0 0.0 1.0
  outer loop
    vertex 23.428363448736444 128.09328023058723 1.9999999999999998
    vertex 29.96426183359868 118.59328023058728 1.9999999999999998
    vertex 29.564660143580163 119.55800405017719 1.9999999999999998
  endloop
endfacet
facet normal 0.0 0.0 1.0
  outer loop
    vertex 23.428363448736444 128.09328023058723 1.9999999999999998
    vertex 29.564660143580163 119.55800405017719 1.9999999999999998
    vertex 29.42836344873644 120.59328023058727 1.9999999999999998
  endloop
endfacet
facet normal 0.0 0.0 1.0
  outer loop
    vertex 33.42836344873642 116.59328023058725 1.9999999999999998
    vertex 73.42836344873643 115.09328023058724 1.9999999999999998
    vertex 34.4636396291465 116.72957692543096 1.9999999999999998
  endloop
endfacet
facet normal 0.0 0.0 1.0
  outer loop
    vertex 34.4636396291465 116.72957692543096 1.9999999999999998
    vertex 73.42836344873643 115.09328023058724 1.9999999999999998
    vertex 35.42836344873642 117.12917861544949 1.9999999999999998
  endloop
endfacet
facet normal 0.0 0.0 1.0
  outer loop
    vertex 35.42836344873642 117.12917861544949 1.9999999999999998
    vertex 73.42836344873643 115.09328023058724 1.9999999999999998
    vertex 36.25679057348262 117.76485310584106 1.9999999999999998
  endloop
endfacet
facet normal 0.0 0.0 1.0
  outer loop
    vertex 36.25679057348262 117.76485310584106 1.9999999999999998
    vertex 73.42836344873643 115.09328023058724 1.9999999999999998
    vertex 36.892465063874184 118.59328023058724 1.9999999999999998
  endloop
endfacet
facet normal 0.0 0.0 1.0
  outer loop
    vertex 36.892465063874184 118.59328023058724 1.9999999999999998
    vertex 73.42836344873643 115.09328023058724 1.9999999999999998
    vertex 37.292066753892705 119.55800405017713 1.9999999999999998
  endloop
endfacet
facet normal 0.0 0.0 1.0
  outer loop
    vertex 37.292066753892705 119.55800405017713 1.9999999999999998
    vertex 73.42836344873643 115.09328023058724 1.9999999999999998
    vertex 62.39308726832637 116.72957692543096 1.9999999999999998
  endloop
endfacet
facet normal 0.0 0.0 1.0
  outer loop
    vertex 37.292066753892705 119.55800405017713 1.9999999999999998
    vertex 62.39308726832637 116.72957692543096 1.9999999999999998
    vertex 37.42836344873644 120.59328023058723 1.9999999999999998
  endloop
endfacet
facet normal 0.0 0.0 1.0
  outer loop
    vertex 37.42836344873644 120.59328023058723 1.9999999999999998
    vertex 62.39308726832637 116.72957692543096 1.9999999999999998
    vertex 61.428363448736455 117.12917861544948 1.9999999999999998
  endloop
endfacet
facet normal 0.0 0.0 1.0
  outer loop
    vertex 37.42836344873644 120.59328023058723 1.9999999999999998
    vertex 61.428363448736455 117.12917861544948 1.9999999999999998
    vertex 60.59993632399026 117.76485310584106 1.9999999999999998
  endloop
endfacet
facet normal 0.0 0.0 1.0
  outer loop
    vertex 37.42836344873644 120.59328023058723 1.9999999999999998
    vertex 60.59993632399026 117.76485310584106 1.9999999999999998
    vertex 59.96426183359869 118.59328023058724 1.9999999999999998
  endloop
endfacet
facet normal 0.0 0.0 1.0
  outer loop
    vertex 37.42836344873644 120.59328023058723 1.9999999999999998
    vertex 59.96426183359869 118.59328023058724 1.9999999999999998
    vertex 59.56466014358017 119.55800405017713 1.9999999999999998
  endloop
endfacet
facet normal 0.0 0.0 1.0
  outer loop
    vertex 37.42836344873644 120.59328023058723 1.9999999999999998
    vertex 59.56466014358017 119.55800405017713 1.9999999999999998
    vertex 59.428363448736434 120.59328023058723 1.9999999999999998
  endloop
endfacet
facet normal 0.0 0.0 1.0
  outer loop
    vertex 62.39308726832637 116.72957692543096 1.9999999999999998
    vertex 73.42836344873643 115.09328023058724 1.9999999999999998
    vertex 63.42836344873646 116.59328023058725 1.9999999999999998
  endloop
endfacet
facet normal 0.0 0.0 1.0
  outer loop
    vertex 63.42836344873646 116.59328023058725 1.9999999999999998
    vertex 73.42836344873643 115.09328023058724 1.9999999999999998
    vertex 64.46363962914654 116.72957692543099 1.9999999999999998
  endloop
endfacet
facet normal 0.0 0.0 1.0
  outer loop
    vertex 64.46363962914654 116.72957692543099 1.9999999999999998
    vertex 73.42836344873643 115.09328023058724 1.9999999999999998
    vertex 65.42836344873646 117.12917861544949 1.9999999999999998
  endloop
endfacet
facet normal 0.0 0.0 1.0
  outer loop
    vertex 65.42836344873646 117.12917861544949 1.9999999999999998
    vertex 73.42836344873643 115.09328023058724 1.9999999999999998
    vertex 66.25679057348265 117.76485310584108 1.9999999999999998
  endloop
endfacet
facet normal 0.0 0.0 1.0
  outer loop
    vertex 66.25679057348265 117.76485310584108 1.9999999999999998
    vertex 73.42836344873643 115.09328023058724 1.9999999999999998
    vertex 66.8924650638742 118.59328023058728 1.9999999999999998
  endloop
endfacet
facet normal 0.0 0.0 1.0
  outer loop
    vertex 66.8924650638742 118.59328023058728 1.9999999999999998
    vertex 73.42836344873643 115.09328023058724 1.9999999999999998
    vertex 67.29206675389273 119.55800405017719 1.9999999999999998
  endloop
endfacet
facet normal 0.0 0.0 1.0
  outer loop
    vertex 67.29206675389273 119.55800405017719 1.9999999999999998
    vertex 73.42836344873643 115.09328023058724 1.9999999999999998
    vertex 67.42836344873643 120.59328023058727 1.9999999999999998
  endloop
endfacet
facet normal 0.0 0.0 1.0
  outer loop
    vertex 23.428363448736444 128.09328023058723 1.9999999999999998
    vertex 33.42836344873646 124.59328023058724 1.9999999999999998
    vertex 73.42836344873643 128.09328023058723 1.9999999999999998
  endloop
endfacet
facet normal 0.0 0.0 1.0
  outer loop
    vertex 33.42836344873646 124.59328023058724 1.9999999999999998
    vertex 23.428363448736444 128.09328023058723 1.9999999999999998
    vertex 32.393087268326376 124.45698353574355 1.9999999999999998
  endloop
endfacet
facet normal 0.0 0.0 1.0
  outer loop
    vertex 32.393087268326376 124.45698353574355 1.9999999999999998
    vertex 23.428363448736444 128.09328023058723 1.9999999999999998
    vertex 31.428363448736462 124.057381845725 1.9999999999999998
  endloop
endfacet
facet normal 0.0 0.0 1.0
  outer loop
    vertex 31.428363448736462 124.057381845725 1.9999999999999998
    vertex 23.428363448736444 128.09328023058723 1.9999999999999998
    vertex 30.599936323990267 123.42170735533345 1.9999999999999998
  endloop
endfacet
facet normal 0.0 0.0 1.0
  outer loop
    vertex 30.599936323990267 123.42170735533345 1.9999999999999998
    vertex 23.428363448736444 128.09328023058723 1.9999999999999998
    vertex 29.9642618335987 122.59328023058727 1.9999999999999998
  endloop
endfacet
facet normal 0.0 0.0 1.0
  outer loop
    vertex 29.9642618335987 122.59328023058727 1.9999999999999998
    vertex 23.428363448736444 128.09328023058723 1.9999999999999998
    vertex 29.564660143580173 121.62855641099736 1.9999999999999998
  endloop
endfacet
facet normal 0.0 0.0 1.0
  outer loop
    vertex 29.564660143580173 121.62855641099736 1.9999999999999998
    vertex 23.428363448736444 128.09328023058723 1.9999999999999998
    vertex 29.42836344873644 120.59328023058727 1.9999999999999998
  endloop
endfacet
facet normal 0.0 0.0 1.0
  outer loop
    vertex 73.42836344873643 128.09328023058723 1.9999999999999998
    vertex 33.42836344873646 124.59328023058724 1.9999999999999998
    vertex 34.46363962914655 124.45698353574352 1.9999999999999998
  endloop
endfacet
facet normal 0.0 0.0 1.0
  outer loop
    vertex 73.42836344873643 128.09328023058723 1.9999999999999998
    vertex 34.46363962914655 124.45698353574352 1.9999999999999998
    vertex 35.42836344873646 124.05738184572499 1.9999999999999998
  endloop
endfacet
facet normal 0.0 0.0 1.0
  outer loop
    vertex 73.42836344873643 128.09328023058723 1.9999999999999998
    vertex 35.42836344873646 124.05738184572499 1.9999999999999998
    vertex 36.25679057348265 123.42170735533342 1.9999999999999998
  endloop
endfacet
facet normal 0.0 0.0 1.0
  outer loop
    vertex 73.42836344873643 128.09328023058723 1.9999999999999998
    vertex 36.25679057348265 123.42170735533342 1.9999999999999998
    vertex 36.892465063874205 122.59328023058723 1.9999999999999998
  endloop
endfacet
facet normal 0.0 0.0 1.0
  outer loop
    vertex 73.42836344873643 128.09328023058723 1.9999999999999998
    vertex 36.892465063874205 122.59328023058723 1.9999999999999998
    vertex 37.29206675389272 121.62855641099732 1.9999999999999998
  endloop
endfacet
facet normal 0.0 0.0 1.0
  outer loop
    vertex 73.42836344873643 128.09328023058723 1.9999999999999998
    vertex 37.29206675389272 121.62855641099732 1.9999999999999998
    vertex 37.42836344873644 120.59328023058723 1.9999999999999998
  endloop
endfacet
facet normal 0.0 0.0 1.0
  outer loop
    vertex 73.42836344873643 128.09328023058723 1.9999999999999998
    vertex 37.42836344873644 120.59328023058723 1.9999999999999998
    vertex 62.39308726832633 124.45698353574352 1.9999999999999998
  endloop
endfacet
facet normal 0.0 0.0 1.0
  outer loop
    vertex 62.39308726832633 124.45698353574352 1.9999999999999998
    vertex 37.42836344873644 120.59328023058723 1.9999999999999998
    vertex 61.42836344873642 124.057381845725 1.9999999999999998
  endloop
endfacet
facet normal 0.0 0.0 1.0
  outer loop
    vertex 61.42836344873642 124.057381845725 1.9999999999999998
    vertex 37.42836344873644 120.59328023058723 1.9999999999999998
    vertex 60.59993632399023 123.42170735533342 1.9999999999999998
  endloop
endfacet
facet normal 0.0 0.0 1.0
  outer loop
    vertex 60.59993632399023 123.42170735533342 1.9999999999999998
    vertex 37.42836344873644 120.59328023058723 1.9999999999999998
    vertex 59.96426183359867 122.59328023058723 1.9999999999999998
  endloop
endfacet
facet normal 0.0 0.0 1.0
  outer loop
    vertex 59.96426183359867 122.59328023058723 1.9999999999999998
    vertex 37.42836344873644 120.59328023058723 1.9999999999999998
    vertex 59.56466014358016 121.62855641099732 1.9999999999999998
  endloop
endfacet
facet normal 0.0 0.0 1.0
  outer loop
    vertex 59.56466014358016 121.62855641099732 1.9999999999999998
    vertex 37.42836344873644 120.59328023058723 1.9999999999999998
    vertex 59.428363448736434 120.59328023058723 1.9999999999999998
  endloop
endfacet
facet normal 0.0 0.0 1.0
  outer loop
    vertex 73.42836344873643 128.09328023058723 1.9999999999999998
    vertex 62.39308726832633 124.45698353574352 1.9999999999999998
    vertex 63.42836344873641 124.59328023058724 1.9999999999999998
  endloop
endfacet
facet normal 0.0 0.0 1.0
  outer loop
    vertex 73.42836344873643 128.09328023058723 1.9999999999999998
    vertex 63.42836344873641 124.59328023058724 1.9999999999999998
    vertex 64.4636396291465 124.45698353574355 1.9999999999999998
  endloop
endfacet
facet normal 0.0 0.0 1.0
  outer loop
    vertex 73.42836344873643 128.09328023058723 1.9999999999999998
    vertex 64.4636396291465 124.45698353574355 1.9999999999999998
    vertex 65.42836344873642 124.05738184572503 1.9999999999999998
  endloop
endfacet
facet normal 0.0 0.0 1.0
  outer loop
    vertex 73.42836344873643 128.09328023058723 1.9999999999999998
    vertex 65.42836344873642 124.05738184572503 1.9999999999999998
    vertex 66.25679057348262 123.42170735533345 1.9999999999999998
  endloop
endfacet
facet normal 0.0 0.0 1.0
  outer loop
    vertex 73.42836344873643 128.09328023058723 1.9999999999999998
    vertex 66.25679057348262 123.42170735533345 1.9999999999999998
    vertex 66.89246506387418 122.59328023058727 1.9999999999999998
  endloop
endfacet
facet normal 0.0 0.0 1.0
  outer loop
    vertex 73.42836344873643 128.09328023058723 1.9999999999999998
    vertex 66.89246506387418 122.59328023058727 1.9999999999999998
    vertex 67.29206675389271 121.62855641099736 1.9999999999999998
  endloop
endfacet
facet normal 0.0 0.0 1.0
  outer loop
    vertex 73.42836344873643 128.09328023058723 1.9999999999999998
    vertex 67.29206675389271 121.62855641099736 1.9999999999999998
    vertex 67.42836344873643 120.59328023058727 1.9999999999999998
  endloop
endfacet
facet normal 0.0 0.0 1.0
  outer loop
    vertex 73.42836344873643 128.09328023058723 1.9999999999999998
    vertex 67.42836344873643 120.59328023058727 1.9999999999999998
    vertex 73.42836344873643 115.09328023058724 1.9999999999999998
  endloop
endfacet
facet normal 0.9914448613738093 0.13052619222006137 0.0
  outer loop
    vertex 59.428363448736434 120.59328023058723 0.0
    vertex 59.56466014358017 119.55800405017713 1.9999999999999998
    vertex 59.56466014358017 119.55800405017713 0.0
  endloop
endfacet
facet normal 0.9914448613738093 0.13052619222006137 0.0
  outer loop
    vertex 59.56466014358017 119.55800405017713 1.9999999999999998
    vertex 59.428363448736434 120.59328023058723 0.0
    vertex 59.428363448736434 120.59328023058723 1.9999999999999998
  endloop
endfacet
facet normal 0.0 0.0 -1.0
  outer loop
    vertex 23.428363448736444 128.09328023058723 0.0
    vertex 30.599936323990267 123.42170735533345 0.0
    vertex 23.428363448736444 115.09328023058724 0.0
  endloop
endfacet
facet normal 0.0 0.0 -1.0
  outer loop
    vertex 30.599936323990267 123.42170735533345 0.0
    vertex 23.428363448736444 128.09328023058723 0.0
    vertex 31.428363448736462 124.057381845725 0.0
  endloop
endfacet
facet normal 0.0 0.0 -1.0
  outer loop
    vertex 31.428363448736462 124.057381845725 0.0
    vertex 23.428363448736444 128.09328023058723 0.0
    vertex 32.393087268326376 124.45698353574355 0.0
  endloop
endfacet
facet normal 0.0 0.0 -1.0
  outer loop
    vertex 32.393087268326376 124.45698353574355 0.0
    vertex 23.428363448736444 128.09328023058723 0.0
    vertex 33.42836344873646 124.59328023058724 0.0
  endloop
endfacet
facet normal 0.0 0.0 -1.0
  outer loop
    vertex 33.42836344873646 124.59328023058724 0.0
    vertex 23.428363448736444 128.09328023058723 0.0
    vertex 73.42836344873643 128.09328023058723 0.0
  endloop
endfacet
facet normal 0.0 0.0 -1.0
  outer loop
    vertex 23.428363448736444 115.09328023058724 0.0
    vertex 30.599936323990267 123.42170735533345 0.0
    vertex 29.9642618335987 122.59328023058727 0.0
  endloop
endfacet
facet normal 0.0 0.0 -1.0
  outer loop
    vertex 23.428363448736444 115.09328023058724 0.0
    vertex 29.9642618335987 122.59328023058727 0.0
    vertex 29.564660143580173 121.62855641099736 0.0
  endloop
endfacet
facet normal 0.0 0.0 -1.0
  outer loop
    vertex 23.428363448736444 115.09328023058724 0.0
    vertex 29.564660143580173 121.62855641099736 0.0
    vertex 29.42836344873644 120.59328023058727 0.0
  endloop
endfacet
facet normal 0.0 0.0 -1.0
  outer loop
    vertex 33.42836344873646 124.59328023058724 0.0
    vertex 73.42836344873643 128.09328023058723 0.0
    vertex 34.46363962914655 124.45698353574352 0.0
  endloop
endfacet
facet normal 0.0 0.0 -1.0
  outer loop
    vertex 34.46363962914655 124.45698353574352 0.0
    vertex 73.42836344873643 128.09328023058723 0.0
    vertex 35.42836344873646 124.05738184572499 0.0
  endloop
endfacet
facet normal 0.0 0.0 -1.0
  outer loop
    vertex 35.42836344873646 124.05738184572499 0.0
    vertex 73.42836344873643 128.09328023058723 0.0
    vertex 36.25679057348265 123.42170735533342 0.0
  endloop
endfacet
facet normal 0.0 0.0 -1.0
  outer loop
    vertex 36.25679057348265 123.42170735533342 0.0
    vertex 73.42836344873643 128.09328023058723 0.0
    vertex 36.892465063874205 122.59328023058723 0.0
  endloop
endfacet
facet normal 0.0 0.0 -1.0
  outer loop
    vertex 36.892465063874205 122.59328023058723 0.0
    vertex 73.42836344873643 128.09328023058723 0.0
    vertex 37.29206675389272 121.62855641099732 0.0
  endloop
endfacet
facet normal 0.0 0.0 -1.0
  outer loop
    vertex 37.29206675389272 121.62855641099732 0.0
    vertex 73.42836344873643 128.09328023058723 0.0
    vertex 37.42836344873644 120.59328023058723 0.0
  endloop
endfacet
facet normal 0.0 0.0 -1.0
  outer loop
    vertex 37.42836344873644 120.59328023058723 0.0
    vertex 73.42836344873643 128.09328023058723 0.0
    vertex 62.39308726832633 124.45698353574352 0.0
  endloop
endfacet
facet normal 0.0 0.0 -1.0
  outer loop
    vertex 37.42836344873644 120.59328023058723 0.0
    vertex 62.39308726832633 124.45698353574352 0.0
    vertex 61.42836344873642 124.057381845725 0.0
  endloop
endfacet
facet normal 0.0 0.0 -1.0
  outer loop
    vertex 37.42836344873644 120.59328023058723 0.0
    vertex 61.42836344873642 124.057381845725 0.0
    vertex 60.59993632399023 123.42170735533342 0.0
  endloop
endfacet
facet normal 0.0 0.0 -1.0
  outer loop
    vertex 37.42836344873644 120.59328023058723 0.0
    vertex 60.59993632399023 123.42170735533342 0.0
    vertex 59.96426183359867 122.59328023058723 0.0
  endloop
endfacet
facet normal 0.0 0.0 -1.0
  outer loop
    vertex 37.42836344873644 120.59328023058723 0.0
    vertex 59.96426183359867 122.59328023058723 0.0
    vertex 59.56466014358016 121.62855641099732 0.0
  endloop
endfacet
facet normal 0.0 0.0 -1.0
  outer loop
    vertex 37.42836344873644 120.59328023058723 0.0
    vertex 59.56466014358016 121.62855641099732 0.0
    vertex 59.428363448736434 120.59328023058723 0.0
  endloop
endfacet
facet normal 0.0 0.0 -1.0
  outer loop
    vertex 62.39308726832633 124.45698353574352 0.0
    vertex 73.42836344873643 128.09328023058723 0.0
    vertex 63.42836344873641 124.59328023058724 0.0
  endloop
endfacet
facet normal 0.0 0.0 -1.0
  outer loop
    vertex 63.42836344873641 124.59328023058724 0.0
    vertex 73.42836344873643 128.09328023058723 0.0
    vertex 64.4636396291465 124.45698353574355 0.0
  endloop
endfacet
facet normal 0.0 0.0 -1.0
  outer loop
    vertex 64.4636396291465 124.45698353574355 0.0
    vertex 73.42836344873643 128.09328023058723 0.0
    vertex 65.42836344873642 124.05738184572503 0.0
  endloop
endfacet
facet normal 0.0 0.0 -1.0
  outer loop
    vertex 65.42836344873642 124.05738184572503 0.0
    vertex 73.42836344873643 128.09328023058723 0.0
    vertex 66.25679057348262 123.42170735533345 0.0
  endloop
endfacet
facet normal 0.0 0.0 -1.0
  outer loop
    vertex 66.25679057348262 123.42170735533345 0.0
    vertex 73.42836344873643 128.09328023058723 0.0
    vertex 66.89246506387418 122.59328023058727 0.0
  endloop
endfacet
facet normal 0.0 0.0 -1.0
  outer loop
    vertex 66.89246506387418 122.59328023058727 0.0
    vertex 73.42836344873643 128.09328023058723 0.0
    vertex 67.29206675389271 121.62855641099736 0.0
  endloop
endfacet
facet normal 0.0 0.0 -1.0
  outer loop
    vertex 67.29206675389271 121.62855641099736 0.0
    vertex 73.42836344873643 128.09328023058723 0.0
    vertex 67.42836344873643 120.59328023058727 0.0
  endloop
endfacet
facet normal 0.0 0.0 -1.0
  outer loop
    vertex 23.428363448736444 115.09328023058724 0.0
    vertex 33.42836344873642 116.59328023058725 0.0
    vertex 73.42836344873643 115.09328023058724 0.0
  endloop
endfacet
facet normal 0.0 0.0 -1.0
  outer loop
    vertex 33.42836344873642 116.59328023058725 0.0
    vertex 23.428363448736444 115.09328023058724 0.0
    vertex 32.39308726832633 116.72957692543099 0.0
  endloop
endfacet
facet normal 0.0 0.0 -1.0
  outer loop
    vertex 32.39308726832633 116.72957692543099 0.0
    vertex 23.428363448736444 115.09328023058724 0.0
    vertex 31.428363448736423 117.12917861544952 0.0
  endloop
endfacet
facet normal 0.0 0.0 -1.0
  outer loop
    vertex 31.428363448736423 117.12917861544952 0.0
    vertex 23.428363448736444 115.09328023058724 0.0
    vertex 30.59993632399023 117.76485310584108 0.0
  endloop
endfacet
facet normal 0.0 0.0 -1.0
  outer loop
    vertex 30.59993632399023 117.76485310584108 0.0
    vertex 23.428363448736444 115.09328023058724 0.0
    vertex 29.96426183359868 118.59328023058728 0.0
  endloop
endfacet
facet normal 0.0 0.0 -1.0
  outer loop
    vertex 29.96426183359868 118.59328023058728 0.0
    vertex 23.428363448736444 115.09328023058724 0.0
    vertex 29.564660143580163 119.55800405017719 0.0
  endloop
endfacet
facet normal 0.0 0.0 -1.0
  outer loop
    vertex 29.564660143580163 119.55800405017719 0.0
    vertex 23.428363448736444 115.09328023058724 0.0
    vertex 29.42836344873644 120.59328023058727 0.0
  endloop
endfacet
facet normal 0.0 0.0 -1.0
  outer loop
    vertex 73.42836344873643 115.09328023058724 0.0
    vertex 33.42836344873642 116.59328023058725 0.0
    vertex 34.4636396291465 116.72957692543096 0.0
  endloop
endfacet
facet normal 0.0 0.0 -1.0
  outer loop
    vertex 73.42836344873643 115.09328023058724 0.0
    vertex 34.4636396291465 116.72957692543096 0.0
    vertex 35.42836344873642 117.12917861544949 0.0
  endloop
endfacet
facet normal 0.0 0.0 -1.0
  outer loop
    vertex 73.42836344873643 115.09328023058724 0.0
    vertex 35.42836344873642 117.12917861544949 0.0
    vertex 36.25679057348262 117.76485310584106 0.0
  endloop
endfacet
facet normal 0.0 0.0 -1.0
  outer loop
    vertex 73.42836344873643 115.09328023058724 0.0
    vertex 36.25679057348262 117.76485310584106 0.0
    vertex 36.892465063874184 118.59328023058724 0.0
  endloop
endfacet
facet normal 0.0 0.0 -1.0
  outer loop
    vertex 73.42836344873643 115.09328023058724 0.0
    vertex 36.892465063874184 118.59328023058724 0.0
    vertex 37.292066753892705 119.55800405017713 0.0
  endloop
endfacet
facet normal 0.0 0.0 -1.0
  outer loop
    vertex 73.42836344873643 115.09328023058724 0.0
    vertex 37.292066753892705 119.55800405017713 0.0
    vertex 62.39308726832637 116.72957692543096 0.0
  endloop
endfacet
facet normal 0.0 0.0 -1.0
  outer loop
    vertex 62.39308726832637 116.72957692543096 0.0
    vertex 37.292066753892705 119.55800405017713 0.0
    vertex 37.42836344873644 120.59328023058723 0.0
  endloop
endfacet
facet normal 0.0 0.0 -1.0
  outer loop
    vertex 62.39308726832637 116.72957692543096 0.0
    vertex 37.42836344873644 120.59328023058723 0.0
    vertex 61.428363448736455 117.12917861544948 0.0
  endloop
endfacet
facet normal 0.0 0.0 -1.0
  outer loop
    vertex 61.428363448736455 117.12917861544948 0.0
    vertex 37.42836344873644 120.59328023058723 0.0
    vertex 60.59993632399026 117.76485310584106 0.0
  endloop
endfacet
facet normal 0.0 0.0 -1.0
  outer loop
    vertex 60.59993632399026 117.76485310584106 0.0
    vertex 37.42836344873644 120.59328023058723 0.0
    vertex 59.96426183359869 118.59328023058724 0.0
  endloop
endfacet
facet normal 0.0 0.0 -1.0
  outer loop
    vertex 59.96426183359869 118.59328023058724 0.0
    vertex 37.42836344873644 120.59328023058723 0.0
    vertex 59.56466014358017 119.55800405017713 0.0
  endloop
endfacet
facet normal 0.0 0.0 -1.0
  outer loop
    vertex 59.56466014358017 119.55800405017713 0.0
    vertex 37.42836344873644 120.59328023058723 0.0
    vertex 59.428363448736434 120.59328023058723 0.0
  endloop
endfacet
facet normal 0.0 0.0 -1.0
  outer loop
    vertex 73.42836344873643 115.09328023058724 0.0
    vertex 62.39308726832637 116.72957692543096 0.0
    vertex 63.42836344873646 116.59328023058725 0.0
  endloop
endfacet
facet normal 0.0 0.0 -1.0
  outer loop
    vertex 73.42836344873643 115.09328023058724 0.0
    vertex 63.42836344873646 116.59328023058725 0.0
    vertex 64.46363962914654 116.72957692543099 0.0
  endloop
endfacet
facet normal 0.0 0.0 -1.0
  outer loop
    vertex 73.42836344873643 115.09328023058724 0.0
    vertex 64.46363962914654 116.72957692543099 0.0
    vertex 65.42836344873646 117.12917861544949 0.0
  endloop
endfacet
facet normal 0.0 0.0 -1.0
  outer loop
    vertex 73.42836344873643 115.09328023058724 0.0
    vertex 65.42836344873646 117.12917861544949 0.0
    vertex 66.25679057348265 117.76485310584108 0.0
  endloop
endfacet
facet normal 0.0 0.0 -1.0
  outer loop
    vertex 73.42836344873643 115.09328023058724 0.0
    vertex 66.25679057348265 117.76485310584108 0.0
    vertex 66.8924650638742 118.59328023058728 0.0
  endloop
endfacet
facet normal 0.0 0.0 -1.0
  outer loop
    vertex 73.42836344873643 115.09328023058724 0.0
    vertex 66.8924650638742 118.59328023058728 0.0
    vertex 67.29206675389273 119.55800405017719 0.0
  endloop
endfacet
facet normal 0.0 0.0 -1.0
  outer loop
    vertex 73.42836344873643 115.09328023058724 0.0
    vertex 67.29206675389273 119.55800405017719 0.0
    vertex 67.42836344873643 120.59328023058727 0.0
  endloop
endfacet
facet normal 0.0 0.0 -1.0
  outer loop
    vertex 73.42836344873643 115.09328023058724 0.0
    vertex 67.42836344873643 120.59328023058727 0.0
    vertex 73.42836344873643 128.09328023058723 0.0
  endloop
endfacet
endsolid spacers
